<svg xmlns="http://www.w3.org/2000/svg" viewBox="0 0 446 95"><defs><style>.a{fill:#2c4486;}.b{fill:#cdcccc;}</style></defs><title>eurosender-ai</title><path class="a" d="M121.9,50.4c.7,8.5,4.6,12.6,11.4,12.6a18.311,18.311,0,0,0,9.2-2.1l1.6,4c-2.3,1.4-6.2,2.6-11.3,2.6-9.8,0-16.7-6.2-16.7-19.5,0-12.7,6.2-19.3,15.1-19.3s14.4,5.8,14.2,18.3ZM131,32.6c-5.4,0-9.4,4.4-9.3,14.5l17.9-2.7C139.6,35.9,136.4,32.6,131,32.6Z"/><path class="a" d="M167.1,67.5c-9.4,0-13.3-4.7-13.3-12.2v-26h6.1V55.5c0,4.4,2.4,7.7,7.5,7.7a12.93908,12.93908,0,0,0,6.7-1.5V29.3h6.1V64.5C177.5,66.1,173.1,67.5,167.1,67.5Z"/><path class="a" d="M204.8,33.3c-3.1-.9-6.5-.6-8.5.7V66.7h-6.1V31.3c3.7-1.9,7.2-2.9,16.1-2.6Z"/><path class="a" d="M225.7,67.4c-10.2,0-14.6-8.4-14.6-19.4,0-11.2,4.5-19.4,14.6-19.4,10.3,0,14.7,8.3,14.7,19.4C240.3,59,235.8,67.4,225.7,67.4Zm0-34.9c-7.1,0-8.5,8-8.5,15.6s1.5,15.1,8.5,15.1,8.5-7.6,8.5-15.1-1.4-15.6-8.5-15.6Z"/><path class="a" d="M255.9,67.3c-4,0-7.6-1-9.6-2.6l1.7-4a11.87411,11.87411,0,0,0,7.3,2.2c4.2,0,6.9-2.9,6.9-6.5,0-3.9-2.1-5.6-6.2-7.1-7.3-2.7-8.8-6.6-8.8-10.5,0-5.6,4.4-10.3,11.2-10.3a16.17107,16.17107,0,0,1,8.8,2.6l-1.6,3.7a10.76018,10.76018,0,0,0-6.2-2.1c-4.1,0-6.2,2.7-6.2,5.9,0,3.6,2.6,5.3,6.2,6.7,7.3,2.8,9.1,6.7,9.1,11C268.5,62,263.6,67.3,255.9,67.3Z"/><path class="a" d="M281,50.4c.7,8.5,4.6,12.6,11.4,12.6a18.31109,18.31109,0,0,0,9.2-2.1l1.6,4c-2.3,1.4-6.2,2.6-11.3,2.6-9.8,0-16.7-6.2-16.7-19.5,0-12.7,6.2-19.3,15.1-19.3s14.4,5.8,14.2,18.3Zm9.1-17.8c-5.4,0-9.4,4.4-9.3,14.5l17.9-2.7C298.7,35.9,295.4,32.6,290.1,32.6Z"/><path class="a" d="M334,66.7V39.9c0-3.5-1.5-7.3-7.8-7.3a16.1693,16.1693,0,0,0-7.2,1.3V66.7h-6.1V31.3c3.3-1.6,7.7-2.6,13.7-2.6,10.4,0,13.5,5.8,13.5,11.1v27Z"/><path class="a" d="M364.9,67.4c-10.7,0-16.5-7.5-16.5-18.8,0-12.4,6.6-19.6,16.2-19.6a23.31482,23.31482,0,0,1,5.9.8V12.2h6V64.8C374.1,66.3,370.1,67.4,364.9,67.4Zm5.7-34.2a18.32189,18.32189,0,0,0-4.6-.7c-8.7,0-11.5,7.5-11.5,15.6,0,8.8,3,15.3,10.7,15.3a10.78192,10.78192,0,0,0,5.4-1Z"/><path class="a" d="M390.8,50.4c.7,8.5,4.6,12.6,11.4,12.6a18.311,18.311,0,0,0,9.2-2.1l1.6,4c-2.3,1.4-6.2,2.6-11.3,2.6-9.8,0-16.7-6.2-16.7-19.5,0-12.7,6.2-19.3,15.1-19.3s14.4,5.8,14.2,18.3Zm9.1-17.8c-5.4,0-9.4,4.4-9.3,14.5l17.9-2.7C408.5,35.9,405.2,32.6,399.9,32.6Z"/><path class="a" d="M437.4,33.3c-3-.9-6.5-.6-8.5.7V66.7h-6.1V31.3c3.7-1.9,7.2-2.9,16.1-2.6Z"/><polygon class="a" points="57.2 4 57.2 18 68.1 18 49.1 36.9 59 46.8 79.2 26.6 79.2 40 93.2 40 93.2 4 57.2 4"/><polygon class="b" points="79.2 76 21.1 76 21.1 18 43.2 18 43.2 4 7.2 4 7.2 90 93.2 90 93.2 54 79.2 54 79.2 76"/></svg>