<svg xmlns="http://www.w3.org/2000/svg" xmlns:xlink="http://www.w3.org/1999/xlink" viewBox="0 0 300 79.62901"><defs><style>.a{fill:url(#a);}</style><linearGradient id="a" x1="30.81661" y1="21.81369" x2="220.72552" y2="21.81369" gradientTransform="matrix(1.5797, 0, 0, -1.5797, -48.68115, 74.27369)" gradientUnits="userSpaceOnUse"><stop offset="0" stop-color="#52c3e7"/><stop offset="1" stop-color="#0089cc"/></linearGradient></defs><title>Revolut</title><path class="a" d="M30.8183,11.68981a104.63137,104.63137,0,0,0-14.84923,1.26377h0A104.63137,104.63137,0,0,1,30.8183,11.68981m3.79129,8.84635H31.13423a39.68659,39.68659,0,0,0-.63188,4.2652L27.97483,40.1245H32.24c5.529,0,9.6362-4.58115,9.6362-11.53184,0-4.89709-2.84347-8.0565-7.26664-8.0565m47.07519,16.5869c-2.52752,0-4.2652,4.89709-5.213,8.84635H77.8935c3.15941,0,5.68693-2.05362,6.00287-4.58115v-.94782a3.62684,3.62684,0,0,0-.63188-2.21159,1.56934,1.56934,0,0,0-1.57971-1.10579m82.61857.63188c-.158,0-.158-.158-.31594-.158a.94981.94981,0,0,0-.63188-.158,1.79373,1.79373,0,0,0-1.26377.47391c-.158.158-.31594.158-.47392.31594s-.158.31594-.31593.31594a10.26728,10.26728,0,0,0-1.73768,3.47535c-.158.158-.158.47391-.31593.78986-.31594.78985-.47392,1.73767-.78985,2.52752-.158.63188-.31594,1.42174-.47392,2.05362a49.41354,49.41354,0,0,0-.63189,6.9507,25.59453,25.59453,0,0,0,.158,3.47535,1.42417,1.42417,0,0,0,.158.78986l.47392,1.89564.47391.94782c.47392.94782.94782,1.42174,1.57971,1.42174a1.42413,1.42413,0,0,0,.78985-.158,3.30454,3.30454,0,0,0,.94782-.63189,16.28984,16.28984,0,0,0,2.68549-5.529l.47392-1.89565.47392-2.36956a23.56907,23.56907,0,0,0,.31593-3.31737,21.17141,21.17141,0,0,0,.158-3.15941,16.876,16.876,0,0,0-.94782-6.79273,1.89046,1.89046,0,0,0-.78985-1.26377M285.30874,51.65636l.78985-5.371c3.47535-.31595,6.16084-.94782,8.21446-2.36956A11.58836,11.58836,0,0,0,300,33.48975a18.82751,18.82751,0,0,0-2.21158-8.84634,8.90293,8.90293,0,0,0-7.74054-4.58115H289.574a8.98593,8.98593,0,0,0-8.84635-8.53041,89.89449,89.89449,0,0,0-13.11156.94782c-3.79128.63189-6.79273,4.10723-7.4246,7.89853,0,.158-10.1101,0-16.74488,0-5.213,0-7.89853,2.52752-7.89853,2.52752s-2.52753-3.31738-9.32025-2.52752a69.24767,69.24767,0,0,0-9.79416,1.26376,108.56992,108.56992,0,0,0,1.26377-12.3217V9.00431A9.07157,9.07157,0,0,0,208.851,0h0a99.4681,99.4681,0,0,0-17.69269,1.73767A9.16474,9.16474,0,0,0,184.36562,10.9c.158,3.7913-1.57971,15.16517-1.57971,15.16517a24.32851,24.32851,0,0,0-15.955-5.371A35.01377,35.01377,0,0,0,150.402,24.64339a8.77622,8.77622,0,0,0-6.79274-3.00144h0c-5.055,0-8.84634,0-12.47967.31595a8.77076,8.77076,0,0,0-6.9507,4.2652c-.158-.158-.158-.31594-.31594-.47391a8.903,8.903,0,0,0-7.74056-4.58115c-6.63475,0-18.1666,1.89565-18.64051,2.21159a28.73214,28.73214,0,0,0-12.63764-2.52752,33.06993,33.06993,0,0,0-18.1666,4.89708C65.72979,12.3217,54.19794,3.15941,37.769,3.15941c0,0-20.06225.78985-23.69557,1.57971a8.85626,8.85626,0,0,0-6.9507,9.16228,50.03921,50.03921,0,0,1-.78985,9.47823L.488,60.9766c-.47391,2.21159-1.5797,9.00432,2.6855,14.05938,1.73768,2.05362,4.89709,4.42318,10.42605,4.42318,2.52753,0,9.32026-.31594,14.84923-2.84348a9.53081,9.53081,0,0,0,3.63332-3.00144c3.00144,3.47535,7.42461,6.00289,13.9014,6.00289a36.35712,36.35712,0,0,0,16.271-3.94927,28.29523,28.29523,0,0,0,15.16517,3.94927c9.63619,0,18.64051-3.7913,24.32745-10.26809,3.15941,8.0565,9.00431,9.95215,13.74343,9.95215A29.41437,29.41437,0,0,0,128.918,76.45772c3.94926-1.89565,5.68693-8.37244,6.47679-9.79417,3.94926,7.89852,11.84778,12.79561,21.79993,12.79561a34.97136,34.97136,0,0,0,21.9579-7.58259,23.109,23.109,0,0,0,1.42173,2.05362c2.05362,2.36956,6.00288,5.213,12.79561,5.213A23.32114,23.32114,0,0,0,207.11336,75.194c2.21157,2.21159,5.8449,4.2652,11.37387,4.2652A25.8491,25.8491,0,0,0,230.335,76.45772a17.50377,17.50377,0,0,0,10.26808,2.84347c6.4768,0,12.3217-2.21159,16.113-6.16085,3.15941,3.15941,8.68837,6.31882,18.1666,6.31882,8.68838,0,17.37675-5.529,21.79993-12.95358,3.47535-5.529-.31593-15.32313-11.37387-14.84922M57.67328,28.43468c-.47391,6.95071-4.89709,12.63764-11.68982,16.271h0l6.16085,16.271c1.73767,4.42318,2.84347,6.16086,4.73911,7.58259a5.61126,5.61126,0,0,1-1.42173.63189,27.62185,27.62185,0,0,1-9.47823,1.42173c-3.15941,0-7.42461-.78985-10.11011-8.53041L31.29221,48.81288H26.71106L24.65745,61.45052a19.60821,19.60821,0,0,0-.47392,4.2652v.31593a6.33867,6.33867,0,0,0,.47392,2.36956h0a29.49026,29.49026,0,0,1-11.05794,2.05362c-2.36955,0-4.58114-.78985-4.73911-4.89708a23.5676,23.5676,0,0,1,.31594-3.31738l5.84491-37.597A53.84294,53.84294,0,0,0,15.8111,15.955V12.95358a84.96549,84.96549,0,0,1,14.84922-1.26377h6.79274a27.88761,27.88761,0,0,1,11.84778,2.36956A17.08365,17.08365,0,0,1,52.14431,15.797a30.33071,30.33071,0,0,1,2.36956,2.21159,17.44249,17.44249,0,0,1,2.36955,4.10723,16.7259,16.7259,0,0,1,.78986,4.89709v1.42173M80.26305,53.71h0c-.63188,0-1.26376.158-1.73767.158H75.99786v.94782c.31594,4.42317,2.21158,8.21446,6.31881,8.21446h.94782c3.94927-.47391,6.31882-3.31737,8.37244-3.31737a7.77747,7.77747,0,0,1,2.6855.94782L96.376,61.92442h0a16.45027,16.45027,0,0,1-5.371,5.05505,24.87453,24.87453,0,0,1-13.74343,3.94927c-10.42605,0-16.74487-5.84491-17.21878-15.16517v-1.5797c0-11.84779,7.74056-24.80137,24.95934-24.80137a21.88641,21.88641,0,0,1,7.26664,1.1058h0c4.10723,1.42173,6.47678,4.42317,6.47678,8.37243.158,4.73912-2.84346,13.42749-18.48254,14.84922m47.865,7.58259a41.894,41.894,0,0,0-3.63332,7.58259,20.18668,20.18668,0,0,1-9.16227,1.73767c-2.68549,0-5.213-1.26377-6.47679-8.21446L104.90645,42.652a62.4979,62.4979,0,0,0-3.63332-11.68982,40.40421,40.40421,0,0,1,4.26519-.78985h0c.31594,0,.63189-.158.94782-.158h.158a3.084,3.084,0,0,0,1.10579-.158h.158c.78985,0,1.5797-.158,2.52752-.158h5.84491a40.39191,40.39191,0,0,1,1.73767,3.79129c.158.47392.31594.78986.47392,1.26377a18.36865,18.36865,0,0,1,.63188,2.84346l2.68549,18.00864c2.21159-4.26521,4.2652-8.68838,6.16085-13.11155a62.77245,62.77245,0,0,0,3.15941-9.16229c.31594-1.10579.47392-2.05361.78986-3.15941a17.16935,17.16935,0,0,1,2.84347-.158h8.84636a26.74068,26.74068,0,0,1-2.05363,7.74056,219.32024,219.32024,0,0,1-13.42749,23.5376m49.12882.158h0a20.53042,20.53042,0,0,1-5.055,4.73911h0c-.31594.31594-.78985.47392-1.10579.78986a.15471.15471,0,0,0-.158.158c-.31593.158-.63188.47391-.94782.63188a.15471.15471,0,0,0-.158.158,7.70237,7.70237,0,0,1-1.10578.47391.15471.15471,0,0,0-.158.158c-.47392.158-.78985.31594-1.26377.47392h0c-.78985.31593-1.73767.63188-2.68549.94782-.158,0-.158,0-.31594.158-.31594.158-.63188.158-.94782.31593a.58036.58036,0,0,0-.47392.158c-.31593,0-.63188.158-.94782.158a.58034.58034,0,0,0-.47391.158c-.31594,0-.63189.158-.94782.158h-5.68695c-.31594,0-.78985-.158-1.10579-.158-.158,0-.47392-.158-.63188-.158-.31595,0-.63189-.158-.94782-.158-.158,0-.47392-.158-.63189-.158-.316-.158-.63188-.158-.78985-.316s-.47392-.158-.63188-.31593c-.31594-.158-.47392-.158-.78986-.31594-.158-.158-.47391-.158-.63188-.316s-.47391-.31593-.63189-.4739a.82065.82065,0,0,0-.63187-.316c-.158-.158-.47391-.31593-.63188-.4739l-.47392-.47392-.4739-.47392-.47392-.4739-.47392-.47392a28357.1425,28357.1425,0,0,0-.94782-1.26375,1.19771,1.19771,0,0,1-.31593-.63189c-.158-.158-.158-.47391-.31595-.63188s-.158-.47392-.31594-.63189-.158-.4739-.31593-.63188c-.158-.31594-.158-.4739-.31595-.78985,0-.158-.158-.47391-.158-.63187,0-.31594-.158-.47392-.158-.78986,0-.158-.158-.47391-.158-.63188a12.194,12.194,0,0,1-.31594-2.36956h0V55.1317a24.85249,24.85249,0,0,1,10.42605-20.69414h0a13.8633,13.8633,0,0,1,3.31738-1.89565h0c1.10578-.47391,2.36955-.94782,3.47534-1.42173h.158c.63188-.158,1.10579-.316,1.73767-.47391h.158c.63188-.158,1.10579-.158,1.73767-.316h.158a7.08467,7.08467,0,0,1,1.73767-.158h4.42318c.47392,0,.78985.158,1.26377.158h.31594c.47391.158.94782.158,1.42173.316.158,0,.31594.158.47392.158.31594.158.63188.158.94782.316.158,0,.31594.158.47392.158.31593.158.78985.316,1.10579.47391.158,0,.31593.158.47391.31595s.47392.31594.63189.47391.31593.158.47391.31594a2.18065,2.18065,0,0,0,.63189.47391c.31593.158.47391.47391.78985.63188l.47391.47391.47392.47391.31594.316c.31593.47391.78985.94782,1.10579,1.42173h0c.158.31594.31593.47391.47391.78985,0,.158.158.158.158.316a17.74986,17.74986,0,0,1,1.89564,8.5304,27.0754,27.0754,0,0,1-5.529,15.16517m31.1202-46.28535q-.47391,3.31739-.94784,6.63476L205.69161,33.1738l-4.42318,28.11874c0,.31594-.158.63188-.158.94782v1.10579c0,.158.158.31594.158.47392v.158c0,.158.158.31594.31594.47392l.158.158.31594.31593.158.158a3.62677,3.62677,0,0,0,2.21158.63189,6.33363,6.33363,0,0,1-2.36956,2.21159c-.158,0-.158.158-.31594.158-.158.158-.47391.31594-.63188.47392a.58034.58034,0,0,1-.47392.158c-.158.158-.47391.158-.63188.31593a10.886,10.886,0,0,1-1.26377.47392c-.158,0-.31594.158-.63189.158a2.00358,2.00358,0,0,1-.94782.158,1.19423,1.19423,0,0,0-.63188.158c-.31594,0-.63188.158-1.10579.158h-4.7391c-.158,0-.31594,0-.31594-.158-.158,0-.158,0-.31593-.158a.55153.55153,0,0,1-.31594-.158.15471.15471,0,0,1-.158-.158c-.158,0-.31593-.158-.47391-.158h-.158a4.93773,4.93773,0,0,1-1.73767-1.42173v-.158c-.158-.158-.158-.31594-.31594-.47392a.15471.15471,0,0,0-.158-.158.58032.58032,0,0,1-.158-.47391v-.158c0-.158-.158-.31594-.158-.63189v-.158c0-.158-.158-.47392-.158-.63189V64.136a10.42993,10.42993,0,0,1,.158-2.21159L192.896,21.642a4.87,4.87,0,0,0,.158-1.5797c.31594-1.89565.47392-3.63332.63188-5.529V9.95214c.31594,0,.47392-.158.78986-.158s.63188-.158.94782-.158c.47391-.158,1.10579-.158,1.73767-.31594a2.0036,2.0036,0,0,0,.94782-.158c.94782-.158,1.89564-.158,3.00144-.31594.78985,0,1.42174-.158,2.21159-.158,1.89564-.158,3.94926-.158,5.8449-.158,0,1.26376-.158,2.84347-.158,4.42317a5.949,5.949,0,0,0-.63187,2.21159m43.12595,50.70852c-1.89564,2.84347-6.00289,4.73911-10.9,4.73911h-1.5797a4.61238,4.61238,0,0,1-1.42173-.31594l-1.42172-.47391c-2.21158-.94782-3.47535-3.15941-2.84347-7.42461l.158-.78985a5.54255,5.54255,0,0,1-.78986,1.26377,26.80127,26.80127,0,0,1-1.5797,2.21159,18.93311,18.93311,0,0,1-1.89564,1.73767c-.31594.31594-.63187.47392-.94784.78985a14.42022,14.42022,0,0,1-2.05362,1.26377,18.42383,18.42383,0,0,1-4.10724,1.5797,7.92909,7.92909,0,0,1-1.89564.31594c-.63187,0-1.10579.158-1.73768.158H217.0655a.94971.94971,0,0,1-.63187-.158.58035.58035,0,0,1-.47392-.158c-.158,0-.31593-.158-.47391-.158s-.31594-.158-.47392-.158a.15472.15472,0,0,1-.158-.158c-3.63333-1.57971-4.73911-5.8449-3.79128-11.53185l2.52754-16.113c0-.47391.158-.94782.158-1.26376V40.7564a1.42407,1.42407,0,0,1,.158-.78986V38.70278a15.32551,15.32551,0,0,0,.158-2.6855V33.48975a18.14023,18.14023,0,0,0-.158-2.84347c.158,0,.31593-.158.63187-.158a1.19409,1.19409,0,0,0,.63187-.158h14.37532c.158,3.47535-.63187,8.21446-1.26377,12.63764l-2.21157,13.58546c0,.31594-.31594,2.68549-.31594,3.31738h0a9.007,9.007,0,0,0,.158,2.05362,4.019,4.019,0,0,0,.31594,1.10579c.158.158.31593.47391.47391.47391h.158a4.08685,4.08685,0,0,0,2.21158-1.42173,21.21876,21.21876,0,0,0,3.47535-4.89709c.31593-.78985.78985-1.42173,1.10579-2.36955.31593-.78986.63187-1.73768.94783-2.52753a4.61219,4.61219,0,0,0,.31593-1.42173L236.022,43.126c.158-1.1058.31594-2.05362.47392-3.00144.158-1.42174.31594-2.84347.47392-4.42317a42.02918,42.02918,0,0,0,.31593-4.73912,131.29873,131.29873,0,0,1,15.0072-.94782A88.09255,88.09255,0,0,1,250.87122,42.81l-3.00143,18.95646c0,2.68549,1.26377,4.10723,3.63333,4.10723m8.84635-5.05505a14.45278,14.45278,0,0,1,.158-2.68549l3.15941-19.74631c-.63187,0-.94783.158-1.26376.158a6.50737,6.50737,0,0,0-1.42173.31594c-.47392.158-1.10579.158-1.5797.31594a25.7685,25.7685,0,0,1,0-8.53041,12.011,12.011,0,0,0,2.21157-.158h3.79129c1.10578-3.00144,2.84347-5.529,3.47534-9.00431.94783-.158,2.21158-.316,3.47535-.47392.63187,0,.94783-.158,1.42172-.158a5.926,5.926,0,0,0,1.57971-.158c1.5797-.158,3.31739-.158,5.371-.158q-.237,4.02825-.94783,9.95214h2.84347c4.42318,0,6.16084-.47391,7.58259-1.57971a9.5199,9.5199,0,0,1,1.26377,4.58115c0,2.21159-.63187,3.63332-7.58259,3.79129h-5.213L275.5146,57.02738v1.26377c0,2.68549,1.26377,4.89708,3.31739,4.89708,3.31739,0,4.10724-2.52753,5.371-2.52753a9.17487,9.17487,0,0,1,4.73911,2.21159,16.53243,16.53243,0,0,1-13.9014,8.21446c-9.1623-.158-14.37533-4.26519-14.69126-10.26808Z"/></svg>