<svg xmlns="http://www.w3.org/2000/svg" viewBox="0 0 300 34.952"><defs><style>.a{fill:#2b4779;}.b{fill:#f4ca35;}</style></defs><title>Ryanair</title><path class="a" d="M64.68655,34.70517,55.305,22.66843H51.776V34.70517H41.01761V3.02481H57.026c11.70507,0,19.194,3.30344,19.194,9.86648,0,4.43545-4.30421,7.19342-10.15565,8.6412l10.32721,13.171H64.68655v.00168Zm-8.17636-26.16H51.776v8.82656h5.33583c5.50941,0,8.34793-1.49546,8.34793-4.391.00109-2.85006-2.49313-4.43545-8.94936-4.43545Z"/><path class="a" d="M103.17,22.75451V34.70216H92.41168V22.84543L76.918,3.02205H88.79691l4.64733,6.42653a40.73231,40.73231,0,0,1,4.47685,7.37761,47.03233,47.03233,0,0,1,4.47577-7.37761l4.64733-6.42653h11.70507L103.16977,22.75417Z"/><path class="a" d="M143.84625,34.70517,141.008,28.09854H127.49711l-2.83936,6.60663H113.64094L129.0467,3.02481h10.501l15.40349,31.68036H143.84625ZM137.05108,19.0473c-1.03364-2.44445-2.4094-6.11209-2.83936-7.69338a66.95445,66.95445,0,0,1-2.7547,7.60128l-1.63524,3.85h8.86462l-1.63524-3.75765Z"/><path class="a" d="M184.221,34.70517,173.11946,20.58526a75.61481,75.61481,0,0,1-4.56159-6.4257c.08549,1.94775.17072,5.2046.17072,7.19451v13.3511H158.9159V3.02757h10.84525L180.34792,16.923c1.46368,1.89789,3.61595,4.84223,4.73316,6.60771-.08549-1.94767-.34313-5.38661-.34313-7.37987V3.02749h9.81161V34.70508h-10.3283Z"/><path class="a" d="M229.28282,34.70517l-2.8427-6.60663h-13.512l-2.83936,6.60663H199.072L214.47658,3.02481H224.9787l15.40575,31.68036H229.28282ZM222.48247,19.0473c-1.03264-2.44445-2.4084-6.11209-2.84044-7.69338a66.74238,66.74238,0,0,1-2.75471,7.60128l-1.63524,3.85h8.8668l-1.63633-3.75765Z"/><path class="a" d="M244.60493,3.01937h10.75616V34.69973H244.60493Z"/><path class="a" d="M288.29625,34.70517,278.9136,22.66843h-3.52795V34.70517h-10.7606V3.02481h16.00927c11.70507,0,19.19209,3.30344,19.19209,9.86648,0,4.43545-4.30119,7.19342-10.15372,8.6412l10.32637,13.171H288.29584v.001Zm-8.17745-26.16h-4.73315v8.82656h5.33475c5.50832,0,8.34793-1.49546,8.34793-4.391,0-2.85006-2.49414-4.43545-8.94936-4.43545Z"/><path class="b" d="M23.40731,1.89564a34.48031,34.48031,0,0,0,6.99333,1.58865l1.67765.01648.05177-.04659a10.76081,10.76081,0,0,0,2.71983-.628c.105-.02468.35692-.088.46391.05512a.48129.48129,0,0,1-.23848.5274,15.097,15.097,0,0,1-3.96208,2.08326V5.4645a11.91747,11.91747,0,0,0-1.36949.42468,15.0894,15.0894,0,0,1-5.31669.68734c-3.40816-.17491-6.30482-1.39275-9.3139-1.24871A8.25806,8.25806,0,0,0,7.77554,8.51255a8.98105,8.98105,0,0,0-1.649,3.748c.08908,1.22428,1.80789,1.69455,2.45181,2.70711a15.76,15.76,0,0,1,.83138,1.92224,36.393,36.393,0,0,0,2.29824,3.765l-.02192.02467A5.6912,5.6912,0,0,0,13.98642,22.657a10.17382,10.17382,0,0,1,3.02163,3.23025l-.0343.01915a31.35992,31.35992,0,0,1,1.73169,3.64c.25738.75618.5412,1.42135.76145,2.15737.07537.06876.07537.17985.11953.27646.2031.58253.376,1.2032.62377,1.74331-.10691.08139.08356.11234.06031.19156.01372.32723.33267.81766-.09319,1.03682a6.998,6.998,0,0,1-1.2794-1.93386A37.75,37.75,0,0,0,16.426,29.29413l.02744-.02468c-.55392-.69578-1.16606-1.47957-1.79944-2.19978-2.67-2.95588-6.594-4.731-9.46213-7.54507l-.02743.02467a5.62814,5.62814,0,0,1-.59943-.75936l.01916-.02743c-.34948-.48926-.5571-1.04745-.895-1.54842l.01915-.02467a24.266,24.266,0,0,1-2.31521-4.11558,13.26891,13.26891,0,0,1-.37709-1.85339l-.06692-.23188c.037-.645-1.56322-1.01883-.68307-2.25591.55283-.59624,2.69222-1.33126,3.42-2.45072A.6018.6018,0,0,0,3.597,5.764c0-.11954-.12413-.2456-.21079-.36965C2.98157,4.89125,1.88436,5.2885,1.90234,4.546c.11234-.00552.00552-.10389.07947-.14638a1.72356,1.72356,0,0,1,.01648-.91821,4.98274,4.98274,0,0,0,.394-1.92441c.04467-.23079.27545-.36855.50833-.45856A11.11758,11.11758,0,0,1,4.20116.86326l.05622.0455a3.45189,3.45189,0,0,1,2.958.80068,2.87919,2.87919,0,0,1-.10172,1.96465c-.05177.35693-.44275.64819-.35157,1.02419a.5962.5962,0,0,0,.6016.0532A17.3796,17.3796,0,0,0,11.419,1.17175,4.88061,4.88061,0,0,1,15.42358.05655c2.87115.2215,5.29778,1.184,7.97411,1.8375Z"/><path class="b" d="M16.00661,7.07606c.40461.538-.13676,1.01248-.29779,1.48593-1.685,2.53019-2.2728,5.39615-3.39118,8.10644a.38036.38036,0,0,1-.36964.08473.86407.86407,0,0,1-.26366-.87061A23.30864,23.30864,0,0,1,13.936,7.56122a1.55268,1.55268,0,0,1,1.43407-.7975,1.20518,1.20518,0,0,1,.63648.31251Z"/><path class="b" d="M20.44708,7.84354c.21514.96588-.47763,1.75811-.78479,2.62237-1.63951,3.27274-3.60741,6.47529-4.57966,9.97363a.50887.50887,0,0,1-.2404.31042.23361.23361,0,0,1-.29127-.12907,8.581,8.581,0,0,1,.4067-4.15916A43.81388,43.81388,0,0,1,18.602,7.78866c.18336-.13977.21188-.25822.44057-.32313a1.49867,1.49867,0,0,1,1.40438.37809Z"/><path class="b" d="M25.18893,8.008c.44166.33267.21381.9617.04032,1.35142-1.92123,4.25452-5.033,7.92308-6.32071,12.38513-.35584.94581-.58671,1.92332-.88224,2.87641-.05211.17156-.30289.17683-.4819.13459a3.6021,3.6021,0,0,1-.12062-1.35569A26.72532,26.72532,0,0,1,20.438,13.21024c.79642-1.559,1.5664-2.9614,2.402-4.48313a1.89166,1.89166,0,0,1,1.20529-.96061,2.20148,2.20148,0,0,1,1.1438.24149Z"/><path class="b" d="M30.45166,8.22731c.308.51578.011,1.0835-.12907,1.577-1.22218,3.41888-3.50762,6.24861-5.34328,9.36351a47.08391,47.08391,0,0,0-3.64665,8.17854c-.36219.83456-.49252,1.7613-.932,2.55453-.03588.08549-.1483.0343-.22534.05621-.27-.22777-.23514-.55283-.2988-.84091.20754-3.478,1.54842-6.62059,2.80757-9.75958,1.57594-3.50026,3.68881-6.84284,5.12513-10.4618a2.03357,2.03357,0,0,1,1.20521-1.18722,1.54363,1.54363,0,0,1,1.43724.52Z"/></svg>