<?xml version="1.0" encoding="utf-8"?>
<!-- Generator: Adobe Illustrator 23.0.2, SVG Export Plug-In . SVG Version: 6.00 Build 0)  -->
<svg version="1.1" id="Layer_1" xmlns="http://www.w3.org/2000/svg" xmlns:xlink="http://www.w3.org/1999/xlink" x="0px" y="0px"
	 viewBox="0 0 320.6 68.1" style="enable-background:new 0 0 320.6 68.1;" xml:space="preserve">
<style type="text/css">
	.st0{fill:#1D1D1B;}
	.st1{display:none;fill:#1D1D1B;}
</style>
<title>Logo_Uniqway_Black_300ppi</title>
<g>
	<g id="Layer_1_1_">
		<path class="st0" d="M184.8,17.7"/>
		<path class="st0" d="M244.7,17.7"/>
		<path class="st0" d="M128.1,10.4V3.6h8.6v6.8H128.1z M128.4,53.8V17.3h8.1v36.5H128.4z"/>
		<path class="st0" d="M301.3,67.9v-6.1h7.3c3.1,0,4-0.7,4-3v-5.4h-12.9c-7.7,0-10.9-1.7-10.9-9.9V17.3h8.1v27.3
			c0,1.9,0.5,2.5,3,2.5h12.8V17.3h8.1v41c0,8.2-3.1,9.8-10.9,9.8C304.5,68.1,301.3,67.9,301.3,67.9z"/>
		<polygon class="st0" points="46.3,24.1 46.4,24.1 46.4,17.3 46.3,17.3 38.3,17.3 9.4,17.3 14,24.1 38.3,24.1 		"/>
		<path class="st0" d="M68.7,3.6v41.2c0,2-0.6,2.5-3.2,2.5h-16c-2.6,0-3.2-0.5-3.2-2.5v-7l0,0V31H18.7l4.7,6.8h14.9V43
			c0,9,2.6,11.1,11,11.1h16.6c8.3,0,10.9-2.1,10.9-11.1V3.6H68.7z"/>
		<path class="st0" d="M86.7,53.8h8.1V24.1h12.8c2.5,0,3,0.5,3,2.6v27.1h8.1V27c0-6-1.7-8.5-5.5-9.5c-0.9-0.2-1.8-0.3-2.7-0.3H86.7
			V53.8z"/>
		<path class="st0" d="M145.9,27v16.8c0,8.3,3.2,9.9,10.9,9.9H171v14.1h8.1V17.3h-25c-0.9,0-1.8,0.1-2.7,0.3
			C147.6,18.5,145.9,21,145.9,27z M157.1,24.1H171v23h-13.9c-2.5,0-3.1-0.4-3.1-2.5v-18C154,24.6,154.6,24.1,157.1,24.1z"/>
		<path class="st0" d="M271.4,17.3h-21.2v6.9h18.1c2.7,0,3.2,0.5,3.2,2.5v5.6h-13.3c-8.1,0-11.2,1.4-11.2,8.1v4.1
			c0,7.1,2.3,9.5,11,9.5h10.1c8.1,0,11.3-0.2,11.3-0.2V27.1c0-5.9-1.3-8.4-4.8-9.4C273.6,17.4,272.5,17.2,271.4,17.3z M271.6,47.5
			H258c-2.7,0-3.2-0.4-3.2-2.4v-4.7c0-2,0.5-2.5,3.2-2.5h13.6V47.5z"/>
		<path class="st0" d="M204.1,37.5c-0.9,2.7-2,6.2-2.6,8.4h-0.1c-0.6-2.4-1.7-6.3-2.5-9.1l-5.8-19.4h-8.4l12,36.5h8.3l6.4-18.5
			c0.9-2.7,1.9-5.6,2.4-7.5h0.1c0.5,1.9,1.5,5.2,2.3,7.4l6.5,18.6h8.2l12-36.5h-8.2l-5.9,19.5c-0.9,2.8-1.9,6.8-2.4,9.1h-0.2
			c-0.5-2-1.7-5.7-2.7-8.4l-6.8-20.2H211L204.1,37.5z"/>
		<polygon class="st0" points="46.4,10.4 46.4,10.4 46.4,3.6 46.4,3.6 38.3,3.6 0,3.6 4.7,10.4 38.3,10.4 		"/>
		<path class="st1" d="M236.2,10.4c-0.9,0-1.4,0-1.4,0v-8h1.3v2.2h2.3c1.2,0,1.8,0.3,1.8,1.6v2.6c0,1.3-0.5,1.6-1.8,1.6H236.2z
			 M238.8,6c0-0.3-0.1-0.4-0.5-0.4h-2.2v3.8h2.2c0.4,0,0.5-0.1,0.5-0.4V6z"/>
		<path class="st1" d="M243.5,12.7v-1h1.2c0.5,0,0.6-0.1,0.6-0.5v-0.9h-2.1c-1.2,0-1.8-0.3-1.8-1.6v-4h1.3V9c0,0.3,0.1,0.4,0.5,0.4
			h2V4.7h1.3v6.5c0,1.3-0.5,1.6-1.7,1.6C244,12.7,243.5,12.7,243.5,12.7z"/>
		<path class="st1" d="M253.1,10.4c-1.1,0-1.7,0-1.7,0v-1h3.8c0.4,0,0.5-0.1,0.5-0.4V7.2c0-0.3-0.1-0.4-0.8-0.4h-1.6
			c-1.6,0-2-0.3-2-1.5V3.9c0-1.2,0.4-1.5,1.7-1.5h1.8c1.1,0,1.7,0,1.7,0v1h-3.4c-0.4,0-0.5,0.1-0.5,0.4v1.5c0,0.4,0.1,0.4,0.8,0.4
			h1.5c1.6,0,2,0.3,2,1.5v1.7c0,1.2-0.3,1.6-1.7,1.6L253.1,10.4z M256.1,0l-1.5,1.7h-1L252.1,0h1.1l0.9,1l0.9-1H256.1z"/>
		<path class="st1" d="M263.3,10.4l-3.5-3.8v3.8h-1.3v-8h1.3V6l3.2-3.6h1.5L261,6.2l4,4.2H263.3z"/>
		<path class="st1" d="M267.6,10.5c-1.3,0-1.7-0.3-1.7-1.8V4.1c0-1.4,0.4-1.8,1.7-1.8h3.1c1.3,0,1.8,0.3,1.8,1.8v4.6
			c0,1.4-0.4,1.8-1.8,1.8H267.6z M271.2,3.8c0-0.3-0.1-0.4-0.5-0.4h-3c-0.4,0-0.5,0.1-0.5,0.4V9c0,0.3,0.1,0.4,0.5,0.4h3
			c0.4,0,0.5-0.1,0.5-0.4V3.8z"/>
		<path class="st1" d="M274.1,10.4v-8h4.4c1.3,0,1.8,0.4,1.8,1.8v4.5c0,1.4-0.4,1.8-1.7,1.8h-4.5V10.4z M278.9,3.8
			c0-0.3-0.1-0.4-0.5-0.4h-3v5.9h3c0.4,0,0.5-0.1,0.5-0.4V3.8z"/>
		<path class="st1" d="M287,10.4l-0.6-1.9H283l-0.6,1.9H281l2.8-8h1.7l2.8,8H287z M283.3,7.5h2.7l-1.4-4l0,0L283.3,7.5z"/>
		<path class="st1" d="M297.5,10.4l-0.6-1.9h-3.4l-0.6,1.9h-1.3l2.8-8h1.7l2.8,8H297.5z M293.7,7.5h2.8l-1.4-4l0,0L293.7,7.5z"/>
		<path class="st1" d="M301.4,10.5c-1.3,0-1.8-0.3-1.8-1.8V2.4h1.3V9c0,0.3,0.1,0.4,0.5,0.4h2.6c0.4,0,0.5-0.1,0.5-0.4V2.4h1.3v6.3
			c0,1.4-0.4,1.8-1.8,1.8L301.4,10.5z"/>
		<path class="st1" d="M309.2,10.4v-7h-2.3v-1h5.9v1h-2.3v7H309.2z"/>
		<path class="st1" d="M315.6,10.5c-1.3,0-1.7-0.3-1.7-1.8V4.1c0-1.4,0.4-1.8,1.7-1.8h3.1c1.3,0,1.8,0.3,1.8,1.8v4.6
			c0,1.4-0.4,1.8-1.8,1.8H315.6z M319.2,3.8c0-0.3-0.1-0.4-0.5-0.4h-3c-0.4,0-0.5,0.1-0.5,0.4V9c0,0.3,0.1,0.4,0.5,0.4h3
			c0.4,0,0.5-0.1,0.5-0.4V3.8z"/>
	</g>
</g>
</svg>
