<svg xmlns="http://www.w3.org/2000/svg" viewBox="0 0 503.191 196.554"><defs><style>.a{fill:#c30;}</style></defs><title>SU-logo</title><path class="a" d="M190.57767,83.73328h2.37592a6.97937,6.97937,0,0,0,2.44792,3.52788,6.093,6.093,0,0,0,3.95986,1.296,5.83581,5.83581,0,0,0,4.17586-1.51195,4.84824,4.84824,0,0,0,1.584-3.74388,4.01543,4.01543,0,0,0-1.152-2.9519,20.28389,20.28389,0,0,0-5.54382-2.8799c-.144-.072-.432-.216-.792-.36a18.75065,18.75065,0,0,1-4.82384-2.51991,7.48623,7.48623,0,0,1-1.87193-2.59192,7.90774,7.90774,0,0,1,1.79994-8.8557,8.85184,8.85184,0,0,1,6.33578-2.23192,15.08508,15.08508,0,0,1,4.39185.648A16.59659,16.59659,0,0,1,207.4251,63.43v5.47182h-2.15993a7.75191,7.75191,0,0,0-2.30392-3.74387,6.41629,6.41629,0,0,0-3.88787-1.224,5.19287,5.19287,0,0,0-3.45588,1.224,4.21922,4.21922,0,0,0-1.44,3.16789c0,2.23192,1.87193,3.95986,5.47181,5.32782.576.216,1.008.36,1.296.504a14.73371,14.73371,0,0,1,6.04779,3.59988,7.46,7.46,0,0,1,1.79994,5.18382,8.51053,8.51053,0,0,1-2.51991,6.40779,9.55125,9.55125,0,0,1-6.91177,2.44792,15.57152,15.57152,0,0,1-4.46385-.648,17.7372,17.7372,0,0,1-4.31985-1.94394Z"/><path class="a" d="M221.60862,91.149c-2.66391,0-4.31985-.36-4.89583-.936-.648-.648-.936-2.30392-.936-4.96783V72.06967H211.961V69.47776h3.81587V63.718h3.59988v5.75981h4.89583v2.59191H219.3767V85.46122c0,1.43995.216,2.37592.576,2.66391a5.31285,5.31285,0,0,0,2.7359.432h1.58395V91.149Z"/><path class="a" d="M244.43185,91.149H240.616V89.63708l-.36-.072a7.64962,7.64962,0,0,1-5.54381,2.15993,5.9629,5.9629,0,0,1-3.67188-1.08,6.26361,6.26361,0,0,1-2.66391-4.89583,33.55058,33.55058,0,0,1-.144-4.46385V69.47776h3.67187V82.65331c0,2.30393.288,3.88787.864,4.67985a3.36323,3.36323,0,0,0,3.0239,1.29595,5.3348,5.3348,0,0,0,2.30392-.504,10.45673,10.45673,0,0,0,2.59192-1.584V69.47776h3.74387Z"/><path class="a" d="M266.6071,91.149h-3.67188V89.49308l-.432-.216a11.08487,11.08487,0,0,1-2.44792,1.94394,6.81435,6.81435,0,0,1-2.66391.576,6.70606,6.70606,0,0,1-5.8318-3.0959,14.35731,14.35731,0,0,1-2.15993-8.35172,14.35731,14.35731,0,0,1,2.15993-8.35172,6.741,6.741,0,0,1,5.7598-3.16789,5.81776,5.81776,0,0,1,2.66391.648,9.12634,9.12634,0,0,1,2.51992,1.79994l.432-.072V60.83805h3.67188V91.149m-3.67188-4.82384V74.3016a7.92321,7.92321,0,0,0-2.37591-1.65595,4.90019,4.90019,0,0,0-2.23193-.576,4.28725,4.28725,0,0,0-3.81587,2.08793,11.842,11.842,0,0,0-1.296,6.19179,11.72839,11.72839,0,0,0,1.296,6.1198,4.28725,4.28725,0,0,0,3.81587,2.08793,5.44441,5.44441,0,0,0,2.30392-.576A10.71367,10.71367,0,0,0,262.93522,86.32519Z"/><path class="a" d="M288.85435,80.70938v.648H275.3908a8.32324,8.32324,0,0,0,1.58395,5.39982,5.74242,5.74242,0,0,0,4.53585,1.79994,7.98471,7.98471,0,0,0,2.9519-.576,10.277,10.277,0,0,0,2.8799-1.87193h1.512v3.67187a23.8338,23.8338,0,0,1-3.95987,1.584,14.20153,14.20153,0,0,1-3.45588.432c-3.23989,0-5.68781-.936-7.34375-2.87991s-2.51992-4.67984-2.51992-8.35171.792-6.55178,2.44792-8.63971a8.31572,8.31572,0,0,1,6.76777-3.0959,7.49186,7.49186,0,0,1,5.8318,2.37592,8.915,8.915,0,0,1,2.23193,6.40778v3.0959m-3.59988-2.51991a9.59107,9.59107,0,0,0-1.08-5.18383,4.13506,4.13506,0,0,0-3.52788-1.584,4.42765,4.42765,0,0,0-3.81587,1.87194,9.86137,9.86137,0,0,0-1.44,5.39982l9.86367.072Z"/><path class="a" d="M293.67819,69.47776h3.81587v1.43995l.36.072a10.42873,10.42873,0,0,1,2.59191-1.656,9.379,9.379,0,0,1,2.9519-.504,5.85781,5.85781,0,0,1,4.82384,2.08793c1.152,1.36795,1.65594,3.38389,1.65594,5.9758V91.149h-3.59988V77.97347a9.06511,9.06511,0,0,0-.936-4.75184,3.36322,3.36322,0,0,0-3.0239-1.296,7.03022,7.03022,0,0,0-2.37592.504,15.45341,15.45341,0,0,0-2.51991,1.584V91.149h-3.74387Z"/><path class="a" d="M323.55718,91.149c-2.66391,0-4.31986-.36-4.96783-.936-.576-.648-.936-2.30392-.936-4.96783V72.06967H313.9095V69.47776h3.74388V63.718h3.67187v5.75981h4.89584v2.59191h-4.89584V85.46122c0,1.43995.216,2.37592.576,2.66391a5.16482,5.16482,0,0,0,2.66391.432h1.656V91.149Z"/><path class="a" d="M328.597,86.1092h1.94393a5.48442,5.48442,0,0,0,2.08793,2.15992,7.185,7.185,0,0,0,3.0239.72,4.70317,4.70317,0,0,0,3.09589-1.008,3.01166,3.01166,0,0,0,1.152-2.51991c0-1.584-1.65595-2.9519-4.89584-3.95987l-.36-.144a9.56264,9.56264,0,0,1-4.46385-2.44792,4.94191,4.94191,0,0,1-1.368-3.67187,5.46657,5.46657,0,0,1,2.08793-4.53585,8.44771,8.44771,0,0,1,5.61581-1.72794,14.36132,14.36132,0,0,1,2.9519.36,18.30587,18.30587,0,0,1,3.23989.936v4.24786h-1.65594a7.29133,7.29133,0,0,0-2.08793-2.30392,5.57418,5.57418,0,0,0-2.87991-.792,3.74034,3.74034,0,0,0-2.51991.936,2.89709,2.89709,0,0,0-1.08,2.23193,3.03514,3.03514,0,0,0,.936,2.23192,15.01146,15.01146,0,0,0,4.31986,1.72794,9.14834,9.14834,0,0,1,4.39185,2.44792,5.76662,5.76662,0,0,1,1.44,3.88787,6.572,6.572,0,0,1-2.08793,4.96783,7.96938,7.96938,0,0,1-5.54381,1.87194,17.95148,17.95148,0,0,1-4.10386-.432,10.82743,10.82743,0,0,1-3.23989-1.224Z"/><path class="a" d="M348.10835,60.83805h3.67187V75.38156c0,.72,0,1.512-.072,2.23192s-.144,1.44-.216,2.08793l.864.432c.432-.792.792-1.43995,1.152-2.01593s.72-1.08.936-1.51195l5.18383-7.12776h4.53585l-7.63175,9.14369v.504a10.41941,10.41941,0,0,1,1.87194,2.51992c.144.144.144.216.216.288L364.2358,91.149H359.556l-5.11183-10.43965h-.864l-1.79994,2.08793V91.149h-3.67187Z"/><path class="a" d="M378.41932,89.20509a8.5168,8.5168,0,0,1-2.66391,1.87194,9.16381,9.16381,0,0,1-3.16789.576,6.0749,6.0749,0,0,1-4.60784-1.79994,6.40453,6.40453,0,0,1-1.79994-4.75184,5.6614,5.6614,0,0,1,2.23192-4.82384q2.15993-1.72794,7.77574-2.8079l2.23192-.432V75.30956a2.92376,2.92376,0,0,0-1.08-2.44791,5.40642,5.40642,0,0,0-3.23989-.864,5.81789,5.81789,0,0,0-2.66391.648,8.08937,8.08937,0,0,0-2.30392,1.94394H367.4037V70.19774a23.39257,23.39257,0,0,1,3.31188-.936,24.65491,24.65491,0,0,1,3.1679-.288c2.8079,0,4.89583.648,6.19179,1.79994,1.368,1.224,2.01593,3.02389,2.01593,5.54381V91.149h-3.67188V89.20509m0-9.64767a19.87215,19.87215,0,0,0-6.47978,2.08793,3.72645,3.72645,0,0,0-1.79994,3.23989,3.42256,3.42256,0,0,0,1.08,2.59191,4.08764,4.08764,0,0,0,2.8799,1.08,5.89656,5.89656,0,0,0,2.15993-.504,7.53079,7.53079,0,0,0,2.15992-1.43995V79.55742m3.0239-21.88726v1.29595a26.87223,26.87223,0,0,0-3.95986,2.59192,21.364,21.364,0,0,0-3.23989,2.9519h-2.51992v-.864a16.394,16.394,0,0,0,2.73591-2.73591,21.43687,21.43687,0,0,0,2.23192-3.23989Z"/><path class="a" d="M415.49807,91.149H411.7542V89.63708l-.36-.072a7.47292,7.47292,0,0,1-2.59191,1.656,7.70372,7.70372,0,0,1-2.9519.504,5.69626,5.69626,0,0,1-3.67188-1.08,6.786,6.786,0,0,1-2.37592-3.02389,9.59922,9.59922,0,0,1-.36-1.87194c-.072-.792-.144-2.30392-.144-4.46385V69.47776h3.67187V82.65331a9.48753,9.48753,0,0,0,.864,4.67985,3.58782,3.58782,0,0,0,3.09589,1.29595,5.56437,5.56437,0,0,0,2.30392-.504,9.0323,9.0323,0,0,0,2.51992-1.584V69.47776h3.74387Z"/><path class="a" d="M421.54587,69.47776h3.81587v1.43995l.36.072a10.42873,10.42873,0,0,1,2.59191-1.656,9.379,9.379,0,0,1,2.9519-.504,5.85781,5.85781,0,0,1,4.82384,2.08793,9.52569,9.52569,0,0,1,1.65594,5.9758V91.149h-3.59988V77.97347a9.06511,9.06511,0,0,0-.936-4.75184,3.36321,3.36321,0,0,0-3.02389-1.296,7.03012,7.03012,0,0,0-2.37592.504,12.90545,12.90545,0,0,0-2.51992,1.584V91.149h-3.74387Z"/><path class="a" d="M443.64912,60.83805H448.401v3.59988h-4.75184V60.83805m4.03186,8.63971V91.149h-3.74387V69.47776Z"/><path class="a" d="M470.43222,80.70938v.648H457.04067a8.32413,8.32413,0,0,0,1.512,5.39982,5.74239,5.74239,0,0,0,4.53584,1.79994,8.36816,8.36816,0,0,0,3.0239-.576,11.15919,11.15919,0,0,0,2.80791-1.87193h1.51195v3.67187a26.04992,26.04992,0,0,1-3.88787,1.584,14.20155,14.20155,0,0,1-3.45589.432c-3.23989,0-5.6878-.936-7.41575-2.87991-1.65594-1.94393-2.51991-4.67984-2.51991-8.35171s.864-6.55178,2.51991-8.63971a8.17476,8.17476,0,0,1,6.69578-3.0959,7.64928,7.64928,0,0,1,5.9038,2.37592,9.2041,9.2041,0,0,1,2.15993,6.40778v3.0959m-3.59988-2.51991a9.591,9.591,0,0,0-1.08-5.18383,4.0457,4.0457,0,0,0-3.52788-1.584,4.42766,4.42766,0,0,0-3.81587,1.87194,9.89612,9.89612,0,0,0-1.368,5.39982l9.79167.072Z"/><path class="a" d="M211.889,140.75535a16.90336,16.90336,0,0,1-4.60785,2.66391,11.97767,11.97767,0,0,1-4.60784.936,10.53754,10.53754,0,0,1-8.7837-3.95987c-2.01593-2.66391-2.9519-6.55177-2.9519-11.51961,0-5.03983.936-8.8557,2.9519-11.44761,2.01593-2.66391,4.96783-3.95987,8.7837-3.95987a12.44339,12.44339,0,0,1,4.31985.864,22.17879,22.17879,0,0,1,4.89584,2.44792V122.108H209.513a8.85471,8.85471,0,0,0-2.66391-4.10386,6.34151,6.34151,0,0,0-4.17586-1.36795,6.08257,6.08257,0,0,0-5.68781,3.09589c-1.29595,2.01593-1.87193,5.03983-1.87193,9.14369,0,3.88787.576,6.83977,1.87193,8.8557a6.23182,6.23182,0,0,0,5.68781,3.0959,6.757,6.757,0,0,0,4.17586-1.368,8.93206,8.93206,0,0,0,2.66391-4.17586H211.889Z"/><path class="a" d="M214.98484,114.04425h4.46385l4.89584,17.7834c.288,1.152.576,2.30393.792,3.45589.288,1.152.504,2.30392.72,3.52788h.648c.144-1.296.432-2.51992.648-3.67188.288-1.152.576-2.23192.792-3.31189l4.89583-17.7834h4.46385l-9.43168,29.663h-3.38389Z"/><path class="a" d="M245.51181,114.04425v18.28739c0,3.02389.504,5.25582,1.44,6.55178,1.008,1.368,2.59192,2.01593,4.82384,2.01593a5.4898,5.4898,0,0,0,4.75184-2.01593c.936-1.296,1.44-3.52789,1.44-6.55178V114.04425h3.95987v17.9994c0,4.39185-.792,7.55974-2.37592,9.43168-1.58395,1.94393-4.17586,2.8799-7.77574,2.8799s-6.19179-.936-7.77574-2.8799c-1.58394-1.87194-2.37592-5.03983-2.37592-9.43168v-17.9994Z"/><path class="a" d="M274.23884,117.42814h-8.56771v-3.38389h21.02329v3.38389h-8.49571v26.27911h-3.95987Z"/><path class="a" d="M201.88129,108.35645h1.08a7.64458,7.64458,0,0,1,1.65594-2.80791,5.91488,5.91488,0,0,1,2.44792-1.65594H209.225v1.36795a10.40944,10.40944,0,0,0-2.51992,2.23193,14.41493,14.41493,0,0,0-1.94393,3.16789h-4.75184a17.07919,17.07919,0,0,0-2.15993-3.38389,7.22744,7.22744,0,0,0-2.30392-2.01593V103.8926h2.23193a6.42139,6.42139,0,0,1,2.44791,1.65594A8.5013,8.5013,0,0,1,201.88129,108.35645Z"/><path class="a" d="M121.1,44.5666l-.072-1.008-.144-.936-.144-.936-.288-.936-.36-.936-.432-.864-.504-.864-.576-.72-.576-.792-.72-.648-.72-.648-.792-.576-.864-.504-.864-.432-.864-.36-1.008-.288-.936-.144-.936-.144-.936-.072-1.008.072-.936.144-1.008.144-.864.288-.936.36-.864.432-.864.504-.792.576-.72.648-.648.648-.648.792-.576.72-.504.864-.432.864-.36.936-.288.936-.144.936-.144.936-.072,1.008.072.936.144.936.144,1.008.288.936.36.864.432.864.504.864.576.792.648.72.648.72.72.648.792.504.864.504.864.432.936.36.864.288,1.008.216.936.072,1.008.072.936-.072.936-.072.936-.216,1.008-.288.864-.36.864-.432.864-.504.792-.504.72-.648.72-.72.576-.72.576-.792.504-.864.432-.864.36-.864.288-.936.144-1.008.144-.936Z"/><path class="a" d="M150.835,77.90148l-1.58394-1.584-1.65595-1.51195-1.72794-1.44-1.87194-1.368-1.79994-1.296-1.87193-1.224-1.94394-1.152-2.01593-1.08-2.01593-1.008-2.01593-.864-2.08793-.864-2.08793-.792-2.15993-.648-2.15993-.576L121.604,61.99l-2.15993-.432-2.30392-.36-2.15993-.288-2.23192-.144-2.30392-.072h-2.23193l-2.23192.072-2.30393.144-2.15992.288-2.30392.36-2.15993.432-2.23193.504L92.661,63.07l-2.08793.648-2.15993.792-2.08793.864-2.01593.864-2.01593,1.008-2.01594,1.08-1.94393,1.152-1.87194,1.224-1.79994,1.296-1.87193,1.368-1.65595,1.44-1.72794,1.51195-1.58394,1.584,9.14369,9.07169,1.44-1.368,1.43995-1.296,1.584-1.224,1.58394-1.224,1.72794-1.08,1.72795-1.08,1.72794-.936,1.72794-.864,1.87194-.864,1.87193-.72,1.87194-.576,1.94393-.576,1.94394-.504,1.94393-.36,1.94394-.288,2.01593-.216,2.01593-.144,2.01593-.072,1.94394.072,2.01593.144,2.01593.216,1.94393.288,1.94394.36,1.94393.504,1.94394.576,1.87193.576,1.87194.72,1.87194.864,1.72794.864,1.79994.936,1.65594,1.08,1.65595,1.08,1.65594,1.224,1.58395,1.224,1.44,1.296,1.51195,1.368Z"/><path class="a" d="M164.51455,144.49923v-.936l-.144-1.008-.216-.936-.216-.936-.36-.864-.432-.864-.504-.864-.576-.792-.648-.72-.648-.72-.792-.648-.72-.504-.864-.504-.864-.432-.936-.36-.864-.288-1.008-.216-.936-.072-.936-.072-1.008.072-1.008.072-.864.216-1.008.288-.864.36-.864.432-.864.504-.792.504-.72.648-.72.72-.648.72-.504.792-.504.864-.432.864-.36.864-.288.936-.216.936-.072,1.008-.072.936.072.936.072,1.008.216.936.288.936.36.936.432.864.504.792.504.792.648.792.72.648.72.648.792.576.864.504.864.432.864.288,1.008.288.864.216,1.008.144h1.94393l.936-.144,1.008-.216.864-.288.936-.288.864-.432.864-.504.72-.576.792-.648.648-.648.648-.792.576-.792.504-.792.432-.864.36-.936.216-.936.216-.936.144-1.008Z"/><path class="a" d="M56.23021,132.18764v-1.008l-.144-.936-.216-.936-.288-.936-.288-.936-.432-.864-.504-.792-.576-.792-.648-.792-.648-.648-.792-.648-.792-.576-.792-.432-.864-.504-.936-.288-.936-.288-.936-.216-.936-.144-1.008-.072-.936.072-1.008.144-.936.216-.936.288-.936.288-.864.504-.792.432-.792.576-.72.648-.72.648-.648.792-.504.792-.504.792-.432.864-.36.936-.288.936-.216.936-.072.936-.072,1.008.072.936.072,1.008.216.936.288.936.36.864.432.864.504.864.504.792.648.72.72.72.72.576.792.576.792.504.864.432.936.36.936.288.936.216,1.008.072.936.072,1.008-.072.936-.072.936-.216.936-.288.936-.36.864-.432.792-.504.792-.576.792-.576.648-.72.648-.72.576-.792.504-.864.432-.864.288-.864.288-.936.216-.936.144-1.008Z"/><path class="a" d="M97.19682,140.10737,94.10093,151.483l-2.15993-.648-2.08793-.648-2.08793-.792-2.08793-.864-2.08793-1.008-2.01593-1.008-1.94393-1.08-1.94394-1.152-1.87193-1.296-1.79994-1.296-1.728-1.36795-1.72794-1.512-1.65594-1.51195-1.584-1.584-1.58394-1.58394-1.44-1.728-1.44-1.72794-1.368-1.87193-1.224-1.79994-1.224-1.94394-1.152-1.94393L56.87819,121.1l-1.008-2.01594-.864-2.01593-.792-2.08793-.792-2.15992-.648-2.15993-.576-2.15993-.432-2.23192-.432-2.15993-.288-2.23192-.288-2.23193-.144-2.30392V92.877l.144-2.23193.216-2.23192.288-2.23192.36-2.23193.432-2.23192.504-2.15993,12.52758,3.31189-.432,1.94393-.432,1.94394-.288,2.01593L63.718,90.789,63.574,92.733l-.072,2.01594.072,2.01593.144,1.94393.216,2.01593.288,1.94394.432,1.94393.432,2.01593.576,1.87194.648,1.94394.72,1.79994.792,1.87193.864,1.79994,1.008,1.72794,1.008,1.72794,1.152,1.656,1.152,1.58394,1.224,1.584,1.36795,1.51195,1.368,1.44,1.44,1.368,1.43995,1.296,1.584,1.296,1.58394,1.152,1.72794,1.152,1.72795,1.008,1.72794.936,1.72794.936,1.87194.792,1.87193.72,1.87194.648,1.94393.576L94.10093,151.483Z"/><path class="a" d="M103.17262,163.79457l2.15993-.576,2.15993-.72,2.08793-.792,2.08792-.864,2.01594-.936,2.01593-1.08,1.94393-1.08,1.94394-1.152,1.87193-1.224,1.79994-1.368,1.79994-1.368,1.72794-1.44,1.656-1.51195,1.58394-1.584,1.58395-1.65594,1.44-1.72794,1.43995-1.72794,1.296-1.79994,1.296-1.87194,1.152-1.94393,1.152-1.87194,1.08-2.01593.936-2.08793.936-2.01593.792-2.08793.72-2.15993.648-2.15993.576-2.15992.504-2.15993.36-2.23193.36-2.23192.216-2.23193.144-2.23192.072-2.30392-.072-2.23193-.072-2.23192-.216-2.23193-.288-2.23192-.36-2.23193-.504-2.23192-.504-2.15993-12.45558,3.38389.432,1.87194.432,2.01593.288,1.94393.216,2.01593.072,1.94394.072,2.01593-.072,2.01593-.072,2.01593-.216,1.94394-.288,2.01593-.432,1.94393-.432,1.94394-.576,1.94393-.648,1.87194-.72,1.87194-.792,1.79994-.936,1.79994-.936,1.72794-1.008,1.72794-1.152,1.65594-1.152,1.656-1.224,1.51195-1.368,1.51194-1.368,1.44-1.43995,1.368-1.51195,1.368-1.584,1.224-1.58394,1.152-1.656,1.152-1.72794,1.008-1.72794.936-1.79994.936-1.79994.792-1.87194.72-1.94393.648-1.87194.576Z"/></svg>