<svg xmlns="http://www.w3.org/2000/svg" viewBox="0 0 316.645 304.046"><defs><style>.a{fill:#fff;}</style></defs><title>SU-logo</title><rect x="-0.00015" y="0.00014" width="316.6453" height="304.04573"/><path class="a" d="M17.35126,208.86508h2.30392A6.97943,6.97943,0,0,0,22.1031,212.393a6.23175,6.23175,0,0,0,3.95987,1.296,5.83582,5.83582,0,0,0,4.17586-1.51195,4.80234,4.80234,0,0,0,1.58394-3.67188,4.06945,4.06945,0,0,0-1.152-3.0239c-.792-.792-2.66391-1.72794-5.54381-2.8799-.144-.072-.432-.216-.792-.36a18.75033,18.75033,0,0,1-4.82384-2.51991,7.94005,7.94005,0,0,1-1.87194-2.51992,7.79277,7.79277,0,0,1-.648-3.16789,7.35907,7.35907,0,0,1,2.44792-5.7598,8.97034,8.97034,0,0,1,6.33579-2.23193,15.08508,15.08508,0,0,1,4.39185.648,15.38461,15.38461,0,0,1,3.95987,1.87194v5.47181H32.03877a8.40971,8.40971,0,0,0-2.37592-3.74387,6.20165,6.20165,0,0,0-3.81588-1.224,4.96056,4.96056,0,0,0-3.52788,1.296,4.00372,4.00372,0,0,0-1.43995,3.1679c0,2.15992,1.87194,3.95986,5.54382,5.25582.504.216.936.36,1.296.504a13.93193,13.93193,0,0,1,5.9758,3.59988,7.46,7.46,0,0,1,1.79994,5.18383,8.25235,8.25235,0,0,1-2.51992,6.40778,9.48954,9.48954,0,0,1-6.83976,2.44792,15.70154,15.70154,0,0,1-4.53585-.648,17.28045,17.28045,0,0,1-4.24786-1.94393Z"/><path class="a" d="M48.38221,216.28083c-2.66391,0-4.31985-.288-4.96783-.936s-.936-2.30392-.936-4.89583V197.20147H38.66254v-2.59191h3.81587v-5.7598h3.67188v5.7598h4.89583v2.59191H46.15029V210.593c0,1.512.144,2.37592.576,2.66391a4.77728,4.77728,0,0,0,2.66391.504h1.65594v2.51992Z"/><path class="a" d="M71.13345,216.28083H67.38957v-1.512l-.432-.072a7.89728,7.89728,0,0,1-2.51992,1.72794,9.379,9.379,0,0,1-2.9519.504,6.15154,6.15154,0,0,1-3.67187-1.08A6.53026,6.53026,0,0,1,55.438,212.753a8.60438,8.60438,0,0,1-.36-1.87194c-.072-.792-.144-2.23192-.144-4.46385v-11.8076h3.67188v13.17556q0,3.45588.864,4.75184a3.49478,3.49478,0,0,0,3.0239,1.224,6.91187,6.91187,0,0,0,2.37592-.432,9.437,9.437,0,0,0,2.51991-1.65594V194.60956h3.74388Z"/><path class="a" d="M93.3087,216.28083H89.63682v-1.65594l-.432-.216a7.25345,7.25345,0,0,1-2.44791,1.94394,5.45535,5.45535,0,0,1-2.59192.576,6.70607,6.70607,0,0,1-5.8318-3.0959c-1.51195-2.01593-2.23192-4.82383-2.23192-8.35172a14.35728,14.35728,0,0,1,2.15992-8.35171,6.7578,6.7578,0,0,1,5.75981-3.0959,5.37433,5.37433,0,0,1,2.66391.576,8.18264,8.18264,0,0,1,2.51991,1.79994l.432-.072V185.96985H93.3087v30.311M89.63682,211.457V199.4334a10.71434,10.71434,0,0,0-2.30392-1.656,5.44457,5.44457,0,0,0-2.30392-.576,4.28726,4.28726,0,0,0-3.81588,2.08793,12.69016,12.69016,0,0,0-1.224,6.19179,11.72839,11.72839,0,0,0,1.296,6.1198,4.17194,4.17194,0,0,0,3.74388,2.08793,5.19534,5.19534,0,0,0,2.30392-.576A9.20661,9.20661,0,0,0,89.63682,211.457Z"/><path class="a" d="M115.55594,205.84118v.648H102.1644a8.32413,8.32413,0,0,0,1.51195,5.39982,5.74239,5.74239,0,0,0,4.53584,1.79994,8.36837,8.36837,0,0,0,3.0239-.576A11.15953,11.15953,0,0,0,114.044,211.241h1.51194v3.67188a20.09728,20.09728,0,0,1-3.88786,1.58394,14.64948,14.64948,0,0,1-3.45589.432c-3.23989,0-5.68781-.936-7.41575-2.87991-1.65594-1.87193-2.51991-4.67984-2.51991-8.35171s.864-6.55178,2.51991-8.56771a7.97822,7.97822,0,0,1,6.69578-3.0959,7.705,7.705,0,0,1,5.9038,2.30392,9.20413,9.20413,0,0,1,2.15992,6.40779v3.09589m-3.59987-2.51991a9.591,9.591,0,0,0-1.08-5.18383,4.00707,4.00707,0,0,0-3.52788-1.51195,4.45908,4.45908,0,0,0-3.81587,1.79994,9.896,9.896,0,0,0-1.36795,5.39982l9.79167.072Z"/><path class="a" d="M120.45178,194.60956h3.74387v1.44l.36.144a8.42939,8.42939,0,0,1,2.66391-1.72794,8.65918,8.65918,0,0,1,2.8799-.432,5.95965,5.95965,0,0,1,4.89584,2.01593,9.52571,9.52571,0,0,1,1.65594,5.9758v14.25552h-3.67187V203.10527a9.38954,9.38954,0,0,0-.864-4.75183,3.60218,3.60218,0,0,0-3.0239-1.224,6.91179,6.91179,0,0,0-2.37592.432,11.0873,11.0873,0,0,0-2.51992,1.58395v17.13542h-3.74387Z"/><path class="a" d="M150.33077,216.28083c-2.73591,0-4.39185-.288-4.96783-.936-.648-.648-.936-2.30392-.936-4.89583V197.20147H140.6111v-2.59191H144.427v-5.7598h3.67188v5.7598h4.82383v2.59191h-4.82383V210.593c0,1.512.144,2.37592.504,2.66391a5.282,5.282,0,0,0,2.73591.504h1.58394v2.51992Z"/><path class="a" d="M155.3706,211.241h1.87194a6.201,6.201,0,0,0,2.15992,2.15993,6.69351,6.69351,0,0,0,3.0239.72,4.50324,4.50324,0,0,0,3.0239-1.008,3.01169,3.01169,0,0,0,1.152-2.51992c0-1.58394-1.58395-2.9519-4.89583-3.95986l-.36-.072a10.70711,10.70711,0,0,1-4.46385-2.51992,4.94187,4.94187,0,0,1-1.368-3.67187,5.46657,5.46657,0,0,1,2.08793-4.53585,8.58,8.58,0,0,1,5.61581-1.72794,15.03767,15.03767,0,0,1,3.0239.36,22.61449,22.61449,0,0,1,3.23989.936v4.31986h-1.72794a6.22111,6.22111,0,0,0-2.08793-2.37592,5.18947,5.18947,0,0,0-2.8799-.72,3.82386,3.82386,0,0,0-2.51992.864,2.82069,2.82069,0,0,0-1.008,2.23193,2.69212,2.69212,0,0,0,.936,2.23192q.864.864,4.31985,1.728a8.88447,8.88447,0,0,1,4.31985,2.44791,5.43624,5.43624,0,0,1,1.44,3.88787,6.226,6.226,0,0,1-2.08793,4.96783,7.89025,7.89025,0,0,1-5.54382,1.94394,18.40551,18.40551,0,0,1-4.10386-.432,9.74591,9.74591,0,0,1-3.16789-1.296Z"/><path class="a" d="M174.80994,185.96985h3.74388v14.54351a21.80348,21.80348,0,0,1-.144,2.23193,18.59022,18.59022,0,0,1-.216,2.08793l.864.432c.432-.792.864-1.43995,1.224-2.01593a8.32239,8.32239,0,0,1,.936-1.43995l5.18382-7.19976h4.46385l-7.55974,9.14369v.504a20.83586,20.83586,0,0,1,1.87193,2.51991,1.21641,1.21641,0,0,1,.144.36l5.61581,9.14369h-4.60785l-5.11182-10.43965h-.936l-1.72794,2.08793v8.35172h-3.74388Z"/><path class="a" d="M205.19292,214.3369a9.43144,9.43144,0,0,1-2.66391,1.87193,8.137,8.137,0,0,1-3.23989.648,6.24025,6.24025,0,0,1-4.60785-1.87194,6.70058,6.70058,0,0,1-1.79994-4.75184,5.66138,5.66138,0,0,1,2.23193-4.82383q2.26793-1.72794,7.77573-2.80791l2.30393-.36v-1.79994a2.97523,2.97523,0,0,0-1.152-2.44791,5.17331,5.17331,0,0,0-3.1679-.864,4.9414,4.9414,0,0,0-2.66391.72,7.14444,7.14444,0,0,0-2.30392,1.87194h-1.79994v-4.31986a17.18757,17.18757,0,0,1,3.38389-.936,15.8276,15.8276,0,0,1,3.16789-.36,9.47623,9.47623,0,0,1,6.19179,1.79994c1.368,1.224,2.01593,3.0239,2.01593,5.54381v14.8315h-3.67187V214.3369m0-9.64768q-4.64385.864-6.47978,2.15993a3.54058,3.54058,0,0,0-1.87194,3.16789,3.31631,3.31631,0,0,0,1.08,2.59191,4.08766,4.08766,0,0,0,2.87991,1.08,5.89651,5.89651,0,0,0,2.15992-.504,7.80756,7.80756,0,0,0,2.23193-1.44v-7.05576m2.9519-21.88726v1.36795a24.68079,24.68079,0,0,0-3.95987,2.51992,21.365,21.365,0,0,0-3.23989,2.9519h-2.44792v-.864a18.63073,18.63073,0,0,0,2.66391-2.66391A27.10605,27.10605,0,0,0,203.465,182.802Z"/><path class="a" d="M242.27166,216.28083h-3.81587v-1.512l-.36-.072a7.34627,7.34627,0,0,1-5.54382,2.23193,6.06335,6.06335,0,0,1-5.9758-4.17586,8.03227,8.03227,0,0,1-.432-1.87194c-.072-.792-.072-2.23192-.072-4.46385v-11.8076h3.67188v13.17556q0,3.45588.864,4.75184a3.331,3.331,0,0,0,3.0239,1.224,6.52188,6.52188,0,0,0,2.30392-.432,10.9791,10.9791,0,0,0,2.59191-1.65594V194.60956h3.74387Z"/><path class="a" d="M248.31946,194.60956h3.74387v1.44l.432.144a7.89713,7.89713,0,0,1,2.51991-1.72794,9.42366,9.42366,0,0,1,2.9519-.432,5.81221,5.81221,0,0,1,4.82384,2.01593,9.09844,9.09844,0,0,1,1.72794,5.9758v14.25552H260.847V203.10527c0-2.30392-.288-3.81587-.936-4.75183a3.45363,3.45363,0,0,0-2.9519-1.224,6.61745,6.61745,0,0,0-2.37592.432,11.08752,11.08752,0,0,0-2.51992,1.58395v17.13542h-3.74387Z"/><path class="a" d="M270.35072,185.96985h4.75184v3.59988h-4.75184v-3.59988m4.10386,8.63971v21.67127h-3.81587V194.60956Z"/><path class="a" d="M297.13381,205.84118v.648H283.74226a8.32419,8.32419,0,0,0,1.512,5.39982,5.74242,5.74242,0,0,0,4.53585,1.79994,8.36841,8.36841,0,0,0,3.0239-.576,9.09705,9.09705,0,0,0,2.8079-1.87194h1.51195v3.67188a20.09734,20.09734,0,0,1-3.88787,1.58394,14.20153,14.20153,0,0,1-3.45588.432c-3.23989,0-5.68781-.936-7.34375-2.87991-1.65595-1.87193-2.51992-4.67984-2.51992-8.35171s.792-6.55178,2.44792-8.56771a8.11493,8.11493,0,0,1,6.76777-3.0959,7.44328,7.44328,0,0,1,5.8318,2.30392,8.87863,8.87863,0,0,1,2.15993,6.40779v3.09589m-3.59988-2.51991c0-2.37592-.288-4.10386-1.008-5.18383a4.18269,4.18269,0,0,0-3.52788-1.51195,4.29043,4.29043,0,0,0-3.81588,1.79994,9.86146,9.86146,0,0,0-1.44,5.39982l9.79167.072Z"/><path class="a" d="M130.67543,265.88715a17.23582,17.23582,0,0,1-4.67984,2.66391,11.38077,11.38077,0,0,1-4.53584.936c-3.81588,0-6.76778-1.296-8.78371-3.95986s-3.0239-6.55178-3.0239-11.51961q0-7.55975,3.0239-11.44762a10.53757,10.53757,0,0,1,8.78371-3.95986,12.76527,12.76527,0,0,1,4.31985.864,28.172,28.172,0,0,1,4.89583,2.44791v5.39982h-2.37592a8.31826,8.31826,0,0,0-2.7359-4.17586,6.08627,6.08627,0,0,0-4.17586-1.368,6.2318,6.2318,0,0,0-5.68781,3.09589c-1.224,2.01594-1.87194,5.03983-1.87194,9.1437,0,3.88786.648,6.83976,1.94394,8.92769a6.27715,6.27715,0,0,0,5.61581,3.0239,6.40783,6.40783,0,0,0,4.24785-1.368,8.93186,8.93186,0,0,0,2.66391-4.17586h2.37592Z"/><path class="a" d="M133.77133,239.17606h4.46385l4.89583,17.7834c.288,1.152.576,2.30392.792,3.45588.288,1.152.504,2.30392.72,3.52788h.576c.216-1.296.432-2.44792.72-3.67188.216-1.08.504-2.23192.792-3.31188l4.89584-17.7834h4.39185l-9.43168,29.663H143.275Z"/><path class="a" d="M164.2983,239.17606v18.28738c0,3.0239.504,5.25582,1.43995,6.55178a6.53326,6.53326,0,0,0,9.57568,0c.936-1.296,1.44-3.45589,1.44-6.55178V239.17606h3.88787v17.99939c0,4.39185-.72,7.55974-2.37592,9.43168-1.58395,1.94393-4.10387,2.8799-7.70374,2.8799s-6.19179-.936-7.77574-2.8799c-1.58395-1.87194-2.44792-5.03983-2.44792-9.43168V239.17606Z"/><path class="a" d="M193.02533,242.63194h-8.56771v-3.45588h21.02329v3.45588H196.9132v26.20711h-3.88787Z"/><path class="a" d="M120.59577,233.48825h1.152a8.69447,8.69447,0,0,1,1.58394-2.80791,6.68826,6.68826,0,0,1,2.51992-1.65594h2.15992v1.36795a8.44516,8.44516,0,0,0-2.51991,2.30392,15.81486,15.81486,0,0,0-2.01593,3.1679h-4.67984a17.72066,17.72066,0,0,0-2.15993-3.45589,8.07515,8.07515,0,0,0-2.30392-2.01593V229.0244h2.23192a6.42142,6.42142,0,0,1,2.44792,1.65594A10.27214,10.27214,0,0,1,120.59577,233.48825Z"/><path class="a" d="M179.99377,27.6472l-.072-1.008-.144-.936-.144-.936-.36-.936-.288-.936-.432-.864-.504-.864-.576-.72-.648-.792-.648-.648-.72-.648-.864-.576-.792-.504-.864-.432-.936-.36-.936-.288-.936-.144-.936-.144-1.008-.072-.936.072-1.008.144-.936.144-.936.288-.864.36-.864.432-.864.504-.792.576-.72.648-.72.648-.576.792-.576.72-.504.864-.432.864-.36.936-.288.936-.144.936-.216.936v1.94393l.216.936.144,1.008.288.936.36.864.432.864.504.864.576.792.576.72.72.72.72.648.792.504.864.504.864.432.864.36.936.288.936.216,1.008.072.936.072,1.008-.072.936-.072.936-.216.936-.288.936-.36.864-.432.792-.504.864-.504.72-.648.648-.72.648-.72.576-.792.504-.864.432-.864.288-.864.36-.936.144-1.008.144-.936Z"/><path class="a" d="M209.72876,60.98208l-1.58394-1.584-1.72794-1.51195-1.72795-1.44-1.79994-1.368-1.79993-1.296-1.94394-1.224-1.87194-1.152-2.01593-1.08-2.01593-1.008-2.01593-.864-2.08793-.864-2.15993-.792-2.08793-.648-2.15992-.576-2.23193-.504-2.23192-.432-2.23193-.36-2.23192-.288-2.23193-.144-2.23192-.072H167.1062l-2.23192.072-2.30392.144-2.23193.288-2.23192.36-2.15993.432-2.23192.504-2.15993.576-2.15993.648-2.08793.792-2.08793.864-2.08793.864-2.01593,1.008-1.94393,1.08-1.94394,1.152-1.87193,1.224-1.87194,1.296-1.79994,1.368-1.72794,1.44-1.65595,1.51195-1.58394,1.584,9.07169,9.07169,1.44-1.36795,1.51195-1.296,1.584-1.224,1.58394-1.224,1.65595-1.08,1.72794-1.08,1.79994-.936,1.72794-.864,1.87194-.864,1.87193-.72,1.87194-.576,1.94394-.576,1.94393-.504,1.94393-.36,1.94394-.288,2.01593-.216,2.01593-.144,1.94394-.072,2.01593.072,2.01593.144,1.94393.216,2.01594.288,1.94393.36,1.94394.504,1.94393.576,1.87194.576,1.87193.72,1.79994.864,1.79994.864,1.72794.936,1.72795,1.08,1.65594,1.08,1.65594,1.224,1.512,1.224,1.51195,1.296,1.44,1.36795Z"/><path class="a" d="M223.4083,127.57983v-.936l-.144-1.008-.216-.936-.288-.936-.288-.864-.432-.864-.504-.864-.576-.792-.648-.72-.648-.72-.792-.648-.72-.504-.864-.504-.864-.432-.936-.36-.936-.288-.936-.216-1.008-.072-.936-.072-.936.072-1.008.072-.936.216-.936.288-.864.36-.864.432-.864.504-.792.504-.72.648-.72.72-.648.72-.504.792-.504.864-.432.864-.36.864-.288.936-.216.936-.144,1.008v1.87193l.144,1.008.216.936.288.936.36.936.432.864.504.792.504.792.648.792.72.648.72.648.792.576.864.504.864.432.864.288.936.288.936.216,1.008.144h1.87194l1.008-.144.936-.216.936-.288.936-.288.864-.432.864-.504.72-.576.792-.648.648-.648.648-.792.576-.792.504-.792.432-.864.288-.936.288-.936.216-.936.144-1.008Z"/><path class="a" d="M115.124,115.26824l-.072-1.008-.072-.936-.216-.936-.288-.936-.36-.936-.432-.864-.504-.792-.576-.792-.576-.792-.72-.648-.72-.648-.792-.576-.792-.432-.936-.504-.864-.288-.936-.288-.936-.216-.936-.144-1.008-.072-1.008.072-.936.144-.936.216-.936.288-.936.288-.864.504-.792.432-.792.576-.792.648-.648.648-.648.792-.576.792-.504.792-.36.864-.36.936-.288.936-.216.936-.144.936v1.94393l.144,1.008.216.936.288.936.36.864.36.864.504.864.576.792.648.72.648.72.792.576.792.576.792.504.864.432.936.36.936.288.936.216.936.072,1.008.072,1.008-.072.936-.072.936-.216.936-.288.864-.36.936-.432.792-.504.792-.576.72-.576.72-.72.576-.72.576-.792.504-.864.432-.864.36-.864.288-.936.216-.936.072-1.008Z"/><path class="a" d="M156.01858,123.188l-3.0239,11.37562-2.15993-.648-2.15992-.648-2.08793-.792-2.08793-.864-2.01593-1.008-2.01594-1.008-1.94393-1.08-1.94394-1.152-1.87193-1.29595-1.79994-1.296-1.79994-1.36795-1.72794-1.51195-1.656-1.51195-1.58394-1.584-1.51195-1.58394-1.51195-1.728-1.368-1.72794-1.368-1.87193-1.29595-1.79994-1.152-1.94394-1.152-1.94393-1.008-2.01593-1.008-2.01594-.864-2.01593-.864-2.08793-.72-2.15992-.648-2.15993-.576-2.15993-.432-2.23192-.432-2.15993-.288-2.23192-.288-2.23193-.144-2.30392-.072-2.23193.072-2.23192.072-2.23193.216-2.23192.288-2.23192.36-2.23193.504-2.23192.504-2.15993,12.52758,3.31189-.504,1.94393-.36,1.94394-.36,2.01593-.144,2.01593-.144,1.94393-.072,2.01594.072,2.01593.144,1.94393.144,2.01593.36,1.94394.36,1.94393.504,2.01593.504,1.87194.648,1.94394.72,1.79994.864,1.87193.864,1.79994.936,1.72794,1.08,1.72794,1.08,1.656,1.152,1.58394,1.296,1.584,1.296,1.51195,1.368,1.43995,1.44,1.368,1.51195,1.296,1.584,1.296,1.58394,1.152,1.65595,1.152,1.72794,1.008,1.79994.936,1.72794.936,1.87194.792,1.87193.72,1.87194.648,1.94394.576-3.38389,12.45558Z"/><path class="a" d="M162.06637,146.87517l2.15993-.576,2.15993-.72,2.08793-.792,2.01593-.864,2.08793-.936,2.01593-1.08,1.94393-1.08,1.94394-1.152,1.79994-1.224,1.87194-1.368,1.79993-1.36795,1.65595-1.44,1.72794-1.51195,1.58395-1.584,1.512-1.65594,1.51194-1.72794,1.368-1.72794,1.368-1.79994,1.296-1.87194,1.152-1.94393,1.152-1.87194,1.008-2.01593,1.008-2.08793.864-2.01593.864-2.08793.72-2.15993.648-2.15993.576-2.15992.504-2.15993.36-2.23193.288-2.23192.216-2.23193.216-2.23192.072-2.30392-.072-2.23193-.072-2.23192-.216-2.23193-.288-2.23192-.432-2.23192-.432-2.23193-.576-2.15993-12.45558,3.38389.504,1.87194.36,2.01593.36,1.94393.216,2.01593.072,1.94394.072,2.01593-.072,2.01593-.072,2.01593-.216,1.94394-.36,2.01593-.36,1.94393-.504,1.94394-.504,1.94393-.648,1.87194-.72,1.87194-.864,1.79994-.864,1.79994-.936,1.72794-1.08,1.72794-1.08,1.65594-1.152,1.656-1.296,1.51195-1.296,1.51194-1.368,1.44-1.43995,1.36795-1.512,1.36795-1.58394,1.224-1.584,1.152-1.72794,1.152-1.656,1.008-1.72794.936-1.79994.936-1.87193.792-1.87194.72-1.87194.648-1.94393.576Z"/></svg>