<svg xmlns="http://www.w3.org/2000/svg" viewBox="0 0 316.65 304.05"><defs><style>.a{fill:#333;}.b{fill:#666;}</style></defs><title>SU-logo</title><path class="a" d="M18.61372,218.22676h2.30392a6.97937,6.97937,0,0,0,2.44792,3.52788,6.23169,6.23169,0,0,0,3.95987,1.296,5.83574,5.83574,0,0,0,4.17585-1.512,4.80228,4.80228,0,0,0,1.584-3.67187,4.06947,4.06947,0,0,0-1.152-3.0239c-.792-.792-2.66391-1.72794-5.54381-2.8799-.144-.072-.432-.216-.792-.36a18.75017,18.75017,0,0,1-4.82383-2.51992,7.93961,7.93961,0,0,1-1.87194-2.51991,7.79265,7.79265,0,0,1-.648-3.1679,7.35906,7.35906,0,0,1,2.44792-5.7598,8.97032,8.97032,0,0,1,6.33578-2.23193,15.08549,15.08549,0,0,1,4.39186.648,15.3852,15.3852,0,0,1,3.95986,1.87194v5.47181H33.30122a8.40962,8.40962,0,0,0-2.37592-3.74387,6.20166,6.20166,0,0,0-3.81587-1.224,4.96057,4.96057,0,0,0-3.52788,1.296,4.00367,4.00367,0,0,0-1.43995,3.16789c0,2.15993,1.87194,3.95987,5.54381,5.25582.504.216.936.36,1.296.504a13.9318,13.9318,0,0,1,5.9758,3.59988,7.45993,7.45993,0,0,1,1.79994,5.18382,8.25237,8.25237,0,0,1-2.51992,6.40778,9.48951,9.48951,0,0,1-6.83977,2.44792,15.70118,15.70118,0,0,1-4.53584-.648,17.27974,17.27974,0,0,1-4.24786-1.94393Z"/><path class="a" d="M49.64467,225.64251c-2.66391,0-4.31985-.288-4.96783-.936s-.936-2.30392-.936-4.89583V206.56316H39.925v-2.59191h3.81587v-5.75981h3.67188v5.75981h4.89583v2.59191H47.41275v13.39155c0,1.51194.144,2.37592.576,2.66391a4.77725,4.77725,0,0,0,2.66391.504h1.65594v2.51991Z"/><path class="a" d="M72.3959,225.64251H68.652v-1.51195l-.432-.072a7.89746,7.89746,0,0,1-2.51991,1.72794,9.379,9.379,0,0,1-2.9519.504,6.15166,6.15166,0,0,1-3.67188-1.08,6.53035,6.53035,0,0,1-2.37592-3.0959,8.60488,8.60488,0,0,1-.36-1.87193c-.072-.792-.144-2.23193-.144-4.46385v-11.8076h3.67188V217.1468q0,3.45588.864,4.75184a3.49477,3.49477,0,0,0,3.02389,1.224,6.9118,6.9118,0,0,0,2.37592-.432,9.43667,9.43667,0,0,0,2.51992-1.65594V203.97125H72.3959Z"/><path class="a" d="M94.57115,225.64251H90.89928v-1.65594l-.432-.216a7.25346,7.25346,0,0,1-2.44792,1.94393,5.45519,5.45519,0,0,1-2.59191.576,6.70606,6.70606,0,0,1-5.8318-3.09589c-1.51195-2.01594-2.23193-4.82384-2.23193-8.35172a14.35731,14.35731,0,0,1,2.15993-8.35172,6.7578,6.7578,0,0,1,5.75981-3.0959,5.37428,5.37428,0,0,1,2.66391.576,8.18243,8.18243,0,0,1,2.51991,1.79993l.432-.072V195.33154h3.67187v30.311m-3.67187-4.82383v-12.0236a10.71486,10.71486,0,0,0-2.30392-1.65594,5.44443,5.44443,0,0,0-2.30393-.576,4.28723,4.28723,0,0,0-3.81587,2.08793,12.6901,12.6901,0,0,0-1.224,6.19179,11.72832,11.72832,0,0,0,1.296,6.11979,4.17192,4.17192,0,0,0,3.74387,2.08793,5.19521,5.19521,0,0,0,2.30393-.576A9.207,9.207,0,0,0,90.89928,220.81868Z"/><path class="a" d="M116.8184,215.20287v.648H103.42685a8.32419,8.32419,0,0,0,1.51195,5.39982,5.74242,5.74242,0,0,0,4.53585,1.79994,8.36819,8.36819,0,0,0,3.0239-.576,11.15932,11.15932,0,0,0,2.8079-1.87194h1.51195v3.67188a20.0968,20.0968,0,0,1-3.88787,1.58395,14.64937,14.64937,0,0,1-3.45588.432c-3.23989,0-5.68781-.936-7.41575-2.8799-1.65594-1.87194-2.51991-4.67984-2.51991-8.35172s.864-6.55178,2.51991-8.56771a7.97822,7.97822,0,0,1,6.69577-3.0959,7.705,7.705,0,0,1,5.90381,2.30393,9.20408,9.20408,0,0,1,2.15992,6.40778v3.0959m-3.59988-2.51992a9.59093,9.59093,0,0,0-1.08-5.18382,4.00707,4.00707,0,0,0-3.52788-1.512,4.45908,4.45908,0,0,0-3.81587,1.79994,9.89608,9.89608,0,0,0-1.368,5.39981l9.79167.072Z"/><path class="a" d="M121.71424,203.97125h3.74387v1.44l.36.144a8.42974,8.42974,0,0,1,2.66391-1.72794,8.65918,8.65918,0,0,1,2.8799-.432,5.95964,5.95964,0,0,1,4.89584,2.01594,9.52565,9.52565,0,0,1,1.65594,5.97579v14.25552h-3.67188V212.467a9.3896,9.3896,0,0,0-.864-4.75184,3.6022,3.6022,0,0,0-3.0239-1.224,6.91179,6.91179,0,0,0-2.37591.432,11.08723,11.08723,0,0,0-2.51992,1.58394v17.13542h-3.74387Z"/><path class="a" d="M151.59323,225.64251c-2.73591,0-4.39185-.288-4.96783-.936-.648-.648-.936-2.30392-.936-4.89583V206.56316h-3.81587v-2.59191h3.81587v-5.75981h3.67187v5.75981h4.82384v2.59191H149.3613v13.39155c0,1.51194.144,2.37592.504,2.66391a5.282,5.282,0,0,0,2.7359.504h1.58395v2.51991Z"/><path class="a" d="M156.63306,220.60268H158.505a6.20093,6.20093,0,0,0,2.15993,2.15993,6.69338,6.69338,0,0,0,3.0239.72,4.50319,4.50319,0,0,0,3.0239-1.008,3.01169,3.01169,0,0,0,1.152-2.51991c0-1.584-1.58395-2.9519-4.89584-3.95987l-.36-.072a10.707,10.707,0,0,1-4.46385-2.51991,4.94189,4.94189,0,0,1-1.368-3.67188,5.46658,5.46658,0,0,1,2.08793-4.53585,8.58,8.58,0,0,1,5.61581-1.72794,15.03847,15.03847,0,0,1,3.0239.36,22.61331,22.61331,0,0,1,3.23989.936v4.31985h-1.72794a6.22127,6.22127,0,0,0-2.08793-2.37592,5.18947,5.18947,0,0,0-2.8799-.72,3.82386,3.82386,0,0,0-2.51992.864,2.82067,2.82067,0,0,0-1.008,2.23192,2.69218,2.69218,0,0,0,.936,2.23193q.864.864,4.31986,1.72794a8.8845,8.8845,0,0,1,4.31985,2.44792,5.43621,5.43621,0,0,1,1.44,3.88786,6.226,6.226,0,0,1-2.08793,4.96784,7.89028,7.89028,0,0,1-5.54381,1.94393,18.40552,18.40552,0,0,1-4.10386-.432,9.74592,9.74592,0,0,1-3.16789-1.296Z"/><path class="a" d="M176.0724,195.33154h3.74387v14.54351a21.80353,21.80353,0,0,1-.144,2.23192,18.59231,18.59231,0,0,1-.216,2.08793l.864.432c.432-.792.864-1.44,1.224-2.01594a8.32239,8.32239,0,0,1,.936-1.44l5.18383-7.19975h4.46385l-7.55975,9.14369v.504a20.83742,20.83742,0,0,1,1.87194,2.51991,1.21641,1.21641,0,0,1,.144.36l5.61581,9.14369H187.592l-5.11183-10.43964h-.936l-1.72795,2.08793v8.35171H176.0724Z"/><path class="a" d="M206.45537,223.69858a9.43154,9.43154,0,0,1-2.66391,1.87194,8.13712,8.13712,0,0,1-3.23989.648,6.24024,6.24024,0,0,1-4.60784-1.87193,6.7006,6.7006,0,0,1-1.79994-4.75184,5.66142,5.66142,0,0,1,2.23192-4.82384q2.26793-1.72794,7.77574-2.8079l2.30392-.36v-1.79994a2.97521,2.97521,0,0,0-1.152-2.44792,5.17328,5.17328,0,0,0-3.16789-.864,4.9413,4.9413,0,0,0-2.66391.72,7.14428,7.14428,0,0,0-2.30392,1.87193h-1.79994v-4.31985a17.18774,17.18774,0,0,1,3.38388-.936,15.82843,15.82843,0,0,1,3.1679-.36,9.47625,9.47625,0,0,1,6.19179,1.79994c1.368,1.224,2.01593,3.0239,2.01593,5.54381v14.8315h-3.67188v-1.94393m0-9.64768q-4.64383.864-6.47978,2.15993a3.54061,3.54061,0,0,0-1.87193,3.16789,3.31629,3.31629,0,0,0,1.08,2.59192,4.08767,4.08767,0,0,0,2.8799,1.08,5.89654,5.89654,0,0,0,2.15993-.504,7.8076,7.8076,0,0,0,2.23192-1.43995V214.0509m2.9519-21.88726v1.368a24.68,24.68,0,0,0-3.95986,2.51991,21.365,21.365,0,0,0-3.23989,2.9519H199.7596v-.864a18.63073,18.63073,0,0,0,2.66391-2.66391,27.10334,27.10334,0,0,0,2.30392-3.31189Z"/><path class="a" d="M243.53412,225.64251h-3.81587v-1.51195l-.36-.072a7.34617,7.34617,0,0,1-5.54381,2.23192,6.06329,6.06329,0,0,1-5.9758-4.17586,8.03217,8.03217,0,0,1-.432-1.87193c-.072-.792-.072-2.23193-.072-4.46385v-11.8076h3.67187V217.1468q0,3.45588.864,4.75184a3.331,3.331,0,0,0,3.02389,1.224,6.52191,6.52191,0,0,0,2.30393-.432,10.97877,10.97877,0,0,0,2.59191-1.65594V203.97125h3.74387Z"/><path class="a" d="M249.58192,203.97125h3.74387v1.44l.432.144a7.89746,7.89746,0,0,1,2.51991-1.72794,9.42366,9.42366,0,0,1,2.9519-.432,5.81218,5.81218,0,0,1,4.82384,2.01594,9.09839,9.09839,0,0,1,1.72794,5.97579v14.25552h-3.67188V212.467c0-2.30392-.288-3.81587-.936-4.75184a3.45366,3.45366,0,0,0-2.9519-1.224,6.61742,6.61742,0,0,0-2.37592.432,11.08723,11.08723,0,0,0-2.51992,1.58394v17.13542h-3.74387Z"/><path class="a" d="M271.61317,195.33154H276.365v3.59988h-4.75184v-3.59988m4.10386,8.63971v21.67126h-3.81587V203.97125Z"/><path class="a" d="M298.39627,215.20287v.648H285.00472a8.32413,8.32413,0,0,0,1.51195,5.39982,5.74241,5.74241,0,0,0,4.53585,1.79994,8.3681,8.3681,0,0,0,3.02389-.576,9.09709,9.09709,0,0,0,2.80791-1.87194h1.512v3.67188a20.0968,20.0968,0,0,1-3.88787,1.58395,14.20151,14.20151,0,0,1-3.45588.432c-3.23989,0-5.68781-.936-7.34376-2.8799-1.65594-1.87194-2.51991-4.67984-2.51991-8.35172s.792-6.55178,2.44792-8.56771a8.11493,8.11493,0,0,1,6.76777-3.0959,7.44325,7.44325,0,0,1,5.8318,2.30393,8.87859,8.87859,0,0,1,2.15993,6.40778v3.0959m-3.59988-2.51992c0-2.37592-.288-4.10386-1.008-5.18382a4.18264,4.18264,0,0,0-3.52788-1.512,4.29041,4.29041,0,0,0-3.81587,1.79994,9.86142,9.86142,0,0,0-1.43995,5.39981l9.79167.072Z"/><path class="a" d="M131.93789,275.24884a17.236,17.236,0,0,1-4.67984,2.66391,11.38078,11.38078,0,0,1-4.53585.936c-3.81587,0-6.76777-1.296-8.7837-3.95987s-3.0239-6.55178-3.0239-11.51961q0-7.55974,3.0239-11.44761a10.53754,10.53754,0,0,1,8.7837-3.95987,12.76528,12.76528,0,0,1,4.31986.864,28.17139,28.17139,0,0,1,4.89583,2.44792v5.39982H129.562a8.31823,8.31823,0,0,0-2.73591-4.17586,6.08623,6.08623,0,0,0-4.17585-1.368,6.2318,6.2318,0,0,0-5.68781,3.0959c-1.224,2.01593-1.87194,5.03983-1.87194,9.14369,0,3.88787.648,6.83977,1.94393,8.9277a6.2772,6.2772,0,0,0,5.61582,3.0239,6.40783,6.40783,0,0,0,4.24785-1.368A8.932,8.932,0,0,0,129.562,269.777h2.37592Z"/><path class="a" d="M135.03379,248.53774h4.46385l4.89583,17.7834c.288,1.152.576,2.30392.792,3.45588.288,1.152.504,2.30392.72,3.52788h.576c.216-1.29595.432-2.44791.72-3.67187.216-1.08.504-2.23193.792-3.31189l4.89583-17.7834H157.281l-9.43169,29.663h-3.31188Z"/><path class="a" d="M165.56076,248.53774v18.28738c0,3.0239.504,5.25582,1.44,6.55178a6.53325,6.53325,0,0,0,9.57567,0c.936-1.296,1.44-3.45588,1.44-6.55178V248.53774h3.88787v17.99939c0,4.39185-.72,7.55975-2.37592,9.43168-1.58394,1.94394-4.10386,2.87991-7.70374,2.87991s-6.19179-.936-7.77573-2.87991c-1.584-1.87193-2.44792-5.03983-2.44792-9.43168V248.53774Z"/><path class="a" d="M194.28779,251.99362h-8.56772v-3.45588h21.02329v3.45588h-8.56771v26.20712h-3.88786Z"/><path class="a" d="M121.85823,242.84993h1.152a8.6945,8.6945,0,0,1,1.584-2.8079,6.6882,6.6882,0,0,1,2.51991-1.656H129.274v1.368a8.44491,8.44491,0,0,0-2.51991,2.30392,15.81482,15.81482,0,0,0-2.01594,3.16789h-4.67984a17.72055,17.72055,0,0,0-2.15992-3.45588,8.07472,8.07472,0,0,0-2.30393-2.01593v-1.368h2.23193a6.42133,6.42133,0,0,1,2.44792,1.656A10.27192,10.27192,0,0,1,121.85823,242.84993Z"/><path class="b" d="M181.25623,37.00889l-.072-1.008-.144-.936-.144-.936-.36-.936-.288-.936-.432-.864-.504-.864-.576-.72-.648-.792-.648-.648-.72-.648-.864-.576-.792-.504-.864-.432-.936-.36-.936-.288-.936-.144-.936-.144-1.008-.072-.936.072-1.008.144-.936.144-.936.288-.864.36-.864.432-.864.504-.792.576-.72.648-.72.648-.576.792-.576.72-.504.864-.432.864-.36.936-.288.936-.144.936-.216.936v1.94393l.216.936.144,1.008.288.936.36.864.432.864.504.864.576.792.576.72.72.72.72.648.792.504.864.504.864.432.864.36.936.288.936.216,1.008.072.936.072,1.008-.072.936-.072.936-.216.936-.288.936-.36.864-.432.792-.504.864-.504.72-.648.648-.72.648-.72.576-.792.504-.864.432-.864.288-.864.36-.936.144-1.008.144-.936Z"/><path class="b" d="M210.99122,70.34376l-1.58395-1.584-1.72794-1.51195-1.72794-1.43995-1.79994-1.368-1.79994-1.296-1.94393-1.224-1.87194-1.152-2.01593-1.08-2.01593-1.008-2.01593-.864-2.08793-.864-2.15993-.792-2.08793-.648-2.15993-.576-2.23192-.504-2.23193-.432-2.23192-.36-2.23193-.288-2.23192-.144-2.23192-.072h-2.23193l-2.23192.072-2.30393.144-2.23192.288-2.23193.36-2.15992.432-2.23193.504-2.15992.576-2.15993.648-2.08793.792-2.08793.864-2.08793.864-2.01593,1.008-1.94394,1.08-1.94393,1.152-1.87194,1.224L134.7458,64.44l-1.79994,1.368-1.72794,1.43995L129.562,68.75981l-1.58394,1.584,9.07169,9.07169,1.43995-1.368,1.512-1.296,1.58395-1.224,1.58394-1.224,1.65595-1.08,1.72794-1.08,1.79994-.936,1.72794-.864,1.87194-.864,1.87193-.72,1.87194-.576,1.94393-.576,1.94394-.504,1.94393-.36,1.94394-.288,2.01593-.216,2.01593-.144,1.94393-.072,2.01594.072,2.01593.144,1.94393.216,2.01593.288,1.94394.36,1.94393.504,1.94394.576,1.87193.576,1.87194.72,1.79994.864,1.79994.864,1.72794.936,1.72794,1.08,1.656,1.08,1.65594,1.224,1.512,1.224,1.51195,1.296,1.44,1.368Z"/><path class="b" d="M224.67076,136.94151v-.936l-.144-1.008-.216-.936-.288-.936-.288-.864-.432-.864-.504-.864-.576-.792-.648-.72-.648-.72-.792-.648-.72-.504-.864-.504-.864-.432-.936-.36-.936-.288-.936-.216-1.008-.072-.936-.072-.936.072-1.008.072-.936.216-.936.288-.864.36-.864.432-.864.504-.792.504-.72.648-.72.72-.648.72-.504.792-.504.864-.432.864-.36.864-.288.936-.216.936-.144,1.008v1.87194l.144,1.008.216.936.288.936.36.936.432.864.504.792.504.792.648.792.72.648.72.648.792.576.864.504.864.432.864.288.936.288.936.216,1.008.144h1.87193l1.008-.144.936-.216.936-.288.936-.288.864-.432.864-.504.72-.576.792-.648.648-.648.648-.792.576-.792.504-.792.432-.864.288-.936.288-.936.216-.936.144-1.008Z"/><path class="b" d="M116.38642,124.62993l-.072-1.008-.072-.936-.216-.936-.288-.936-.36-.936-.432-.864-.504-.792-.576-.792-.576-.792-.72-.648-.72-.648-.792-.576-.792-.432-.936-.504-.864-.288-.936-.288-.936-.216-.936-.144-1.008-.072-1.008.072-.936.144-.936.216-.936.288-.936.288-.864.504-.792.432-.792.576-.792.648-.648.648-.648.792-.576.792-.504.792-.36.864-.36.936-.288.936-.216.936-.144.936v1.94393l.144,1.008.216.936.288.936.36.864.36.864.504.864.576.792.648.72.648.72.792.576.792.576.792.504.864.432.936.36.936.288.936.216.936.072,1.008.072,1.008-.072.936-.072.936-.216.936-.288.864-.36.936-.432.792-.504.792-.576.72-.576.72-.72.576-.72.576-.792.504-.864.432-.864.36-.864.288-.936.216-.936.072-1.008Z"/><path class="b" d="M157.281,132.54966l-3.0239,11.37561-2.15993-.648-2.15993-.648-2.08793-.792-2.08793-.864-2.01593-1.008-2.01593-1.008-1.94393-1.08-1.94394-1.152-1.87193-1.296-1.79994-1.296-1.79994-1.368-1.72794-1.51195-1.656-1.512-1.58395-1.58394-1.51194-1.584-1.51195-1.72794-1.368-1.72794-1.36795-1.87194-1.296-1.79994-1.152-1.94393-1.152-1.94394-1.008-2.01593-1.008-2.01593-.864-2.01593-.864-2.08793-.72-2.15993-.648-2.15993-.576-2.15992-.432-2.23193-.432-2.15993-.288-2.23192-.288-2.23193-.144-2.30392-.072-2.23192.072-2.23193.072-2.23192.216-2.23193.288-2.23192.36-2.23193.504-2.23192.504-2.15993,12.52758,3.31189-.504,1.94394-.36,1.94393-.36,2.01593-.144,2.01593-.144,1.94394-.072,2.01593.072,2.01593.144,1.94394.144,2.01593.36,1.94393.36,1.94394.504,2.01593.504,1.87194.648,1.94393.72,1.79994.864,1.87194.864,1.79994.936,1.72794,1.08,1.72794,1.08,1.65594,1.152,1.584,1.296,1.584,1.296,1.51194,1.368,1.44,1.43995,1.36795,1.512,1.296,1.58395,1.296,1.58394,1.152,1.65595,1.152,1.72794,1.008,1.79994.936,1.72794.936,1.87194.792,1.87193.72,1.87194.648,1.94393.576-3.38388,12.45558Z"/><path class="b" d="M163.32883,156.23686l2.15993-.576,2.15993-.72,2.08792-.792,2.01594-.864,2.08793-.936,2.01593-1.08,1.94393-1.08,1.94394-1.152,1.79994-1.224,1.87193-1.368,1.79994-1.368,1.65595-1.43995,1.72794-1.512,1.58394-1.58394,1.512-1.656,1.51195-1.72794,1.368-1.72794,1.36795-1.79994,1.296-1.87194,1.152-1.94393,1.152-1.87194,1.008-2.01593,1.008-2.08793.864-2.01593.864-2.08793.72-2.15993.648-2.15992.576-2.15993.504-2.15993.36-2.23192.288-2.23193.216-2.23192.216-2.23193.072-2.30392-.072-2.23192-.072-2.23193-.216-2.23192-.288-2.23193-.432-2.23192-.432-2.23193-.576-2.15992-12.45558,3.38388.504,1.87194.36,2.01593.36,1.94394.216,2.01593.072,1.94393.072,2.01593-.072,2.01594-.072,2.01593-.216,1.94393-.36,2.01593-.36,1.94394-.504,1.94393-.504,1.94394-.648,1.87193-.72,1.87194-.864,1.79994-.864,1.79994-.936,1.72794-1.08,1.72794-1.08,1.656-1.152,1.65594-1.296,1.51195-1.296,1.51195-1.368,1.44-1.43995,1.368-1.512,1.368-1.58395,1.224-1.58394,1.152-1.72795,1.152-1.65594,1.008-1.72794.936-1.79994.936-1.87194.792-1.87193.72-1.87194.648-1.94393.576Z"/></svg>