<svg xmlns="http://www.w3.org/2000/svg" viewBox="0 0 503.191 196.554"><defs><style>.a{fill:#4d4948;}.b{fill:#72706f;}</style></defs><title>SU-logo</title><path class="a" d="M190.57756,83.73349h2.37592a6.97937,6.97937,0,0,0,2.44792,3.52788,6.093,6.093,0,0,0,3.95986,1.296,5.83575,5.83575,0,0,0,4.17586-1.51195,4.8482,4.8482,0,0,0,1.584-3.74387,4.0154,4.0154,0,0,0-1.152-2.9519,20.2836,20.2836,0,0,0-5.54381-2.87991c-.144-.072-.432-.216-.792-.36a18.75017,18.75017,0,0,1-4.82383-2.51992,7.48619,7.48619,0,0,1-1.87194-2.59191,7.90774,7.90774,0,0,1,1.79994-8.8557,8.85185,8.85185,0,0,1,6.33578-2.23193,15.0852,15.0852,0,0,1,4.39186.648,16.59674,16.59674,0,0,1,3.95986,1.87194V68.902h-2.15993a7.75191,7.75191,0,0,0-2.30392-3.74387,6.41635,6.41635,0,0,0-3.88787-1.224,5.19292,5.19292,0,0,0-3.45588,1.224,4.21922,4.21922,0,0,0-1.44,3.16789c0,2.23193,1.87194,3.95987,5.47181,5.32782.576.216,1.008.36,1.296.504a14.73375,14.73375,0,0,1,6.0478,3.59988,7.46,7.46,0,0,1,1.79994,5.18383A8.51046,8.51046,0,0,1,206.273,89.3493a9.55121,9.55121,0,0,1-6.91177,2.44792,15.57115,15.57115,0,0,1-4.46384-.648,17.73684,17.73684,0,0,1-4.31986-1.94393Z"/><path class="a" d="M221.60851,91.14924c-2.66391,0-4.31985-.36-4.89583-.936-.648-.648-.936-2.30392-.936-4.96783V72.06989h-3.81587V69.478h3.81587v-5.7598h3.59988V69.478h4.89583v2.59192h-4.89583V85.46143c0,1.44.216,2.37592.576,2.66391a5.31292,5.31292,0,0,0,2.73591.432h1.58394v2.59191Z"/><path class="a" d="M244.43174,91.14924h-3.81587v-1.512l-.36-.072a7.64962,7.64962,0,0,1-5.54381,2.15993,5.963,5.963,0,0,1-3.67188-1.08,6.26364,6.26364,0,0,1-2.66391-4.89584,33.55058,33.55058,0,0,1-.144-4.46385V69.478h3.67188V82.65353c0,2.30392.288,3.88787.864,4.67984a3.36321,3.36321,0,0,0,3.02389,1.296,5.33488,5.33488,0,0,0,2.30393-.504,10.4571,10.4571,0,0,0,2.59191-1.58394V69.478h3.74387Z"/><path class="a" d="M266.607,91.14924h-3.67187V89.4933l-.432-.216a11.08487,11.08487,0,0,1-2.44792,1.94394,6.81417,6.81417,0,0,1-2.66391.576,6.70607,6.70607,0,0,1-5.8318-3.0959,14.35728,14.35728,0,0,1-2.15993-8.35171,14.35729,14.35729,0,0,1,2.15993-8.35172,6.741,6.741,0,0,1,5.75981-3.1679,5.81789,5.81789,0,0,1,2.66391.648,9.12645,9.12645,0,0,1,2.51991,1.79994l.432-.072V60.83826H266.607v30.311m-3.67187-4.82384V74.30181a7.92332,7.92332,0,0,0-2.37592-1.65594,4.90015,4.90015,0,0,0-2.23193-.576,4.28724,4.28724,0,0,0-3.81587,2.08792,11.84209,11.84209,0,0,0-1.296,6.1918,11.72833,11.72833,0,0,0,1.296,6.11979,4.28725,4.28725,0,0,0,3.81587,2.08793,5.44435,5.44435,0,0,0,2.30392-.576A10.71438,10.71438,0,0,0,262.93512,86.3254Z"/><path class="a" d="M288.85424,80.70959v.648H275.3907a8.3233,8.3233,0,0,0,1.58394,5.39982,5.74242,5.74242,0,0,0,4.53585,1.79994,7.98471,7.98471,0,0,0,2.9519-.576,10.27709,10.27709,0,0,0,2.8799-1.87194h1.512v3.67188a23.834,23.834,0,0,1-3.95986,1.58394,14.20167,14.20167,0,0,1-3.45589.432c-3.23989,0-5.68781-.936-7.34375-2.8799s-2.51991-4.67985-2.51991-8.35172.792-6.55178,2.44791-8.63971a8.31573,8.31573,0,0,1,6.76777-3.0959,7.49191,7.49191,0,0,1,5.83181,2.37592,8.915,8.915,0,0,1,2.23192,6.40779v3.09589m-3.59988-2.51991a9.591,9.591,0,0,0-1.08-5.18383,4.13507,4.13507,0,0,0-3.52788-1.58394,4.42767,4.42767,0,0,0-3.81587,1.87193,9.86138,9.86138,0,0,0-1.44,5.39982l9.86366.072Z"/><path class="a" d="M293.67808,69.478H297.494v1.43995l.36.072a10.429,10.429,0,0,1,2.59191-1.65594,9.379,9.379,0,0,1,2.9519-.504,5.85781,5.85781,0,0,1,4.82384,2.08793c1.152,1.368,1.65594,3.38389,1.65594,5.9758V91.14924h-3.59988V77.97369a9.065,9.065,0,0,0-.936-4.75184,3.36321,3.36321,0,0,0-3.02389-1.296,7.03012,7.03012,0,0,0-2.37592.504,15.453,15.453,0,0,0-2.51992,1.584V91.14924h-3.74387Z"/><path class="a" d="M323.55707,91.14924c-2.66391,0-4.31985-.36-4.96783-.936-.576-.648-.936-2.30392-.936-4.96783V72.06989H313.9094V69.478h3.74387v-5.7598h3.67187V69.478H326.221v2.59192h-4.89584V85.46143c0,1.44.216,2.37592.576,2.66391a5.16477,5.16477,0,0,0,2.66391.432H326.221v2.59191Z"/><path class="a" d="M328.5969,86.10941h1.94393a5.48452,5.48452,0,0,0,2.08793,2.15993,7.18513,7.18513,0,0,0,3.0239.72,4.70319,4.70319,0,0,0,3.0959-1.008,3.01169,3.01169,0,0,0,1.152-2.51992c0-1.58394-1.65595-2.9519-4.89584-3.95986l-.36-.144a9.56265,9.56265,0,0,1-4.46384-2.44792,4.94185,4.94185,0,0,1-1.368-3.67187,5.46657,5.46657,0,0,1,2.08793-4.53585,8.44771,8.44771,0,0,1,5.61581-1.72794,14.36058,14.36058,0,0,1,2.9519.36,18.30394,18.30394,0,0,1,3.23989.936V74.5178h-1.65594a7.29144,7.29144,0,0,0-2.08793-2.30392,5.57426,5.57426,0,0,0-2.8799-.792,3.7403,3.7403,0,0,0-2.51992.936,2.89709,2.89709,0,0,0-1.08,2.23192,3.03515,3.03515,0,0,0,.936,2.23192,15.01129,15.01129,0,0,0,4.31985,1.728,9.14833,9.14833,0,0,1,4.39185,2.44791,5.76664,5.76664,0,0,1,1.44,3.88787,6.572,6.572,0,0,1-2.08793,4.96783,7.96936,7.96936,0,0,1-5.54381,1.87194,17.95151,17.95151,0,0,1-4.10386-.432,10.82743,10.82743,0,0,1-3.23989-1.224Z"/><path class="a" d="M348.10824,60.83826h3.67188V75.38177c0,.72,0,1.51195-.072,2.23193s-.144,1.44-.216,2.08793l.864.432c.432-.792.792-1.44,1.152-2.01593s.72-1.08.936-1.51195l5.18382-7.12776h4.53585L356.532,78.62166v.504a10.41959,10.41959,0,0,1,1.87193,2.51991c.144.144.144.216.216.288l5.61582,9.21569h-4.67985L354.444,80.70959h-.864l-1.79994,2.08793v8.35172h-3.67188Z"/><path class="a" d="M378.41922,89.20531a8.517,8.517,0,0,1-2.66391,1.87193,9.16391,9.16391,0,0,1-3.1679.576,6.07491,6.07491,0,0,1-4.60784-1.79994,6.40451,6.40451,0,0,1-1.79994-4.75183,5.66142,5.66142,0,0,1,2.23192-4.82384q2.15994-1.72794,7.77574-2.80791l2.23193-.432V75.30978a2.92377,2.92377,0,0,0-1.08-2.44792,5.40646,5.40646,0,0,0-3.23989-.864,5.81776,5.81776,0,0,0-2.66391.648,8.0893,8.0893,0,0,0-2.30392,1.94393h-1.72794V70.198a23.39231,23.39231,0,0,1,3.31189-.936,24.6546,24.6546,0,0,1,3.16789-.288c2.8079,0,4.89583.648,6.19179,1.79994,1.368,1.224,2.01593,3.0239,2.01593,5.54381v14.8315h-3.67187V89.20531m0-9.64768a19.87214,19.87214,0,0,0-6.47979,2.08793,3.72646,3.72646,0,0,0-1.79993,3.23989,3.42254,3.42254,0,0,0,1.08,2.59191,4.08764,4.08764,0,0,0,2.8799,1.08,5.89654,5.89654,0,0,0,2.15993-.504,7.531,7.531,0,0,0,2.15993-1.44V79.55763m3.02389-21.88726v1.296a26.87139,26.87139,0,0,0-3.95986,2.59191,21.365,21.365,0,0,0-3.23989,2.9519h-2.51992v-.864a16.3932,16.3932,0,0,0,2.73591-2.73591,21.43615,21.43615,0,0,0,2.23192-3.23989Z"/><path class="a" d="M415.498,91.14924h-3.74387v-1.512l-.36-.072a7.47263,7.47263,0,0,1-2.59191,1.65595,7.70353,7.70353,0,0,1-2.9519.504,5.69631,5.69631,0,0,1-3.67188-1.08,6.78605,6.78605,0,0,1-2.37592-3.0239,9.59826,9.59826,0,0,1-.36-1.87194c-.072-.792-.144-2.30392-.144-4.46385V69.478h3.67188V82.65353a9.48751,9.48751,0,0,0,.864,4.67984,3.58784,3.58784,0,0,0,3.09589,1.296,5.56447,5.56447,0,0,0,2.30393-.504,9.03258,9.03258,0,0,0,2.51991-1.58394V69.478H415.498Z"/><path class="a" d="M421.54576,69.478h3.81587v1.43995l.36.072a10.429,10.429,0,0,1,2.59191-1.65594,9.379,9.379,0,0,1,2.9519-.504,5.85781,5.85781,0,0,1,4.82384,2.08793,9.52571,9.52571,0,0,1,1.65594,5.9758V91.14924h-3.59988V77.97369a9.06511,9.06511,0,0,0-.936-4.75184,3.36324,3.36324,0,0,0-3.0239-1.296,7.03012,7.03012,0,0,0-2.37592.504,12.90545,12.90545,0,0,0-2.51992,1.584V91.14924h-3.74387Z"/><path class="a" d="M443.649,60.83826h4.75184v3.59988H443.649V60.83826m4.03187,8.63971V91.14924H443.937V69.478Z"/><path class="a" d="M470.43211,80.70959v.648H457.04056a8.32413,8.32413,0,0,0,1.51195,5.39982,5.74241,5.74241,0,0,0,4.53585,1.79994,8.3681,8.3681,0,0,0,3.02389-.576,11.15953,11.15953,0,0,0,2.80791-1.87194h1.512v3.67188a26.04934,26.04934,0,0,1-3.88787,1.58394,14.20153,14.20153,0,0,1-3.45588.432c-3.23989,0-5.68781-.936-7.41575-2.8799-1.656-1.94394-2.51992-4.67985-2.51992-8.35172s.864-6.55178,2.51992-8.63971a8.17474,8.17474,0,0,1,6.69577-3.0959,7.64932,7.64932,0,0,1,5.9038,2.37592,9.20413,9.20413,0,0,1,2.15993,6.40779v3.09589m-3.59988-2.51991a9.59109,9.59109,0,0,0-1.08-5.18383,4.04574,4.04574,0,0,0-3.52788-1.58394,4.42768,4.42768,0,0,0-3.81588,1.87193,9.89612,9.89612,0,0,0-1.36795,5.39982l9.79167.072Z"/><path class="a" d="M211.88884,140.75557a16.90383,16.90383,0,0,1-4.60784,2.66391,11.97793,11.97793,0,0,1-4.60785.936,10.53756,10.53756,0,0,1-8.7837-3.95986c-2.01593-2.66391-2.9519-6.55178-2.9519-11.51961,0-5.03983.936-8.8557,2.9519-11.44762,2.01593-2.66391,4.96783-3.95986,8.7837-3.95986a12.44349,12.44349,0,0,1,4.31986.864,22.17844,22.17844,0,0,1,4.89583,2.44791v5.32783h-2.37592a8.85461,8.85461,0,0,0-2.66391-4.10387,6.34155,6.34155,0,0,0-4.17586-1.36795,6.08258,6.08258,0,0,0-5.68781,3.0959c-1.296,2.01593-1.87193,5.03983-1.87193,9.14369,0,3.88787.576,6.83977,1.87193,8.8557a6.23181,6.23181,0,0,0,5.68781,3.09589,6.757,6.757,0,0,0,4.17586-1.368,8.932,8.932,0,0,0,2.66391-4.17586h2.37592Z"/><path class="a" d="M214.98474,114.04447h4.46385l4.89583,17.7834c.288,1.152.576,2.30392.792,3.45588.288,1.152.504,2.30392.72,3.52788h.648c.144-1.296.432-2.51991.648-3.67188.288-1.152.576-2.23192.792-3.31188l4.89583-17.7834H237.304l-9.43168,29.663h-3.38388Z"/><path class="a" d="M245.51171,114.04447v18.28738c0,3.0239.504,5.25582,1.44,6.55178,1.008,1.36795,2.59191,2.01593,4.82383,2.01593a5.4898,5.4898,0,0,0,4.75184-2.01593c.936-1.296,1.44-3.52788,1.44-6.55178V114.04447h3.95987v17.99939c0,4.39185-.792,7.55974-2.37592,9.43168-1.58395,1.94394-4.17586,2.8799-7.77574,2.8799s-6.19179-.936-7.77573-2.8799c-1.584-1.87194-2.37592-5.03983-2.37592-9.43168V114.04447Z"/><path class="a" d="M274.23874,117.42835H265.671v-3.38388h21.02329v3.38388H278.1986v26.27912h-3.95986Z"/><path class="a" d="M201.88118,108.35666h1.08a7.64446,7.64446,0,0,1,1.65595-2.80791,5.91478,5.91478,0,0,1,2.44791-1.65594h2.15993v1.368a10.40921,10.40921,0,0,0-2.51991,2.23193,14.41459,14.41459,0,0,0-1.94394,3.16789h-4.75184a17.07953,17.07953,0,0,0-2.15992-3.38388,7.22751,7.22751,0,0,0-2.30393-2.01594v-1.368h2.23193a6.42142,6.42142,0,0,1,2.44792,1.65594A8.50129,8.50129,0,0,1,201.88118,108.35666Z"/><path class="b" d="M121.09991,44.56681l-.072-1.008-.144-.936-.144-.936-.288-.936-.36-.936-.432-.864-.504-.864-.576-.72-.576-.792-.72-.648-.72-.648-.792-.576-.864-.504-.864-.432-.864-.36-1.008-.288-.936-.144-.936-.144-.936-.072-1.008.072-.936.144-1.008.144-.864.288-.936.36-.864.432-.864.504-.792.576-.72.648-.648.648-.648.792-.576.72-.504.864-.432.864-.36.936-.288.936-.144.936-.144.936-.072,1.008.072.936.144.936.144,1.008.288.936.36.864.432.864.504.864.576.792.648.72.648.72.72.648.792.504.864.504.864.432.936.36.864.288,1.008.216.936.072,1.008.072.936-.072.936-.072.936-.216,1.008-.288.864-.36.864-.432.864-.504.792-.504.72-.648.72-.72.576-.72.576-.792.504-.864.432-.864.36-.864.288-.936.144-1.008.144-.936Z"/><path class="b" d="M150.8349,77.90169l-1.58394-1.584L147.595,74.80579l-1.72794-1.43995-1.87194-1.368-1.79993-1.296-1.87194-1.224-1.94394-1.152-2.01593-1.08-2.01593-1.008-2.01593-.864-2.08793-.864-2.08793-.792-2.15993-.648-2.15992-.576-2.23193-.504-2.15993-.432-2.30392-.36-2.15993-.288-2.23192-.144-2.30392-.072h-2.23193l-2.23192.072-2.30392.144-2.15993.288-2.30392.36-2.15993.432-2.23192.504-2.15993.576-2.08793.648-2.15993.792-2.08793.864-2.01593.864-2.01593,1.008-2.01593,1.08-1.94394,1.152-1.87193,1.224-1.79994,1.296-1.87194,1.368L71.1336,74.80579l-1.728,1.51195-1.58394,1.584,9.14369,9.07169,1.43995-1.368,1.43995-1.296,1.584-1.224,1.58394-1.224,1.728-1.08,1.72794-1.08,1.72794-.936,1.72794-.864,1.87194-.864,1.87193-.72,1.87194-.576,1.94394-.576,1.94393-.504,1.94393-.36,1.94394-.288,2.01593-.216,2.01593-.144,2.01593-.072,1.94394.072,2.01593.144,2.01593.216,1.94394.288,1.94393.36,1.94394.504,1.94393.576,1.87194.576,1.87193.72,1.87194.864,1.72794.864,1.79994.936,1.65595,1.08,1.65594,1.08,1.65594,1.224,1.58395,1.224,1.44,1.296,1.51195,1.368Z"/><path class="b" d="M164.51444,144.49944v-.936l-.144-1.008-.216-.936-.216-.936-.36-.864-.432-.864-.504-.864-.576-.792-.648-.72-.648-.72-.792-.648-.72-.504-.864-.504-.864-.432-.936-.36-.864-.288-1.008-.216-.936-.072-.936-.072-1.008.072-1.008.072-.864.216-1.008.288-.864.36-.864.432-.864.504-.792.504-.72.648-.72.72-.648.72-.504.792-.504.864-.432.864-.36.864-.288.936-.216.936-.072,1.008-.072.936.072.936.072,1.008.216.936.288.936.36.936.432.864.504.792.504.792.648.792.72.648.72.648.792.576.864.504.864.432.864.288,1.008.288.864.216,1.008.144h1.94393l.936-.144,1.008-.216.864-.288.936-.288.864-.432.864-.504.72-.576.792-.648.648-.648.648-.792.576-.792.504-.792.432-.864.36-.936.216-.936.216-.936.144-1.008Z"/><path class="b" d="M56.2301,132.18785v-1.008l-.144-.936-.216-.936-.288-.936-.288-.936-.432-.864-.504-.792-.576-.792-.648-.792-.648-.648-.792-.648-.792-.576-.792-.432-.864-.504-.936-.288-.936-.288-.936-.216-.936-.144-1.008-.072-.936.072-1.008.144-.936.216-.936.288-.936.288-.864.504-.792.432-.792.576-.72.648-.72.648-.648.792-.504.792-.504.792-.432.864-.36.936-.288.936-.216.936-.072.936-.072,1.008.072.936.072,1.008.216.936.288.936.36.864.432.864.504.864.504.792.648.72.72.72.72.576.792.576.792.504.864.432.936.36.936.288.936.216,1.008.072.936.072,1.008-.072.936-.072.936-.216.936-.288.936-.36.864-.432.792-.504.792-.576.792-.576.648-.72.648-.72.576-.792.504-.864.432-.864.288-.864.288-.936.216-.936.144-1.008Z"/><path class="b" d="M97.19672,140.10759l-3.0959,11.37561-2.15993-.648-2.08793-.648-2.08793-.792-2.08793-.864-2.08792-1.008-2.01594-1.008-1.94393-1.08-1.94394-1.152-1.87193-1.296-1.79994-1.296-1.72794-1.368-1.72794-1.51195-1.656-1.512-1.584-1.58394-1.58394-1.584-1.43995-1.72794-1.44-1.72794-1.368-1.87194L60.262,127.004l-1.224-1.94393-1.152-1.94394-1.008-2.01593-1.008-2.01593-.864-2.01593-.792-2.08793-.792-2.15993-.648-2.15993-.576-2.15993-.432-2.23192-.432-2.15993-.288-2.23192-.288-2.23193-.144-2.30392V92.87718l.144-2.23192.216-2.23193.288-2.23192.36-2.23193.432-2.23192.504-2.15993L65.0858,82.86952l-.432,1.94393-.432,1.94394-.288,2.01593-.216,2.01593-.144,1.94394-.072,2.01593.072,2.01593.144,1.94394.216,2.01593.288,1.94393.432,1.94394.432,2.01593.576,1.87193.648,1.94394.72,1.79994.792,1.87193.864,1.79994,1.008,1.728,1.008,1.72794,1.152,1.65594,1.152,1.584,1.224,1.58394,1.368,1.512,1.368,1.43995,1.43995,1.368,1.43995,1.29595,1.584,1.296,1.58394,1.152,1.728,1.152,1.72794,1.008,1.72794.936,1.72794.936,1.87194.792,1.87193.72,1.87194.648,1.94394.576L94.10082,151.4832Z"/><path class="b" d="M103.17251,163.79479l2.15993-.576,2.15993-.72,2.08793-.792,2.08793-.864,2.01593-.936,2.01593-1.08,1.94393-1.08,1.94394-1.152,1.87194-1.224,1.79994-1.368,1.79993-1.368,1.72795-1.44,1.65594-1.512,1.584-1.58394,1.58394-1.656,1.44-1.72794,1.44-1.72794,1.296-1.79994,1.296-1.87194,1.152-1.94393,1.152-1.87194,1.08-2.01593.936-2.08793.936-2.01593.792-2.08793.72-2.15993.648-2.15992.576-2.15993.504-2.15993.36-2.23192.36-2.23193.216-2.23192.144-2.23193.072-2.30392-.072-2.23192-.072-2.23193-.216-2.23192-.288-2.23193-.36-2.23192-.504-2.23193-.504-2.15992L132.25953,95.2531l.432,1.87194.432,2.01593.288,1.94394.216,2.01593.072,1.94393.072,2.01593-.072,2.01594-.072,2.01593-.216,1.94393-.288,2.01593-.432,1.94394-.432,1.94393-.576,1.94394-.648,1.87193-.72,1.87194-.792,1.79994-.936,1.79994-.936,1.72794-1.008,1.72794-1.152,1.65595-1.152,1.65594-1.224,1.512-1.368,1.51195-1.368,1.44-1.43995,1.368-1.51195,1.368-1.58394,1.224-1.58395,1.152-1.656,1.152-1.72794,1.008-1.72794.936-1.79994.936-1.79994.792-1.87193.72-1.94394.648-1.87193.576Z"/></svg>