<svg id="Vrstva_1" data-name="Vrstva 1" xmlns="http://www.w3.org/2000/svg" viewBox="0 0 675.92 227.95"><defs><style>.cls-1{fill:#c01c1b;}</style></defs><polygon class="cls-1" points="134.11 0.06 132.38 0.16 130.65 0.36 128.97 0.7 127.33 1.23 125.7 1.85 124.14 2.63 122.66 3.48 121.25 4.45 119.95 5.58 118.7 6.77 117.59 8.11 116.59 9.46 115.69 10.93 114.94 12.49 114.34 14.05 113.84 15.67 113.52 17.36 113.29 19.02 113.22 20.75 113.32 22.43 113.53 24.14 113.92 25.8 114.39 27.38 115.03 28.95 115.8 30.51 116.69 31.96 117.7 33.34 118.82 34.62 120.05 35.83 121.39 36.93 122.79 37.89 124.3 38.75 125.87 39.51 127.46 40.11 129.13 40.59 130.83 40.92 132.58 41.15 134.3 41.2 136.01 41.11 137.76 40.88 139.44 40.53 141.1 40.07 142.72 39.45 144.28 38.68 145.7 37.8 147.15 36.78 148.47 35.7 149.69 34.48 150.8 33.18 151.8 31.83 152.71 30.36 153.45 28.81 154.05 27.24 154.55 25.58 154.9 23.93 155.11 22.22 155.14 20.52 155.1 18.87 154.88 17.17 154.52 15.49 154.01 13.85 153.37 12.29 152.59 10.76 151.72 9.3 150.7 7.96 149.55 6.64 148.32 5.45 146.99 4.36 145.59 3.39 144.09 2.5 142.51 1.78 140.92 1.17 139.24 0.69 137.54 0.34 135.83 0.15 134.11 0.06"/><path class="cls-1" d="M75.92,91A10.72,10.72,0,0,1,69.3,71.86a104.94,104.94,0,0,1,129.76,0,10.72,10.72,0,0,1-13.23,16.88c-7-5.5-26.21-18.22-52.84-17.88A84.3,84.3,0,0,0,82.54,88.74,10.7,10.7,0,0,1,75.92,91Z"/><polygon class="cls-1" points="228.9 206.76 229.68 205.21 230.37 203.61 230.91 201.98 231.27 200.31 231.55 198.58 231.66 196.85 231.67 195.13 231.53 193.43 231.19 191.73 230.79 190.06 230.19 188.43 229.51 186.89 228.69 185.37 227.72 183.95 226.66 182.65 225.51 181.41 224.21 180.28 222.89 179.25 221.42 178.32 219.92 177.57 218.34 176.9 216.7 176.41 215.09 176.03 213.42 175.79 211.69 175.68 209.98 175.73 208.28 175.91 206.62 176.24 204.95 176.71 203.33 177.31 201.79 178.04 200.3 178.92 198.86 179.9 197.54 180.97 196.29 182.19 195.15 183.49 194.08 184.89 193.18 186.36 192.4 187.88 191.72 189.51 191.19 191.14 190.76 192.81 190.48 194.52 190.37 196.26 190.42 197.93 190.57 199.69 190.85 201.38 191.3 203.04 191.87 204.66 192.54 206.2 193.36 207.72 194.33 209.13 195.39 210.44 196.57 211.7 197.83 212.83 199.21 213.87 200.66 214.74 202.11 215.54 203.69 216.19 205.33 216.72 207.01 217.1 208.68 217.33 210.39 217.41 212.09 217.39 213.76 217.18 215.48 216.84 217.12 216.37 218.74 215.76 220.27 215.04 221.79 214.18 223.21 213.18 224.53 212.1 225.79 210.89 226.94 209.59 227.96 208.2 228.9 206.76"/><path class="cls-1" d="M179.21,110.89a10.73,10.73,0,0,1,19.91,3.84,104.94,104.94,0,0,1-64.88,112.38,10.72,10.72,0,0,1-8-19.9c8.27-3.32,28.88-13.59,41.9-36.82a84.36,84.36,0,0,0,9.75-52.63A10.73,10.73,0,0,1,179.21,110.89Z"/><polygon class="cls-1" points="3 185.89 3.95 187.34 4.99 188.74 6.13 190.02 7.4 191.17 8.76 192.28 10.21 193.24 11.69 194.1 13.23 194.83 14.87 195.39 16.52 195.87 18.23 196.17 19.9 196.35 21.63 196.41 23.35 196.27 25 196.01 26.65 195.63 28.28 195.07 29.83 194.44 31.37 193.63 32.77 192.7 34.14 191.67 35.39 190.5 36.52 189.3 37.56 187.96 38.52 186.52 39.33 185.02 40.03 183.46 40.57 181.85 41.01 180.18 41.29 178.46 41.43 176.77 41.41 175.04 41.28 173.3 41.01 171.62 40.59 169.93 40.03 168.3 39.35 166.67 38.53 165.15 37.6 163.71 36.53 162.32 35.38 161.04 34.15 159.83 32.81 158.74 31.36 157.76 29.89 156.98 28.28 156.23 26.68 155.63 25.02 155.18 23.34 154.87 21.67 154.68 19.94 154.63 18.23 154.76 16.57 155.03 14.88 155.42 13.28 155.95 11.69 156.62 10.21 157.44 8.8 158.3 7.43 159.34 6.16 160.5 4.99 161.76 3.96 163.09 3.03 164.53 2.2 166.02 1.54 167.56 0.98 169.22 0.56 170.88 0.28 172.59 0.15 174.28 0.13 176.02 0.29 177.75 0.56 179.43 0.98 181.13 1.53 182.78 2.22 184.35 3 185.89"/><path class="cls-1" d="M110.87,190.79a10.73,10.73,0,0,1-13.28,15.33A104.95,104.95,0,0,1,32.71,93.73a10.72,10.72,0,0,1,21.23,3c-1.26,8.82-2.67,31.8,10.93,54.69a84.35,84.35,0,0,0,40.71,34.76A10.7,10.7,0,0,1,110.87,190.79Z"/><path class="cls-1" d="M318.74,59.23h-3.65c-2.13-5.7-5.43-8.46-10.66-8.46-7.77,0-11.69,6.26-11.69,19,0,12.17,4.06,18.49,11.69,18.49,5.16,0,8.67-2.81,10.66-8.52h3.65v8.46c-4.75,3.64-9.49,5.5-14.31,5.5-11.69,0-18.15-8.32-18.15-23.93s6.46-23.87,18.15-23.87c4.2,0,9,1.72,14.31,5.09Z"/><path class="cls-1" d="M322.59,52V46.79h32.46V52H341.84V92.66h-6V52Z"/><path class="cls-1" d="M366.88,75.12c0,7.15,1.44,13.27,9.69,13.27,7.09,0,9.63-4.26,9.63-13.27V46.79h6.05V74.71c0,13.06-4.19,19-15.68,19-12.58,0-15.75-7.36-15.75-19V46.79h6.06Z"/><path class="cls-1" d="M290.81,163.7a10.07,10.07,0,0,0,10,7.42c5.43,0,8.94-3.64,8.94-8s-3.44-6.26-10.39-9.08c-3.57-1.44-6.53-2.47-8.73-4.4a11.55,11.55,0,0,1-3.92-8.8c0-7,5.23-12.38,13.62-12.38a22.51,22.51,0,0,1,12.92,4v8.39h-3.3c-1.65-5.09-4.88-7.71-9.56-7.71-4.33,0-7.63,3-7.63,6.88,0,5.64,3.92,6.4,10.52,8.87,8.12,3,12.11,6.81,12.11,13.62,0,7.91-5.37,13.75-14.58,13.75a25.18,25.18,0,0,1-13.62-4.05V163.7Z"/><path class="cls-1" d="M326.09,145.75h-5.84v-4h5.84v-8.94h5.71v8.94h7.57v4H331.8v20.08c0,4.88.21,5.43,5,5.43h2.55v3.92h-4.13c-8.32,0-9.15-.82-9.15-9.08Z"/><path class="cls-1" d="M364.47,175.18V173l-.55-.14a11.7,11.7,0,0,1-8.53,3.37,9.47,9.47,0,0,1-9.15-6.12c-1-2.4-.89-5.7-.89-10V141.76h5.71v20.36c0,6,1,9.28,6,9.28,2.48,0,4.81-1.1,7.5-3.3V141.76h5.77v33.42Z"/><path class="cls-1" d="M399,175.18v-2.54l-.69-.28c-2.4,2.55-4.81,3.85-7.84,3.85-7.08,0-12.38-6.25-12.38-17.74,0-11.28,5.23-17.74,12.25-17.74,2.95,0,5.5,1.24,8,3.78l.69-.14V128.28h5.71v46.9Zm0-26.06c-2.47-2.27-4.74-3.37-7.08-3.37q-7.85,0-7.84,12.79c0,8.46,2.75,12.65,7.84,12.65,2.47,0,4.74-1.17,7.08-3.44Z"/><path class="cls-1" d="M418.32,160.05c0,7.43,3.16,11.14,9.35,11.14,3.44,0,6.05-1.17,9-3.78H439v5.71c-3.92,1.92-7.43,3.09-11.42,3.09-9.9,0-15.27-6-15.27-17.39,0-11.63,5.64-18.09,14.24-18.09,7.36,0,12.45,5,12.45,13.61v5.71Zm15.13-4v-.82c0-6.88-1.65-10.52-7.09-10.52-5.16,0-7.91,3.78-8,11.34Z"/><path class="cls-1" d="M452.49,141.76V144l.55.14a11.72,11.72,0,0,1,8.53-3.37c6.4,0,10,3.92,10,12.72v21.73H465.9V155.1c0-6.53-1-9.56-6-9.56-2.47,0-4.81,1-7.49,3.23v26.41h-5.78V141.76Z"/><path class="cls-1" d="M483.65,145.75H477.8v-4h5.85v-8.94h5.71v8.94h7.56v4h-7.56v20.08c0,4.88.2,5.43,5,5.43h2.54v3.92H492.8c-8.33,0-9.15-.82-9.15-9.08Z"/><path class="cls-1" d="M526.29,157.65c0,7.15,1.44,13.27,9.69,13.27,7.09,0,9.63-4.26,9.63-13.27V129.31h6v27.92c0,13.07-4.19,19-15.68,19-12.58,0-15.75-7.35-15.75-19V129.31h6.06Z"/><path class="cls-1" d="M567.07,141.76V144l.55.14a11.68,11.68,0,0,1,8.52-3.37c6.4,0,10.05,3.92,10.05,12.72v21.73h-5.71V155.1c0-6.53-1-9.56-6-9.56-2.47,0-4.81,1-7.49,3.23v26.41h-5.78V141.76Z"/><path class="cls-1" d="M602.62,128.28v5.57h-7.29v-5.57Zm-1,46.9h-5.78V141.76h5.78Z"/><path class="cls-1" d="M638.59,158.33c0,11.42-5.43,17.88-14.31,17.88-9.07,0-14.37-6.74-14.37-18.29,0-10.59,5.71-17.19,14.17-17.19C633.22,140.73,638.59,147.06,638.59,158.33ZM615.83,158c0,8.87,3,13.41,8.45,13.41,5.16,0,8.39-4.54,8.39-13.14,0-8.39-2.95-12.72-8.52-12.72C619,145.54,615.83,149.81,615.83,158Z"/><path class="cls-1" d="M652.07,141.76V144l.55.14a11.7,11.7,0,0,1,8.53-3.37c6.39,0,10,3.92,10,12.72v21.73h-5.71V155.1c0-6.53-1-9.56-6-9.56-2.48,0-4.82,1-7.5,3.23v26.41h-5.78V141.76Z"/></svg>