<svg id="Vrstva_1" data-name="Vrstva 1" xmlns="http://www.w3.org/2000/svg" viewBox="0 0 385.33 415.81"><defs><style>.cls-1{fill:#c01c1b;}</style></defs><polygon class="cls-1" points="211.98 0 210.25 0.09 208.52 0.3 206.84 0.64 205.21 1.17 203.57 1.79 202.02 2.56 200.53 3.41 199.12 4.39 197.82 5.52 196.58 6.71 195.46 8.04 194.47 9.4 193.56 10.87 192.82 12.42 192.22 13.99 191.72 15.61 191.39 17.3 191.17 18.95 191.1 20.69 191.2 22.37 191.4 24.07 191.79 25.74 192.27 27.32 192.91 28.89 193.68 30.44 194.57 31.89 195.58 33.28 196.7 34.55 197.93 35.77 199.27 36.87 200.66 37.83 202.18 38.69 203.74 39.44 205.33 40.05 207.01 40.53 208.7 40.86 210.45 41.09 212.18 41.13 213.89 41.05 215.63 40.82 217.31 40.46 218.97 40 220.59 39.39 222.16 38.62 223.58 37.74 225.03 36.72 226.35 35.64 227.56 34.42 228.68 33.12 229.67 31.77 230.58 30.3 231.32 28.75 231.92 27.18 232.43 25.52 232.78 23.87 232.98 22.15 233.01 20.46 232.98 18.81 232.76 17.11 232.39 15.43 231.88 13.79 231.25 12.22 230.46 10.7 229.59 9.24 228.58 7.9 227.42 6.58 226.2 5.39 224.86 4.29 223.46 3.33 221.97 2.44 220.38 1.72 218.79 1.11 217.12 0.63 215.41 0.28 213.7 0.09 211.98 0"/><path class="cls-1" d="M153.8,91a10.72,10.72,0,0,1-6.63-19.16,105,105,0,0,1,129.77,0A10.72,10.72,0,1,1,263.7,88.67c-7-5.5-26.21-18.21-52.83-17.87a84.37,84.37,0,0,0-50.46,17.87A10.68,10.68,0,0,1,153.8,91Z"/><polygon class="cls-1" points="306.77 206.69 307.56 205.15 308.25 203.55 308.79 201.92 309.15 200.25 309.43 198.52 309.54 196.78 309.54 195.07 309.4 193.37 309.07 191.67 308.67 190 308.06 188.37 307.39 186.83 306.57 185.31 305.6 183.88 304.54 182.59 303.39 181.34 302.09 180.22 300.76 179.19 299.3 178.26 297.79 177.51 296.21 176.84 294.58 176.34 292.97 175.96 291.29 175.73 289.56 175.62 287.86 175.67 286.15 175.85 284.49 176.18 282.83 176.64 281.2 177.25 279.67 177.98 278.17 178.86 276.73 179.84 275.42 180.91 274.16 182.12 273.03 183.43 271.96 184.83 271.05 186.3 270.27 187.82 269.6 189.45 269.06 191.08 268.63 192.75 268.36 194.46 268.24 196.2 268.29 197.87 268.45 199.63 268.73 201.32 269.18 202.98 269.74 204.59 270.42 206.13 271.23 207.65 272.21 209.07 273.26 210.38 274.45 211.64 275.71 212.77 277.09 213.81 278.54 214.68 279.99 215.47 281.57 216.13 283.2 216.65 284.88 217.04 286.55 217.27 288.27 217.35 289.97 217.33 291.63 217.12 293.35 216.78 295 216.31 296.62 215.7 298.15 214.97 299.67 214.12 301.09 213.11 302.4 212.04 303.66 210.83 304.82 209.53 305.83 208.14 306.77 206.69"/><path class="cls-1" d="M257.09,110.83A10.72,10.72,0,0,1,277,114.67a105,105,0,0,1-64.88,112.38,10.72,10.72,0,0,1-8-19.9c8.27-3.33,28.88-13.59,41.9-36.82a84.28,84.28,0,0,0,9.74-52.63A10.68,10.68,0,0,1,257.09,110.83Z"/><polygon class="cls-1" points="80.88 185.82 81.83 187.28 82.87 188.67 84.01 189.96 85.28 191.1 86.63 192.21 88.08 193.17 89.56 194.03 91.11 194.77 92.74 195.32 94.39 195.81 96.11 196.11 97.78 196.29 99.5 196.34 101.22 196.21 102.88 195.94 104.53 195.57 106.15 195.01 107.7 194.37 109.24 193.57 110.64 192.64 112.02 191.61 113.26 190.44 114.4 189.24 115.44 187.9 116.4 186.46 117.21 184.96 117.9 183.39 118.45 181.78 118.88 180.11 119.16 178.4 119.3 176.71 119.29 174.97 119.16 173.24 118.89 171.56 118.47 169.87 117.9 168.23 117.22 166.6 116.41 165.09 115.48 163.65 114.4 162.25 113.26 160.97 112.03 159.77 110.69 158.68 109.23 157.7 107.76 156.91 106.16 156.16 104.56 155.56 102.89 155.12 101.22 154.81 99.54 154.62 97.82 154.57 96.1 154.7 94.45 154.97 92.76 155.36 91.15 155.88 89.56 156.56 88.08 157.38 86.67 158.24 85.31 159.28 84.04 160.43 82.87 161.69 81.83 163.03 80.91 164.47 80.08 165.95 79.42 167.5 78.86 169.16 78.44 170.82 78.16 172.52 78.02 174.22 78 175.96 78.17 177.69 78.44 179.37 78.86 181.06 79.4 182.72 80.1 184.29 80.88 185.82"/><path class="cls-1" d="M188.75,190.73a10.73,10.73,0,0,1-13.28,15.32A104.95,104.95,0,0,1,110.58,93.67a10.72,10.72,0,1,1,21.23,3c-1.25,8.82-2.66,31.8,10.94,54.69a84.37,84.37,0,0,0,40.71,34.76A10.74,10.74,0,0,1,188.75,190.73Z"/><path class="cls-1" d="M172.28,298.83h-3.64c-2.14-5.71-5.44-8.46-10.66-8.46-7.78,0-11.7,6.26-11.7,19,0,12.17,4.06,18.5,11.7,18.5,5.15,0,8.66-2.82,10.66-8.53h3.64v8.46c-4.75,3.65-9.49,5.5-14.3,5.5-11.7,0-18.16-8.32-18.16-23.93s6.46-23.86,18.16-23.86c4.19,0,9,1.72,14.3,5.09Z"/><path class="cls-1" d="M176.13,291.61v-5.23h32.46v5.23h-13.2v40.64h-6V291.61Z"/><path class="cls-1" d="M220.42,314.72c0,7.15,1.45,13.27,9.7,13.27,7.08,0,9.63-4.27,9.63-13.27V286.38h6.05V314.3c0,13.07-4.2,19-15.68,19-12.59,0-15.75-7.36-15.75-19V286.38h6Z"/><path class="cls-1" d="M5,403.29a10.05,10.05,0,0,0,10,7.43c5.44,0,8.94-3.64,8.94-8.05s-3.44-6.25-10.38-9.07c-3.58-1.45-6.54-2.48-8.74-4.4a11.61,11.61,0,0,1-3.92-8.81c0-7,5.23-12.38,13.62-12.38a22.6,22.6,0,0,1,12.93,4v8.39h-3.3c-1.65-5.09-4.88-7.7-9.56-7.7-4.33,0-7.63,3-7.63,6.88,0,5.64,3.92,6.39,10.52,8.87,8.11,3,12.1,6.81,12.1,13.62,0,7.9-5.36,13.75-14.58,13.75a25.18,25.18,0,0,1-13.61-4.06v-8.46Z"/><path class="cls-1" d="M40.24,385.34H34.39v-4h5.85v-8.94H46v8.94h7.56v4H46v20.09c0,4.88.2,5.43,5,5.43h2.54v3.92H49.39c-8.33,0-9.15-.83-9.15-9.08Z"/><path class="cls-1" d="M78.61,414.78v-2.2l-.55-.14a11.68,11.68,0,0,1-8.52,3.37,9.47,9.47,0,0,1-9.15-6.12c-1-2.41-.9-5.71-.9-10V381.36H65.2v20.35c0,6,1,9.29,6,9.29,2.47,0,4.81-1.1,7.49-3.3V381.36h5.78v33.42Z"/><path class="cls-1" d="M113.14,414.78v-2.55l-.69-.27c-2.41,2.54-4.81,3.85-7.84,3.85-7.08,0-12.38-6.26-12.38-17.74,0-11.28,5.23-17.75,12.24-17.75,3,0,5.5,1.24,8,3.79l.69-.14V367.88h5.7v46.9Zm0-26.07c-2.48-2.27-4.75-3.37-7.09-3.37q-7.83,0-7.84,12.8c0,8.45,2.75,12.65,7.84,12.65,2.48,0,4.75-1.17,7.09-3.44Z"/><path class="cls-1" d="M132.46,399.65c0,7.43,3.17,11.14,9.36,11.14,3.43,0,6.05-1.17,9-3.78h2.34v5.71c-3.92,1.92-7.42,3.09-11.41,3.09-9.91,0-15.27-6-15.27-17.4,0-11.62,5.64-18.09,14.23-18.09,7.36,0,12.45,5,12.45,13.62v5.71Zm15.13-4v-.82c0-6.88-1.65-10.53-7.08-10.53-5.16,0-7.91,3.78-8,11.35Z"/><path class="cls-1" d="M166.64,381.36v2.2l.55.13a11.74,11.74,0,0,1,8.53-3.37c6.39,0,10,3.92,10,12.73v21.73h-5.71V394.7c0-6.54-1-9.56-6-9.56-2.48,0-4.82,1-7.5,3.23v26.41h-5.78V381.36Z"/><path class="cls-1" d="M197.79,385.34H192v-4h5.84v-8.94h5.71v8.94h7.57v4H203.5v20.09c0,4.88.21,5.43,5,5.43h2.55v3.92h-4.13c-8.32,0-9.15-.83-9.15-9.08Z"/><path class="cls-1" d="M240.43,397.24c0,7.15,1.45,13.27,9.7,13.27,7.08,0,9.63-4.26,9.63-13.27V368.91h6.05v27.92c0,13.07-4.2,19-15.68,19-12.59,0-15.75-7.36-15.75-19V368.91h6.05Z"/><path class="cls-1" d="M281.21,381.36v2.2l.55.13a11.76,11.76,0,0,1,8.53-3.37c6.4,0,10,3.92,10,12.73v21.73h-5.71V394.7c0-6.54-1-9.56-6-9.56-2.48,0-4.81,1-7.5,3.23v26.41h-5.77V381.36Z"/><path class="cls-1" d="M316.77,367.88v5.57h-7.29v-5.57Zm-1,46.9H310V381.36h5.78Z"/><path class="cls-1" d="M352.73,397.93c0,11.42-5.43,17.88-14.3,17.88-9.08,0-14.37-6.74-14.37-18.29,0-10.59,5.7-17.2,14.16-17.2C347.37,380.32,352.73,386.65,352.73,397.93ZM330,397.59c0,8.87,3,13.41,8.46,13.41,5.16,0,8.39-4.54,8.39-13.14,0-8.39-3-12.72-8.53-12.72C333.13,385.14,330,389.4,330,397.59Z"/><path class="cls-1" d="M366.21,381.36v2.2l.55.13a11.76,11.76,0,0,1,8.53-3.37c6.4,0,10,3.92,10,12.73v21.73h-5.71V394.7c0-6.54-1-9.56-6-9.56-2.47,0-4.81,1-7.49,3.23v26.41h-5.78V381.36Z"/></svg>