<svg xmlns="http://www.w3.org/2000/svg" viewBox="0 0 418 106"><title>logo_horizontalni_mono_white</title><g id="Vrstva_2" data-name="Vrstva 2"><rect x="-41.67" y="-34.67" width="499" height="164.67" style="fill:none"/></g><g id="Vrstva_1" data-name="Vrstva 1"><path d="M222,70.49v2.7a2.37,2.37,0,0,1-.3,1.32,4,4,0,0,1-3.3,1.8,2.22,2.22,0,0,1-2.39-2.22c0-2.1,2.87-3.18,6-3.6m-70.72,0v2.7a2.37,2.37,0,0,1-.3,1.32,4,4,0,0,1-3.3,1.8,2.22,2.22,0,0,1-2.39-2.22c0-2.1,2.87-3.18,6-3.6M64,63.65a12.79,12.79,0,0,0-2.93.42c.06.78.12,4.26.12,6.54v2.1c0,2.22-.06,4.44-.06,6a17.7,17.7,0,0,0,2.57-.24c.66-.06.84-.24.84-1V66.05c0-2.22-.12-2.4-.54-2.4m110.12,0a17,17,0,0,0-2.93.36c.06.84.12,4.32.12,6.6v2.1c0,2.22-.06,4.44-.12,6a19.79,19.79,0,0,0,2.63-.24c.6-.06.84-.24.84-1V66c0-2.16-.12-2.34-.54-2.34m10.3-.06h.06c3.53,0,4.91,3.42,4.91,6.66,0,4.5-2.27,6.42-4.55,6.42-2.81,0-5.09-2.28-5.09-6.78,0-4,2.22-6.3,4.67-6.3m-79.88-.06h.06c2.34,0,3.53,1.68,3.53,4a.84.84,0,0,1-.83.78c-.66,0-4.08.06-6.71,0,.24-3.06,2.09-4.74,3.95-4.74m115-2.16a10.32,10.32,0,0,0-6.29,2.52c.18,1.14.72,2,1.86,1.44A7.32,7.32,0,0,1,218.8,64,3.2,3.2,0,0,1,222,67.49v1c-.54.06-1.32.24-2,.36-2,.54-7.25,1.68-7.25,5.7a4.36,4.36,0,0,0,4.5,4.38A6.82,6.82,0,0,0,222,76.55a2.78,2.78,0,0,0,2.75,2.34c1.68,0,2.58-.78,2.52-2.4l-.06-.12a3.51,3.51,0,0,1-.78.12,1.15,1.15,0,0,1-1.26-1.2c-.06-2.28.06-5.88.06-7.5,0-3.66-1.86-6.42-5.75-6.42m-14.79,0c-2.09,0-4.19,1.32-5.75,2.88-.12-1-.42-2.82-1.67-2.82a3.34,3.34,0,0,0-2.16,1.26v.18c.48.36.66,1,.66,2.4v6.42c0,3.36-.06,5.58-.12,7a20.15,20.15,0,0,0,2.69-.18c.6-.06.78-.18.78-1V66.29a6,6,0,0,1,4.31-2.22c2.28,0,3.54,1.5,3.54,4.38v9.66c0,.42.12.6.54.6a18.74,18.74,0,0,0,2.93-.36c-.06-1-.12-2.58-.12-4.74V68.39c0-3.6-1.2-7-5.63-7m-20.06,0c-5,0-8.5,3.9-8.5,8.94,0,4.5,2.75,8.58,8.32,8.58,5.15,0,8.38-3.84,8.38-8.94,0-4.92-2.93-8.58-8.2-8.58m-35.87,0a10.26,10.26,0,0,0-6.28,2.52c.17,1.14.71,2,1.85,1.44A7.32,7.32,0,0,1,148,64a3.21,3.21,0,0,1,3.3,3.48v1c-.54.06-1.32.24-2,.36-2.09.54-7.3,1.68-7.3,5.7a4.35,4.35,0,0,0,4.49,4.38,6.82,6.82,0,0,0,4.79-2.34,2.79,2.79,0,0,0,2.75,2.34c1.68,0,2.58-.78,2.52-2.4l-.06-.12a3.51,3.51,0,0,1-.78.12,1.15,1.15,0,0,1-1.26-1.2c-.06-2.28.06-5.88.06-7.5,0-3.66-1.86-6.42-5.75-6.42m-14.79,0c-2.09,0-4.19,1.32-5.75,2.88-.12-1-.42-2.82-1.67-2.82a3.34,3.34,0,0,0-2.16,1.26v.18c.48.36.66,1,.66,2.4v6.42c0,3.36-.06,5.58-.12,7a20.15,20.15,0,0,0,2.69-.18c.6-.06.78-.18.78-1V66.29a6,6,0,0,1,4.31-2.22c2.28,0,3.54,1.5,3.54,4.38v9.66c0,.42.18.6.6.6a18.85,18.85,0,0,0,2.87-.36c-.06-1-.12-2.58-.12-4.74V68.39c0-3.6-1.2-7-5.63-7m-19,0a3.67,3.67,0,0,0-2.16,1.38v.18a2.82,2.82,0,0,1,.84,2.4v6.36c0,3.36,0,5.58-.12,7a23.73,23.73,0,0,0,2.82-.18c.54-.06.66-.36.66-.9v-8.4a5,5,0,0,1,.41-2c.78-1.86,2-2.7,2.88-2.7a4.42,4.42,0,0,1,1.38.3,1.28,1.28,0,0,0,1.13-.78,4.17,4.17,0,0,0,.48-2,3,3,0,0,0-1.91-.72c-1.74,0-3.36,1.32-4.61,3.78,0-2.46-.72-3.78-1.8-3.78m-10,0c-5,0-7.9,4.26-7.9,9,0,5.4,2.87,8.52,8.14,8.52a8.74,8.74,0,0,0,3.77-.84,3.11,3.11,0,0,0,1.56-2.7l-.12-.12a10.79,10.79,0,0,1-4.31,1c-3.36,0-5.63-2.16-5.75-5.88a57.16,57.16,0,0,0,7.6-.12c1.32-.18,3.18-.72,3.3-1.32a7.65,7.65,0,0,0,.06-1.2c-.06-3.06-1.92-6.36-6.35-6.36m-27.37,0c-2.09,0-4.19,1.32-5.74,2.88-.12-1-.42-2.82-1.68-2.82A3.34,3.34,0,0,0,68,62.69v.18c.48.36.66,1,.66,2.4v6.42c0,3.36-.06,5.58-.12,7a18.87,18.87,0,0,0,2.64-.18c.66-.06.84-.18.84-1V66.29a5.92,5.92,0,0,1,4.31-2.22c2.27,0,3.53,1.5,3.53,4.38v9.66c0,.42.18.6.6.6a18.69,18.69,0,0,0,2.87-.36c-.06-1-.12-2.58-.12-4.74V68.39c0-3.6-1.19-7-5.63-7m-15-3.84a1.92,1.92,0,1,0,1.86,1.92,1.88,1.88,0,0,0-1.86-1.92m110.36,0a1.89,1.89,0,0,0-1.85,2,1.7,1.7,0,0,0,1.85,1.86,1.84,1.84,0,0,0,1.86-1.92,1.77,1.77,0,0,0-1.8-1.92Zm59.4-.06a11.48,11.48,0,0,0-2.93.48,30.36,30.36,0,0,1,.18,4.2V78.23c0,.36.18.48.48.48a18,18,0,0,0,2.93-.3c0-1.08-.12-3.12-.12-5V59.93c0-2.28-.12-2.46-.54-2.46m-69.93-.06a3.44,3.44,0,0,0-2,1A33.43,33.43,0,0,0,157,62.93c0,.42.54.84,1.85.84V73.91c0,2.88,1.38,5,4.79,5a5.89,5.89,0,0,0,3.54-1,2.3,2.3,0,0,0,.71-2.22l-.12-.12a5.57,5.57,0,0,1-2.87.84c-1.26,0-2.51-.6-2.69-2.76-.12-1.68-.18-6.06,0-9.84,2.69,0,2.87-.06,4.19-.12.66-.06,1.49-.24,1.91-2.22h-6c0-.84.06-2.88.12-4m-71.5,0a3.44,3.44,0,0,0-2,1,33.43,33.43,0,0,0-3.41,4.56c0,.42.54.84,1.92.84V73.91c0,2.88,1.31,5,4.73,5a5.64,5.64,0,0,0,3.53-1,2.32,2.32,0,0,0,.78-2.22l-.12-.12a5.88,5.88,0,0,1-2.94.84c-1.25,0-2.45-.6-2.69-2.76-.12-1.68-.18-6.06,0-9.84,2.69,0,2.93-.06,4.19-.12.66-.06,1.56-.24,1.92-2.22h-6c0-.84.06-2.88.12-4" style="fill:#fff"/><path d="M342.82,75.17a5.81,5.81,0,0,1-2.95.78c-1.33,0-2.54-.54-2.77-2.76-.12-1.62-.18-5.58,0-9.42a35.54,35.54,0,0,0,4.27-.12c.7,0,1.56-.18,2-2.16h-6.19c0-.84.06-2.88.18-4a3.54,3.54,0,0,0-2.08.9,53.55,53.55,0,0,0-3.47,4.56c0,.42.57.9,1.9.9v9.66c0,2.88,1.39,5,4.86,5a6,6,0,0,0,3.64-1.08,2.14,2.14,0,0,0,.75-2.22l-.11-.06M326,77.69c0,.42.17.6.63.6a20.51,20.51,0,0,0,2.95-.3c-.06-1-.12-2.58-.12-4.8V68c0-3.6-1.21-7-5.78-7-2.14,0-4.27,1.32-5.89,2.88-.06-.9-.41-2.82-1.68-2.82a3.54,3.54,0,0,0-2.25,1.32v.12c.52.36.75,1,.75,2.46v6.36c0,3.36-.06,5.58-.18,7a19.41,19.41,0,0,0,2.72-.18c.7-.06.87-.18.87-1V65.87a6.3,6.3,0,0,1,4.39-2.22c2.31,0,3.59,1.5,3.59,4.38ZM305.24,63.11c2.43,0,3.64,1.68,3.59,4a.84.84,0,0,1-.81.78c-.7.06-4.16.06-6.88,0,.29-3.06,2.19-4.74,4.1-4.74m6,11.7a11.1,11.1,0,0,1-4.39,1c-3.41,0-5.78-2.1-5.84-5.82,2.78.06,6.65,0,7.69-.12,1.39-.24,3.3-.78,3.41-1.38a7.65,7.65,0,0,0,.06-1.2A6.15,6.15,0,0,0,305.71,61c-5.15,0-8.1,4.26-8.1,9.06,0,5.4,2.95,8.52,8.38,8.52a10.18,10.18,0,0,0,3.82-.84,3.37,3.37,0,0,0,1.56-2.76ZM291,74.57a6.28,6.28,0,0,1-3.58,1.2c-3.18,0-5.44-2.34-5.44-6,0-4.44,3-6.54,6-6.54a6.59,6.59,0,0,1,3,.6Zm0-13.08a9.29,9.29,0,0,0-3-.54c-5.44,0-9.66,3.84-9.66,9.24s3.41,8.34,7.58,8.34a10.37,10.37,0,0,0,5.49-2.22,2.74,2.74,0,0,0,2.89,2.22c.92,0,1.73-1.08,1.9-2v-.12c-1.15-.24-1.79-.6-1.79-2.34V59.93c0-2.28-.11-2.46-.58-2.46a11.34,11.34,0,0,0-3,.54,14.61,14.61,0,0,1,.17,3ZM260.61,72.17c0,3.78,1.91,6.36,5.84,6.36A6.9,6.9,0,0,0,269,78a8.91,8.91,0,0,0,3.23-2.16,2.77,2.77,0,0,0,2.84,2.7,2.32,2.32,0,0,0,1.79-1.92v-.18c-1-.24-1.56-.6-1.56-2.4V68c0-3.36.11-6,.11-6.84a28.66,28.66,0,0,0-2.94.24c-.47.18-.58.36-.58,1.26v11.1a5.87,5.87,0,0,1-4.05,1.92c-1.73,0-3.82-.54-3.82-4.5,0-2.46,0-5.16,0-7.68,0-2.16-.12-2.34-.52-2.34a17.06,17.06,0,0,0-3,.36,32.53,32.53,0,0,1,.17,4.32Zm-1.73,3a6,6,0,0,1-2.95.78c-1.33,0-2.54-.54-2.77-2.76a79.67,79.67,0,0,1,0-9.42,35.45,35.45,0,0,0,4.27-.12c.7,0,1.57-.18,2-2.16h-6.18c0-.84.05-2.7.17-3.84a3.54,3.54,0,0,0-2.08.9,50.6,50.6,0,0,0-3.47,4.38c0,.42.58.9,1.91.9v9.66c0,2.88,1.38,5,4.85,5a6,6,0,0,0,3.64-1.08,2.17,2.17,0,0,0,.76-2.22ZM242.17,61c-3.12,0-5.89,1.86-5.89,5A4.42,4.42,0,0,0,239,70.07c.93.54,2,1,3,1.56,1.27.66,1.85,1.32,1.85,2.22,0,1.32-1,2.22-2.89,2.22a8.85,8.85,0,0,1-4.34-1.38,2.09,2.09,0,0,0-.75,1.5,1.29,1.29,0,0,0,.64,1.14,7.55,7.55,0,0,0,4.22,1.2c3.18,0,6.41-1.62,6.41-5.28a4.32,4.32,0,0,0-2.54-3.9c-1.16-.6-2.66-1.26-3.58-1.8a2.44,2.44,0,0,1-1.56-2.16c0-1.2,1.09-2,2.54-2a6.24,6.24,0,0,1,2.78.72c1,.12,1.5-1,1.5-1.74A6.24,6.24,0,0,0,242.17,61" style="fill:none;stroke:#fff;stroke-miterlimit:10;stroke-width:0.65px"/><path d="M362.28,77.87c0,.42.24.48.54.48a16.08,16.08,0,0,0,3.18-.3c-.06-1-.18-3.12-.18-5V60c0-2.28-.12-2.46-.6-2.46a12.67,12.67,0,0,0-3.06.54c.06.78.12,3.24.12,5.46V77.87m-3.72-2.7a12.55,12.55,0,0,1-4.26.78c-2.82,0-6.54-1.38-6.54-6.24a5.78,5.78,0,0,1,5.94-6.12,8.53,8.53,0,0,1,3.48.72c1.14.24,1.8-.84,1.8-1.86C358.56,62,356.7,61,353.82,61c-5.46,0-9.72,3.72-9.72,9.06,0,6.54,4.92,8.52,9.12,8.52a9.67,9.67,0,0,0,4.38-1,3.72,3.72,0,0,0,1.08-2.34ZM369,72.23c0,3.78,2,6.36,6.06,6.36a7.67,7.67,0,0,0,2.64-.54,9.89,9.89,0,0,0,3.36-2.16,2.82,2.82,0,0,0,2.94,2.7c.84,0,1.8-1.2,1.86-1.92v-.18c-1.08-.24-1.62-.6-1.62-2.4v-6c0-3.36.12-6,.12-6.84-1,0-1.86.12-3.06.24-.48.18-.6.36-.6,1.26v11.1a6.15,6.15,0,0,1-4.2,1.92c-1.8,0-4-.54-4-4.5,0-2.46,0-5.16-.06-7.68,0-2.16-.12-2.34-.54-2.34a18.42,18.42,0,0,0-3.12.36,31.92,31.92,0,0,1,.18,4.32ZM392.34,60c0-2.28-.18-2.46-.66-2.46a16,16,0,0,0-3.06.48c.06.78.12,2.94.12,5.28v13.2a1.12,1.12,0,0,0,.78,1.14,13,13,0,0,0,4.92,1c5.88,0,10.86-3.48,10.86-9.54,0-5.46-3.84-8-7.62-8a13.24,13.24,0,0,0-5.34,1.68Zm0,4.74a9.82,9.82,0,0,1,3.66-1c3.42,0,5.52,2.16,5.52,5.82,0,4.68-3.3,6.72-6.66,6.72a8.54,8.54,0,0,1-2.52-.3Z" style="fill:#fff"/><path d="M141.06,21.11c-.42,0-1.38.9-2.58,1.62C117.36,35.39,106.14,31,98,25.85a44.63,44.63,0,0,1-7.74-6.12c-1,.54-1.92,2.28-1.14,3.06,2,2,5.88,4.38,8.22,6.12,9.6,7.14,6.48,18.6-4.56,20.82S71.22,45.05,87.3,35.45c2.1-1.32,4.44-2.4,6.54-3.72.84-.72.12-2.34-.84-2.88-.42,0-1.32,1-2.4,1.74-1.38,1-4.56,2.82-6.42,3.78-10.92,6-18.72,2-27.18-.3-.72.78-1.14,2.4-.06,2.94,1.44.42,5.76,1.44,7.38,1.92,8.28,2.52,7,8.7,1.8,12.18-6.72,4.5-16,6.42-14.64-5.46a140.36,140.36,0,0,1,2.34-15.06c.12-1.08-2.1-1.68-3.18-1.56a45.92,45.92,0,0,1-1,8.16c-2.82,13.74-4,21.18-30.54,21.48a24.34,24.34,0,0,0-3.6.12c-.42,1-.06,2.64,1.08,2.82,7.62-.36,18-1.44,22.38-.84,4.92.72,6.06,5.46,3.9,9.06-1.92,3.18-6.66,5.34-7.44,5.4l-.18.12c-.24.6.24,2.94.84,3.3s2.52-.06,5.94-4c7.2-8.28,6.18-17.28-5.28-16.44C42.24,57,47.28,54.11,49.2,46.31c-2.88,12.36,7,13.8,17.64,5.94C73.92,47,74.46,39.77,68,38.39c4.56,1.44,10.32,0,13.2-1C77.46,40.49,74,46,80,49.55c7.92,4.68,21.72,1.2,25.26-8.16,1.26-3.3,1.14-7.5-1.68-10.44,2.76,1.44,10.5,3.54,20.52-.06-7.38,4.08-20.46,14.28-12.42,19,4,2.28,10.08,2.76,19.26,1.26a.65.65,0,0,0,.12-.66,3.63,3.63,0,0,0-1.5-2.22,14,14,0,0,1-4.5,1c-23.7.6-7.86-12.36,2-17.4,5-2.52,9.24-4.74,14.7-7.68,1-.6.18-2.52-.78-3.06" style="fill:#fff"/><path d="M75,35a4.19,4.19,0,0,0-.9-8.34A4.19,4.19,0,1,0,75,35" style="fill:none;stroke:#fff;stroke-miterlimit:10;fill-rule:evenodd"/><path d="M114.72,27.23a5.22,5.22,0,0,0,4.56-5.7,5.1,5.1,0,0,0-5.7-4.56,5.16,5.16,0,0,0,1.14,10.26" style="fill:none;stroke:#fff;stroke-miterlimit:10;fill-rule:evenodd"/><path d="M38.28,51.89a4.74,4.74,0,1,0-5.22-4.14,4.76,4.76,0,0,0,5.22,4.14" style="fill:none;stroke:#fff;stroke-miterlimit:10;fill-rule:evenodd"/><path d="M383.34,91.85h.78a3,3,0,0,1,1.8.42.62.62,0,0,1,.24.72c-.12.9-1.38,1-2.22,1s-2.22-.06-2.28-.66a1.26,1.26,0,0,1,.3-.78,1.63,1.63,0,0,1,.6-.48,3,3,0,0,1,.78-.18m-6.24-3.72v1.32a.76.76,0,0,1-.06.36c0,.12-.06.18-.06.24a1.91,1.91,0,0,1-.6.6,2,2,0,0,1-.9.3,1.14,1.14,0,0,1-.78-.3,1,1,0,0,1-.3-.78,1.29,1.29,0,0,1,.78-1.14,6,6,0,0,1,1.92-.6m-31.32-3.3h-.66a6.23,6.23,0,0,0-.72.18,2.71,2.71,0,0,1,.06.78c.06.3.06-.24.06.3v3.12a13.57,13.57,0,0,1-.06,1.62v1.32a2.25,2.25,0,0,0,.66-.06,1.33,1.33,0,0,0,.54-.06c.12,0,.24,0,.3-.12a.45.45,0,0,0,.06-.3V86a3.23,3.23,0,0,0-.06-1q-.09-.27-.18-.18m55-.06h.06a1.87,1.87,0,0,1,1.2.54,2.49,2.49,0,0,1,.36,1.38.42.42,0,0,1-.36.36,5.56,5.56,0,0,1-1.2.06c-.6,0-1.2,0-1.86-.06a2.85,2.85,0,0,1,.66-1.68,1.55,1.55,0,0,1,1.14-.6m-17.1-.06a1.43,1.43,0,0,1,1.14.6,2.22,2.22,0,0,1,.36,1.26,2.28,2.28,0,0,1-.36,1.32,1.25,1.25,0,0,1-1.14.54,1.5,1.5,0,0,1-1.08-.48,1.94,1.94,0,0,1-.42-1.32,2,2,0,0,1,.42-1.38,1.57,1.57,0,0,1,1.08-.54m6.54-.84a3.44,3.44,0,0,0-.72.06,5.2,5.2,0,0,0-.6.12v.78a7.3,7.3,0,0,1,.06,1.26v3.06a3.27,3.27,0,0,0,.66,2.22,2.42,2.42,0,0,0,1.92.84,1.78,1.78,0,0,0,.6-.12,1.75,1.75,0,0,0,.54-.12c.18-.12.42-.24.66-.42a2.54,2.54,0,0,0,.78-.66,1.58,1.58,0,0,0,.42,1,1.22,1.22,0,0,0,.84.36,1.42,1.42,0,0,0,.54-.36.77.77,0,0,0,.24-.6v-.06a.68.68,0,0,1-.48-.3,1.33,1.33,0,0,1-.18-.84V83.87a2.25,2.25,0,0,0-.6.06,2.69,2.69,0,0,0-.66.06.83.83,0,0,0-.24.18c-.06.06-.06.24-.06.42v5.34a1.89,1.89,0,0,1-.72.6,2.07,2.07,0,0,1-1.08.3,1.71,1.71,0,0,1-1.14-.36,2.38,2.38,0,0,1-.54-1.74V85c0-.48-.06-.84-.06-1s-.12-.18-.18-.18m10.8-.12a3.47,3.47,0,0,0-2.7,1.32,5.13,5.13,0,0,0-.9,3.06,4.3,4.3,0,0,0,1,3,3.65,3.65,0,0,0,2.76,1.08,6.06,6.06,0,0,0,1-.18,2.6,2.6,0,0,0,.66-.24,1.23,1.23,0,0,0,.48-.48,2,2,0,0,0,.24-.84l-.06-.06a1.92,1.92,0,0,1-.78.3,3.87,3.87,0,0,1-1.2.18,2.58,2.58,0,0,1-1.86-.72,3,3,0,0,1-.72-2h2A6.34,6.34,0,0,0,402.3,88a2.52,2.52,0,0,0,1-.24c.3-.12.54-.24.54-.36a.54.54,0,0,0,.06-.3v-.3a3.42,3.42,0,0,0-.72-2.1,2.82,2.82,0,0,0-2.16-1m-17.34,0a3.16,3.16,0,0,0-2.1.84,3,3,0,0,0-.9,2.1,2.39,2.39,0,0,0,.42,1.44,2.12,2.12,0,0,0,1,.9,1.42,1.42,0,0,1-.54.48,3.3,3.3,0,0,1-.54.42l-.12.12v.12a1.47,1.47,0,0,0,.3.9,1.64,1.64,0,0,0,.72.54,3.71,3.71,0,0,0-1,.66,1.28,1.28,0,0,0-.54,1.08c0,1.44,2,1.68,3.18,1.74,1.68,0,3.84-.54,4-2.4a1.86,1.86,0,0,0-.48-1.38,2,2,0,0,0-1.5-.72c-.36,0-.66-.06-1-.06a6.89,6.89,0,0,0-1.14-.06,3.78,3.78,0,0,1-.78-.18.45.45,0,0,1-.24-.42c0-.06.12-.12.18-.24a1.59,1.59,0,0,1,.36-.3c.12,0,.18.06.3.06h.42a3.15,3.15,0,0,0,2-.66,3,3,0,0,0,.9-2.16,2.13,2.13,0,0,0-.12-.6,2.71,2.71,0,0,0-.18-.66h.48a2,2,0,0,0,.72-.24,1.09,1.09,0,0,0,.24-.66v-.18a.22.22,0,0,1-.06-.18,1.43,1.43,0,0,1-.54.12,2,2,0,0,1-.6.06,2.92,2.92,0,0,1-.72-.06L385,84l-.66-.18c-.24,0-.48-.06-.66-.06Zm-7.68,0a5.32,5.32,0,0,0-1.68.42,4.71,4.71,0,0,0-1.2.84,1,1,0,0,0,.3.6c.12.18.3.18.54.06a3.67,3.67,0,0,1,.84-.42,2.12,2.12,0,0,1,.84-.18,1.36,1.36,0,0,1,1.14.48,2,2,0,0,1,.36,1.14v.48c-.12,0-.24.06-.42.06s-.3.06-.48.12a9,9,0,0,0-1.32.36,4.74,4.74,0,0,0-1.38.84,2.17,2.17,0,0,0-.6,1.56,2,2,0,0,0,.54,1.44,2.18,2.18,0,0,0,1.5.66,3.88,3.88,0,0,0,1.26-.36,6,6,0,0,0,.9-.78,1.43,1.43,0,0,0,.42.78,1.56,1.56,0,0,0,.84.36,1.19,1.19,0,0,0,.84-.3,1,1,0,0,0,.3-.9V91a.22.22,0,0,1-.18.06h-.18a.7.7,0,0,1-.42-.12.54.54,0,0,1-.18-.42V88.55c0-.72.06-1.26.06-1.68a3.62,3.62,0,0,0-.66-2.22,2.4,2.4,0,0,0-2-.9m-7.56,0a1.08,1.08,0,0,0-.54.24,1.81,1.81,0,0,0-.48.48v.06a.68.68,0,0,1,.3.48,2.16,2.16,0,0,1,.12.66v3.06c0,.78,0,1.44-.06,2v1.32c.36,0,.78-.06,1.26-.06.12-.06.18-.06.24-.18s.06-.12.06-.3v-4a1.17,1.17,0,0,1,.06-.48,1.41,1.41,0,0,1,.12-.48,2.45,2.45,0,0,1,.66-1,1.26,1.26,0,0,1,.66-.3h.3c.12.06.18.06.3.12s.24,0,.3-.12a.47.47,0,0,0,.24-.24,4.13,4.13,0,0,0,.18-.48c0-.18.06-.36.06-.48a.92.92,0,0,0-.36-.24,1.2,1.2,0,0,0-.54-.12,1.89,1.89,0,0,0-1.14.48,4,4,0,0,0-1,1.32,2.73,2.73,0,0,0-.24-1.32c-.12-.3-.3-.48-.54-.48m-15.78,0a2.33,2.33,0,0,0-1.38.42,3.91,3.91,0,0,0-1.26,1,2.36,2.36,0,0,0-.18-.84.7.7,0,0,0-.54-.54,1.34,1.34,0,0,0-.6.18,3,3,0,0,0-.42.48v.06c.12.06.18.24.24.42a2.47,2.47,0,0,1,.06.72v5.22a8.47,8.47,0,0,1-.06,1.32h.66c.18,0,.36-.06.6-.06S350,92,350,92a2.12,2.12,0,0,0,.06-.36V86.09a2.84,2.84,0,0,1,.78-.66,2,2,0,0,1,1.2-.36,1.51,1.51,0,0,1,1.2.54,2.55,2.55,0,0,1,.42,1.56l-.06,4.68a.28.28,0,0,0,.3.3,2.92,2.92,0,0,0,.72-.06,2.25,2.25,0,0,1,.6-.06v-1a9.73,9.73,0,0,1-.06-1.38V87.11a3.78,3.78,0,0,0-.54-2.34,2.11,2.11,0,0,0-2-1m-19.74-1.5c-.12,0-.3.06-.6.06s-.42.06-.54.06v.72a8.05,8.05,0,0,1,.06,1.26v3.12a5.34,5.34,0,0,0,1,3.66,3.58,3.58,0,0,0,2.76,1,4.93,4.93,0,0,0,1.8-.3,3,3,0,0,0,1.5-1.38,6.8,6.8,0,0,0,.66-3.3V83.39a8.49,8.49,0,0,0,.06-1.14.89.89,0,0,0-.42.06h-.54a.31.31,0,0,0-.24.12c-.06,0-.06.12-.06.24v4.56a5.45,5.45,0,0,1-.42,2.52,1.92,1.92,0,0,1-1,1.08,2.78,2.78,0,0,1-1.26.24,2.42,2.42,0,0,1-1.68-.6,4.07,4.07,0,0,1-.84-3V83.09a4.78,4.78,0,0,0-.06-.66c-.06-.12-.12-.18-.24-.18m-9.66,0c-.06.06-.12.18-.24.3a2.93,2.93,0,0,0-.18.42.27.27,0,0,0,0,.3c0,.06.12.06.24.06h2.88V92c.06,0,.12.06.24.06s.36-.06.6-.06.36-.06.54-.06V83.33H330a1,1,0,0,0,.36-.36,1.21,1.21,0,0,0,.18-.66h-6.72a4.63,4.63,0,0,1-.6-.06m-3.84-.18a5.55,5.55,0,0,0-3.72,1.38,4.92,4.92,0,0,0-1.5,3.72,4.85,4.85,0,0,0,1.32,3.6,5.08,5.08,0,0,0,3.84,1.38,4.12,4.12,0,0,0,1.32-.18,2.87,2.87,0,0,0,.84-.36.61.61,0,0,0,.3-.36,1,1,0,0,0,.18-.6l-.06-.06a3.16,3.16,0,0,1-.9.3,5,5,0,0,1-1.32.18,3.72,3.72,0,0,1-3-1.14,4.1,4.1,0,0,1-1.08-2.82,4.16,4.16,0,0,1,1.14-3,3.68,3.68,0,0,1,2.64-1,6.65,6.65,0,0,1,1.14.12l.84.3a.45.45,0,0,0,.48-.06,1.13,1.13,0,0,0,.3-.66,2.79,2.79,0,0,0-1-.48,7,7,0,0,0-1.8-.3m43,0c-.54,0-1.08.06-1.5.06s-.84.06-1.08.12a6.52,6.52,0,0,1,.06,1.08v8.52c0,.12.06.18.06.24a.36.36,0,0,0,.24.06,3.17,3.17,0,0,0,.72-.06c.24,0,.48-.06.6-.06v-.66a7.3,7.3,0,0,1-.06-1.26v-7h.9a2.77,2.77,0,0,1,1.68.36,2,2,0,0,1,.84,1.74,2.16,2.16,0,0,1-.72,1.74,2.47,2.47,0,0,1-1.38.42h-.42a3.82,3.82,0,0,1-.42-.12,1.75,1.75,0,0,0,.12.54c.12.12.18.24.3.3a.87.87,0,0,0,.42.12,1.33,1.33,0,0,0,.54.06,3.55,3.55,0,0,0,2.1-.72,3,3,0,0,0,1.14-2.34,2.72,2.72,0,0,0-1.2-2.4,5.47,5.47,0,0,0-2.94-.72M345.24,82a.73.73,0,0,0-.54.24.7.7,0,0,0-.3.66.63.63,0,0,0,.24.6.77.77,0,0,0,.6.24.66.66,0,0,0,.6-.3.65.65,0,0,0,.24-.54.8.8,0,0,0-.18-.6.83.83,0,0,0-.6-.3Z" style="fill:#fff"/></g></svg>