<?xml version="1.0" encoding="UTF-8" standalone="no"?>
<!-- Created with Vectornator for iOS (http://vectornator.io/) -->

<svg
   height="100%"
   style="fill-rule:nonzero;clip-rule:evenodd;stroke-linecap:round;stroke-linejoin:round;"
   xml:space="preserve"
   width="100%"
   version="1.1"
   viewBox="0 0 1002.57 334.624"
   id="svg871"
   sodipodi:docname="rooms-kos.svg"
   inkscape:version="1.1 (c4e8f9e, 2021-05-24)"
   xmlns:inkscape="http://www.inkscape.org/namespaces/inkscape"
   xmlns:sodipodi="http://sodipodi.sourceforge.net/DTD/sodipodi-0.dtd"
   xmlns="http://www.w3.org/2000/svg"
   xmlns:svg="http://www.w3.org/2000/svg"
   xmlns:vectornator="http://vectornator.io"><sodipodi:namedview
   id="namedview873"
   pagecolor="#ffffff"
   bordercolor="#666666"
   borderopacity="1.0"
   inkscape:pageshadow="2"
   inkscape:pageopacity="0.0"
   inkscape:pagecheckerboard="0"
   showgrid="false"
   inkscape:zoom="1.5530088"
   inkscape:cx="501.285"
   inkscape:cy="167.095"
   inkscape:window-width="2580"
   inkscape:window-height="1477"
   inkscape:window-x="1260"
   inkscape:window-y="25"
   inkscape:window-maximized="0"
   inkscape:current-layer="Layer 3" />
<metadata
   id="metadata824">
<vectornator:setting
   key="DimensionsVisible"
   value="1" />
<vectornator:setting
   key="PencilOnly"
   value="0" />
<vectornator:setting
   key="SnapToPoints"
   value="0" />
<vectornator:setting
   key="OutlineMode"
   value="0" />
<vectornator:setting
   key="CMYKEnabledKey"
   value="0" />
<vectornator:setting
   key="RulersVisible"
   value="1" />
<vectornator:setting
   key="SnapToEdges"
   value="0" />
<vectornator:setting
   key="GuidesVisible"
   value="1" />
<vectornator:setting
   key="DisplayWhiteBackground"
   value="0" />
<vectornator:setting
   key="doHistoryDisabled"
   value="0" />
<vectornator:setting
   key="SnapToGuides"
   value="1" />
<vectornator:setting
   key="TimeLapseWatermarkDisabled"
   value="0" />
<vectornator:setting
   key="Units"
   value="Pixels" />
<vectornator:setting
   key="DynamicGuides"
   value="0" />
<vectornator:setting
   key="IsolateActiveLayer"
   value="0" />
<vectornator:setting
   key="SnapToGrid"
   value="0" />
</metadata>
<defs
   id="defs826" />
<g
   id="Layer 1"
   vectornator:layerName="Layer 1">
<path
   d="M140.238+18.6495L857.346+18.6495L857.346+221.425L140.238+221.425L140.238+18.6495Z"
   opacity="1"
   fill="none"
   id="path828" />
<g
   opacity="1"
   id="g848">
<path
   d="M203.161+96.1662L179.088+96.1662L179.088+81.8022L244.125+81.8022L244.125+96.1662L220.185+96.1662L220.185+172.242L203.161+172.242L203.161+96.1662Z"
   opacity="1"
   fill="#0170ba"
   id="path830" />
<path
   d="M273.385+81.8022L273.385+119.042L308.497+119.042L308.497+81.8022L325.654+81.8022L325.654+172.242L308.497+172.242L308.497+133.007L273.385+133.007L273.385+172.242L256.361+172.242L256.361+81.8022L273.385+81.8022Z"
   opacity="1"
   fill="#0170ba"
   id="path832" />
<path
   d="M346.668+105.742L364.091+105.742L364.091+121.835L346.668+121.835L346.668+105.742ZM346.668+156.149L364.091+156.149L364.091+172.242L346.668+172.242L346.668+156.149Z"
   opacity="1"
   fill="#0170ba"
   id="path834" />
<path
   d="M434.847+149.366L400.001+149.366L392.819+172.242L375.13+172.242L405.055+81.8022L429.66+81.8022L459.718+172.242L442.029+172.242L434.847+149.366ZM430.857+136.465L417.823+95.1022L417.025+95.1022L403.991+136.465L430.857+136.465Z"
   opacity="1"
   fill="#0170ba"
   id="path836" />
<path
   d="M501.48+127.554L501.48+138.061L467.033+138.061L467.033+127.554L501.48+127.554Z"
   opacity="1"
   fill="#0170ba"
   id="path838" />
<path
   d="M523.691+101.885L523.691+92.3092L548.828+83.9302L562.66+83.9302L562.66+172.242L545.902+172.242L545.902+100.821L523.691+101.885Z"
   opacity="1"
   fill="#0170ba"
   id="path840" />
<path
   d="M624.638+174.769C618.431+174.769+613.244+174.104+609.077+172.774C604.91+171.444+601.585+170.158+599.102+168.917L599.102+153.755C601.496+155.617+604.777+157.28+608.944+158.743C613.111+160.206+617.633+160.937+622.51+160.937C625.879+160.937+628.783+160.538+631.221+159.74C633.66+158.942+635.655+157.856+637.206+156.482C638.758+155.107+639.911+153.511+640.664+151.694C641.418+149.876+641.795+147.992+641.795+146.041C641.795+141.785+640.177+138.416+636.94+135.933C633.704+133.45+629.16+132.209+623.308+132.209L615.461+132.209L615.461+120.372L622.909+120.372C628.052+120.372+632.086+119.219+635.012+116.914C637.938+114.609+639.401+111.594+639.401+107.87C639.401+104.501+637.96+101.597+635.078+99.1587C632.197+96.7203+628.052+95.5012+622.643+95.5012C617.589+95.5012+613.2+96.2548+609.476+97.7622C605.752+99.2695+602.737+100.865+600.432+102.55L600.432+88.1862C602.826+86.6788+606.151+85.238+610.407+83.8637C614.663+82.4893+619.983+81.8022+626.367+81.8022C630.8+81.8022+634.923+82.3785+638.736+83.5312C642.549+84.6838+645.851+86.3242+648.644+88.4522C651.437+90.5802+653.632+93.1293+655.228+96.0997C656.824+99.07+657.622+102.417+657.622+106.141C657.622+108.624+657.223+110.885+656.425+112.924C655.627+114.963+654.585+116.781+653.299+118.377C652.014+119.973+650.573+121.325+648.977+122.434C647.381+123.542+645.829+124.451+644.322+125.16L644.322+125.559C645.918+126.002+647.647+126.756+649.509+127.82C651.371+128.884+653.1+130.281+654.696+132.01C656.292+133.739+657.644+135.8+658.752+138.194C659.861+140.588+660.415+143.337+660.415+146.44C660.415+150.164+659.661+153.733+658.154+157.147C656.647+160.56+654.408+163.575+651.437+166.191C648.467+168.806+644.743+170.89+640.265+172.442C635.788+173.993+630.579+174.769+624.638+174.769Z"
   opacity="1"
   fill="#0170ba"
   id="path842" />
<path
   d="M677.439+159.075C681.695+155.351+685.796+151.738+689.741+148.236C693.687+144.733+697.965+140.898+702.576+136.731C707.719+132.12+711.819+127.931+714.878+124.163C717.937+120.394+719.467+116.249+719.467+111.727C719.467+107.028+717.849+103.304+714.612+100.555C711.376+97.8065+707.098+96.4322+701.778+96.4322C697.256+96.4322+693.089+97.1637+689.276+98.6267C685.463+100.09+682.271+101.663+679.7+103.348L679.7+88.5852C682.626+86.8118+686.261+85.238+690.606+83.8637C694.951+82.4893+700.138+81.8022+706.167+81.8022C711.221+81.8022+715.654+82.5115+719.467+83.9302C723.28+85.3488+726.494+87.2995+729.109+89.7822C731.725+92.2648+733.698+95.213+735.028+98.6267C736.358+102.04+737.023+105.698+737.023+109.599C737.023+113.146+736.447+116.449+735.294+119.508C734.141+122.567+732.656+125.382+730.838+127.953C729.021+130.524+727.026+132.941+724.853+135.202C722.681+137.463+720.531+139.613+718.403+141.652C715.388+144.489+712.329+147.26+709.226+149.965C706.123+152.669+703.152+155.307+700.315+157.878L700.315+158.41L738.752+158.41L738.752+172.242L677.439+172.242L677.439+159.075Z"
   opacity="1"
   fill="#0170ba"
   id="path844" />
<path
   d="M794.745+151.095L752.185+151.095L752.185+137.928L789.957+83.9302L810.971+83.9302L810.971+138.061L822.143+138.061L822.143+151.095L811.104+151.095L811.104+172.242L794.745+172.242L794.745+151.095ZM794.745+138.061L794.745+98.8262L794.213+98.8262L767.214+138.061L794.745+138.061Z"
   opacity="1"
   fill="#0170ba"
   id="path846" />
</g>
</g>
<g
   id="Layer 2"
   vectornator:layerName="Layer 2">
<path
   stroke="#c6ddeb"
   stroke-width="8.15777"
   d="M335.342+175.874L335.342+195.001L196.834+195.001L196.834+175.874"
   fill="none"
   stroke-linecap="butt"
   opacity="1"
   stroke-linejoin="round"
   id="path851" />
<path
   stroke="#c6ddeb"
   stroke-width="8.15777"
   d="M468.397+176.221L468.397+195.349L370.823+195.349L370.823+176.221"
   fill="none"
   stroke-linecap="butt"
   opacity="1"
   stroke-linejoin="round"
   id="path853" />
<path
   stroke="#c6ddeb"
   stroke-width="8.15777"
   d="M816.643+175.732L816.643+194.86L538.704+194.86L538.704+175.732"
   fill="none"
   stroke-linecap="butt"
   opacity="1"
   stroke-linejoin="round"
   id="path855" />
</g>
<g
   id="Layer 3"
   vectornator:layerName="Layer 3">
<g
   opacity="1"
   id="g860"
   transform="translate(-4.5073796,-0.64391137)">
<path
   d="m 256.098,245.84 v -6.48 l 17.01,-5.67 h 9.36 v 59.76 h -11.34 v -48.33 z"
   opacity="1"
   fill="#c6ddeb"
   id="path858" />
</g>
<g
   opacity="1"
   id="g864"
   transform="translate(-14.097784,-1.2878227)">
<path
   d="m 412.275,284.54 c 2.88,-2.52 5.655,-4.965 8.325,-7.335 2.67,-2.37 5.565,-4.965 8.685,-7.785 3.48,-3.12 6.255,-5.955 8.325,-8.505 2.07,-2.55 3.105,-5.355 3.105,-8.415 0,-3.18 -1.095,-5.7 -3.285,-7.56 -2.19,-1.86 -5.085,-2.79 -8.685,-2.79 -3.06,0 -5.88,0.495 -8.46,1.485 -2.58,0.99 -4.74,2.055 -6.48,3.195 v -9.99 c 1.98,-1.2 4.44,-2.265 7.38,-3.195 2.94,-0.93 6.45,-1.395 10.53,-1.395 3.42,0 6.42,0.48 9,1.44 2.58,0.96 4.755,2.28 6.525,3.96 1.77,1.68 3.105,3.675 4.005,5.985 0.9,2.31 1.35,4.785 1.35,7.425 0,2.4 -0.39,4.635 -1.17,6.705 -0.78,2.07 -1.785,3.975 -3.015,5.715 -1.23,1.74 -2.58,3.375 -4.05,4.905 -1.47,1.53 -2.925,2.985 -4.365,4.365 -2.04,1.92 -4.11,3.795 -6.21,5.625 -2.1,1.83 -4.11,3.615 -6.03,5.355 v 0.36 h 26.01 v 9.36 h -41.49 z"
   opacity="1"
   fill="#c6ddeb"
   id="path862" />
</g>
<g
   opacity="1"
   id="g868"
   transform="translate(-4.5073796,-1.2878227)">
<path
   d="m 671.57,295.16 c -4.2,0 -7.71,-0.45 -10.53,-1.35 -2.82,-0.9 -5.07,-1.77 -6.75,-2.61 v -10.26 c 1.62,1.26 3.84,2.385 6.66,3.375 2.82,0.99 5.88,1.485 9.18,1.485 2.28,0 4.245,-0.27 5.895,-0.81 1.65,-0.54 3,-1.275 4.05,-2.205 1.05,-0.93 1.83,-2.01 2.34,-3.24 0.51,-1.23 0.765,-2.505 0.765,-3.825 0,-2.88 -1.095,-5.16 -3.285,-6.84 -2.19,-1.68 -5.265,-2.52 -9.225,-2.52 h -5.31 v -8.01 h 5.04 c 3.48,0 6.21,-0.78 8.19,-2.34 1.98,-1.56 2.97,-3.6 2.97,-6.12 0,-2.28 -0.975,-4.245 -2.925,-5.895 -1.95,-1.65 -4.755,-2.475 -8.415,-2.475 -3.42,0 -6.39,0.51 -8.91,1.53 -2.52,1.02 -4.56,2.1 -6.12,3.24 v -9.72 c 1.62,-1.02 3.87,-1.995 6.75,-2.925 2.88,-0.93 6.48,-1.395 10.8,-1.395 3,0 5.79,0.39 8.37,1.17 2.58,0.78 4.815,1.89 6.705,3.33 1.89,1.44 3.375,3.165 4.455,5.175 1.08,2.01 1.62,4.275 1.62,6.795 0,1.68 -0.27,3.21 -0.81,4.59 -0.54,1.38 -1.245,2.61 -2.115,3.69 -0.87,1.08 -1.845,1.995 -2.925,2.745 -1.08,0.75 -2.13,1.365 -3.15,1.845 v 0.27 c 1.08,0.3 2.25,0.81 3.51,1.53 1.26,0.72 2.43,1.665 3.51,2.835 1.08,1.17 1.995,2.565 2.745,4.185 0.75,1.62 1.125,3.48 1.125,5.58 0,2.52 -0.51,4.935 -1.53,7.245 -1.02,2.31 -2.535,4.35 -4.545,6.12 -2.01,1.77 -4.53,3.18 -7.56,4.23 -3.03,1.05 -6.555,1.575 -10.575,1.575 z"
   opacity="1"
   fill="#c6ddeb"
   id="path866" />
</g>
</g>
</svg>
