<?xml version="1.0" encoding="utf-8"?>
<!-- Generator: Adobe Illustrator 17.1.0, SVG Export Plug-In . SVG Version: 6.00 Build 0)  -->
<!DOCTYPE svg PUBLIC "-//W3C//DTD SVG 1.1//EN" "http://www.w3.org/Graphics/SVG/1.1/DTD/svg11.dtd">
<svg version="1.1" id="Layer_1" xmlns="http://www.w3.org/2000/svg" xmlns:xlink="http://www.w3.org/1999/xlink" x="0px" y="0px"
	 viewBox="0 0 418.7 106" enable-background="new 0 0 418.7 106" xml:space="preserve">
<path fill="#8D8D8D" d="M141.2,18.5c-0.4,0.1-1.4,1-2.5,1.7c-21.1,12.7-32.3,8.2-40.5,3.1c-2.7-1.7-5.7-4.1-7.7-6.1
	c-1,0.5-2,2.2-1.2,3.1c2,2,5.9,4.4,8.2,6.1c9.6,7.1,6.5,18.5-4.5,20.8c-10.9,2.2-21.5-4.7-5.5-14.3c2.2-1.3,4.5-2.3,6.6-3.7
	c0.8-0.8,0.1-2.3-0.8-2.9c-0.4,0.1-1.3,1-2.4,1.7c-1.4,1-4.6,2.9-6.4,3.8c-10.9,5.9-18.7,2-27.1-0.4c-0.7,0.8-1.1,2.4-0.1,2.9
	c1.4,0.4,5.7,1.4,7.3,1.9c8.3,2.5,7,8.8,1.8,12.2c-6.7,4.5-16,6.4-14.6-5.5c0.5-4.9,1.3-10.3,2.3-15.1c0.1-1.1-2.1-1.6-3.2-1.5
	c-0.1,2.6-0.4,5.2-1,8.1c-2.8,13.7-4,21.1-30.5,21.4c-1.2,0.1-2.3,0-3.6,0.2c-0.4,0.9-0.1,2.6,1.1,2.8c7.6-0.3,18-1.4,22.3-0.8
	c4.9,0.7,6.1,5.4,3.9,9.1c-1.9,3.1-6.6,5.3-7.4,5.3l-0.2,0.1c-0.2,0.7,0.2,2.9,0.8,3.3c0.5,0.4,2.5-0.1,5.9-4
	c7.2-8.2,6.2-17.2-5.3-16.4c5.5-1.3,10.6-4.1,12.5-11.9c-2.9,12.4,7,13.7,17.6,5.9c7-5.2,7.6-12.5,1.2-13.8c4.5,1.4,10.3-0.1,13.1-1
	c-3.8,3.1-7.2,8.6-1.2,12.1c7.9,4.6,21.7,1.2,25.2-8.2c1.3-3.3,1.1-7.4-1.7-10.4c2.8,1.4,10.5,3.5,20.5-0.1
	c-7.4,4.1-20.5,14.3-12.4,19c4,2.3,10,2.8,19.3,1.3c0.2-0.2,0.1-0.4,0.1-0.7c-0.1-0.7-0.9-2-1.6-2.2c-0.8,0.5-3.5,0.9-4.4,1
	c-23.7,0.6-7.9-12.4,2-17.4c4.9-2.5,9.2-4.7,14.6-7.7C143,21,142.2,19.1,141.2,18.5"/>
<path fill-rule="evenodd" clip-rule="evenodd" fill="#00ADEF" d="M75.3,32.4c2.3-0.2,4-2.3,3.7-4.6c-0.3-2.3-2.3-3.9-4.6-3.7
	s-3.9,2.3-3.7,4.6C71,31,73,32.6,75.3,32.4"/>
<path fill-rule="evenodd" clip-rule="evenodd" fill="#ED0882" d="M114.9,24.6c2.8-0.3,4.9-2.8,4.6-5.6c-0.3-2.8-2.9-4.9-5.7-4.6
	c-2.8,0.3-4.9,2.9-4.6,5.7C109.5,22.9,112.1,24.9,114.9,24.6"/>
<path fill-rule="evenodd" clip-rule="evenodd" fill="#9AD420" d="M38.7,49.2c2.6-0.3,4.4-2.6,4.1-5.2c-0.3-2.6-2.6-4.4-5.2-4.1
	c-2.6,0.2-4.4,2.6-4.1,5.2C33.7,47.7,36,49.5,38.7,49.2"/>
<path fill="#9AD420" d="M222.3,67.9v2.7c0,0.7-0.1,1-0.2,1.3c-0.6,0.8-1.7,1.7-3.2,1.7c-1.4,0-2.5-0.8-2.5-2.2
	C216.3,69.4,219.2,68.3,222.3,67.9 M151.6,67.9v2.7c0,0.7-0.1,1-0.3,1.3c-0.5,0.8-1.7,1.7-3.2,1.7c-1.3,0-2.5-0.8-2.5-2.2
	C145.6,69.4,148.5,68.3,151.6,67.9z M64.2,61.1c-0.6,0-2.2,0.2-2.9,0.4c0.1,0.8,0.2,4.3,0.2,6.5v2.1c0,2.2-0.1,4.4-0.1,5.9
	c1.1,0,2.1-0.1,2.6-0.2c0.6-0.1,0.8-0.2,0.8-1V63.5C64.8,61.3,64.7,61.1,64.2,61.1z M174.3,61.1c-0.5,0-2.2,0.2-2.9,0.4
	c0.1,0.8,0.2,4.3,0.2,6.5v2.1c0,2.2-0.1,4.4-0.1,5.9c1.1,0,2.1-0.1,2.6-0.2c0.6-0.1,0.8-0.2,0.8-1V63.4
	C174.9,61.2,174.8,61.1,174.3,61.1z M184.7,61.1c3.5,0,4.9,3.4,4.9,6.6c0,4.5-2.3,6.4-4.6,6.4c-2.8,0-5.1-2.3-5.1-6.8
	C180,63.3,182.2,61.1,184.7,61.1z M104.8,60.9L104.8,60.9c2.4,0,3.6,1.7,3.5,4c0,0.4-0.4,0.7-0.8,0.8c-0.7,0.1-4.1,0.1-6.7,0
	C101.1,62.6,102.9,60.9,104.8,60.9z M219.8,58.8c-2.6,0-5.1,1.5-6.3,2.6c0.2,1.1,0.7,1.9,1.9,1.4c1-0.7,2.4-1.3,3.7-1.3
	c2.3,0,3.2,1.7,3.2,3.4v1c-0.5,0.1-1.3,0.2-2,0.4c-2.1,0.5-7.3,1.6-7.3,5.6c0,2.4,1.9,4.4,4.5,4.4c2,0,3.8-1.3,4.8-2.3
	c0.3,1.2,1.1,2.3,2.8,2.3c1.7,0,2.6-0.8,2.5-2.4l-0.1-0.1c-0.2,0.1-0.6,0.1-0.8,0.1c-0.7,0-1.2-0.5-1.3-1.2c0-2.3,0.1-5.8,0.1-7.5
	C225.6,61.6,223.7,58.8,219.8,58.8z M205.1,58.8c-2.1,0-4.2,1.3-5.8,2.9c-0.1-0.9-0.5-2.8-1.7-2.8c-0.7,0-1.9,0.7-2.2,1.3v0.1
	c0.5,0.4,0.7,1,0.7,2.5v6.4c0,3.4-0.1,5.6-0.1,7c0.9,0,1.8,0,2.6-0.1c0.7-0.1,0.8-0.2,0.8-1V63.7c0.9-1,2.4-2.2,4.3-2.2
	c2.2,0,3.5,1.5,3.5,4.4l-0.1,9.7c0,0.4,0.2,0.5,0.6,0.5c1.1,0,2.2-0.2,2.9-0.3c-0.1-1-0.2-2.6-0.2-4.7v-5.2
	C210.6,62.2,209.5,58.8,205.1,58.8z M185,58.8c-5,0-8.5,4-8.5,8.9c0,4.5,2.8,8.6,8.3,8.6c5.2,0,8.4-3.8,8.4-8.9
	C193.2,62.4,190.2,58.8,185,58.8z M149.1,58.8c-2.6,0-5.2,1.5-6.3,2.6c0.1,1.1,0.7,1.9,1.9,1.4c1-0.7,2.3-1.3,3.7-1.3
	c2.3,0,3.2,1.7,3.2,3.4v1c-0.5,0.1-1.3,0.2-2,0.4c-2.1,0.5-7.3,1.6-7.3,5.6c0,2.4,1.9,4.4,4.5,4.4c2,0,3.8-1.3,4.8-2.3
	c0.3,1.2,1.1,2.3,2.8,2.3c1.7,0,2.6-0.8,2.5-2.4l-0.1-0.1c-0.2,0.1-0.5,0.1-0.8,0.1c-0.8,0-1.2-0.5-1.3-1.2
	c-0.1-2.3,0.1-5.8,0.1-7.5C154.8,61.6,153,58.8,149.1,58.8z M134.3,58.8c-2.1,0-4.2,1.3-5.8,2.9c-0.1-0.9-0.4-2.8-1.6-2.8
	c-0.7,0-1.9,0.7-2.2,1.3v0.1c0.5,0.4,0.7,1,0.7,2.5v6.4c0,3.4-0.1,5.6-0.1,7c0.9,0,1.8,0,2.7-0.1c0.6-0.1,0.8-0.2,0.8-1V63.7
	c0.9-1,2.4-2.2,4.3-2.2c2.2,0,3.5,1.5,3.5,4.4l-0.1,9.7c0,0.4,0.2,0.5,0.6,0.5c1.1,0,2.2-0.2,2.9-0.3c-0.1-1-0.1-2.6-0.1-4.7v-5.2
	C140,62.2,138.8,58.8,134.3,58.8z M115.3,58.8c-0.7,0-1.9,0.8-2.2,1.4v0.1c0.7,0.5,0.9,1.4,0.9,2.4v6.4c0,3.4-0.1,5.6-0.1,7
	c0.8,0,1.8,0,2.8-0.1c0.6-0.1,0.7-0.4,0.7-0.9c0-1.5,0-6,0-8.4c0-0.8,0.2-1.3,0.4-2c0.8-1.9,2.1-2.6,2.9-2.6c0.4,0,0.8,0.1,1.4,0.2
	c0.5,0.1,0.9-0.3,1.1-0.8c0.4-0.5,0.5-1.5,0.5-2c-0.3-0.3-1-0.7-1.9-0.7c-1.8,0-3.4,1.3-4.6,3.8C117.1,60.2,116.3,58.8,115.3,58.8z
	 M105.3,58.8c-5,0-7.9,4.3-7.9,9c0,5.4,2.9,8.5,8.2,8.5c1.6,0,3.1-0.5,3.8-0.8s1.5-1.5,1.6-2.7l-0.1-0.1c-0.7,0.4-2.6,1-4.3,1
	c-3.4,0-5.6-2.2-5.8-5.9c2.8,0.1,6.5,0.1,7.6-0.1c1.3-0.2,3.2-0.7,3.3-1.3c0.1-0.3,0.1-0.8,0.1-1.2
	C111.5,62.1,109.7,58.8,105.3,58.8z M77.9,58.8c-2.1,0-4.2,1.3-5.8,2.9c-0.1-0.9-0.4-2.8-1.7-2.8c-0.7,0-1.9,0.7-2.2,1.3v0.1
	c0.5,0.4,0.7,1,0.7,2.5v6.4c0,3.4-0.1,5.6-0.1,7c0.9,0,1.8,0,2.6-0.1c0.7-0.1,0.8-0.2,0.8-1V63.7c0.9-1,2.4-2.2,4.3-2.2
	c2.2,0,3.5,1.5,3.5,4.4l-0.1,9.7c0,0.4,0.2,0.5,0.6,0.5c1.1,0,2.2-0.2,2.9-0.3c-0.1-1-0.2-2.6-0.2-4.7v-5.2
	C83.5,62.2,82.4,58.8,77.9,58.8z M173.3,54.9c-0.8,0-1.9,0.7-1.9,2c0,1.3,0.8,1.9,1.9,1.9c1.1,0,1.9-0.9,1.9-2
	S174.4,54.9,173.3,54.9z M232.7,54.9c-0.6,0-2.2,0.2-2.9,0.5c0.1,0.8,0.1,1.9,0.1,4.1v16.1c0,0.4,0.2,0.5,0.5,0.5
	c0.4,0,2.3-0.1,2.9-0.3c-0.1-1.1-0.1-3.1-0.1-5V57.3C233.2,55.1,233.1,54.9,232.7,54.9z M162.7,54.8c-0.8,0.1-1.5,0.5-2,1
	c-0.6,0.5-3,3.8-3.4,4.6c0,0.4,0.5,0.8,1.9,0.8c0,4.7,0,8.5,0,10.1c0,2.9,1.3,5,4.7,5c1.4,0,2.8-0.4,3.6-1c0.7-0.5,0.8-1.5,0.7-2.2
	l-0.1-0.1c-0.7,0.4-1.7,0.8-2.9,0.8c-1.3,0-2.5-0.6-2.7-2.8c-0.2-1.7-0.2-6.1,0-9.8c2.7,0,2.9-0.1,4.2-0.1c0.7-0.1,1.5-0.2,1.9-2.2
	c-0.5,0-4.5,0-6,0C162.6,58,162.6,56,162.7,54.8z M91.2,54.8c-0.9,0.1-1.6,0.5-2,1c-0.5,0.5-2.9,3.8-3.4,4.6c0,0.4,0.5,0.8,1.9,0.8
	c0,4.7,0,8.5,0,10.1c0,2.9,1.3,5,4.7,5c1.4,0,2.8-0.4,3.5-1c0.7-0.5,0.9-1.5,0.7-2.2l-0.1-0.1c-0.7,0.4-1.7,0.8-2.9,0.8
	c-1.3,0-2.5-0.6-2.7-2.8c-0.2-1.7-0.2-6.1,0-9.8c2.7,0,2.9-0.1,4.1-0.1c0.7-0.1,1.6-0.2,1.9-2.2c-0.6,0-4.5,0-6.1,0
	C91.1,58,91.2,56,91.2,54.8z M63,54.8c-1,0-1.9,0.8-1.9,1.9c0,1.1,0.8,1.9,1.9,1.9c1,0,1.9-0.8,1.9-1.9C64.8,55.7,64,54.8,63,54.8z"
	/>
<path fill="#00ADEF" d="M343.7,72.9c-0.7,0.4-1.8,0.8-2.9,0.8c-1.3,0-2.6-0.5-2.8-2.8c-0.1-1.6-0.2-6.1,0-9.9c2.8,0,3-0.1,4.3-0.1
	c0.7-0.1,1.5-0.1,1.9-2c-0.6,0-4.7,0-6.2,0c0-0.8,0.1-2.8,0.2-4c-0.9,0.1-1.6,0.5-2.1,1c-0.5,0.5-3,3.6-3.4,4.4
	c0,0.4,0.5,0.9,1.9,0.9c0,4.6,0,8.5,0,10.1c0,2.9,1.4,5,4.9,5c1.4,0,2.9-0.4,3.7-1c0.7-0.5,0.9-1.5,0.7-2.3L343.7,72.9 M326.8,75.5
	c0,0.4,0.2,0.6,0.6,0.6c1.1,0,2.2-0.2,3-0.3c-0.1-1-0.1-2.6-0.1-4.8v-5.2c0-3.6-1.3-7-5.8-7c-2.2,0-4.3,1.3-5.9,2.9
	c-0.1-0.9-0.4-2.8-1.7-2.8c-0.7,0-1.9,0.7-2.2,1.3v0.2c0.5,0.4,0.7,1,0.7,2.4v6.4c0,3.3,0,5.6-0.1,7c1-0.1,1.9,0,2.8-0.1
	c0.7-0.1,0.8-0.2,0.8-1V63.7c0.9-1,2.5-2.2,4.4-2.2c2.3,0,3.6,1.5,3.6,4.4V75.5z M305.9,60.9c2.4,0,3.7,1.7,3.6,3.9
	c0,0.5-0.4,0.8-0.8,0.8c-0.7,0-4.1,0.1-6.9,0C302.1,62.6,303.9,60.9,305.9,60.9L305.9,60.9z M312,72.6c-0.7,0.4-2.6,1-4.4,1
	c-3.5,0-5.8-2.1-5.9-5.8c2.8,0.1,6.7,0.1,7.8-0.1c1.4-0.2,3.3-0.7,3.4-1.4c0.1-0.3,0.1-0.8,0.1-1.1c-0.1-3.1-2-6.4-6.5-6.4
	c-5.2,0-8.2,4.3-8.2,9c0,5.4,3,8.5,8.5,8.5c1.6,0,3.2-0.5,3.8-0.8c0.7-0.4,1.6-1.5,1.6-2.8L312,72.6z M291.6,72.4
	c-1,0.7-2.4,1.1-3.6,1.1c-3.2,0-5.5-2.3-5.5-5.9c0-4.4,3.1-6.5,6.1-6.5c1.4,0,2.6,0.3,3.1,0.6V72.4z M291.6,59.3
	c-0.4-0.1-1.5-0.5-3-0.5c-5.5,0-9.7,3.8-9.7,9.2c0,5.3,3.4,8.3,7.6,8.3c1.6,0,4-0.9,5.6-2.2c0.3,1.1,1.1,2.2,2.9,2.2
	c0.9,0,1.8-1.1,1.9-2v-0.1c-1.1-0.2-1.8-0.6-1.8-2.3V57.3c0-2.3-0.1-2.5-0.5-2.5c-0.7,0-2.3,0.3-3,0.5c0.1,0.8,0.1,1.4,0.1,3.4V59.3
	z M261,70c0,3.7,1.9,6.3,5.9,6.3c1,0,1.7-0.2,2.5-0.5c0.8-0.4,2.1-1,3.3-2.2c0.2,1.6,1.2,2.7,2.8,2.7c0.8,0,1.8-1.1,1.8-1.9v-0.2
	c-1-0.2-1.6-0.6-1.6-2.4v-6c0-3.3,0.1-5.9,0.1-6.8c-0.9,0-1.8,0.1-2.9,0.2c-0.5,0.2-0.6,0.4-0.6,1.3v11c-0.7,0.8-2.3,1.9-4.1,1.9
	s-3.8-0.5-3.8-4.4c0-2.5,0-5.2-0.1-7.7c0-2.2-0.1-2.3-0.5-2.3c-0.7,0-2.3,0.2-3,0.4c0.1,0.8,0.2,2,0.2,4.3V70z M259.2,72.9
	c-0.7,0.4-1.8,0.8-2.9,0.8c-1.3,0-2.6-0.5-2.8-2.8c-0.2-1.6-0.2-6.2,0-10c2.8,0,2.9-0.1,4.3-0.1c0.7-0.1,1.6-0.1,2-2.1
	c-0.6,0-4.7,0-6.2,0c0-0.8,0.1-2.6,0.2-3.8c-0.9,0.1-1.6,0.5-2,1c-0.6,0.5-3.1,3.5-3.5,4.3c0,0.4,0.5,0.8,1.9,0.8
	c0,4.7,0,8.6,0,10.3c0,2.9,1.4,5,4.9,5c1.4,0,2.9-0.4,3.7-1c0.7-0.5,0.9-1.5,0.7-2.3L259.2,72.9z M242.4,58.8c-3.1,0-5.9,1.9-5.9,5
	c0,1.9,1,3.3,2.7,4.1c1,0.5,2,1,3.1,1.5c1.3,0.7,1.9,1.3,1.9,2.3c0,1.3-1,2.2-2.9,2.2c-1.4,0-3.1-0.5-4.4-1.4
	c-0.4,0.3-0.7,0.8-0.8,1.5c0,0.5,0.3,0.9,0.7,1.2c0.9,0.7,2.5,1.1,4.3,1.1c3.2,0,6.5-1.6,6.5-5.2c0-1.6-0.8-3-2.6-4
	c-1.1-0.6-2.6-1.2-3.6-1.7c-0.9-0.5-1.6-1.1-1.6-2.2c0-1.2,1.1-2,2.5-2c1,0,2,0.3,2.8,0.7c1.1,0.1,1.6-1,1.6-1.8
	C245.6,59.3,244,58.8,242.4,58.8L242.4,58.8z"/>
<path fill="#ED0882" d="M362.3,75.8c0,0.4,0.2,0.5,0.5,0.5c0.4,0,2.3-0.1,3.1-0.3c-0.1-1.1-0.1-3.1-0.1-5l0.1-13.5
	c0-2.3-0.1-2.5-0.5-2.5c-0.6,0-2.2,0.2-3.1,0.5c0.1,0.8,0.1,3.6,0.1,5.9V75.8 M358.7,73.1c-1,0.4-2.7,0.7-4.1,0.7
	c-2.8,0-6.4-1.4-6.4-6.2c0-3.6,2.3-6.2,5.8-6.2c1.3,0,2.5,0.4,3.4,0.8c1.1,0.2,1.7-0.8,1.7-1.9c-0.4-0.4-2.3-1.4-5-1.4
	c-5.3,0-9.5,3.7-9.5,9.1c0,6.6,4.9,8.5,8.9,8.5c1.7,0,3.4-0.4,4.3-1c0.6-0.4,1-1.4,1.1-2.3L358.7,73.1z M368.9,70.1
	c0,3.8,1.9,6.3,5.9,6.3c1,0,1.7-0.2,2.6-0.5c0.8-0.4,2-1,3.3-2.2c0.2,1.6,1.1,2.7,2.8,2.7c0.8,0,1.8-1.1,1.9-1.9v-0.2
	c-1.1-0.2-1.6-0.5-1.6-2.4v-6c0-3.4,0.1-6,0.1-6.8c-0.9,0-1.8,0.1-2.9,0.2c-0.5,0.2-0.7,0.4-0.7,1.3v11.1c-0.7,0.8-2.2,1.9-4.1,1.9
	c-1.8,0-3.8-0.5-3.8-4.4c0-2.5,0-5.2-0.1-7.7c0-2.2-0.2-2.3-0.5-2.3c-0.7,0-2.4,0.2-3.1,0.4c0.1,0.8,0.2,1.9,0.2,4.3V70.1z
	 M391.7,57.4c0-2.3-0.2-2.5-0.6-2.5c-0.6,0-2.2,0.3-3.1,0.5c0.1,0.8,0.2,3.3,0.2,5.6v13.3c0,0.7,0.2,0.9,0.7,1.1c1,0.5,2.9,1,4.8,1
	c5.8,0,10.6-3.5,10.6-9.5c0-5.5-3.8-8-7.4-8c-1.7,0-3.8,0.8-5.2,1.7V57.4z M391.7,62.6c0.9-0.5,2.6-1,3.5-1c3.4,0,5.5,2.2,5.5,5.8
	c0,4.7-3.2,6.8-6.5,6.8c-0.8,0-1.8-0.1-2.5-0.4V62.6z"/>
<path fill="#8D8D8D" d="M383.7,89.3c0.2,0,0.5,0,0.8,0c0.7,0,1.3,0.1,1.8,0.4c0.2,0.1,0.3,0.4,0.2,0.7c-0.1,0.9-1.4,1-2.2,1
	c-0.9,0-2.2-0.1-2.3-0.7c0-0.3,0.1-0.5,0.3-0.8c0.1-0.2,0.4-0.4,0.6-0.5C383.2,89.3,383.4,89.3,383.7,89.3 M377.5,85.5v1.3
	c0,0.1,0,0.2-0.1,0.4c0,0.1-0.1,0.2-0.1,0.2c-0.1,0.2-0.4,0.4-0.6,0.6s-0.5,0.2-0.9,0.3c-0.3,0-0.6-0.1-0.8-0.3s-0.3-0.4-0.3-0.8
	c0-0.5,0.3-0.9,0.8-1.1C376.1,85.8,376.8,85.7,377.5,85.5z M346.2,82.2c-0.2,0-0.4,0-0.7,0c-0.3,0.1-0.5,0.1-0.7,0.2
	c0.1,0.2,0.1,0.4,0.1,0.8c0.1,0.3,0.1-0.2,0.1,0.3v3.1c0,0.6,0,1.1-0.1,1.6c0,0.5,0,1,0,1.3c0.2,0,0.5,0,0.7-0.1
	c0.2,0,0.4,0,0.5-0.1c0.1,0,0.2,0,0.3-0.1c0.1-0.1,0.1-0.2,0.1-0.3v-5.6c0-0.5,0-0.8-0.1-1C346.3,82.2,346.2,82.2,346.2,82.2z
	 M401.1,82.2L401.1,82.2c0.6,0.1,1,0.2,1.3,0.5c0.2,0.4,0.4,0.8,0.4,1.4c0,0.1-0.1,0.2-0.1,0.2c-0.1,0.1-0.1,0.1-0.2,0.1
	c-0.2,0.1-0.6,0.1-1.2,0.1c-0.6,0-1.2,0-1.9-0.1c0.1-0.7,0.3-1.3,0.7-1.7C400.3,82.4,400.7,82.2,401.1,82.2z M384,82.1
	c0.5,0.1,0.9,0.2,1.1,0.6c0.2,0.4,0.4,0.8,0.4,1.3c0,0.5-0.1,1-0.4,1.3c-0.2,0.4-0.6,0.5-1.1,0.5c-0.4,0-0.8-0.2-1.1-0.5
	c-0.3-0.4-0.4-0.8-0.4-1.3c0-0.6,0.1-1,0.4-1.4C383.3,82.3,383.6,82.2,384,82.1z M390.6,81.3c-0.2,0-0.4,0-0.7,0.1
	c-0.2,0.1-0.5,0.1-0.6,0.1c0,0.2,0,0.4,0,0.8c0.1,0.3,0.1,0.7,0.1,1.3v3.1c0,0.9,0.2,1.7,0.7,2.2c0.4,0.5,1,0.8,1.9,0.8
	c0.2,0,0.4-0.1,0.6-0.1c0.2,0,0.4-0.1,0.5-0.1c0.2-0.1,0.4-0.2,0.7-0.4c0.2-0.1,0.5-0.4,0.8-0.7c0.1,0.4,0.2,0.7,0.4,1
	c0.2,0.2,0.5,0.3,0.8,0.4c0.2-0.1,0.4-0.2,0.5-0.4s0.2-0.4,0.2-0.6v-0.1c-0.2-0.1-0.4-0.1-0.5-0.3c-0.1-0.1-0.2-0.4-0.2-0.8v-2.9
	c0-0.8,0-1.5,0-2.1c0-0.6,0-1,0-1.2c-0.2,0-0.4,0-0.6,0.1c-0.2,0-0.4,0-0.7,0.1c-0.1,0.1-0.2,0.1-0.2,0.2c-0.1,0.1-0.1,0.2-0.1,0.4
	v5.3c-0.1,0.2-0.4,0.4-0.7,0.6c-0.3,0.2-0.7,0.3-1.1,0.3c-0.4,0.1-0.8-0.1-1.1-0.4c-0.3-0.3-0.5-0.8-0.5-1.7c0-0.6,0-1.3,0-1.9
	c0-0.7,0-1.3,0-1.9c0-0.5-0.1-0.8-0.1-1C390.7,81.3,390.6,81.3,390.6,81.3z M401.4,81.2c-1.1,0.1-2,0.5-2.7,1.3
	c-0.6,0.8-0.9,1.9-0.9,3.1c0,1.3,0.3,2.3,1,3c0.6,0.7,1.6,1,2.8,1.1c0.4-0.1,0.7-0.1,1-0.2c0.3-0.1,0.5-0.2,0.7-0.2
	c0.2-0.1,0.4-0.2,0.5-0.5s0.2-0.5,0.2-0.8l-0.1-0.1c-0.2,0.1-0.4,0.2-0.8,0.3c-0.4,0.1-0.8,0.2-1.2,0.2c-0.7,0-1.4-0.2-1.9-0.7
	c-0.4-0.5-0.7-1.1-0.7-2c0.7,0,1.3,0,2,0c0.7,0,1.1-0.1,1.4-0.1c0.4,0,0.7-0.1,1-0.2s0.5-0.2,0.5-0.4c0.1-0.1,0.1-0.2,0.1-0.3
	s0-0.2,0-0.3c0-0.8-0.2-1.4-0.7-2.1C403.1,81.5,402.3,81.2,401.4,81.2z M384,81.2c-0.8,0.1-1.6,0.3-2.1,0.8
	c-0.6,0.5-0.8,1.3-0.9,2.1c0,0.5,0.1,1,0.4,1.4c0.2,0.4,0.6,0.7,1,0.9c-0.1,0.2-0.3,0.4-0.5,0.5c-0.2,0.2-0.4,0.3-0.5,0.4
	c-0.1,0.1-0.1,0.1-0.1,0.1c0,0.1,0,0.1,0,0.1c0,0.4,0.1,0.7,0.3,0.9c0.2,0.2,0.4,0.4,0.7,0.5c-0.4,0.2-0.7,0.3-1,0.7
	c-0.4,0.4-0.5,0.5-0.5,1.1c0,1.4,2,1.7,3.2,1.7c1.7,0,3.8-0.5,4-2.4c0.1-0.5-0.2-1-0.5-1.4c-0.3-0.4-0.8-0.7-1.5-0.7
	c-0.4,0-0.7-0.1-1-0.1c-0.4-0.1-0.7-0.1-1.1-0.1c-0.4-0.1-0.7-0.1-0.8-0.2c-0.2-0.1-0.2-0.2-0.2-0.4c0-0.1,0.1-0.1,0.2-0.2
	c0.1-0.1,0.2-0.2,0.4-0.3c0.1,0,0.2,0.1,0.3,0.1s0.2,0,0.4,0c0.8,0,1.4-0.2,2-0.7c0.5-0.5,0.8-1.2,0.9-2.2c0-0.2-0.1-0.4-0.1-0.6
	c0-0.2-0.1-0.4-0.2-0.7c0.1,0,0.1,0,0.2,0c0.1,0,0.2,0,0.2,0c0.3-0.1,0.5-0.1,0.7-0.2c0.1-0.2,0.2-0.4,0.2-0.7c0-0.1,0-0.1,0-0.2
	c-0.1-0.1-0.1-0.1-0.1-0.2c-0.2,0.1-0.3,0.1-0.5,0.1c-0.2,0.1-0.4,0.1-0.6,0.1c-0.2,0-0.5,0-0.7-0.1c-0.2-0.1-0.5-0.1-0.7-0.2
	c-0.2-0.1-0.4-0.1-0.7-0.2C384.5,81.2,384.3,81.2,384,81.2L384,81.2z M376.4,81.2c-0.6,0.1-1.1,0.2-1.7,0.4
	c-0.5,0.2-0.9,0.5-1.2,0.8c0.1,0.2,0.1,0.5,0.3,0.6c0.1,0.2,0.3,0.2,0.5,0.1c0.2-0.2,0.5-0.3,0.8-0.4c0.3-0.1,0.5-0.2,0.8-0.2
	c0.5,0,0.9,0.2,1.1,0.5c0.2,0.4,0.4,0.7,0.4,1.1v0.5c-0.1,0-0.2,0.1-0.4,0.1c-0.2,0.1-0.3,0.1-0.5,0.1c-0.4,0.1-0.8,0.2-1.3,0.4
	c-0.5,0.2-1,0.5-1.4,0.8c-0.4,0.4-0.6,0.9-0.6,1.6c0,0.5,0.2,1.1,0.5,1.4c0.4,0.4,0.9,0.6,1.5,0.7c0.5-0.1,0.9-0.2,1.3-0.4
	c0.4-0.2,0.7-0.5,0.9-0.8c0.1,0.3,0.2,0.5,0.4,0.8c0.2,0.2,0.5,0.3,0.8,0.4c0.4,0,0.7-0.1,0.8-0.3c0.2-0.2,0.3-0.5,0.3-0.9v-0.1
	c-0.1,0.1-0.1,0.1-0.2,0.1c-0.1,0-0.2,0-0.2,0c-0.2,0-0.4-0.1-0.4-0.1c-0.1-0.1-0.2-0.2-0.2-0.4c0-0.6,0-1.3,0-1.9
	c0-0.7,0.1-1.3,0.1-1.7c0-0.9-0.2-1.7-0.7-2.2C377.9,81.5,377.3,81.2,376.4,81.2z M368.8,81.2c-0.2,0-0.4,0.1-0.5,0.2
	c-0.2,0.2-0.4,0.3-0.5,0.5v0.1c0.2,0.1,0.2,0.2,0.3,0.5c0.1,0.2,0.1,0.4,0.1,0.7v3.1c0,0.8,0,1.4-0.1,2c0,0.5,0,1,0,1.3
	c0.4,0,0.8-0.1,1.3-0.1c0.1-0.1,0.2-0.1,0.2-0.2c0.1-0.1,0.1-0.1,0.1-0.3c0-0.4,0-1,0-1.8c0-0.8,0-1.6,0-2.2c0-0.2,0-0.4,0.1-0.5
	c0-0.2,0.1-0.3,0.1-0.5c0.2-0.4,0.4-0.8,0.7-1c0.2-0.2,0.5-0.3,0.7-0.3c0.1,0,0.2,0,0.3,0c0.1,0.1,0.2,0.1,0.3,0.1
	c0.1,0,0.2,0,0.3-0.1c0.1-0.1,0.2-0.1,0.2-0.2c0.1-0.1,0.1-0.3,0.2-0.5c0-0.2,0.1-0.4,0.1-0.5c-0.1-0.1-0.2-0.2-0.4-0.2
	c-0.1-0.1-0.3-0.1-0.5-0.1c-0.4,0-0.8,0.2-1.1,0.5c-0.4,0.3-0.7,0.7-1,1.3c0-0.5-0.1-1-0.2-1.3C369.2,81.3,369,81.2,368.8,81.2z
	 M353,81.2c-0.5,0-1,0.1-1.4,0.4c-0.5,0.2-0.9,0.5-1.3,1c0-0.2-0.1-0.5-0.2-0.8c-0.1-0.4-0.3-0.5-0.5-0.5c-0.2,0-0.4,0.1-0.6,0.2
	c-0.2,0.2-0.3,0.3-0.4,0.5v0.1c0.1,0.1,0.2,0.2,0.2,0.4c0.1,0.2,0.1,0.4,0.1,0.7v3.1c0,0.8,0,1.5,0,2.1c0,0.5,0,1-0.1,1.3
	c0.2,0,0.4,0,0.7,0c0.2,0,0.4-0.1,0.6-0.1c0.1-0.1,0.2-0.1,0.3-0.1c0-0.1,0.1-0.2,0.1-0.4v-5.5c0.2-0.2,0.5-0.5,0.8-0.7
	c0.4-0.2,0.7-0.4,1.2-0.4c0.5,0,0.9,0.2,1.2,0.5c0.2,0.3,0.4,0.8,0.4,1.6l-0.1,4.7c0,0.2,0.1,0.3,0.3,0.3c0.2,0,0.5,0,0.7-0.1
	s0.4-0.1,0.6-0.1c0-0.2,0-0.6,0-1c-0.1-0.4-0.1-0.8-0.1-1.4v-2.6c0.1-0.9-0.1-1.7-0.5-2.3C354.7,81.5,354,81.2,353,81.2z
	 M333.3,79.7c-0.1,0-0.3,0.1-0.6,0.1c-0.2,0-0.4,0.1-0.5,0.1c0,0.2,0,0.4,0,0.7c0.1,0.4,0.1,0.8,0.1,1.3v3.1c0,1.7,0.4,2.9,1,3.7
	c0.7,0.7,1.6,1,2.8,1c0.6,0,1.1-0.1,1.8-0.3c0.6-0.2,1.1-0.7,1.5-1.4c0.4-0.7,0.7-1.9,0.7-3.3v-2.1c0-0.7,0-1.2,0-1.7
	c0.1-0.5,0.1-0.8,0.1-1.1c-0.2,0-0.3,0-0.4,0.1c-0.1,0-0.4,0-0.5,0c-0.1,0-0.2,0.1-0.2,0.1c-0.1,0-0.1,0.1-0.1,0.2v4.6
	c0,1.1-0.1,2-0.4,2.5c-0.2,0.5-0.5,0.9-1,1.1c-0.4,0.2-0.8,0.2-1.3,0.2c-0.5,0.1-1.1-0.2-1.7-0.6c-0.5-0.5-0.8-1.5-0.8-3v-4.4
	c0-0.4-0.1-0.6-0.1-0.7C333.5,79.7,333.4,79.7,333.3,79.7z M323.6,79.7c-0.1,0.1-0.1,0.2-0.2,0.3c-0.1,0.1-0.1,0.2-0.2,0.4
	c-0.1,0.1-0.1,0.2,0,0.3c0,0.1,0.1,0.1,0.2,0.1h2.9v8.4c0,0.1,0,0.2,0,0.2c0.1,0,0.1,0.1,0.2,0.1c0.2,0,0.4-0.1,0.6-0.1
	c0.2,0,0.4-0.1,0.5-0.1c0-0.2,0-0.4,0-0.7c0-0.3,0-0.7,0-1.3v-6.7h2.7c0.1-0.1,0.2-0.2,0.4-0.4s0.2-0.4,0.2-0.7h-5.1
	c-0.8,0-1.3,0-1.6,0S323.7,79.7,323.6,79.7z M319.8,79.5c-1.5,0.1-2.8,0.5-3.7,1.4c-1,0.9-1.5,2.2-1.5,3.7c0,1.5,0.4,2.7,1.3,3.6
	c0.8,0.9,2.2,1.4,3.8,1.4c0.5,0,1-0.1,1.3-0.2c0.4-0.1,0.7-0.2,0.8-0.4c0.1-0.1,0.2-0.2,0.3-0.4c0.1-0.2,0.2-0.4,0.2-0.6l-0.1-0.1
	c-0.2,0.1-0.5,0.2-0.9,0.3c-0.4,0.1-0.9,0.2-1.3,0.2c-1.3,0-2.3-0.4-3-1.1c-0.7-0.7-1-1.7-1.1-2.8c0.1-1.3,0.4-2.3,1.1-3
	c0.7-0.7,1.6-1,2.6-1c0.4,0,0.8,0.1,1.1,0.1c0.4,0.1,0.7,0.2,0.8,0.3c0.2,0.1,0.4,0.1,0.5-0.1c0.2-0.2,0.2-0.4,0.3-0.7
	c-0.2-0.2-0.5-0.3-1-0.5C321.1,79.6,320.5,79.5,319.8,79.5z M362.8,79.5c-0.5,0-1.1,0.1-1.5,0.1c-0.5,0.1-0.8,0.1-1.1,0.1
	c0.1,0.4,0.1,0.7,0.1,1.1c0,0.3,0,0.7,0,1.1v7.4c0,0.1,0.1,0.2,0.1,0.2c0.1,0.1,0.2,0.1,0.2,0.1c0.2,0,0.4,0,0.7-0.1
	c0.2,0,0.5-0.1,0.6-0.1c0-0.2,0-0.4,0-0.7c-0.1-0.3-0.1-0.7-0.1-1.3v-7c0.2,0,0.3,0,0.5,0c0.1,0,0.3,0,0.4,0
	c0.6-0.1,1.1,0.1,1.7,0.4c0.5,0.3,0.8,0.9,0.8,1.7c-0.1,0.9-0.3,1.4-0.7,1.7c-0.5,0.3-0.9,0.4-1.4,0.4c-0.1,0-0.2,0-0.4,0
	c-0.2-0.1-0.3-0.1-0.4-0.1c0,0.2,0.1,0.4,0.1,0.5c0.1,0.1,0.2,0.2,0.3,0.3c0.1,0.1,0.2,0.1,0.4,0.1c0.1,0.1,0.3,0.1,0.5,0.1
	c0.7,0,1.4-0.2,2.1-0.7c0.7-0.5,1.1-1.3,1.1-2.3c-0.1-1.1-0.4-1.9-1.2-2.4S364,79.5,362.8,79.5z M345.6,79.4c-0.2,0-0.4,0.1-0.5,0.2
	c-0.2,0.1-0.3,0.3-0.3,0.7c0,0.3,0.1,0.5,0.2,0.6c0.2,0.2,0.4,0.2,0.6,0.2c0.3,0,0.5-0.1,0.6-0.3c0.2-0.2,0.2-0.3,0.2-0.5
	c0-0.3-0.1-0.5-0.2-0.6C346.1,79.5,345.9,79.4,345.6,79.4L345.6,79.4z"/>
<rect x="404.1" y="37.2" fill="none" width="14.7" height="14.7"/>
</svg>
