<?xml version="1.0" encoding="utf-8"?>
<!-- Generator: Adobe Illustrator 17.1.0, SVG Export Plug-In . SVG Version: 6.00 Build 0)  -->
<!DOCTYPE svg PUBLIC "-//W3C//DTD SVG 1.1//EN" "http://www.w3.org/Graphics/SVG/1.1/DTD/svg11.dtd">
<svg version="1.1" id="Layer_1" xmlns="http://www.w3.org/2000/svg" xmlns:xlink="http://www.w3.org/1999/xlink" x="0px" y="0px"
	 viewBox="0 0 247.3 115" enable-background="new 0 0 247.3 115" xml:space="preserve">
<path fill="#9AD420" d="M221.9,69.3V72c0,0.7-0.1,1-0.3,1.3c-0.5,0.8-1.7,1.8-3.3,1.8c-1.3,0-2.4-0.8-2.4-2.2
	C215.9,70.8,218.7,69.8,221.9,69.3 M151,69.3V72c0,0.7-0.1,1-0.3,1.3c-0.5,0.8-1.7,1.8-3.3,1.8c-1.3,0-2.4-0.8-2.4-2.2
	C145,70.8,147.9,69.8,151,69.3z M63.5,62.5c-0.6,0-2.3,0.2-2.9,0.4c0.1,0.8,0.1,4.3,0.1,6.5v2.1c0,2.2-0.1,4.4-0.1,6
	c1.1-0.1,2.1-0.1,2.6-0.2c0.7-0.1,0.8-0.2,0.8-1V64.9C64,62.7,63.9,62.5,63.5,62.5z M173.8,62.5c-0.6,0-2.3,0.2-2.9,0.4
	c0.1,0.8,0.1,4.3,0.1,6.6v2.1c0,2.2-0.1,4.4-0.1,6c1.1-0.1,2.1-0.1,2.6-0.2c0.6-0.1,0.8-0.2,0.8-1V64.8
	C174.3,62.7,174.2,62.5,173.8,62.5z M184.1,62.4L184.1,62.4c3.6,0,5,3.4,5,6.7c0,4.5-2.3,6.4-4.6,6.4c-2.8,0-5.1-2.3-5.1-6.8
	C179.4,64.7,181.6,62.4,184.1,62.4z M104.1,62.4L104.1,62.4c2.4,0,3.6,1.7,3.6,4c0,0.4-0.4,0.7-0.8,0.8c-0.7,0-4.1,0.1-6.7,0
	C100.4,64.1,102.2,62.4,104.1,62.4z M219.3,60.2c-2.6,0-5.1,1.4-6.3,2.5c0.2,1.1,0.7,2,1.9,1.4c1-0.7,2.4-1.3,3.7-1.3
	c2.3,0,3.2,1.8,3.2,3.5v1c-0.5,0.1-1.3,0.2-2,0.4c-2,0.5-7.3,1.7-7.3,5.7c0,2.4,1.9,4.4,4.5,4.4c2,0,3.8-1.3,4.8-2.3
	c0.3,1.2,1.1,2.3,2.8,2.3c1.7,0,2.6-0.8,2.5-2.4l-0.1-0.1c-0.2,0.1-0.5,0.1-0.8,0.1c-0.8,0-1.3-0.5-1.3-1.2
	c-0.1-2.3,0.1-5.9,0.1-7.5C225.1,63,223.2,60.2,219.3,60.2z M204.5,60.2c-2.1,0-4.2,1.3-5.8,2.9c-0.1-1-0.4-2.8-1.7-2.8
	c-0.7,0-1.9,0.7-2.2,1.3v0.2c0.5,0.4,0.7,1,0.7,2.4v6.4c0,3.4-0.1,5.6-0.1,7c0.9-0.1,1.8,0,2.7-0.2c0.6-0.1,0.8-0.2,0.8-1V65.1
	c0.9-1,2.4-2.2,4.3-2.2c2.3,0,3.5,1.5,3.5,4.4V77c0,0.4,0.1,0.6,0.5,0.6c1.1,0,2.2-0.2,2.9-0.4c-0.1-1-0.1-2.6-0.1-4.7v-5.2
	C210.1,63.6,209,60.2,204.5,60.2z M184.4,60.2c-5,0-8.5,3.9-8.5,8.9c0,4.5,2.8,8.6,8.3,8.6c5.2,0,8.4-3.8,8.4-8.9
	C192.6,63.9,189.7,60.2,184.4,60.2z M148.5,60.2c-2.6,0-5.1,1.4-6.3,2.5c0.2,1.1,0.7,2,1.9,1.4c1-0.7,2.4-1.3,3.7-1.3
	c2.3,0,3.3,1.8,3.3,3.5v1c-0.5,0.1-1.3,0.2-2,0.4c-2.1,0.5-7.3,1.7-7.3,5.7c0,2.4,1.9,4.4,4.5,4.4c2,0,3.8-1.3,4.8-2.3
	c0.3,1.2,1.1,2.3,2.8,2.3c1.7,0,2.6-0.8,2.5-2.4l-0.1-0.1c-0.2,0.1-0.5,0.1-0.8,0.1c-0.8,0-1.3-0.5-1.3-1.2
	c-0.1-2.3,0.1-5.9,0.1-7.5C154.2,63,152.4,60.2,148.5,60.2z M133.6,60.2c-2.1,0-4.2,1.3-5.8,2.9c-0.1-1-0.4-2.8-1.7-2.8
	c-0.7,0-1.9,0.7-2.2,1.3v0.2c0.5,0.4,0.7,1,0.7,2.4v6.4c0,3.4-0.1,5.6-0.1,7c0.9-0.1,1.8,0,2.7-0.2c0.6-0.1,0.8-0.2,0.8-1V65.1
	c0.9-1,2.4-2.2,4.3-2.2c2.3,0,3.5,1.5,3.5,4.4V77c0,0.4,0.2,0.6,0.6,0.6c1,0,2.1-0.2,2.9-0.4c-0.1-1-0.1-2.6-0.1-4.7v-5.2
	C139.3,63.6,138.1,60.2,133.6,60.2z M114.6,60.2c-0.6,0-1.9,0.8-2.2,1.4v0.2c0.7,0.5,0.8,1.4,0.8,2.4v6.4c0,3.4,0,5.6-0.1,7
	c0.9,0,1.8-0.1,2.8-0.2c0.5-0.1,0.7-0.4,0.7-0.9c0-1.4,0-6,0-8.4c0-0.8,0.2-1.4,0.4-2c0.8-1.9,2-2.7,2.9-2.7c0.4,0,0.8,0.1,1.4,0.3
	c0.5,0,0.9-0.3,1.1-0.8c0.4-0.5,0.5-1.5,0.5-2c-0.3-0.3-1.1-0.7-1.9-0.7c-1.7,0-3.4,1.3-4.6,3.8C116.4,61.5,115.6,60.2,114.6,60.2z
	 M104.5,60.2c-5,0-7.9,4.3-7.9,9c0,5.4,2.9,8.5,8.2,8.5c1.6,0,3.2-0.5,3.8-0.8c0.7-0.3,1.6-1.4,1.6-2.7l-0.1-0.1
	c-0.7,0.4-2.6,1-4.3,1c-3.4,0-5.6-2.2-5.8-5.9c2.8,0.1,6.6,0.1,7.6-0.1c1.3-0.2,3.2-0.7,3.3-1.3c0.1-0.3,0.1-0.8,0.1-1.2
	C110.9,63.5,109,60.2,104.5,60.2z M77.1,60.2c-2.1,0-4.2,1.3-5.8,2.9c-0.1-1-0.4-2.8-1.7-2.8c-0.7,0-1.9,0.7-2.2,1.3v0.2
	c0.5,0.4,0.7,1,0.7,2.4v6.4c0,3.4-0.1,5.6-0.1,7c0.9-0.1,1.8,0,2.6-0.2c0.7-0.1,0.8-0.2,0.8-1V65.1c0.9-1,2.4-2.2,4.3-2.2
	c2.3,0,3.5,1.5,3.5,4.4V77c0,0.4,0.2,0.6,0.6,0.6c1,0,2.1-0.2,2.9-0.4c-0.1-1-0.1-2.6-0.1-4.7v-5.2C82.8,63.6,81.6,60.2,77.1,60.2z
	 M62.1,56.4c-1,0-1.9,0.8-1.9,1.9s0.8,1.9,1.9,1.9s1.9-0.8,1.9-1.9S63.1,56.4,62.1,56.4z M172.6,56.4c-0.8,0-1.9,0.6-1.9,2
	c0,1.3,0.8,1.9,1.9,1.9c1.1,0,1.9-0.9,1.9-1.9C174.5,57.2,173.8,56.4,172.6,56.4L172.6,56.4z M232.2,56.3c-0.6,0-2.1,0.2-2.9,0.5
	c0.1,0.8,0.2,2,0.2,4.2v16.1c0,0.4,0.2,0.5,0.5,0.5c0.5,0,2.3-0.1,2.9-0.3c0-1.1-0.1-3.1-0.1-5V58.8
	C232.7,56.5,232.6,56.3,232.2,56.3z M162.1,56.3c-0.8,0.1-1.5,0.5-2,1c-0.6,0.5-3,3.8-3.4,4.6c0,0.4,0.5,0.8,1.9,0.8
	c0,4.7,0,8.5,0,10.1c0,2.9,1.4,5,4.8,5c1.3,0,2.8-0.4,3.5-1c0.7-0.5,0.9-1.5,0.7-2.2l-0.1-0.1c-0.7,0.4-1.7,0.8-2.9,0.8
	c-1.3,0-2.5-0.6-2.7-2.8c-0.1-1.7-0.2-6.1,0-9.8c2.7,0,2.9-0.1,4.2-0.1c0.7-0.1,1.5-0.2,1.9-2.2c-0.6,0-4.6,0-6.1,0
	C162,59.4,162,57.4,162.1,56.3z M90.5,56.3c-0.8,0.1-1.5,0.5-2,1c-0.6,0.5-3,3.8-3.4,4.6c0,0.4,0.5,0.8,1.9,0.8c0,4.7,0,8.5,0,10.1
	c0,2.9,1.3,5,4.7,5c1.4,0,2.8-0.4,3.5-1c0.7-0.5,0.9-1.5,0.8-2.2l-0.1-0.1c-0.7,0.4-1.8,0.8-2.9,0.8c-1.3,0-2.5-0.6-2.7-2.8
	c-0.1-1.7-0.2-6.1,0-9.8c2.7,0,2.9-0.1,4.2-0.1c0.7-0.1,1.6-0.2,1.9-2.2c-0.6,0-4.6,0-6.1,0C90.3,59.4,90.4,57.4,90.5,56.3z"/>
<path fill="#00ADEF" d="M171.3,97.5c-0.7,0.4-1.9,0.8-3.1,0.8c-1.4,0-2.6-0.5-2.9-2.8c-0.1-1.6-0.2-5.6,0-9.4c2.9,0,3.1,0,4.4-0.1
	c0.7,0,1.6-0.2,2-2.2c-0.6,0-4.8,0-6.4,0c0-0.8,0.1-2.9,0.2-4c-1,0.1-1.6,0.5-2.2,0.9c-0.6,0.5-3.1,3.8-3.6,4.6c0,0.4,0.6,0.9,2,0.9
	c0,4.7,0,8,0,9.7c0,2.9,1.4,5,5,5c1.4,0,3-0.4,3.8-1.1c0.7-0.5,1-1.4,0.8-2.2L171.3,97.5 M153.9,100.1c0,0.4,0.2,0.6,0.7,0.6
	c1.1,0,2.2-0.2,3.1-0.3c-0.1-1-0.1-2.6-0.1-4.8v-5.2c0-3.6-1.3-7-6-7c-2.2,0-4.4,1.3-6.1,2.9c-0.1-0.9-0.4-2.8-1.7-2.8
	c-0.7,0-1.9,0.7-2.3,1.3v0.1c0.5,0.4,0.8,1,0.8,2.5v6.4c0,3.4-0.1,5.6-0.2,7c1-0.1,1.9,0,2.8-0.2c0.7-0.1,0.9-0.2,0.9-1V88.2
	c1-1,2.5-2.2,4.6-2.2c2.4,0,3.7,1.5,3.7,4.4V100.1z M132.3,85.5c2.5,0,3.8,1.7,3.7,4c0,0.4-0.4,0.7-0.8,0.8c-0.7,0.1-4.3,0.1-7.1,0
	C128.4,87.2,130.3,85.5,132.3,85.5z M138.6,97.2c-0.7,0.4-2.7,1-4.6,1c-3.5,0-6-2.1-6.1-5.8c2.9,0.1,6.9,0,8-0.1
	c1.4-0.2,3.4-0.8,3.5-1.4c0.1-0.3,0.1-0.8,0.1-1.2c-0.1-3.1-2-6.4-6.7-6.4c-5.3,0-8.4,4.3-8.4,9.1c0,5.4,3.1,8.5,8.7,8.5
	c1.6,0,3.3-0.5,4-0.8c0.7-0.4,1.6-1.5,1.6-2.8L138.6,97.2z M117.6,96.9c-1,0.7-2.5,1.2-3.7,1.2c-3.3,0-5.6-2.3-5.6-6
	c0-4.4,3.1-6.5,6.2-6.5c1.4,0,2.6,0.3,3.1,0.6V96.9z M117.6,83.9c-0.4-0.1-1.6-0.5-3.1-0.5c-5.6,0-10,3.8-10,9.2
	c0,5.3,3.5,8.3,7.9,8.3c1.6,0,4.1-1,5.7-2.2c0.3,1.1,1.1,2.2,3,2.2c1,0,1.8-1.1,2-2v-0.1c-1.2-0.2-1.9-0.6-1.9-2.3V82.3
	c0-2.3-0.1-2.5-0.6-2.5c-0.7,0-2.3,0.2-3.1,0.5c0.1,0.7,0.2,1,0.2,3V83.9z M86,94.5c0,3.8,2,6.4,6.1,6.4c1,0,1.9-0.2,2.6-0.5
	c0.8-0.3,2.2-1,3.4-2.2c0.2,1.6,1.2,2.7,2.9,2.7c0.8,0,1.9-1.2,1.9-1.9v-0.2c-1.1-0.2-1.6-0.6-1.6-2.4v-6c0-3.4,0.1-6,0.1-6.8
	c-1,0-1.9,0.1-3.1,0.2c-0.5,0.2-0.6,0.4-0.6,1.3v11.1c-0.7,0.8-2.3,1.9-4.2,1.9c-1.8,0-4-0.5-4-4.5c0-2.5,0-5.2-0.1-7.7
	c0-2.2-0.1-2.3-0.5-2.3c-0.7,0-2.4,0.2-3.1,0.4c0.1,0.8,0.2,2,0.2,4.3V94.5z M84.2,97.5c-0.7,0.4-1.9,0.8-3.1,0.8
	c-1.4,0-2.6-0.5-2.9-2.8c-0.2-1.6-0.2-5.6,0-9.4c2.9,0,3.1,0,4.4-0.1c0.7,0,1.6-0.2,2-2.2c-0.7,0-4.8,0-6.4,0c0-0.8,0.1-2.7,0.2-3.8
	c-1,0.1-1.6,0.5-2.2,0.9c-0.6,0.5-3.1,3.7-3.6,4.4c0,0.4,0.6,0.9,2,0.9c0,4.7,0,8,0,9.7c0,2.9,1.4,5,5,5c1.4,0,3-0.4,3.8-1.1
	c0.7-0.5,1-1.4,0.8-2.2L84.2,97.5z M66.9,83.3c-3.2,0-6.1,1.9-6.1,5c0,2,1.1,3.3,2.8,4.1c1,0.5,2,1,3.1,1.6c1.3,0.7,1.9,1.3,1.9,2.2
	c0,1.3-1,2.2-3,2.2c-1.4,0-3.2-0.6-4.5-1.4c-0.4,0.3-0.7,0.8-0.8,1.5c-0.1,0.5,0.3,0.9,0.7,1.1c1,0.7,2.6,1.2,4.4,1.2
	c3.3,0,6.7-1.6,6.7-5.3c0-1.6-0.8-2.9-2.6-3.9c-1.2-0.6-2.8-1.3-3.7-1.8c-0.9-0.5-1.6-1.1-1.6-2.2c0-1.2,1.1-2,2.6-2
	c1,0,2.1,0.3,2.9,0.7c1.1,0.1,1.6-1,1.6-1.7C70.1,83.8,68.5,83.3,66.9,83.3z"/>
<path fill="#ED0882" d="M190.3,100.2c0,0.4,0.2,0.5,0.5,0.5c0.5,0,2.4-0.1,3.2-0.3c-0.1-1-0.2-3.1-0.2-5V82.3c0-2.3-0.1-2.5-0.6-2.5
	c-0.6,0-2.2,0.2-3.1,0.5c0.1,0.8,0.1,3.2,0.1,5.5V100.2 M186.6,97.5c-1,0.4-2.8,0.8-4.3,0.8c-2.8,0-6.5-1.4-6.5-6.2
	c0-3.6,2.5-6.1,5.9-6.1c1.3,0,2.6,0.3,3.5,0.7c1.1,0.2,1.8-0.8,1.8-1.9c-0.4-0.5-2.3-1.4-5.2-1.4c-5.5,0-9.7,3.7-9.7,9.1
	c0,6.5,4.9,8.5,9.1,8.5c1.7,0,3.4-0.4,4.4-1c0.5-0.5,1-1.4,1.1-2.3L186.6,97.5z M197.1,94.5c0,3.8,2,6.4,6.1,6.4
	c1,0,1.8-0.2,2.6-0.5c0.8-0.3,2.1-1,3.4-2.2c0.2,1.6,1.2,2.7,2.9,2.7c0.8,0,1.8-1.2,1.9-1.9v-0.2c-1.1-0.2-1.6-0.6-1.6-2.4v-6
	c0-3.4,0.1-6,0.1-6.8c-1,0-1.9,0.1-3.1,0.2c-0.5,0.2-0.6,0.4-0.6,1.3v11.1c-0.7,0.8-2.3,1.9-4.2,1.9c-1.8,0-4-0.5-4-4.5
	c0-2.5,0-5.2-0.1-7.7c0-2.2-0.1-2.3-0.5-2.3c-0.7,0-2.4,0.2-3.1,0.4c0.1,0.8,0.2,2,0.2,4.3V94.5z M220.4,82.3c0-2.3-0.2-2.5-0.7-2.5
	c-0.6,0-2.2,0.2-3.1,0.5c0.1,0.8,0.1,2.9,0.1,5.3v13.2c0,0.7,0.3,0.9,0.8,1.1c1,0.5,3.1,1,4.9,1c5.9,0,10.9-3.5,10.9-9.5
	c0-5.5-3.8-8-7.6-8c-1.7,0-3.8,0.9-5.3,1.7V82.3z M220.4,87c0.9-0.5,2.6-1,3.7-1c3.4,0,5.5,2.2,5.5,5.8c0,4.7-3.3,6.7-6.7,6.7
	c-0.8,0-1.8-0.1-2.5-0.3V87z"/>
<path fill="#8D8D8D" d="M212.3,51.9c0.2,0,0.5,0,0.8,0c0.7,0,1.3,0.1,1.8,0.4c0.2,0.2,0.4,0.4,0.3,0.7c-0.2,0.9-1.4,1-2.3,1
	c-0.9,0-2.3-0.1-2.3-0.7c0-0.3,0.1-0.5,0.2-0.8c0.2-0.2,0.4-0.3,0.7-0.5C211.8,51.9,212,51.9,212.3,51.9 M205.9,48.1v1.3
	c0,0.1-0.1,0.3-0.1,0.4c0,0.1-0.1,0.2-0.1,0.3c-0.2,0.2-0.4,0.4-0.6,0.5s-0.6,0.3-1,0.3c-0.3,0-0.5-0.1-0.8-0.3
	c-0.2-0.2-0.3-0.4-0.3-0.7v-0.1c0-0.5,0.3-0.9,0.8-1.1C204.6,48.4,205.2,48.2,205.9,48.1z M230.1,44.7L230.1,44.7
	c0.6,0,1,0.2,1.3,0.5c0.3,0.4,0.4,0.8,0.4,1.4c0,0.1-0.1,0.2-0.1,0.3c-0.1,0.1-0.2,0.1-0.2,0.1c-0.2,0-0.6,0-1.3,0
	c-0.6,0-1.3,0-1.9,0c0.1-0.8,0.2-1.4,0.6-1.7C229.2,44.9,229.6,44.7,230.1,44.7z M174,44.7c-0.2,0-0.4,0-0.7,0.1
	c-0.3,0-0.5,0.1-0.7,0.1c0,0.2,0.1,0.5,0.1,0.8c0,0.4,0-0.2,0,0.4v3.2c0,0.5,0,1.1,0,1.6c0,0.5-0.1,1-0.1,1.4c0.3,0,0.5,0,0.7-0.1
	c0.2,0,0.4,0,0.5-0.1c0.1,0,0.2-0.1,0.3-0.1c0.1-0.1,0.1-0.2,0.1-0.4v-5.8c0-0.5,0-0.8-0.1-1C174.1,44.7,174,44.7,174,44.7z
	 M212.6,44.6c0.5,0,0.9,0.2,1.2,0.5c0.2,0.4,0.4,0.8,0.4,1.3c0,0.5-0.2,1-0.4,1.3c-0.2,0.4-0.6,0.5-1.1,0.6c-0.5,0-0.8-0.2-1.1-0.5
	c-0.3-0.3-0.5-0.8-0.5-1.3c0-0.6,0.2-1.1,0.5-1.4C211.8,44.8,212.2,44.6,212.6,44.6z M219.3,43.7c-0.2,0-0.4,0-0.7,0.1
	c-0.3,0.1-0.5,0.1-0.7,0.1c0,0.2,0,0.5,0,0.8C218,45,218,45.5,218,46v3.1c0,1,0.2,1.7,0.7,2.2c0.4,0.6,1.1,0.8,2,0.9
	c0.2,0,0.4-0.1,0.6-0.1c0.2-0.1,0.4-0.1,0.5-0.2c0.2-0.1,0.4-0.2,0.7-0.4c0.3-0.2,0.5-0.4,0.8-0.7c0.1,0.4,0.2,0.8,0.4,1
	c0.2,0.2,0.5,0.4,0.9,0.4c0.2-0.1,0.4-0.2,0.5-0.4c0.2-0.2,0.2-0.4,0.3-0.6v-0.1c-0.2-0.1-0.4-0.2-0.5-0.3c-0.1-0.2-0.2-0.5-0.2-0.9
	v-2.9c0-0.8,0-1.6,0-2.2c0.1-0.5,0.1-1,0.1-1.2c-0.2,0-0.4,0-0.7,0.1c-0.2,0-0.4,0-0.7,0.1c-0.1,0.1-0.2,0.1-0.2,0.2
	c-0.1,0.1-0.1,0.2-0.1,0.5v5.4c-0.2,0.2-0.4,0.4-0.7,0.6c-0.3,0.2-0.7,0.3-1.1,0.4c-0.4,0-0.8-0.1-1.1-0.4c-0.4-0.2-0.5-0.8-0.5-1.8
	c0-0.6,0-1.2,0-1.9c0-0.7-0.1-1.3-0.1-1.9c0-0.5,0-0.8-0.1-1C219.4,43.8,219.4,43.7,219.3,43.7z M230.3,43.6
	c-1.2,0.1-2.1,0.5-2.7,1.4c-0.7,0.8-1,1.9-1,3.1c0,1.3,0.3,2.3,1,3.1c0.7,0.7,1.6,1.1,2.8,1.1c0.4,0,0.7-0.1,1-0.2
	c0.3-0.1,0.6-0.2,0.7-0.2c0.2-0.1,0.4-0.3,0.5-0.5c0.1-0.2,0.2-0.5,0.2-0.8l-0.1-0.1c-0.1,0.1-0.4,0.2-0.8,0.4
	c-0.4,0.1-0.8,0.2-1.2,0.2c-0.8,0-1.4-0.2-1.9-0.8c-0.5-0.5-0.7-1.2-0.8-2.1c0.7,0,1.4,0.1,2.1,0c0.7,0,1.1,0,1.4-0.1
	c0.3-0.1,0.7-0.1,1-0.2c0.4-0.1,0.5-0.3,0.6-0.4c0-0.1,0-0.2,0-0.3s0-0.2,0-0.3c0-0.8-0.2-1.5-0.7-2.1C232,44,231.3,43.7,230.3,43.6
	z M212.7,43.6c-0.9,0.1-1.6,0.3-2.2,0.8c-0.5,0.6-0.8,1.3-0.9,2.2c0,0.6,0.2,1.1,0.4,1.5c0.2,0.4,0.6,0.7,1.1,0.9
	c-0.2,0.2-0.4,0.4-0.5,0.5c-0.2,0.2-0.4,0.3-0.6,0.5c-0.1,0-0.1,0.1-0.1,0.1c0,0.1,0,0.1,0,0.1c0,0.4,0.1,0.7,0.3,0.9
	c0.2,0.3,0.5,0.5,0.8,0.6c-0.4,0.2-0.7,0.3-1.1,0.7c-0.4,0.4-0.5,0.5-0.5,1.1c0,1.5,2,1.7,3.2,1.8c1.7,0,3.9-0.5,4.1-2.5
	c0.1-0.5-0.1-1-0.5-1.4c-0.3-0.4-0.8-0.6-1.6-0.7c-0.3-0.1-0.7-0.1-1-0.1c-0.4,0-0.7,0-1.1-0.1c-0.4,0-0.7-0.1-0.8-0.2
	c-0.2-0.1-0.2-0.2-0.2-0.4c0-0.1,0.1-0.2,0.2-0.3c0.1-0.1,0.2-0.2,0.4-0.4c0.1,0.1,0.2,0.1,0.3,0.1s0.2,0,0.4,0c0.8,0,1.5-0.2,2-0.7
	c0.5-0.5,0.8-1.2,0.9-2.2c0-0.2-0.1-0.4-0.1-0.6c-0.1-0.2-0.1-0.5-0.2-0.7c0.1,0,0.1,0,0.2,0c0.1,0,0.2,0,0.2,0
	c0.3,0,0.5-0.1,0.7-0.2c0.2-0.1,0.2-0.4,0.2-0.7c0-0.1,0-0.1,0-0.2s-0.1-0.1-0.1-0.2c-0.1,0.1-0.3,0.1-0.5,0.1
	c-0.2,0.1-0.4,0.1-0.7,0.1c-0.2,0-0.5,0-0.7-0.1c-0.2-0.1-0.5-0.1-0.7-0.2c-0.2-0.1-0.5-0.1-0.7-0.2
	C213.1,43.7,212.8,43.6,212.7,43.6z M204.8,43.6c-0.7,0.1-1.2,0.2-1.7,0.4c-0.5,0.3-1,0.5-1.2,0.8c0,0.3,0.1,0.5,0.2,0.7
	c0.2,0.1,0.4,0.2,0.6,0.1c0.2-0.2,0.5-0.4,0.8-0.5c0.3-0.1,0.6-0.2,0.9-0.2c0.5,0,0.9,0.2,1.1,0.5c0.2,0.4,0.4,0.7,0.4,1.1v0.5
	c-0.1,0-0.3,0.1-0.4,0.1c-0.2,0.1-0.4,0.1-0.5,0.1c-0.3,0.1-0.8,0.2-1.3,0.4c-0.5,0.2-1,0.5-1.4,0.8s-0.7,0.9-0.7,1.6
	c0,0.6,0.2,1.1,0.6,1.5c0.4,0.4,0.8,0.6,1.5,0.7c0.5-0.1,0.9-0.2,1.3-0.4c0.4-0.2,0.7-0.5,1-0.8c0.1,0.4,0.2,0.6,0.4,0.8
	c0.2,0.2,0.5,0.3,0.8,0.4c0.4,0,0.7-0.1,0.9-0.3c0.2-0.2,0.3-0.5,0.3-0.9l-0.1-0.1c-0.1,0-0.1,0-0.2,0.1c-0.1,0-0.1,0-0.2,0
	c-0.2,0-0.3-0.1-0.4-0.2c-0.1-0.1-0.2-0.2-0.2-0.4c0-0.6,0-1.3,0.1-2c0-0.7,0-1.3,0-1.7c0-0.9-0.2-1.7-0.7-2.3
	C206.4,44,205.7,43.7,204.8,43.6z M197.1,43.6c-0.2,0.1-0.4,0.1-0.6,0.2c-0.2,0.2-0.4,0.3-0.4,0.5v0.1c0.1,0.1,0.2,0.3,0.3,0.5
	c0.1,0.2,0.1,0.4,0.1,0.7v3.1c0,0.8,0,1.5,0,2c0,0.5,0,1-0.1,1.4c0.4,0,0.8-0.1,1.3-0.1c0.1,0,0.2-0.1,0.2-0.1s0.1-0.2,0.1-0.3
	c0-0.4,0-1,0-1.9c0-0.8,0-1.6,0-2.2c0-0.2,0-0.4,0.1-0.5c0.1-0.2,0.1-0.3,0.1-0.5c0.2-0.4,0.4-0.8,0.7-1c0.2-0.2,0.5-0.4,0.7-0.4
	c0.1,0,0.2,0.1,0.3,0.1c0.1,0,0.2,0.1,0.3,0.1c0.1,0,0.2-0.1,0.3-0.1c0.1-0.1,0.2-0.2,0.2-0.3c0.1-0.1,0.2-0.3,0.2-0.5
	c0.1-0.2,0.1-0.4,0.1-0.5c-0.1-0.1-0.2-0.1-0.4-0.2c-0.2-0.1-0.4-0.1-0.5-0.1c-0.4,0-0.8,0.2-1.1,0.5c-0.4,0.3-0.7,0.8-1,1.4
	c0-0.6-0.1-1.1-0.2-1.4C197.5,43.8,197.3,43.6,197.1,43.6z M181,43.6c-0.5,0-1,0.1-1.4,0.4c-0.5,0.2-0.9,0.6-1.3,1
	c0-0.2-0.1-0.5-0.2-0.8c-0.1-0.3-0.3-0.5-0.6-0.5c-0.2,0-0.4,0.1-0.6,0.2c-0.2,0.1-0.4,0.2-0.4,0.4v0.1c0.1,0.1,0.2,0.2,0.2,0.4
	c0.1,0.2,0.1,0.4,0.1,0.8v3.2c0,0.8,0,1.6,0,2.1c0,0.6,0,1-0.1,1.4c0.2,0,0.4,0,0.7,0c0.2-0.1,0.4-0.1,0.6-0.1c0.1,0,0.2,0,0.3-0.1
	s0.1-0.2,0.1-0.4V46c0.2-0.2,0.5-0.5,0.8-0.7c0.4-0.2,0.7-0.4,1.2-0.4c0.5,0,0.9,0.2,1.2,0.5c0.3,0.4,0.4,0.9,0.4,1.6v4.8
	c0,0.2,0.1,0.3,0.3,0.3c0.2,0,0.5,0,0.7-0.1c0.2-0.1,0.4-0.1,0.6-0.1c0-0.2,0-0.5,0-1c-0.1-0.4-0.1-0.8-0.1-1.4v-2.6
	c0.1-1-0.1-1.7-0.5-2.4C182.7,44,182,43.6,181,43.6z M160.8,42.1c-0.2,0-0.4,0-0.6,0.1c-0.3,0-0.5,0-0.6,0.1c0,0.2,0.1,0.4,0.1,0.7
	c0,0.3,0,0.8,0,1.3v3.2c0,1.8,0.4,3,1.1,3.7c0.7,0.7,1.6,1.1,2.8,1.1c0.6,0,1.2-0.1,1.9-0.3c0.6-0.2,1.1-0.7,1.6-1.4
	c0.4-0.7,0.7-1.9,0.7-3.4v-2.2c0-0.7,0-1.2,0-1.7c0-0.5,0-0.8,0.1-1.1c-0.2,0-0.3,0-0.5,0c-0.1,0-0.3,0-0.5,0.1
	c-0.1,0-0.2,0-0.2,0.1c-0.1,0.1-0.1,0.2-0.1,0.3v4.6c0,1.1-0.1,2-0.4,2.6c-0.3,0.6-0.6,1-1,1.1c-0.4,0.2-0.8,0.2-1.3,0.2
	c-0.6,0.1-1.2-0.2-1.7-0.7c-0.5-0.5-0.8-1.5-0.9-3.1v-4.4c0-0.4,0-0.6-0.1-0.7C161,42.1,160.9,42.1,160.8,42.1z M150.9,42
	c-0.1,0.1-0.1,0.2-0.2,0.3c-0.1,0.1-0.2,0.3-0.2,0.5c-0.1,0.1-0.1,0.2,0,0.3c0,0.1,0.1,0.1,0.2,0.1h2.9v8.6c0,0.1,0,0.2,0.1,0.2
	c0,0,0.1,0,0.2,0c0.2,0,0.4,0,0.6,0c0.2,0,0.4-0.1,0.6-0.1c0-0.1,0-0.4-0.1-0.7c0-0.3,0-0.7,0-1.3v-6.8h2.8c0.1-0.1,0.2-0.2,0.4-0.4
	s0.2-0.4,0.2-0.7h-5.2c-0.8,0-1.4,0-1.7,0C151.2,42.1,151,42.1,150.9,42z M147,41.9c-1.6,0-2.8,0.5-3.8,1.4c-1,1-1.6,2.2-1.6,3.8
	c0,1.5,0.4,2.7,1.3,3.7c0.9,0.9,2.2,1.3,4,1.4c0.5,0,1-0.1,1.4-0.2c0.4-0.1,0.7-0.2,0.8-0.4c0.1-0.1,0.2-0.2,0.3-0.4
	s0.1-0.4,0.2-0.5l-0.1-0.1c-0.2,0.1-0.5,0.2-1,0.3c-0.4,0.1-0.8,0.2-1.3,0.2c-1.4-0.1-2.4-0.4-3.1-1.1c-0.7-0.8-1.1-1.7-1.1-2.9
	c0.1-1.3,0.4-2.3,1.1-3c0.7-0.7,1.6-1,2.6-1c0.4,0,0.8,0.1,1.2,0.1c0.4,0.1,0.7,0.2,0.9,0.4c0.2,0,0.3,0,0.5-0.2
	c0.2-0.1,0.2-0.3,0.2-0.6c-0.1-0.2-0.4-0.3-0.9-0.5C148.3,42,147.7,41.9,147,41.9z M190.9,41.9c-0.5,0-1,0-1.5,0.1
	c-0.5,0-0.8,0.1-1.1,0.1c0,0.4,0.1,0.8,0.1,1.1c0,0.4,0,0.7,0,1.1v7.6c0,0.1,0.1,0.2,0.1,0.2c0.1,0.1,0.2,0.1,0.2,0.1
	c0.2,0,0.4,0,0.7-0.1c0.3,0,0.5-0.1,0.6-0.1c0-0.2,0-0.4,0-0.7s0-0.7,0-1.3v-7.2c0.1,0,0.3,0,0.4-0.1c0.2,0,0.3,0,0.5,0
	c0.6,0,1.1,0.1,1.7,0.4c0.5,0.3,0.8,0.9,0.9,1.8c-0.1,0.8-0.3,1.4-0.8,1.7c-0.5,0.3-0.9,0.5-1.4,0.4c-0.1,0-0.2,0-0.4,0
	c-0.2-0.1-0.3-0.1-0.4-0.1c0,0.2,0.1,0.3,0.1,0.5c0.1,0.2,0.2,0.3,0.3,0.4c0.1,0.1,0.2,0.1,0.4,0.1c0.2,0.1,0.4,0.1,0.6,0.1
	c0.8,0,1.5-0.3,2.2-0.8c0.7-0.5,1.1-1.3,1.1-2.4c-0.1-1.1-0.4-1.9-1.2-2.4S192.1,41.9,190.9,41.9z M173.4,41.8
	c-0.2,0-0.4,0.1-0.6,0.2c-0.2,0.2-0.3,0.4-0.3,0.7c0,0.3,0.1,0.5,0.3,0.6c0.1,0.2,0.4,0.2,0.6,0.2c0.2,0,0.5-0.1,0.6-0.3
	c0.2-0.2,0.2-0.3,0.2-0.6c0-0.2-0.1-0.4-0.2-0.6C173.9,41.9,173.7,41.9,173.4,41.8L173.4,41.8z"/>
<path fill="#8D8D8D" d="M140.6,19.9c-0.4,0-1.4,0.9-2.6,1.6c-21.1,12.7-32.3,8.2-40.5,3.1c-2.7-1.7-5.8-4.1-7.7-6.1
	c-1,0.5-1.9,2.3-1.1,3.1c2,2,5.9,4.4,8.2,6.1c9.6,7.1,6.5,18.6-4.6,20.8c-10.9,2.3-21.5-4.7-5.5-14.3c2.1-1.3,4.4-2.4,6.5-3.7
	c0.8-0.7,0.1-2.3-0.8-2.9c-0.4,0-1.3,1-2.4,1.7c-1.4,1-4.6,2.8-6.4,3.8c-10.9,6-18.7,2-27.2-0.3c-0.7,0.8-1.1,2.4-0.1,2.9
	c1.4,0.4,5.8,1.4,7.4,1.9c8.3,2.5,7,8.7,1.8,12.2c-6.7,4.5-16,6.4-14.6-5.5c0.5-4.9,1.3-10.3,2.3-15.1c0.1-1.1-2.1-1.7-3.2-1.6
	c-0.1,2.6-0.4,5.2-1,8.2c-2.8,13.7-4,21.2-30.5,21.5c-1.2,0-2.3-0.1-3.6,0.1c-0.4,1-0.1,2.6,1.1,2.8c7.6-0.4,18-1.4,22.4-0.8
	c4.9,0.7,6.1,5.5,3.9,9.1c-1.9,3.2-6.7,5.3-7.4,5.4l-0.2,0.1c-0.2,0.6,0.2,2.9,0.8,3.3c0.5,0.4,2.5-0.1,5.9-4
	c7.2-8.3,6.2-17.3-5.3-16.4c5.5-1.3,10.6-4.1,12.5-11.9c-2.9,12.4,7,13.8,17.6,5.9c7.1-5.2,7.6-12.5,1.2-13.9c4.6,1.4,10.3,0,13.2-1
	c-3.8,3.1-7.3,8.6-1.2,12.2c7.9,4.7,21.7,1.2,25.3-8.2c1.3-3.3,1.1-7.5-1.7-10.4c2.8,1.4,10.5,3.5,20.5-0.1
	c-7.4,4.1-20.5,14.3-12.4,19c4,2.3,10.1,2.8,19.3,1.3c0.2-0.2,0.2-0.4,0.1-0.7c-0.1-0.7-0.9-2-1.5-2.2c-0.8,0.5-3.5,0.9-4.5,1
	c-23.7,0.6-7.9-12.4,2-17.4c5-2.5,9.2-4.7,14.7-7.7C142.4,22.4,141.6,20.4,140.6,19.9"/>
<path fill-rule="evenodd" clip-rule="evenodd" fill="#00ADEF" d="M74.6,33.8c2.3-0.3,4-2.3,3.7-4.6c-0.2-2.3-2.3-4-4.6-3.7
	c-2.3,0.3-4,2.3-3.7,4.6C70.2,32.4,72.3,34.1,74.6,33.8"/>
<path fill-rule="evenodd" clip-rule="evenodd" fill="#ED0882" d="M114.3,26c2.8-0.4,4.9-2.9,4.6-5.7c-0.3-2.9-2.9-4.9-5.7-4.6
	c-2.8,0.3-4.9,2.9-4.6,5.7C108.9,24.3,111.4,26.3,114.3,26"/>
<path fill-rule="evenodd" clip-rule="evenodd" fill="#9AD420" d="M37.8,50.7c2.6-0.3,4.5-2.6,4.2-5.2s-2.6-4.4-5.2-4.2
	c-2.6,0.3-4.5,2.6-4.2,5.3C32.9,49.1,35.3,51,37.8,50.7"/>
</svg>
