<svg xmlns="http://www.w3.org/2000/svg" viewBox="0 0 144 80"><defs><style>.a{fill:#231f20;}</style></defs><title>ESN_CZ_logo_black</title><polygon class="a" points="8.76 58.096 11.591 58.096 11.591 57.386 8.76 57.386 8.76 55.372 12.398 55.372 12.398 54.663 8 54.663 8 60.905 12.541 60.905 12.541 60.195 8.76 60.195 8.76 58.096"/><path class="a" d="M14.68652,56.95166l-.10449-.77582h-.61719v4.72888h.75977v-2.5531a1.82328,1.82328,0,0,1,.18555-.8565,1.29822,1.29822,0,0,1,.47461-.52985,1.1341,1.1341,0,0,1,.59375-.175,1.25271,1.25271,0,0,1,.59863.12348l.15234-.73792a1.152,1.152,0,0,0-.52246-.09527A1.51271,1.51271,0,0,0,14.68652,56.95166Z"/><path class="a" d="M21.62305,60.27081a.34617.34617,0,0,1-.085-.2547V57.6886a1.44165,1.44165,0,0,0-.51368-1.20068,2.12311,2.12311,0,0,0-1.35839-.40735,2.29986,2.29986,0,0,0-1.21094.313,1.592,1.592,0,0,0-.708.84191l.56055.40638a1.38755,1.38755,0,0,1,1.3584-.89832,1.12739,1.12739,0,0,1,.81738.28388,1.001,1.001,0,0,1,.29394.7564v.26447l-1.26367.208a2.88438,2.88438,0,0,0-1.377.54449,1.17489,1.17489,0,0,0-.47559.93134,1.08674,1.08674,0,0,0,.45606.94116A1.9434,1.9434,0,0,0,19.27637,61a2.20851,2.20851,0,0,0,.88867-.18475A1.43515,1.43515,0,0,0,20.80566,60.3a.78746.78746,0,0,0,.27149.53863.95215.95215,0,0,0,.584.16138,1.6919,1.6919,0,0,0,.57032-.09528l.04687-.596a1.53993,1.53993,0,0,1-.37988.04766A.37907.37907,0,0,1,21.62305,60.27081Zm-.84571-.95471a.85052.85052,0,0,1-.43164.73694,1.83542,1.83542,0,0,1-1.03125.28387,1.11811,1.11811,0,0,1-.63672-.15551.5123.5123,0,0,1-.22753-.44922.63737.63737,0,0,1,.31347-.54444,2.5009,2.5009,0,0,1,.9502-.32568l1.06347-.19928Z"/><path class="a" d="M25.47656,58.20972a3.119,3.119,0,0,1-1.002-.29364.53594.53594,0,0,1-.28027-.48218.583.583,0,0,1,.32324-.48224,1.60355,1.60355,0,0,1,1.5625-.0097,1.18724,1.18724,0,0,1,.46094.65234l.6455-.37817a1.54352,1.54352,0,0,0-.66015-.8556,2.33037,2.33037,0,0,0-1.22071-.28,2.38613,2.38613,0,0,0-.98828.19439,1.58979,1.58979,0,0,0-.65527.51532,1.2051,1.2051,0,0,0-.22754.70972,1.16794,1.16794,0,0,0,.18066.66693,1.30516,1.30516,0,0,0,.57911.44428,4.98926,4.98926,0,0,0,1.083.29852,3.07965,3.07965,0,0,1,.96875.28778.49778.49778,0,0,1,.27539.43939.58763.58763,0,0,1-.29394.50171,1.53156,1.53156,0,0,1-.85547.1983,2.00711,2.00711,0,0,1-.94043-.20806,1.14993,1.14993,0,0,1-.56055-.62415l-.61718.42584a1.69285,1.69285,0,0,0,.80761.7992A2.77157,2.77157,0,0,0,25.2959,61a2.8081,2.8081,0,0,0,1.0498-.18085A1.58274,1.58274,0,0,0,27.04,60.3233,1.1642,1.1642,0,0,0,27.28223,59.6a1.08865,1.08865,0,0,0-.40918-.908A3.14267,3.14267,0,0,0,25.47656,58.20972Z"/><path class="a" d="M35.17285,56.275a2.07768,2.07768,0,0,0-.88769-.19439,2.15836,2.15836,0,0,0-.96973.23718,1.42507,1.42507,0,0,0-.68359.69031,1.55609,1.55609,0,0,0-.66993-.69031,2.0124,2.0124,0,0,0-.96386-.23718,1.87509,1.87509,0,0,0-.86914.208,1.61828,1.61828,0,0,0-.65137.62519l-.04688-.73792h-.665v4.72888h.75977V58.37885a1.83342,1.83342,0,0,1,.209-.91675,1.3568,1.3568,0,0,1,.53223-.54352,1.377,1.377,0,0,1,.665-.175,1.11962,1.11962,0,0,1,.81152.29749,1.21588,1.21588,0,0,1,.30957.913v2.95068h.75976v-2.592a1.73307,1.73307,0,0,1,.19435-.84582,1.34922,1.34922,0,0,1,1.21191-.72333,1.1212,1.1212,0,0,1,.81152.29749,1.21561,1.21561,0,0,1,.3086.913v2.95068h.76074V57.87817a1.84363,1.84363,0,0,0-.25684-1.00238A1.5715,1.5715,0,0,0,35.17285,56.275Z"/><path class="a" d="M41.21777,58.74829a1.43489,1.43489,0,0,1-1.5205,1.58862,1.12461,1.12461,0,0,1-.83594-.28778,1.3703,1.3703,0,0,1-.28516-.979V56.17584h-.75976v3.09259a1.6402,1.6402,0,0,0,.48925,1.30573A1.84867,1.84867,0,0,0,39.56445,61a1.80043,1.80043,0,0,0,1.7002-.81476l.04784.71948h.66505V56.17584h-.75977Z"/><path class="a" d="M45.6123,58.20972a3.119,3.119,0,0,1-1.002-.29364.53594.53594,0,0,1-.28027-.48218.583.583,0,0,1,.32324-.48224,1.60355,1.60355,0,0,1,1.5625-.0097,1.1872,1.1872,0,0,1,.46094.65234l.64551-.37817a1.54353,1.54353,0,0,0-.66016-.8556,2.33033,2.33033,0,0,0-1.2207-.28,2.38615,2.38615,0,0,0-.98829.19439,1.58992,1.58992,0,0,0-.65527.51532,1.2051,1.2051,0,0,0-.22754.70972,1.16787,1.16787,0,0,0,.18067.66693,1.30507,1.30507,0,0,0,.5791.44428,4.9892,4.9892,0,0,0,1.083.29852,3.07974,3.07974,0,0,1,.96875.28778.4978.4978,0,0,1,.27539.43939.58764.58764,0,0,1-.29395.50171,1.53154,1.53154,0,0,1-.85547.1983,2.00711,2.00711,0,0,1-.94043-.20806,1.14987,1.14987,0,0,1-.56054-.62415l-.61719.42584a1.69287,1.69287,0,0,0,.80762.7992A2.7715,2.7715,0,0,0,45.43164,61a2.80819,2.80819,0,0,0,1.04981-.18085,1.58271,1.58271,0,0,0,.69433-.49585A1.1642,1.1642,0,0,0,47.418,59.6a1.08865,1.08865,0,0,0-.40918-.908A3.14267,3.14267,0,0,0,45.6123,58.20972Z"/><path class="a" d="M56.252,57.4436a5.57955,5.57955,0,0,1-1.04-.26056,1.28415,1.28415,0,0,1-.53711-.34515.76884.76884,0,0,1-.16113-.50067.90407.90407,0,0,1,.41309-.76221,1.9118,1.9118,0,0,1,1.13573-.29754,1.93335,1.93335,0,0,1,1.07813.26055,2.02765,2.02765,0,0,1,.67872.88379l.65625-.5299a2.56254,2.56254,0,0,0-2.42286-1.32416,2.86711,2.86711,0,0,0-1.23535.25085,1.9548,1.9548,0,0,0-.8164.67664,1.63043,1.63043,0,0,0-.28516.92657,1.35464,1.35464,0,0,0,.52246,1.13459,4.14727,4.14727,0,0,0,1.77637.62414,3.94545,3.94545,0,0,1,1.34863.41614.75543.75543,0,0,1,.38086.663.84776.84776,0,0,1-.4375.76026,2.21665,2.21665,0,0,1-1.17773.27032,2.346,2.346,0,0,1-1.249-.30725,1.94412,1.94412,0,0,1-.75586-.86529l-.65527.52893a2.56915,2.56915,0,0,0,1.02148.98388A3.3105,3.3105,0,0,0,56.10937,61a3.37431,3.37431,0,0,0,1.27344-.22363,1.92627,1.92627,0,0,0,.85059-.62415,1.51586,1.51586,0,0,0,.29883-.93139,1.39727,1.39727,0,0,0-.51758-1.15308A3.92065,3.92065,0,0,0,56.252,57.4436Z"/><path class="a" d="M62.044,60.29028a.74577.74577,0,0,1-.51758-.17505A.65709.65709,0,0,1,61.332,59.6V56.82819h1.75684v-.65235H61.332V54.83221l-.76074.20807v1.13556h-.94922v.65235h.94922v2.904a1.21209,1.21209,0,0,0,.376.95477,1.40436,1.40436,0,0,0,.94531.313,1.76432,1.76432,0,0,0,1.22461-.42584l-.26563-.63391A1.11176,1.11176,0,0,1,62.044,60.29028Z"/><path class="a" d="M67.72168,58.74829a1.4349,1.4349,0,0,1-1.52051,1.58862,1.12461,1.12461,0,0,1-.83594-.28778,1.37034,1.37034,0,0,1-.28515-.979V56.17584h-.75977v3.09259a1.6402,1.6402,0,0,0,.48926,1.30573A1.84864,1.84864,0,0,0,66.06836,61a1.80042,1.80042,0,0,0,1.70019-.81476l.04786.71948h.665V56.17584h-.75977Z"/><path class="a" d="M73.77344,56.91376a1.67893,1.67893,0,0,0-.6416-.60572,1.90851,1.90851,0,0,0-.93555-.22747,2.01008,2.01008,0,0,0-1.582.65814,3.07078,3.07078,0,0,0,0,3.60309,2.01,2.01,0,0,0,1.582.6582,1.93313,1.93313,0,0,0,.9834-.25085,1.58438,1.58438,0,0,0,.64062-.66694l.04785.82251h.665V54h-.75976Zm0,1.68292a1.88479,1.88479,0,0,1-.4043,1.26776,1.35674,1.35674,0,0,1-1.08789.47247,1.33423,1.33423,0,0,1-1.0918-.48608,2.34979,2.34979,0,0,1,0-2.62109,1.33412,1.33412,0,0,1,1.0918-.48615,1.35676,1.35676,0,0,1,1.08789.47254,1.88468,1.88468,0,0,1,.4043,1.26776Z"/><path class="a" d="M79.46387,56.37415a2.18763,2.18763,0,0,0-1.14942-.29358,2.10928,2.10928,0,0,0-1.6582.65332,2.61714,2.61714,0,0,0-.584,1.80639,2.53168,2.53168,0,0,0,.61328,1.8064A2.19724,2.19724,0,0,0,78.37109,61a2.48361,2.48361,0,0,0,1.21582-.26544,1.963,1.963,0,0,0,.76075-.76612l-.63672-.33154a.934.934,0,0,1-.47071.52112,1.87708,1.87708,0,0,1-.86914.17889,1.479,1.479,0,0,1-1.06836-.39666,1.70259,1.70259,0,0,1-.47949-1.11609H80.4043a3.72921,3.72921,0,0,0,.03808-.52985,2.50526,2.50526,0,0,0-.24707-1.12488A1.89335,1.89335,0,0,0,79.46387,56.37415ZM76.832,58.15234a1.68354,1.68354,0,0,1,.4707-1.04028,1.40094,1.40094,0,0,1,1.01172-.36847,1.27092,1.27092,0,0,1,.959.37335,1.72432,1.72432,0,0,1,.4375,1.0354Z"/><path class="a" d="M84.2793,56.08057a2.11255,2.11255,0,0,0-.94043.20416,1.48128,1.48128,0,0,0-.65625.629l-.04688-.73792h-.665v4.72888h.75977V58.38861a1.873,1.873,0,0,1,.21387-.9411,1.30127,1.30127,0,0,1,.54589-.53864,1.5704,1.5704,0,0,1,.71289-.16528,1.12272,1.12272,0,0,1,.84961.33057,1.5029,1.5029,0,0,1,.31836,1.06946v2.7611h.76075V57.87817a1.68787,1.68787,0,0,0-.52247-1.33288A1.93062,1.93062,0,0,0,84.2793,56.08057Z"/><path class="a" d="M89.7207,60.29028a.7458.7458,0,0,1-.51758-.17505A.65712.65712,0,0,1,89.00879,59.6V56.82819h1.75683v-.65235H89.00879V54.83221l-.76074.20807v1.13556h-.94922v.65235h.94922v2.904a1.21212,1.21212,0,0,0,.376.95477,1.4044,1.4044,0,0,0,.94532.313,1.76432,1.76432,0,0,0,1.22461-.42584l-.26563-.63391A1.11177,1.11177,0,0,1,89.7207,60.29028Z"/><polygon class="a" points="101.043 59.07 101.081 60.073 101.072 60.073 100.397 58.824 97.785 54.663 96.845 54.663 96.845 60.905 97.566 60.905 97.566 56.498 97.528 55.495 97.538 55.495 98.203 56.724 100.825 60.905 101.766 60.905 101.766 54.663 101.043 54.663 101.043 59.07"/><path class="a" d="M106.84961,56.37415a2.1876,2.1876,0,0,0-1.14941-.29358,2.10929,2.10929,0,0,0-1.65821.65332,2.61714,2.61714,0,0,0-.584,1.80639,2.53168,2.53168,0,0,0,.61328,1.8064A2.19726,2.19726,0,0,0,105.75684,61a2.48364,2.48364,0,0,0,1.21582-.26544,1.96308,1.96308,0,0,0,.76074-.76612l-.63672-.33154a.934.934,0,0,1-.4707.52112,1.87714,1.87714,0,0,1-.86914.17889,1.479,1.479,0,0,1-1.06836-.39666,1.7026,1.7026,0,0,1-.4795-1.11609H107.79a3.72921,3.72921,0,0,0,.03808-.52985,2.50526,2.50526,0,0,0-.24707-1.12488A1.89329,1.89329,0,0,0,106.84961,56.37415Zm-2.63184,1.77819a1.6835,1.6835,0,0,1,.47071-1.04028,1.40092,1.40092,0,0,1,1.01172-.36847,1.2709,1.2709,0,0,1,.959.37335,1.72432,1.72432,0,0,1,.4375,1.0354Z"/><path class="a" d="M111.19043,60.29028a.74578.74578,0,0,1-.51758-.17505.65712.65712,0,0,1-.19433-.51525V56.82819h1.75683v-.65235h-1.75683V54.83221l-.76075.20807v1.13556h-.94922v.65235h.94922v2.904a1.21215,1.21215,0,0,0,.376.95477,1.40436,1.40436,0,0,0,.94531.313,1.7643,1.7643,0,0,0,1.22461-.42584l-.26562-.63391A1.11178,1.11178,0,0,1,111.19043,60.29028Z"/><polygon class="a" points="118.602 60.026 117.31 56.176 116.549 56.176 115.257 60.026 114.061 56.176 113.215 56.176 114.868 60.905 115.628 60.905 116.892 57.14 118.23 60.905 118.991 60.905 120.644 56.176 119.798 56.176 118.602 60.026"/><path class="a" d="M123.85059,56.08057a2.19726,2.19726,0,0,0-1.68555.65332,2.967,2.967,0,0,0,0,3.61279,2.50225,2.50225,0,0,0,3.37207,0,2.97074,2.97074,0,0,0,0-3.61279A2.19945,2.19945,0,0,0,123.85059,56.08057Zm1.13086,3.78387a1.56592,1.56592,0,0,1-2.26075,0,2.34715,2.34715,0,0,1,0-2.64831,1.56592,1.56592,0,0,1,2.26075,0,2.35181,2.35181,0,0,1,0,2.64831Z"/><path class="a" d="M128.416,56.95166l-.1045-.77582h-.61718v4.72888h.75976v-2.5531a1.82328,1.82328,0,0,1,.18555-.8565,1.29828,1.29828,0,0,1,.47461-.52985,1.13413,1.13413,0,0,1,.59375-.175,1.25268,1.25268,0,0,1,.59863.12348l.15234-.73792a1.152,1.152,0,0,0-.52246-.09527A1.5127,1.5127,0,0,0,128.416,56.95166Z"/><polygon class="a" points="135.886 56.176 134.936 56.176 132.476 58.626 132.476 54 131.716 54 131.716 60.905 132.476 60.905 132.476 59.571 133.482 58.568 135.078 60.905 136 60.905 134.033 58.02 135.886 56.176"/><path class="a" d="M77,42.99908V40.02551a1.00044,1.00044,0,0,0-1-1.00091H61V30.98792H72A1.00045,1.00045,0,0,0,73,29.987V26.98419a1.00044,1.00044,0,0,0-1-1.00091H61V17.00415H75a1.00044,1.00044,0,0,0,1-1.00092V13.00092A1.00043,1.00043,0,0,0,74.99951,12l-18,.00867A1.00045,1.00045,0,0,0,56,13.00958v29.9895A1.00044,1.00044,0,0,0,57,44H76A1.00044,1.00044,0,0,0,77,42.99908Z"/><path class="a" d="M134.99994,12h-3.00018a1.00011,1.00011,0,0,0-1,1.00031V35.99756l-12.717-23.47388A1.00009,1.00009,0,0,0,117.4035,12h-4.40344A1.00013,1.00013,0,0,0,112,13.00159l.03918,29.99939a1.00025,1.00025,0,0,0,1.00007.999h2.95965a1.00021,1.00021,0,0,0,1.00006-1.00031V20.993l12.7135,22.47009a1,1,0,0,0,.87036.50763h4.41712A1.0002,1.0002,0,0,0,136,42.97046V13.00031A1.00016,1.00016,0,0,0,134.99994,12Z"/><path class="a" d="M47,25H35.24255l8.06952-8.293a.99994.99994,0,0,0-.00958-1.40448l-2.605-2.605a.99994.99994,0,0,0-1.40448-.00958L31,20.75739V9a1,1,0,0,0-1-1H26a1,1,0,0,0-1,1V20.75739l-8.293-8.06946a.99994.99994,0,0,0-1.40448.00958l-2.605,2.605a.99994.99994,0,0,0-.00958,1.40448L20.75745,25H9a1,1,0,0,0-1,1v4a1,1,0,0,0,1,1H20.75732l-8.28888,8.28888a1,1,0,0,0,.02479,1.43817l2.81005,2.62268a1,1,0,0,0,1.3797-.01434L25,35.24255V47a1,1,0,0,0,1,1h4a1,1,0,0,0,1-1V35.24255l8.293,8.06952a1.00005,1.00005,0,0,0,1.40448-.00958l2.605-2.605a.99994.99994,0,0,0,.00958-1.40448L35.24261,31H47a1,1,0,0,0,1-1V26A1,1,0,0,0,47,25ZM29.65686,32H26.34314L24,29.65686V26.34314L26.34314,24h3.31372L32,26.34314v3.31372Z"/><path class="a" d="M104.56421,40.23a8.327,8.327,0,0,0,1.52075-4.92993A7.58882,7.58882,0,0,0,103.44629,29.18a16.33078,16.33078,0,0,0-7.03986-2.8999c-.50354-.12012-1.03735-.22-1.59118-.32007a25.07136,25.07136,0,0,1-4.85443-1.26,5.69463,5.69463,0,0,1-2.34675-1.55993A3.38581,3.38581,0,0,1,86.94946,20.95,4.05136,4.05136,0,0,1,88.712,17.56012,8.35666,8.35666,0,0,1,93.81818,16.18a8.39164,8.39164,0,0,1,4.84423,1.21009,9.11532,9.11532,0,0,1,2.79462,2.65948,1.00584,1.00584,0,0,0,1.4458.27338l2.35816-1.76862a1.01386,1.01386,0,0,0,.20819-1.39374C102.938,13.48962,98.73126,11.65,93.77783,11.65A13.769,13.769,0,0,0,87.66449,12.95a9.9776,9.9776,0,0,0-4.08887,3.54,8.891,8.891,0,0,0-1.44024,4.88,7.38319,7.38319,0,0,0,2.679,6.03991C86.33514,28.64008,88.6817,29.59,91.965,30.31012c.48339.10986.99707.21,1.53088.30994a17.84053,17.84053,0,0,1,6.23407,1.99,3.29931,3.29931,0,0,1,1.59131,2.88,3.75573,3.75573,0,0,1-1.85321,3.37,9.78872,9.78872,0,0,1-5.33771,1.26A10.3414,10.3414,0,0,1,88.46021,38.67a6.849,6.849,0,0,1-1.88514-1.81054,1.00629,1.00629,0,0,0-1.41821-.227l-2.32379,1.74286a1.003,1.003,0,0,0-.1593,1.45727,13.80982,13.80982,0,0,0,3.39953,2.91748A15.84843,15.84843,0,0,0,94.03973,44.65a16.07687,16.07687,0,0,0,6.26429-1.1499A9.70557,9.70557,0,0,0,104.56421,40.23Z"/><path class="a" d="M63.87891,72.12012a3.0596,3.0596,0,0,1-3.23829-3.39844,3.06122,3.06122,0,0,1,3.22754-3.398,2.61786,2.61786,0,0,1,2.81933,1.81885l-1.50976.60986c-.18945-.81982-.57031-1.07959-1.25-1.07959-.959,0-1.52832.69971-1.52832,2.04883,0,1.33936.5293,2.04883,1.499,2.04883a1.19633,1.19633,0,0,0,1.30859-1.0791l1.55957.43945A2.71945,2.71945,0,0,1,63.87891,72.12012Z"/><path class="a" d="M67.36035,70.98047l1.97949-2.25879.53907-.52979-.79981.02h-1.709V67.023h4.38769V68.062l-1.96875,2.23877-.54.54981.87989-.02h1.71875V72.02H67.36035Z"/><path class="a" d="M77.54785,70.01123h-3.4082a.95924.95924,0,0,0,1.0498.90918.85159.85159,0,0,0,.919-.54932l1.37988.43946a2.17817,2.17817,0,0,1-2.29883,1.30957,2.39814,2.39814,0,0,1-2.69922-2.59864,2.3661,2.3661,0,0,1,2.60938-2.59863,2.28166,2.28166,0,0,1,2.49805,2.52881A3.12444,3.12444,0,0,1,77.54785,70.01123Zm-3.4082-.91943h1.8789c-.08984-.63965-.39941-.9795-.92968-.9795C74.54883,68.1123,74.22949,68.41211,74.13965,69.0918Z"/><path class="a" d="M83.34766,68.47217l-1.57911.51953c-.07031-.57959-.31933-.85938-.7705-.85938-.63868,0-.98828.42969-.98828,1.40918,0,.98926.38867,1.36914.98828,1.36914.48047,0,.75-.29.83007-.80957l1.5293.48975c-.13965.86963-.94922,1.5293-2.34863,1.5293a2.59965,2.59965,0,1,1-.06934-5.19727C82.55859,66.92285,83.18749,67.6626,83.34766,68.47217Z"/><path class="a" d="M89.26758,68.69189V72.02H87.56836v-2.8584c0-.70947-.29-.94971-.71-.94971-.48926,0-.89942.33985-.89942,1.17969V72.02H84.25977V64.90381H85.959v3.01855a1.6265,1.6265,0,0,1,1.57911-.99951A1.60794,1.60794,0,0,1,89.26758,68.69189Z"/><path class="a" d="M96.1582,69.61133H95.12891V72.02H93.43945V65.42383h3.14844c1.58887,0,2.48828.73926,2.48828,2.09863a1.863,1.863,0,0,1-1.2793,1.90918L99.4668,72.02H97.56738Zm-1.02929-1.21924h1.16894c.72949,0,1.04981-.25,1.04981-.83984,0-.57959-.32032-.82911-1.04981-.82911H95.12891Z"/><path class="a" d="M104.957,70.01123h-3.4082a.95976.95976,0,0,0,1.0498.90918.85086.85086,0,0,0,.91895-.54932l1.37988.43946a2.17664,2.17664,0,0,1-2.29883,1.30957,2.39783,2.39783,0,0,1-2.69824-2.59864,2.36581,2.36581,0,0,1,2.6084-2.59863,2.28237,2.28237,0,0,1,2.499,2.52881A3.1196,3.1196,0,0,1,104.957,70.01123Zm-3.4082-.91943h1.8789c-.08984-.63965-.39941-.9795-.92968-.9795C101.959,68.1123,101.63867,68.41211,101.54883,69.0918Z"/><path class="a" d="M111.22656,69.50146c0,1.65918-.77929,2.61866-2.05859,2.61866a1.6135,1.6135,0,0,1-1.50977-.92969v2.92822H105.96V67.023h1.48926l.0498,1.05908a1.72861,1.72861,0,0,1,1.66895-1.15918C110.4668,66.92285,111.22656,67.87207,111.22656,69.50146Zm-1.709.02c0-.93945-.35938-1.34912-.93946-1.34912-.56933,0-.91992.43946-.91992,1.29883v.1001c0,.82959.33008,1.29932.91992,1.29932C109.1582,70.87061,109.51758,70.46094,109.51758,69.52148Z"/><path class="a" d="M117.2168,67.023V72.02h-1.51953l-.04981-.92969a1.7348,1.7348,0,0,1-1.72949,1.02979,1.54585,1.54585,0,0,1-1.709-1.75928V67.023h1.69922v2.9082c0,.67969.25.88965.68946.88965.53027,0,.91992-.3501.91992-1.14941V67.023Z"/><path class="a" d="M123.707,69.5415c0,1.62891-.75976,2.57862-2.05859,2.57862a1.72874,1.72874,0,0,1-1.66992-1.15967L119.92871,72.02h-1.48926V64.90381h1.69922v2.94873a1.6107,1.6107,0,0,1,1.50977-.92969C122.92773,66.92285,123.707,67.88232,123.707,69.5415Zm-1.709-.02c0-.93945-.35938-1.34912-.93946-1.34912-.58984,0-.91992.46973-.91992,1.29883v.1001c0,.85937.34961,1.29932.91992,1.29932C121.63867,70.87061,121.99805,70.46094,121.99805,69.52148Z"/><path class="a" d="M126.39844,70.291c0,.43994.11035.61962.46.61962a1.43961,1.43961,0,0,0,.50976-.08984l-.11035,1.04932a2.189,2.189,0,0,1-1.03906.25c-1.06934,0-1.51953-.46973-1.51953-1.5791V64.90381h1.69922Z"/><path class="a" d="M127.84961,65.6333c0-.56934.2998-.81934.98926-.81934.69043,0,.98925.25.98925.81934,0,.56006-.29882.80957-.98925.80957C128.14941,66.44287,127.84961,66.19336,127.84961,65.6333ZM129.68848,72.02h-1.69825V67.023h1.69825Z"/><path class="a" d="M135.69727,68.47217l-1.58008.51953c-.07032-.57959-.31934-.85938-.76953-.85938-.63965,0-.98926.42969-.98926,1.40918,0,.98926.38965,1.36914.98926,1.36914.48046,0,.75-.29.83007-.80957l1.5293.48975c-.14062.86963-.94922,1.5293-2.34961,1.5293a2.59965,2.59965,0,1,1-.06933-5.19727C134.90723,66.92285,135.53711,67.6626,135.69727,68.47217Z"/></svg>