<svg xmlns="http://www.w3.org/2000/svg" viewBox="0 0 54.61963 54.66113"><defs><style>.a,.c{fill:#fff;}.b{fill:none;}.c{fill-rule:evenodd;}</style></defs><title>buddy</title><path class="a" d="M40.13807,29.4658h-.57378c-.01495.24144-.03158.4755-.04364.70979q-.22835,4.43811-.45516,8.87631a1.54,1.54,0,0,1-1.1338,1.5476,1.48592,1.48592,0,0,1-1.86321-1.52889c.06292-1.4688.14592-2.93676.2215-4.405.11376-2.20974.26618-4.41831.33213-6.62947.06414-2.15085.041-4.30433.05161-6.45669a.40421.40421,0,0,0-.07491-.24351q-1.49472-1.79892-2.99988-3.58917a.57553.57553,0,0,0-.07188-.05683c-.15778.18407-.31683.36556-.47146.55074-.77572.929-1.5532,1.85654-2.32071,2.79226a.54654.54654,0,0,0-.12348.35733c.07635.7818.15562,1.56414.2677,2.34144.303,2.10148.62285,4.20052.93591,6.30053.09065.60809.18094,1.21622.27578,1.8538h-1.115c0,.17852-.0089.33138.00134.48295q.22444,3.32244.45316,6.64461a1.49507,1.49507,0,1,1-2.98095.23055c-.13676-1.866-.25635-3.73332-.38378-5.60005-.03891-.56992-.08045-1.13967-.12349-1.74771-.26649,0-.52369-.00792-.77937.00819-.04021.00254-.102.1123-.10576.17533-.04878.82272-.08923,1.64595-.13111,2.46908-.07924,1.55729-.15483,3.11478-.23833,4.67184a1.49925,1.49925,0,0,1-1.55606,1.42383,1.47014,1.47014,0,0,1-1.42932-1.5429c.07042-1.65424.16526-3.30744.24978-4.96108.03749-.73347.07447-1.467.11358-2.23783H22.909c.05027-.361.09221-.68285.14022-1.00377.40633-2.71654.81995-5.432,1.21422-8.15032a9.14283,9.14283,0,0,0,.03644-1.24418.34211.34211,0,0,0-.08956-.1945q-1.48919-1.78893-2.984-3.57316a.67554.67554,0,0,0-.07758-.06206c-.19925.23423-.4001.46671-.597.70248-.74251.889-1.48659,1.77674-2.22095,2.67245a.57758.57758,0,0,0-.11216.34033c-.0063,1.52966-.04105,3.06058.00807,4.58872.057,1.77187.18125,3.54183.29185,5.31166.1167,1.86733.25154,3.73354.3788,5.60021.048.70371.09439,1.40754.14605,2.111a1.49712,1.49712,0,0,1-1.329,1.6348,1.47155,1.47155,0,0,1-1.64625-1.359c-.11322-1.39859-.19511-2.79971-.29068-4.19974Q15.594,32.3888,15.40927,29.7c-.005-.07335-.01664-.14624-.0267-.23233h-.57639c-.02953.50888-.061,1.01037-.08737,1.51213q-.19911,3.7928-.39581,7.58572c-.012.22985-.01179.4607-.03291.68964a1.49357,1.49357,0,0,1-1.58447,1.3884,1.472,1.472,0,0,1-1.392-1.55609c.07037-1.632.16432-3.26288.2484-4.89423.12612-2.44707.28888-4.893.3659-7.34161.05551-1.7651-.001-3.5338-.01679-5.30082a.51925.51925,0,0,0-.13474-.28908q-1.98623-2.38956-3.98-4.77283a1.46821,1.46821,0,1,1,2.22619-1.91013c.95386,1.1187,1.93832,2.21381,2.8427,3.37135a2.85888,2.85888,0,0,0,3.34877.65549,2.8192,2.8192,0,0,0,.89629-.71579c.92615-1.11282,1.88234-2.201,2.79531-3.32433a1.71311,1.71311,0,0,1,2.48625-.02045c.93885,1.1407,1.91917,2.24726,2.85932,3.38693a2.5604,2.5604,0,0,0,1.95583.95426,2.68333,2.68333,0,0,0,2.29707-1.0015c.92078-1.10764,1.87471-2.18814,2.78005-3.30807a1.69272,1.69272,0,0,1,2.49478-.01056c.92071,1.12666,1.89107,2.21268,2.8148,3.33694a2.79936,2.79936,0,0,0,4.26894-.00552c.92007-1.10825,1.85312-2.20576,2.78454-3.30455a1.46571,1.46571,0,0,1,2.51281.30027A1.40075,1.40075,0,0,1,46.9289,16.436c-.71355.8648-1.43443,1.72355-2.15283,2.58434-.56615.67835-1.13641,1.35333-1.69551,2.03744a.54507.54507,0,0,0-.10723.32028c-.006,1.44055.01452,2.88138-.00629,4.32164-.025,1.72643.17294,3.43918.2771,5.15746.12847,2.11957.2869,4.23732.43259,6.35584.04126.59995.08969,1.19949.12329,1.79986a1.49775,1.49775,0,1,1-2.98918.16465q-.325-4.74446-.65238-9.48875C40.15391,29.62262,40.14647,29.5567,40.13807,29.4658Z"/><path class="a" d="M39.82582,18.07386a2.28915,2.28915,0,1,1,2.2915-2.24187A2.27129,2.27129,0,0,1,39.82582,18.07386Z"/><path class="a" d="M29.73893,15.77779a2.28453,2.28453,0,1,1-2.33506-2.27522A2.274,2.274,0,0,1,29.73893,15.77779Z"/><path class="a" d="M17.35055,15.80388a2.28364,2.28364,0,1,1-2.309-2.30171A2.277,2.277,0,0,1,17.35055,15.80388Z"/><path class="b" d="M53.022,28.73755a15.53286,15.53286,0,0,1-.11072,1.54968l1.58967.18189c.09643-.54285.0758-1.097.11871-1.64515Z"/><path class="c" d="M53.70605,30.37817a.83584.83584,0,0,1-.7229-.86413.788.788,0,0,1,.83765-.73328.8128.8128,0,0,1,.75678.86743A.77014.77014,0,0,1,53.70605,30.37817Z"/><polygon class="b" points="52.431 33.06 52.045 34.565 53.58 35.014 53.992 33.415 52.431 33.06"/><path class="c" d="M52.81238,34.78979a.80143.80143,0,0,1,.39917-1.55236.80143.80143,0,0,1-.39917,1.55236Z"/><path class="b" d="M51.11829,37.22253c-.2.47718-.44373.936-.66278,1.40528l1.437.70373c.23321-.49841.49035-.98657.70275-1.49377Z"/><path class="c" d="M51.174,38.97961a.79776.79776,0,0,1-.381-1.05188.84443.84443,0,0,1,1.06378-.39758.76236.76236,0,0,1,.39386,1.05737A.80341.80341,0,0,1,51.174,38.97961Z"/><polygon class="b" points="49.086 41.085 48.68 41.748 48.214 42.37 49.511 43.307 50.005 42.645 50.437 41.942 49.086 41.085"/><path class="c" d="M48.86279,42.83838a.80145.80145,0,0,1,.89844-1.3252.80132.80132,0,1,1-.89844,1.3252Z"/><path class="b" d="M46.44263,44.55615c-.35578.37635-.68085.78333-1.06086,1.13538L46.503,46.833c.40289-.37451.75012-.80469,1.12738-1.20484Z"/><path class="c" d="M45.94238,46.26221a.843.843,0,0,1-.0224-1.13062.79486.79486,0,0,1,1.11652-.03943.8062.8062,0,0,1,.03845,1.14673A.76393.76393,0,0,1,45.94238,46.26221Z"/><polygon class="b" points="43.262 47.543 42.017 48.475 42.93 49.788 44.253 48.8 43.262 47.543"/><path class="c" d="M42.47351,49.13159a.82644.82644,0,0,1,.16565-1.1228.81707.81707,0,0,1,1.118.16284.7857.7857,0,0,1-.16565,1.1228A.77744.77744,0,0,1,42.47351,49.13159Z"/><polygon class="b" points="39.628 49.965 38.228 50.64 38.906 52.089 40.393 51.37 39.628 49.965"/><path class="c" d="M38.56708,51.36414a.803.803,0,0,1,.36133-1.06189.84185.84185,0,0,1,1.08221.36535.76429.76429,0,0,1-.36078,1.06287A.79874.79874,0,0,1,38.56708,51.36414Z"/><path class="b" d="M35.62036,51.6936a10.13494,10.13494,0,0,1-1.4859.4491l.42127,1.54358a11.19,11.19,0,0,0,1.579-.47754Z"/><path class="c" d="M34.34509,52.91455a.77682.77682,0,0,1,.54218-.9646.79111.79111,0,0,1,.99029.50122A.8096.8096,0,0,1,35.35529,53.48.82369.82369,0,0,1,34.34509,52.91455Z"/><path class="b" d="M31.38379,52.72949c-.51294.07178-1.023.17053-1.538.22168l.15345,1.59265c.54687-.0542,1.08917-.157,1.63385-.23388Z"/><path class="c" d="M29.92249,53.74756a.84594.84594,0,0,1,.693-.90064.7964.7964,0,0,1,.89294.67273.80481.80481,0,0,1-.69159.91455A.761.761,0,0,1,29.92249,53.74756Z"/><polygon class="b" points="27.032 53.061 25.479 52.982 25.364 54.578 27.012 54.661 27.032 53.061"/><path class="c" d="M25.42126,53.7804a.813.813,0,0,1,.834-.75892.83049.83049,0,0,1,.76691.83973.774.774,0,0,1-.834.75879A.78939.78939,0,0,1,25.42126,53.7804Z"/><path class="b" d="M22.68646,52.63452a11.22465,11.22465,0,0,1-1.51593-.33472l-.38305,1.55347a12.36,12.36,0,0,0,1.611.35523Z"/><path class="c" d="M20.979,53.07654a.78153.78153,0,0,1,.944-.58264.80964.80964,0,0,1,.61951.92761.79249.79249,0,0,1-.95508.63684A.819.819,0,0,1,20.979,53.07654Z"/><path class="b" d="M18.48132,51.47668c-.48083-.19152-.9859-.32556-1.44738-.563l-.64185,1.46569c.49109.25025,1.02637.39649,1.53766.59913Z"/><path class="c" d="M16.713,51.64648A.83509.83509,0,0,1,17.7514,51.21a.7901.7901,0,0,1,.45411,1.01758.81056.81056,0,0,1-1.05115.4668A.77066.77066,0,0,1,16.713,51.64648Z"/><polygon class="b" points="14.527 49.637 13.198 48.83 12.317 50.165 13.728 51.023 14.527 49.637"/><path class="c" d="M12.75745,49.49756a.82919.82919,0,0,1,1.105-.26477.815.815,0,0,1,.26489,1.097.78777.78777,0,0,1-1.105.26465A.77524.77524,0,0,1,12.75745,49.49756Z"/><polygon class="b" points="10.93 47.162 9.78 46.116 8.687 47.284 9.909 48.394 10.93 47.162"/><path class="c" d="M9.23309,46.69983a.8059.8059,0,0,1,1.12183-.06128.838.838,0,0,1,.06433,1.1394.76751.76751,0,0,1-1.12183.06128A.79591.79591,0,0,1,9.23309,46.69983Z"/><path class="b" d="M7.82666,44.08936a12.02074,12.02074,0,0,1-.96887-1.214l-1.274.968a13.17908,13.17908,0,0,0,1.02936,1.2887Z"/><path class="c" d="M6.22083,43.35938a.78381.78381,0,0,1,1.102.13891.813.813,0,0,1-.103,1.11243.78953.78953,0,0,1-1.1413-.10657A.81669.81669,0,0,1,6.22083,43.35938Z"/><path class="b" d="M5.28094,40.54553a12.68254,12.68254,0,0,1-.769-1.34924l-1.41913.73889a13.86465,13.86465,0,0,0,.81623,1.43359Z"/><path class="c" d="M3.80237,39.5658a.82174.82174,0,0,1,1.07458.31567A.786.786,0,0,1,4.595,40.95715a.8146.8146,0,0,1-1.1142-.29419A.7819.7819,0,0,1,3.80237,39.5658Z"/><polygon class="b" points="3.359 36.63 2.825 35.171 1.301 35.657 1.868 37.208 3.359 36.63"/><path class="c" d="M2.06274,35.41394a.8337.8337,0,0,1,1.02973.48621.81046.81046,0,0,1-.47882,1.019.79161.79161,0,0,1-1.02979-.48608A.77118.77118,0,0,1,2.06274,35.41394Z"/><polygon class="b" points="2.112 32.448 1.878 30.911 0.294 31.132 0.544 32.764 2.112 32.448"/><path class="c" d="M1.08606,31.02124a.80445.80445,0,0,1,.90955.658.83991.83991,0,0,1-.66773.92663.76586.76586,0,0,1-.90955-.65795A.79745.79745,0,0,1,1.08606,31.02124Z"/><polygon class="b" points="1.64 28.107 1.6 27.331 1.64 26.554 0.041 26.506 0 27.331 0.041 28.155 1.64 28.107"/><path class="c" d="M.84039,26.53015a.80151.80151,0,0,1,0,1.60083.80137.80137,0,1,1,0-1.60083Z"/><polygon class="b" points="1.878 23.75 2.112 22.214 0.544 21.897 0.294 23.529 1.878 23.75"/><path class="c" d="M1.32788,22.0553a.83992.83992,0,0,1,.66773.92663.8.8,0,1,1-1.57728-.26867A.766.766,0,0,1,1.32788,22.0553Z"/><polygon class="b" points="2.825 19.491 3.359 18.031 1.868 17.453 1.301 19.004 2.825 19.491"/><path class="c" d="M2.61365,17.74194a.8106.8106,0,0,1,.47882,1.01917.83375.83375,0,0,1-1.02973.48608A.77118.77118,0,0,1,1.58386,18.228.79171.79171,0,0,1,2.61365,17.74194Z"/><path class="b" d="M4.512,15.46484a12.671,12.671,0,0,1,.769-1.34912l-1.37188-.82336A13.85468,13.85468,0,0,0,3.09283,14.726Z"/><path class="c" d="M4.595,13.704A.786.786,0,0,1,4.877,14.77966a.82168.82168,0,0,1-1.07458.3158.78207.78207,0,0,1-.32154-1.09729A.8146.8146,0,0,1,4.595,13.704Z"/><path class="b" d="M6.85779,11.78577a12.017,12.017,0,0,1,.96887-1.21387L6.61316,9.52905a13.18562,13.18562,0,0,0-1.02936,1.2887Z"/><path class="c" d="M7.21991,10.05042a.813.813,0,0,1,.103,1.11242.78381.78381,0,0,1-1.102.13892A.81671.81671,0,0,1,6.07861,10.157.78953.78953,0,0,1,7.21991,10.05042Z"/><polygon class="b" points="9.78 8.546 10.93 7.499 9.909 6.267 8.687 7.377 9.78 8.546"/><path class="c" d="M10.41925,6.8833a.83789.83789,0,0,1-.06433,1.13928A.80584.80584,0,0,1,9.233,7.9613a.796.796,0,0,1,.06433-1.1394A.7676.7676,0,0,1,10.41925,6.8833Z"/><polygon class="b" points="13.198 5.831 14.527 5.025 13.728 3.638 12.317 4.496 13.198 5.831"/><path class="c" d="M14.12738,4.33142a.81485.81485,0,0,1-.26489,1.09692.829.829,0,0,1-1.105-.26477.77524.77524,0,0,1,.26489-1.09692A.78771.78771,0,0,1,14.12738,4.33142Z"/><path class="b" d="M17.03394,3.74744c.46148-.23743.96655-.37146,1.44738-.56287l-.55163-1.50195c-.51129.20263-1.04651.34887-1.5376.59924Z"/><path class="c" d="M18.20551,2.43359a.79028.79028,0,0,1-.45411,1.0177A.83526.83526,0,0,1,16.713,3.01465a.77064.77064,0,0,1,.44135-1.04785A.81056.81056,0,0,1,18.20551,2.43359Z"/><path class="b" d="M21.17047,2.36133a11.22752,11.22752,0,0,1,1.516-.33472l-.288-1.57385a12.35951,12.35951,0,0,0-1.611.3551Z"/><path class="c" d="M22.54242,1.23962a.80956.80956,0,0,1-.61945.92762.78151.78151,0,0,1-.944-.58265.81887.81887,0,0,1,.6084-.98168A.79232.79232,0,0,1,22.54242,1.23962Z"/><polygon class="b" points="25.479 1.679 27.032 1.6 27.012 0 25.364 0.083 25.479 1.679"/><path class="c" d="M27.02209.79993a.83021.83021,0,0,1-.76684.83972.8129.8129,0,0,1-.834-.75879.78949.78949,0,0,1,.76691-.83972A.77389.77389,0,0,1,27.02209.79993Z"/><path class="b" d="M29.84576,1.71c.51508.05115,1.02509.1499,1.538.2218L31.63306.35132c-.54474-.07691-1.087-.17981-1.63385-.234Z"/><path class="c" d="M31.50842,1.14148a.7963.7963,0,0,1-.89294.67273.84594.84594,0,0,1-.693-.90064.76108.76108,0,0,1,.89434-.68664A.80482.80482,0,0,1,31.50842,1.14148Z"/><path class="b" d="M34.13446,2.51843a10.15081,10.15081,0,0,1,1.4859.4491l.51434-1.51514a11.19,11.19,0,0,0-1.579-.47754Z"/><path class="c" d="M35.87756,2.21a.791.791,0,0,1-.99029.50122.77682.77682,0,0,1-.54218-.9646.8237.8237,0,0,1,1.0102-.56543A.80966.80966,0,0,1,35.87756,2.21Z"/><polygon class="b" points="38.228 4.022 39.628 4.696 40.393 3.291 38.906 2.572 38.228 4.022"/><path class="c" d="M40.01062,3.99353a.84187.84187,0,0,1-1.08221.36536.8.8,0,1,1,.72143-1.42823A.76432.76432,0,0,1,40.01062,3.99353Z"/><polygon class="b" points="42.017 6.187 43.262 7.118 44.252 5.861 42.93 4.873 42.017 6.187"/><path class="c" d="M43.75714,6.4895a.81722.81722,0,0,1-1.118.163.82647.82647,0,0,1-.16565-1.12281.77737.77737,0,0,1,1.118-.163A.7857.7857,0,0,1,43.75714,6.4895Z"/><path class="b" d="M45.38177,8.9696c.38.35206.70508.75916,1.06086,1.13538l1.18774-1.072c-.37726-.40015-.72449-.83032-1.12738-1.20483Z"/><path class="c" d="M47.0365,9.569A.79474.79474,0,0,1,45.92,9.52954a.843.843,0,0,1,.0224-1.13061.764.764,0,0,1,1.13257.02331A.8062.8062,0,0,1,47.0365,9.569Z"/><polygon class="b" points="48.214 12.291 48.68 12.913 49.086 13.576 50.437 12.72 50.005 12.016 49.511 11.354 48.214 12.291"/><path class="c" d="M49.76123,13.148a.80145.80145,0,0,1-.89844-1.3252.80132.80132,0,1,1,.89844,1.3252Z"/><path class="b" d="M50.45551,16.03333c.21905.46923.46282.9281.66278,1.40539l1.47692-.61536c-.2124-.5072-.46954-.99536-.70275-1.49377Z"/><path class="c" d="M51.85675,17.131A.84442.84442,0,0,1,50.793,16.7334a.8.8,0,1,1,1.45764-.65979A.76236.76236,0,0,1,51.85675,17.131Z"/><polygon class="b" points="52.044 20.096 52.431 21.601 53.992 21.246 53.58 19.647 52.044 20.096"/><path class="c" d="M53.21155,21.42371a.80144.80144,0,0,1-.39917-1.55237.80144.80144,0,0,1,.39917,1.55237Z"/><path class="b" d="M52.91125,24.3739a15.53286,15.53286,0,0,1,.11072,1.54968l1.59766-.08642c-.04291-.5481-.02228-1.1023-.11871-1.64514Z"/><path class="c" d="M53.8208,25.88037a.788.788,0,0,1-.83765-.73328.83584.83584,0,0,1,.7229-.86413.77.77,0,0,1,.87146.73A.81269.81269,0,0,1,53.8208,25.88037Z"/></svg>