<svg xmlns="http://www.w3.org/2000/svg" viewBox="0 0 54.61945 54.66095"><defs><style>.a{fill:none;}.b,.c{fill:#fff;}.b{fill-rule:evenodd;}</style></defs><title>events</title><path class="a" d="M53.02179,28.73743a15.53151,15.53151,0,0,1-.11066,1.54968l1.5896.18188c.09644-.54284.07581-1.097.11872-1.64508Z"/><path class="b" d="M53.70593,30.37805a.83568.83568,0,0,1-.7229-.86407.78792.78792,0,0,1,.83759-.73334.81284.81284,0,0,1,.75677.86749A.77.77,0,0,1,53.70593,30.37805Z"/><polygon class="a" points="52.431 33.06 52.044 34.565 53.58 35.014 53.991 33.415 52.431 33.06"/><path class="b" d="M52.81219,34.78967a.80144.80144,0,0,1,.39917-1.55237.80144.80144,0,0,1-.39917,1.55237Z"/><path class="a" d="M51.1181,37.22235c-.2.4773-.44372.936-.66272,1.40527l1.43689.70374c.23328-.49829.49042-.98651.70282-1.49365Z"/><path class="b" d="M51.17383,38.97949a.7978.7978,0,0,1-.381-1.05194A.8445.8445,0,0,1,51.85663,37.53a.76233.76233,0,0,1,.3938,1.05737A.8034.8034,0,0,1,51.17383,38.97949Z"/><polygon class="a" points="49.085 41.085 48.68 41.748 48.214 42.37 49.511 43.307 50.005 42.645 50.437 41.941 49.085 41.085"/><path class="b" d="M48.86267,42.83826a.80144.80144,0,0,1,.89838-1.3252.80131.80131,0,1,1-.89838,1.3252Z"/><path class="a" d="M46.4425,44.556c-.35577.37634-.68084.78332-1.06085,1.13544l1.12122,1.14141c.40283-.37451.75012-.80462,1.12738-1.20477Z"/><path class="b" d="M45.94226,46.26215a.84306.84306,0,0,1-.0224-1.13068.79486.79486,0,0,1,1.11652-.03949.80626.80626,0,0,1,.03845,1.14673A.764.764,0,0,1,45.94226,46.26215Z"/><polygon class="a" points="43.262 47.543 42.017 48.474 42.93 49.788 44.252 48.8 43.262 47.543"/><path class="b" d="M42.47339,49.13141a.82645.82645,0,0,1,.16565-1.1228.81708.81708,0,0,1,1.118.1629.78569.78569,0,0,1-.16565,1.1228A.7774.7774,0,0,1,42.47339,49.13141Z"/><polygon class="a" points="39.628 49.965 38.228 50.639 38.906 52.089 40.393 51.37 39.628 49.965"/><path class="b" d="M38.567,51.364a.803.803,0,0,1,.36132-1.06189.84179.84179,0,0,1,1.08222.3653.76428.76428,0,0,1-.36078,1.06287A.79877.79877,0,0,1,38.567,51.364Z"/><path class="a" d="M35.6203,51.69348a10.14459,10.14459,0,0,1-1.486.4491l.42126,1.54352a11.174,11.174,0,0,0,1.579-.47754Z"/><path class="b" d="M34.345,52.91437a.77684.77684,0,0,1,.54218-.9646.79106.79106,0,0,1,.99029.50128.80957.80957,0,0,1-.52228,1.02875A.82363.82363,0,0,1,34.345,52.91437Z"/><path class="a" d="M31.38367,52.72925c-.51288.0719-1.02289.17059-1.538.2218l.15344,1.59265c.54694-.05426,1.08918-.1571,1.63392-.234Z"/><path class="b" d="M29.92236,53.74738a.846.846,0,0,1,.693-.90058.7963.7963,0,0,1,.89294.67267.80475.80475,0,0,1-.69153.91455A.76108.76108,0,0,1,29.92236,53.74738Z"/><polygon class="a" points="27.032 53.061 25.479 52.982 25.364 54.578 27.012 54.661 27.032 53.061"/><path class="b" d="M25.4212,53.78015a.81295.81295,0,0,1,.834-.75885.83043.83043,0,0,1,.76684.83972.774.774,0,0,1-.834.75885A.78948.78948,0,0,1,25.4212,53.78015Z"/><path class="a" d="M22.6864,52.6344a11.23452,11.23452,0,0,1-1.516-.33478l-.383,1.55347a12.339,12.339,0,0,0,1.611.35516Z"/><path class="b" d="M20.97894,53.07635a.78153.78153,0,0,1,.944-.58264.80964.80964,0,0,1,.61945.92762.79241.79241,0,0,1-.955.63684A.819.819,0,0,1,20.97894,53.07635Z"/><path class="a" d="M18.48126,51.4765c-.48083-.19153-.9859-.32556-1.44739-.56293L16.392,52.37921c.49109.25031,1.0263.39649,1.53766.59918Z"/><path class="b" d="M16.713,51.64636a.83511.83511,0,0,1,1.03839-.43658.79015.79015,0,0,1,.4541,1.01764.81059.81059,0,0,1-1.05114.46679A.77064.77064,0,0,1,16.713,51.64636Z"/><polygon class="a" points="14.527 49.636 13.198 48.83 12.317 50.165 13.728 51.023 14.527 49.636"/><path class="b" d="M12.75745,49.49744a.829.829,0,0,1,1.105-.26477.81494.81494,0,0,1,.26489,1.097.78774.78774,0,0,1-1.105.26471A.77514.77514,0,0,1,12.75745,49.49744Z"/><polygon class="a" points="10.93 47.162 9.78 46.115 8.686 47.284 9.909 48.394 10.93 47.162"/><path class="b" d="M9.233,46.69971a.80583.80583,0,0,1,1.12183-.06134.838.838,0,0,1,.06433,1.1394.76747.76747,0,0,1-1.12183.06128A.7959.7959,0,0,1,9.233,46.69971Z"/><path class="a" d="M7.82666,44.08917a12.01552,12.01552,0,0,1-.96893-1.21386l-1.27393.968A13.16952,13.16952,0,0,0,6.61316,45.132Z"/><path class="b" d="M6.22076,43.35925a.78387.78387,0,0,1,1.102.13892.813.813,0,0,1-.1029,1.11243.78948.78948,0,0,1-1.1413-.10657A.8167.8167,0,0,1,6.22076,43.35925Z"/><path class="a" d="M5.28094,40.54535a12.66542,12.66542,0,0,1-.769-1.34918l-1.41913.73895a13.86773,13.86773,0,0,0,.81629,1.43359Z"/><path class="b" d="M3.80237,39.56561a.82173.82173,0,0,1,1.07458.31574A.78606.78606,0,0,1,4.595,40.957a.81462.81462,0,0,1-1.1142-.29419A.782.782,0,0,1,3.80237,39.56561Z"/><polygon class="a" points="3.359 36.63 2.825 35.17 1.301 35.657 1.868 37.208 3.359 36.63"/><path class="b" d="M2.06268,35.41388A.83374.83374,0,0,1,3.09247,35.9a.81057.81057,0,0,1-.47882,1.01911A.79163.79163,0,0,1,1.58386,36.433.77115.77115,0,0,1,2.06268,35.41388Z"/><polygon class="a" points="2.112 32.448 1.878 30.911 0.294 31.132 0.544 32.764 2.112 32.448"/><path class="b" d="M1.08606,31.02118a.80435.80435,0,0,1,.90955.6579.83993.83993,0,0,1-.66773.92663.76581.76581,0,0,1-.90955-.6579A.79738.79738,0,0,1,1.08606,31.02118Z"/><polygon class="a" points="1.64 28.107 1.6 27.331 1.64 26.554 0.041 26.506 0 27.331 0.041 28.155 1.64 28.107"/><path class="b" d="M.84039,26.53009a.80151.80151,0,0,1,0,1.60083.80137.80137,0,1,1,0-1.60083Z"/><polygon class="a" points="1.878 23.75 2.112 22.213 0.544 21.897 0.294 23.529 1.878 23.75"/><path class="b" d="M1.32788,22.05524a.83993.83993,0,0,1,.66773.92663.8.8,0,1,1-1.57728-.26874A.76585.76585,0,0,1,1.32788,22.05524Z"/><polygon class="a" points="2.825 19.491 3.359 18.031 1.868 17.453 1.301 19.004 2.825 19.491"/><path class="b" d="M2.61359,17.74188A.81055.81055,0,0,1,3.09247,18.761a.83382.83382,0,0,1-1.02979.48614.77119.77119,0,0,1-.47882-1.0191A.79158.79158,0,0,1,2.61359,17.74188Z"/><path class="a" d="M4.5119,15.46478a12.66785,12.66785,0,0,1,.769-1.34918L3.909,13.2923a13.86465,13.86465,0,0,0-.81623,1.43359Z"/><path class="b" d="M4.595,13.70392a.78611.78611,0,0,1,.282,1.07574.82177.82177,0,0,1-1.07458.31568.782.782,0,0,1-.3216-1.09723A.81462.81462,0,0,1,4.595,13.70392Z"/><path class="a" d="M6.85773,11.78571a12.00856,12.00856,0,0,1,.96893-1.21393L6.61316,9.529a13.16952,13.16952,0,0,0-1.02936,1.2887Z"/><path class="b" d="M7.21991,10.05042a.813.813,0,0,1,.1029,1.11242.7838.7838,0,0,1-1.102.13886.81675.81675,0,0,1-.14221-1.14478A.78959.78959,0,0,1,7.21991,10.05042Z"/><polygon class="a" points="9.78 8.545 10.93 7.499 9.909 6.267 8.686 7.377 9.78 8.545"/><path class="b" d="M10.41919,6.88324a.838.838,0,0,1-.06433,1.13934A.80588.80588,0,0,1,9.233,7.9613a.79591.79591,0,0,1,.06433-1.1394A.76742.76742,0,0,1,10.41919,6.88324Z"/><polygon class="a" points="13.198 5.831 14.527 5.025 13.728 3.638 12.317 4.496 13.198 5.831"/><path class="b" d="M14.12732,4.33136a.81487.81487,0,0,1-.26489,1.09692.829.829,0,0,1-1.105-.26471.7753.7753,0,0,1,.26489-1.097A.78776.78776,0,0,1,14.12732,4.33136Z"/><path class="a" d="M17.03387,3.74738c.46149-.23737.96656-.3714,1.44739-.56287l-.55163-1.50195c-.5113.20269-1.04651.34887-1.5376.59924Z"/><path class="b" d="M18.20544,2.43353a.79024.79024,0,0,1-.4541,1.0177A.83517.83517,0,0,1,16.713,3.01459.77056.77056,0,0,1,17.1543,1.9668.81054.81054,0,0,1,18.20544,2.43353Z"/><path class="a" d="M21.17041,2.36133a11.23452,11.23452,0,0,1,1.516-.33478L22.39832.4527a12.35,12.35,0,0,0-1.61091.35516Z"/><path class="b" d="M22.54236,1.23962a.80961.80961,0,0,1-.61945.92762.78153.78153,0,0,1-.944-.58265.8189.8189,0,0,1,.6084-.98175A.79245.79245,0,0,1,22.54236,1.23962Z"/><polygon class="a" points="25.479 1.679 27.032 1.6 27.012 0 25.364 0.083 25.479 1.679"/><path class="b" d="M27.022.79993a.83039.83039,0,0,1-.76684.83972.81287.81287,0,0,1-.834-.75885.78944.78944,0,0,1,.76685-.83972A.774.774,0,0,1,27.022.79993Z"/><path class="a" d="M29.84564,1.7099c.51508.05121,1.02515.1499,1.538.2218L31.633.35126C31.08826.27435,30.546.17151,29.99908.11731Z"/><path class="b" d="M31.5083,1.14148a.79639.79639,0,0,1-.89294.67273.84609.84609,0,0,1-.693-.90064.76109.76109,0,0,1,.89435-.68664A.80476.80476,0,0,1,31.5083,1.14148Z"/><path class="a" d="M34.13434,2.51837a10.15852,10.15852,0,0,1,1.4859.4491l.51434-1.51508a11.174,11.174,0,0,0-1.579-.47754Z"/><path class="b" d="M35.87744,2.2099a.791.791,0,0,1-.99029.50128.77682.77682,0,0,1-.54218-.9646.82363.82363,0,0,1,1.01019-.56543A.8096.8096,0,0,1,35.87744,2.2099Z"/><polygon class="a" points="38.228 4.022 39.628 4.696 40.393 3.291 38.906 2.572 38.228 4.022"/><path class="b" d="M40.0105,3.99353a.84179.84179,0,0,1-1.08222.3653.8.8,0,1,1,.72144-1.42817A.76429.76429,0,0,1,40.0105,3.99353Z"/><polygon class="a" points="42.017 6.186 43.262 7.118 44.252 5.861 42.93 4.873 42.017 6.186"/><path class="b" d="M43.757,6.4895a.81712.81712,0,0,1-1.118.16284.82644.82644,0,0,1-.16565-1.1228.77735.77735,0,0,1,1.118-.16284A.78568.78568,0,0,1,43.757,6.4895Z"/><path class="a" d="M45.38165,8.96954c.38.35212.70508.7591,1.06085,1.13544L47.63025,9.0329c-.37726-.40009-.72455-.83026-1.12738-1.20477Z"/><path class="b" d="M47.03638,9.569a.79486.79486,0,0,1-1.11652-.03949.843.843,0,0,1,.0224-1.13062.764.764,0,0,1,1.13257.02338A.80626.80626,0,0,1,47.03638,9.569Z"/><polygon class="a" points="48.214 12.291 48.68 12.913 49.085 13.576 50.437 12.72 50.005 12.016 49.511 11.354 48.214 12.291"/><path class="b" d="M49.76105,13.14789a.80144.80144,0,0,1-.89838-1.3252.8013.8013,0,1,1,.89838,1.3252Z"/><path class="a" d="M50.45538,16.03333c.219.46923.46277.928.66272,1.40527l1.477-.61536c-.2124-.50708-.46954-.99536-.70282-1.49365Z"/><path class="b" d="M51.85663,17.13092a.8445.8445,0,0,1-1.06378-.39752.8.8,0,1,1,1.45758-.65985A.76233.76233,0,0,1,51.85663,17.13092Z"/><polygon class="a" points="52.044 20.096 52.431 21.601 53.991 21.246 53.58 19.647 52.044 20.096"/><path class="b" d="M53.21136,21.42365a.80144.80144,0,0,1-.39917-1.55237.80144.80144,0,0,1,.39917,1.55237Z"/><path class="a" d="M52.91113,24.37384a15.53151,15.53151,0,0,1,.11066,1.54968l1.59766-.08648c-.04291-.548-.02228-1.10224-.11872-1.64508Z"/><path class="b" d="M53.82062,25.88031A.78792.78792,0,0,1,52.983,25.147a.83568.83568,0,0,1,.7229-.86407.77.77,0,0,1,.87146.72992A.81284.81284,0,0,1,53.82062,25.88031Z"/><rect class="a" x="10.54126" y="10.46827" width="33.61153" height="33.72441"/><path class="c" d="M26.29354,18.921a4.19415,4.19415,0,1,0-4.19415-4.19415A4.19405,4.19405,0,0,0,26.29354,18.921Zm-1.31593-1.34215a6.74681,6.74681,0,0,0,.79184-3.1455v-.23059a.52409.52409,0,1,1,1.04818,0v.20449a6.74713,6.74713,0,0,0,.79184,3.14549,3.11051,3.11051,0,0,1-2.63186.02611Zm1.31593-5.99749a3.14559,3.14559,0,0,1,2.186,5.3999,5.70244,5.70244,0,0,1-.61322-2.574v-.20449a1.57275,1.57275,0,0,0-3.1455,0v.20449a5.70244,5.70244,0,0,1-.61322,2.574,3.1455,3.1455,0,0,1,2.186-5.3999Z"/><path class="c" d="M43.96631,14.8789l-4.19415-4.19416a.52471.52471,0,0,0-.73908,0l-1.20624,1.20575L36.62665,10.6903l-.7395.739L37.08783,12.63l-1.8819,1.88189-1.20068-1.20068-.73908.7395L34.46692,15.251l-1.20075,1.20068a.52351.52351,0,0,0,0,.739l.67615.67664-5.67773,5.40116a5.9535,5.9535,0,0,0-2.44837-.9313h-.04675L15.24207,11.12692a2.68576,2.68576,0,0,0-3.79963-.02727c-.03442.03125-.06793.13291-.10052.16605a2.74238,2.74238,0,0,0,0,3.82488l9.63025,9.648a6.30863,6.30863,0,0,0-.8805,1.12531,5.69643,5.69643,0,0,1-3.47625,2.69381A7.45548,7.45548,0,0,0,18.1886,43.33716h.24121A7.5392,7.5392,0,0,0,26.068,37.6744a5.07738,5.07738,0,0,1,2.52722-3.23265,5.8228,5.8228,0,0,0,1.28431-.89291L36.61609,40.369A2.57044,2.57044,0,0,0,36.983,43.134a2.15754,2.15754,0,0,0,1.57276.61468,3.14568,3.14568,0,0,0,.61322-.05728,4.56335,4.56335,0,0,0,2.27557-1.27617c1.4574-1.45245,1.78265-3.40643.74457-4.44952a2.51649,2.51649,0,0,0-2.68439-.41354l-7.75391-8.1464a6.29132,6.29132,0,0,0-.65-3.00924l5.6778-5.68794.67614.67614a.53.53,0,0,0,.17322.11539.43276.43276,0,0,0,.16248.04176c.19391,0,.48742-.241,1.61462-1.35223l1.19562,1.19513.73907-.739-1.19012-1.20068.94342-.94342.93341-.93884,1.19519,1.19555.7395-.73956-1.19568-1.19513L43.96631,15.618A.5247.5247,0,0,0,43.96631,14.8789ZM19.61993,38.685l-3.67-3.66956.7395-.7395L20.359,37.946Zm1.95539-2.46381a3.14551,3.14551,0,1,1,3.14544-3.1455A3.14547,3.14547,0,0,1,21.57532,36.22124ZM36.62665,17.19066l-.73908-.739L36.93579,15.403l.7395.7395Zm1.57275,1.57276-.7395-.739,1.04864-1.04864.73951.7395Zm.52411-3.66956-.73907-.73907,1.04864-1.04865.73908.73908Zm1.57269,1.57276-.739-.73908,1.04864-1.04864.73908.73907Z"/></svg>