<svg xmlns="http://www.w3.org/2000/svg" viewBox="0 0 54.36731 54.40857"><defs><style>.a{fill:none;}.b,.c{fill:#fff;}.b{fill-rule:evenodd;}</style></defs><title>inteGREAT</title><path class="a" d="M52.76965,28.60431a15.43659,15.43659,0,0,1-.1101,1.54211l1.5896.18189c.096-.54029.07543-1.092.11816-1.63751Z"/><path class="b" d="M53.45435,30.23737a.83372.83372,0,0,1-.72327-.86029.78611.78611,0,0,1,.8374-.7295.81081.81081,0,0,1,.757.86365A.76818.76818,0,0,1,53.45435,30.23737Z"/><polygon class="a" points="52.182 32.906 51.797 34.404 53.333 34.853 53.742 33.26 52.182 32.906"/><path class="b" d="M52.56488,34.62805a.79765.79765,0,1,1,.39728-1.545.79765.79765,0,1,1-.39728,1.545Z"/><path class="a" d="M50.87537,37.04767c-.199.47491-.44159.93146-.65955,1.39837l1.43695.70374c.23218-.496.4881-.982.69952-1.48682Z"/><path class="b" d="M50.93427,38.79791a.796.796,0,0,1-.38263-1.04852.84248.84248,0,0,1,1.06219-.394.76051.76051,0,0,1,.39545,1.05389A.8015.8015,0,0,1,50.93427,38.79791Z"/><polygon class="a" points="48.853 40.891 48.449 41.551 47.986 42.17 49.283 43.107 49.774 42.448 50.204 41.748 48.853 40.891"/><path class="b" d="M48.63416,42.63831a.79744.79744,0,0,1,.8941-1.31891.79767.79767,0,1,1-.8941,1.31891Z"/><path class="a" d="M46.22266,44.34534c-.354.37445-.67749.77948-1.05567,1.12988l1.12122,1.14136c.401-.37274.74664-.80091,1.12219-1.19922Z"/><path class="b" d="M45.7276,46.0459a.841.841,0,0,1-.025-1.12793.793.793,0,0,1,1.114-.03662.80427.80427,0,0,1,.041,1.14392A.76219.76219,0,0,1,45.7276,46.0459Z"/><polygon class="a" points="43.057 47.318 41.819 48.245 42.732 49.558 44.048 48.574 43.057 47.318"/><path class="b" d="M42.27521,48.90149a.82453.82453,0,0,1,.1626-1.12048.81537.81537,0,0,1,1.115.16516.78381.78381,0,0,1-.1626,1.12054A.77554.77554,0,0,1,42.27521,48.90149Z"/><polygon class="a" points="39.442 49.727 38.049 50.399 38.726 51.848 40.206 51.133 39.442 49.727"/><path class="b" d="M38.38739,51.12354a.80105.80105,0,0,1,.35791-1.06025.83992.83992,0,0,1,1.0788.36695.7625.7625,0,0,1-.35743,1.06122A.79678.79678,0,0,1,38.38739,51.12354Z"/><path class="a" d="M35.45349,51.44781a10.099,10.099,0,0,1-1.47864.4469l.42127,1.54352a11.13123,11.13123,0,0,0,1.57171-.47528Z"/><path class="b" d="M34.18549,52.6665a.7751.7751,0,0,1,.53851-.96368.78918.78918,0,0,1,.98663.50256.80753.80753,0,0,1-.51861,1.02747A.82157.82157,0,0,1,34.18549,52.6665Z"/><path class="a" d="M31.23767,52.47852c-.51038.07153-1.01788.1698-1.53046.2207l.15345,1.59265c.54437-.054,1.0841-.15637,1.62634-.23291Z"/><path class="b" d="M29.78394,53.49554a.84392.84392,0,0,1,.6892-.90008.79451.79451,0,0,1,.88916.67328.80279.80279,0,0,1-.6878.914A.75923.75923,0,0,1,29.78394,53.49554Z"/><polygon class="a" points="26.907 52.809 25.362 52.73 25.247 54.326 26.888 54.409 26.907 52.809"/><path class="b" d="M25.30414,53.5282a.81115.81115,0,0,1,.8302-.7591.82857.82857,0,0,1,.76306.83954.77216.77216,0,0,1-.8302.7591A.7876.7876,0,0,1,25.30414,53.5282Z"/><path class="a" d="M22.58307,52.38416a11.18113,11.18113,0,0,1-1.50855-.3332l-.383,1.55353A12.29636,12.29636,0,0,0,22.295,53.958Z"/><path class="b" d="M20.883,52.8277a.77979.77979,0,0,1,.9403-.58356.80777.80777,0,0,1,.61573.92694.79062.79062,0,0,1-.9513.63751A.817.817,0,0,1,20.883,52.8277Z"/><path class="a" d="M18.3985,51.23187c-.47846-.19055-.981-.32391-1.44025-.56012l-.64184,1.46564c.48883.24915,1.0216.39465,1.53051.59637Z"/><path class="b" d="M16.63733,51.40454a.83314.83314,0,0,1,1.03491-.438.78839.78839,0,0,1,.4505,1.01636.80865.80865,0,0,1-1.04754.46808A.76879.76879,0,0,1,16.63733,51.40454Z"/><polygon class="a" points="14.463 49.401 13.141 48.598 12.26 49.934 13.665 50.787 14.463 49.401"/><path class="b" d="M12.70062,49.26581a.827.827,0,0,1,1.10169-.26673.813.813,0,0,1,.26165,1.095.78578.78578,0,0,1-1.10174.26672A.77329.77329,0,0,1,12.70062,49.26581Z"/><polygon class="a" points="10.884 46.938 9.74 45.897 8.646 47.066 9.863 48.17 10.884 46.938"/><path class="b" d="M9.193,46.48138a.804.804,0,0,1,1.119-.0639.836.836,0,0,1,.06152,1.13684.76563.76563,0,0,1-1.119.06391A.794.794,0,0,1,9.193,46.48138Z"/><path class="a" d="M7.79614,43.8808a11.95554,11.95554,0,0,1-.96411-1.208l-1.274.968a13.11388,13.11388,0,0,0,1.0246,1.28271Z"/><path class="b" d="M6.195,43.15686a.78206.78206,0,0,1,1.09979.1358.81111.81111,0,0,1-.10541,1.10956.78762.78762,0,0,1-1.13879-.10364A.81469.81469,0,0,1,6.195,43.15686Z"/><path class="a" d="M5.26294,40.35437a12.605,12.605,0,0,1-.76526-1.34259l-1.41913.73895a13.79951,13.79951,0,0,0,.8125,1.42694Z"/><path class="b" d="M3.78815,39.38129a.81968.81968,0,0,1,1.07275.31231A.78428.78428,0,0,1,4.577,40.76605a.8126.8126,0,0,1-1.11219-.291A.78.78,0,0,1,3.78815,39.38129Z"/><polygon class="a" points="3.351 36.458 2.819 35.006 1.295 35.493 1.859 37.037 3.351 36.458"/><path class="b" d="M2.05676,35.24921a.83185.83185,0,0,1,1.02845.48254A.80872.80872,0,0,1,2.605,36.74731a.78971.78971,0,0,1-1.02844-.48254A.76928.76928,0,0,1,2.05676,35.24921Z"/><polygon class="a" points="2.11 32.296 1.877 30.767 0.292 30.988 0.541 32.613 2.11 32.296"/><path class="b" d="M1.08472,30.87744a.80248.80248,0,0,1,.909.65418.838.838,0,0,1-.66827.92285.764.764,0,0,1-.909-.65418A.79542.79542,0,0,1,1.08472,30.87744Z"/><polygon class="a" points="1.64 27.977 1.6 27.204 1.64 26.432 0.041 26.384 0 27.204 0.041 28.025 1.64 27.977"/><path class="b" d="M.84027,26.40771a.7975.7975,0,0,1,0,1.59321.79774.79774,0,1,1,0-1.59321Z"/><polygon class="a" points="1.877 23.642 2.11 22.112 0.541 21.796 0.292 23.421 1.877 23.642"/><path class="b" d="M1.32544,21.95416a.838.838,0,0,1,.66827.92285.8.8,0,0,1-1.57727-.26873A.764.764,0,0,1,1.32544,21.95416Z"/><polygon class="a" points="2.819 19.403 3.351 17.951 1.859 17.372 1.295 18.916 2.819 19.403"/><path class="b" d="M2.605,17.66132a.80867.80867,0,0,1,.48017,1.0155.83179.83179,0,0,1-1.02845.48254.76922.76922,0,0,1-.48016-1.0155A.78967.78967,0,0,1,2.605,17.66132Z"/><path class="a" d="M4.49768,15.39679a12.59826,12.59826,0,0,1,.76526-1.34253L3.89105,13.2309a13.80038,13.80038,0,0,0-.8125,1.427Z"/><path class="b" d="M4.577,13.64258A.78425.78425,0,0,1,4.8609,14.715a.81974.81974,0,0,1-1.07275.31231.78009.78009,0,0,1-.32337-1.09387A.81252.81252,0,0,1,4.577,13.64258Z"/><path class="a" d="M6.832,11.73572a11.96055,11.96055,0,0,1,.96411-1.208L6.58264,9.485A13.11464,13.11464,0,0,0,5.558,10.76776Z"/><path class="b" d="M7.18939,10.00641a.811.811,0,0,1,.10541,1.1095.78207.78207,0,0,1-1.09979.13586.81476.81476,0,0,1-.14447-1.14172A.78759.78759,0,0,1,7.18939,10.00641Z"/><polygon class="a" points="9.74 8.511 10.884 7.47 9.863 6.238 8.646 7.343 9.74 8.511"/><path class="b" d="M10.37347,6.85425A.836.836,0,0,1,10.312,7.99109a.804.804,0,0,1-1.119-.0639.794.794,0,0,1,.06153-1.13678A.76557.76557,0,0,1,10.37347,6.85425Z"/><polygon class="a" points="13.141 5.811 14.463 5.008 13.665 3.621 12.26 4.475 13.141 5.811"/><path class="b" d="M14.064,4.31451a.813.813,0,0,1-.26165,1.095.82712.82712,0,0,1-1.10175-.26666.77343.77343,0,0,1,.26166-1.095A.78583.78583,0,0,1,14.064,4.31451Z"/><path class="a" d="M16.95825,3.73688c.45923-.23627.96179-.36963,1.44025-.56018l-.55158-1.5019c-.509.20173-1.04168.34723-1.53051.59644Z"/><path class="b" d="M18.12274,2.42578a.78844.78844,0,0,1-.45056,1.01636A.83307.83307,0,0,1,16.63733,3.004a.7687.7687,0,0,1,.4378-1.04633A.80861.80861,0,0,1,18.12274,2.42578Z"/><path class="a" d="M21.07452,2.3576a11.18088,11.18088,0,0,1,1.50855-.33312L22.295.45062a12.27978,12.27978,0,0,0-1.60351.35352Z"/><path class="b" d="M22.439,1.23755a.80771.80771,0,0,1-.61573.92688.77975.77975,0,0,1-.9403-.58356A.817.817,0,0,1,21.48773.6.79054.79054,0,0,1,22.439,1.23755Z"/><polygon class="a" points="25.362 1.678 26.907 1.6 26.888 0 25.247 0.082 25.362 1.678"/><path class="b" d="M26.89734.79993a.82844.82844,0,0,1-.76306.83954.8111.8111,0,0,1-.83014-.7591A.78752.78752,0,0,1,26.0672.04089.772.772,0,0,1,26.89734.79993Z"/><path class="a" d="M29.70721,1.70935c.51258.051,1.02008.14917,1.53046.2207L31.48694.34961C30.94476.27307,30.405.17072,29.8606.11676Z"/><path class="b" d="M31.3623,1.13983a.79446.79446,0,0,1-.88916.67328A.84392.84392,0,0,1,29.78394.913.75923.75923,0,0,1,30.6745.22583.80282.80282,0,0,1,31.3623,1.13983Z"/><path class="a" d="M33.97485,2.51385a10.10141,10.10141,0,0,1,1.47864.4469l.51428-1.51507A11.13069,11.13069,0,0,0,34.39612.97034Z"/><path class="b" d="M35.71063,2.20319a.78918.78918,0,0,1-.98663.50256.775.775,0,0,1-.53851-.96362A.82156.82156,0,0,1,35.192,1.17572.80753.80753,0,0,1,35.71063,2.20319Z"/><polygon class="a" points="38.049 4.01 39.442 4.681 40.206 3.276 38.726 2.56 38.049 4.01"/><path class="b" d="M39.824,3.97833a.83983.83983,0,0,1-1.07874.36695.8.8,0,0,1,.72137-1.42817A.76243.76243,0,0,1,39.824,3.97833Z"/><polygon class="a" points="41.819 6.164 43.057 7.091 44.048 5.834 42.732 4.85 41.819 6.164"/><path class="b" d="M43.55273,6.4624a.81516.81516,0,0,1-1.11492.16516.82452.82452,0,0,1-.1626-1.12048.77548.77548,0,0,1,1.11493-.16516A.78367.78367,0,0,1,43.55273,6.4624Z"/><path class="a" d="M45.167,8.93341c.37818.35034.7016.75537,1.05567,1.12988l1.18768-1.07208c-.37549-.39831-.72113-.82648-1.12213-1.19922Z"/><path class="b" d="M46.81653,9.52722a.793.793,0,0,1-1.114-.03662.841.841,0,0,1,.025-1.12793.7622.7622,0,0,1,1.12994.02069A.8042.8042,0,0,1,46.81653,9.52722Z"/><polygon class="a" points="47.986 12.239 48.449 12.858 48.853 13.518 50.204 12.661 49.774 11.961 49.283 11.302 47.986 12.239"/><path class="b" d="M49.52826,13.08917a.79744.79744,0,0,1-.8941-1.31891.79767.79767,0,1,1,.8941,1.31891Z"/><path class="a" d="M50.21582,15.96252c.218.46692.46051.92347.65955,1.39838l1.47692-.61529c-.21142-.50483-.46734-.99079-.69952-1.48682Z"/><path class="b" d="M51.61383,17.05328a.84257.84257,0,0,1-1.06219-.3941.8.8,0,0,1,1.45764-.65985A.76059.76059,0,0,1,51.61383,17.05328Z"/><polygon class="a" points="51.797 20.005 52.182 21.503 53.742 21.148 53.333 19.556 51.797 20.005"/><path class="b" d="M52.96216,21.32556a.79762.79762,0,1,1-.39728-1.545.79762.79762,0,1,1,.39728,1.545Z"/><path class="a" d="M52.65955,24.26215a15.43765,15.43765,0,0,1,.1101,1.54211l1.59766-.08649c-.04273-.54553-.02216-1.09716-.11816-1.63751Z"/><path class="b" d="M53.56848,25.76105a.78611.78611,0,0,1-.8374-.72956.83372.83372,0,0,1,.72327-.86029.76826.76826,0,0,1,.87109.72614A.81085.81085,0,0,1,53.56848,25.76105Z"/><path class="c" d="M42.297,22.37169l.00229.00027.0415-.04255Z"/><path class="c" d="M36.26692,26.52709c-.3497-.99612.41483-1.27423,1.05062-1.529-.12691-.02868-.14722-.07895-.28113-.10612a4.531,4.531,0,0,0-2.88773-.04986c-.03638.1325-.08542.20985-.0697.27037.10174.39177.22373.77824.32758,1.1695a1.49591,1.49591,0,0,1-.45409,1.80158,2.89294,2.89294,0,0,1-2.66515-.03653,1.50986,1.50986,0,0,1-.39542-1.81878c.14064-.43761.23656-.88959.36416-1.3798a6.32733,6.32733,0,0,0-3.64686.18054c.09252,1.06584.24093,2.02231.24243,2.979.002,1.26577-.48806,1.57086-1.69324,1.17723-.594-.194-1.187-.47924-1.83943.06872a6.22561,6.22561,0,0,0-.18151,1.03062c-.022,1.16795.48032,1.54068,1.60253,1.23343.10715-.02934.21593-.05356.3215-.0877,1.388-.44894,1.7995-.19511,1.79322,1.23623-.004.9137-.14792,1.82678-.2327,2.78062H37.84058c0-2.80742.00264-5.58488-.01023-8.36226-.00049-.10446-.14817-.21114-.23538-.3096-.01562-.01764-.07113,0-.10823.00143C37.48674,26.75494,36.58719,27.16292,36.26692,26.52709Z"/><path class="c" d="M50.48856,33.71237a7.66365,7.66365,0,0,0-.77644-.631c-.82313-.62631-1.65011-1.24755-2.46033-1.85923.049-1.04876-.21272-2.04332.30452-3.00344a1.60793,1.60793,0,0,0-.055-1.06985,9.04641,9.04641,0,0,0-2.67406-4.15663,2.163,2.163,0,0,0-2.04615-.58272,1.19949,1.19949,0,0,0-.48416.25072,1.43485,1.43485,0,0,0-.313.68747c.294-.05948-2.69127,1.08645-4.40047,1.68689-.0417.01465-1.65863.30565-1.25065,1.39714.26492.59873,1.15388.21045,1.15388.17179,1.52467-.50881,4.46644-1.53881,5.02865-1.71366.68165.97758,1.38511,2.08763,1.39417,2.0867l.5736,1.03138c-.826.4791-1.57248.88584-2.28884,1.34012a1.83281,1.83281,0,0,0-.77932.73526c-.49786,1.39245-.95141,2.80381-1.34335,4.2297a.97665.97665,0,0,0,.7615,1.27957,1.0301,1.0301,0,0,0,1.26691-.626,4.60375,4.60375,0,0,0,.22472-.62746c.32646-1.02171.64976-2.04444.98359-3.09644l1.688-.973a11.98643,11.98643,0,0,0,.07249,1.37327,1.55577,1.55577,0,0,0,.34606.89981c1.24112.99909,2.50543,1.97386,3.81263,2.884a.96681.96681,0,0,0,1.38087-.30309A1.01276,1.01276,0,0,0,50.48856,33.71237Z"/><path class="c" d="M17.48687,25.11064l-.15228-.20626a4.61368,4.61368,0,0,1,3.012-.02058c-.12088.46576-.21815.91863-.3572,1.35828a1.48155,1.48155,0,0,0,.41933,1.807,2.81766,2.81766,0,0,0,2.653.017c.5345-.37146.6815-.94132.44564-1.80314-.11528-.42119-.25692-.83516-.4228-1.36877,1.3606-.56115,2.58724-.07054,3.87956.15174a7.15453,7.15453,0,0,1,.22323,3.8411c-.49879-.12645-.94552-.23467-1.38949-.35325-1.01509-.27111-1.64186-.0557-1.97694.68619-.40551.89782-.22808,2.3019.44368,2.65941a2.56953,2.56953,0,0,0,1.37426.1861,7.73609,7.73609,0,0,0,1.46425-.43818c.60387,1.34546.07848,2.56563-.10592,3.82517H16.61838V26.81186h.76742s1.15046.369,1.319-.20263a1.15319,1.15319,0,0,0,.019-.82126.96077.96077,0,0,0-.48795-.38414C18.07494,25.34818,17.48687,25.11064,17.48687,25.11064Z"/><path class="c" d="M17.59761,25.26064l-4.92232-1.57557a2.75973,2.75973,0,0,0-.787-.97552,1.28514,1.28514,0,0,0-.46229-.23181,1.54686,1.54686,0,0,0-1.83943.53217,9.55243,9.55243,0,0,0-2.58635,3.95954A2.116,2.116,0,0,0,6.955,28.3683a6.14209,6.14209,0,0,1,.1717,2.91187c-.9933.75084-1.94759,1.45394-2.881,2.18373-.70658.55242-.827,1.16421-.383,1.7103a1.16638,1.16638,0,0,0,1.68678.04867c.75214-.54053,1.44664-1.16933,2.23111-1.6549,1.12985-.69936,1.87454-1.54633,1.6186-2.97419-.0087-.04849.06407-.11158.12245-.206a2.65313,2.65313,0,0,1,2.031,2.05438,17.30678,17.30678,0,0,0,.6856,2.22605c.26584.77758.784,1.11017,1.38928.93376.67287-.19611.937-.77792.69069-1.60444-.33807-1.13439-.717-2.25675-1.04622-3.39359a2.05823,2.05823,0,0,0-1.092-1.31851c-.74321-.39172-1.45722-.83885-2.26427-1.30906l1.25855-1.88915c.00779.0041.40532-.66965.73515-1.13856.17088.0755,4.061,1.43895,5.45486,1.77714.47406.115,1.0703.28876,1.216-.14571a2.20674,2.20674,0,0,0,.09273-.54574c-.00381-.27573-.31012-.46387-.461-.54045"/><path class="c" d="M11.55194,21.41388a1.95275,1.95275,0,0,1,3.03-2.23651,1.91371,1.91371,0,0,1,.65441,2.18257,1.9919,1.9919,0,0,1-1.97563,1.31852A1.81,1.81,0,0,1,11.55194,21.41388Z"/><path class="c" d="M41.48,22.63028a1.95134,1.95134,0,0,1-2.24243-1.19537,1.971,1.971,0,1,1,3.455.41171,3.49649,3.49649,0,0,1-.3956.44435A2.48,2.48,0,0,1,41.48,22.63028Z"/></svg>