<svg xmlns="http://www.w3.org/2000/svg" viewBox="0 0 54.64447 54.68597"><defs><style>.a{fill:none;}.b,.c{fill:#fff;}.b{fill-rule:evenodd;}</style></defs><title>it</title><path class="a" d="M53.04681,28.75055A15.52969,15.52969,0,0,1,52.936,30.301l1.58966.18188c.09649-.54309.0758-1.09753.11877-1.64587Z"/><path class="b" d="M53.7309,30.392a.83588.83588,0,0,1-.7229-.86444.78809.78809,0,0,1,.83764-.73371.813.813,0,0,1,.75672.86786A.77021.77021,0,0,1,53.7309,30.392Z"/><polygon class="a" points="52.456 33.075 52.069 34.581 53.605 35.03 54.016 33.43 52.456 33.075"/><path class="b" d="M52.83673,34.80573a.80185.80185,0,0,1,.39935-1.55317.80185.80185,0,0,1-.39935,1.55317Z"/><path class="a" d="M51.14221,37.23969c-.20007.47747-.444.93646-.66308,1.40594l1.43689.70374c.23339-.49854.49066-.987.70312-1.49439Z"/><path class="b" d="M51.19757,38.9975a.798.798,0,0,1-.3808-1.05231.84469.84469,0,0,1,1.06391-.39789.76256.76256,0,0,1,.39367,1.05774A.80364.80364,0,0,1,51.19757,38.9975Z"/><polygon class="a" points="49.109 41.104 48.703 41.767 48.237 42.39 49.534 43.326 50.028 42.664 50.46 41.961 49.109 41.104"/><path class="b" d="M48.88531,42.858a.80184.80184,0,0,1,.89887-1.3258.80168.80168,0,1,1-.89887,1.3258Z"/><path class="a" d="M46.46429,44.57684c-.35589.37653-.68115.78369-1.0614,1.136l1.12128,1.14142c.403-.3747.75043-.80506,1.12787-1.20532Z"/><path class="b" d="M45.96356,46.28351a.84322.84322,0,0,1-.02215-1.13092.795.795,0,0,1,1.11676-.03974.80644.80644,0,0,1,.0382,1.147A.76416.76416,0,0,1,45.96356,46.28351Z"/><polygon class="a" points="43.282 47.566 42.036 48.497 42.95 49.811 44.273 48.822 43.282 47.566"/><path class="b" d="M42.493,49.15417a.8267.8267,0,0,1,.166-1.123.81733.81733,0,0,1,1.11828.16266.78589.78589,0,0,1-.16595,1.123A.7776.7776,0,0,1,42.493,49.15417Z"/><polygon class="a" points="39.647 49.988 38.246 50.663 38.924 52.113 40.411 51.394 39.647 49.988"/><path class="b" d="M38.58478,51.38788a.803.803,0,0,1,.36169-1.06207.8419.8419,0,0,1,1.08252.36511.76449.76449,0,0,1-.36114,1.06305A.799.799,0,0,1,38.58478,51.38788Z"/><path class="a" d="M35.63684,51.71783a10.15059,10.15059,0,0,1-1.48669.44928l.42132,1.54358a11.19292,11.19292,0,0,0,1.57965-.47778Z"/><path class="b" d="M34.36078,52.9389a.777.777,0,0,1,.5426-.96466.79115.79115,0,0,1,.9906.5011.80977.80977,0,0,1-.52258,1.02887A.82384.82384,0,0,1,34.36078,52.9389Z"/><path class="a" d="M31.39813,52.75409c-.51312.0719-1.02337.17071-1.53875.22192l.15344,1.59259c.54718-.05426,1.08966-.1571,1.63464-.23407Z"/><path class="b" d="M29.9361,53.77234a.84632.84632,0,0,1,.69336-.9007.79666.79666,0,0,1,.89337.67267.805.805,0,0,1-.692.91461A.76126.76126,0,0,1,29.9361,53.77234Z"/><polygon class="a" points="27.044 53.086 25.49 53.007 25.375 54.603 27.025 54.686 27.044 53.086"/><path class="b" d="M25.4328,53.80511a.81322.81322,0,0,1,.83435-.75885.83065.83065,0,0,1,.76727.83973.77422.77422,0,0,1-.83435.75891A.78975.78975,0,0,1,25.4328,53.80511Z"/><path class="a" d="M22.69666,52.65918a11.23636,11.23636,0,0,1-1.51673-.335l-.383,1.55353a12.34984,12.34984,0,0,0,1.61169.35528Z"/><path class="b" d="M20.98846,53.101a.78169.78169,0,0,1,.94434-.58258.80984.80984,0,0,1,.61981.92768.79259.79259,0,0,1-.95538.63678A.81918.81918,0,0,1,20.98846,53.101Z"/><path class="a" d="M18.48944,51.50073c-.481-.19159-.98633-.32568-1.44806-.56323l-.64184,1.46564c.49133.25049,1.02679.39673,1.53833.59948Z"/><path class="b" d="M16.72046,51.67035a.83534.83534,0,0,1,1.03876-.43652.79042.79042,0,0,1,.45446,1.01782.81077.81077,0,0,1-1.05151.46661A.77076.77076,0,0,1,16.72046,51.67035Z"/><polygon class="a" points="14.533 49.66 13.203 48.852 12.323 50.188 13.734 51.046 14.533 49.66"/><path class="b" d="M12.76306,49.52032a.8292.8292,0,0,1,1.10529-.26452.81507.81507,0,0,1,.26526,1.09717.788.788,0,0,1-1.10535.26452A.77543.77543,0,0,1,12.76306,49.52032Z"/><polygon class="a" points="10.934 47.184 9.784 46.137 8.69 47.305 9.913 48.416 10.934 47.184"/><path class="b" d="M9.237,46.72131a.80606.80606,0,0,1,1.12213-.06109.83821.83821,0,0,1,.06458,1.13965.76759.76759,0,0,1-1.12207.06109A.79613.79613,0,0,1,9.237,46.72131Z"/><path class="a" d="M7.82965,44.1098a12.02886,12.02886,0,0,1-.96936-1.21448l-1.27393.968a13.18276,13.18276,0,0,0,1.02979,1.28925Z"/><path class="b" d="M6.22333,43.37933a.784.784,0,0,1,1.10229.13916.81321.81321,0,0,1-.10272,1.11274.7897.7897,0,0,1-1.14154-.10682A.81689.81689,0,0,1,6.22333,43.37933Z"/><path class="a" d="M5.28271,40.56427a12.66521,12.66521,0,0,1-.76934-1.34985l-1.41919.739a13.8695,13.8695,0,0,0,.81665,1.43426Z"/><path class="b" d="M3.80377,39.58392a.82189.82189,0,0,1,1.07477.316.78631.78631,0,0,1-.28174,1.076.81491.81491,0,0,1-1.11444-.29449A.78217.78217,0,0,1,3.80377,39.58392Z"/><polygon class="a" points="3.36 36.647 2.825 35.187 1.301 35.674 1.869 37.225 3.36 36.647"/><path class="b" d="M2.06329,35.43018a.83386.83386,0,0,1,1.02991.48645.81078.81078,0,0,1-.4787,1.01947.79185.79185,0,0,1-1.02991-.48645A.77131.77131,0,0,1,2.06329,35.43018Z"/><polygon class="a" points="2.112 32.463 1.879 30.925 0.294 31.146 0.544 32.779 2.112 32.463"/><path class="b" d="M1.08618,31.0354a.80452.80452,0,0,1,.90961.65833.84.84,0,0,1-.66766.92694.766.766,0,0,1-.90961-.65827A.7976.7976,0,0,1,1.08618,31.0354Z"/><polygon class="a" points="1.64 28.12 1.6 27.343 1.64 26.566 0.041 26.518 0 27.343 0.041 28.168 1.64 28.12"/><path class="b" d="M.84039,26.54218a.8019.8019,0,0,1,0,1.60156.80171.80171,0,1,1,0-1.60156Z"/><polygon class="a" points="1.879 23.761 2.112 22.223 0.544 21.907 0.294 23.54 1.879 23.761"/><path class="b" d="M1.32813,22.06525a.8401.8401,0,0,1,.66766.927.8.8,0,1,1-1.57727-.26874A.76606.76606,0,0,1,1.32813,22.06525Z"/><polygon class="a" points="2.825 19.499 3.36 18.039 1.869 17.461 1.301 19.012 2.825 19.499"/><path class="b" d="M2.61444,17.74988a.81069.81069,0,0,1,.47876,1.01941.834.834,0,0,1-1.02991.48651.77133.77133,0,0,1-.4787-1.01947A.79174.79174,0,0,1,2.61444,17.74988Z"/><path class="a" d="M4.51337,15.4715a12.67619,12.67619,0,0,1,.76934-1.34986l-1.37188-.8233a13.87159,13.87159,0,0,0-.81665,1.43426Z"/><path class="b" d="M4.59674,13.71a.7862.7862,0,0,1,.2818,1.076.8219.8219,0,0,1-1.07477.316.78216.78216,0,0,1-.32141-1.09753A.81474.81474,0,0,1,4.59674,13.71Z"/><path class="a" d="M6.86029,11.79065a12.02288,12.02288,0,0,1,.96936-1.21454L6.61615,9.53333a13.19055,13.19055,0,0,0-1.02979,1.2893Z"/><path class="b" d="M7.2229,10.05475a.81312.81312,0,0,1,.10272,1.11267.78405.78405,0,0,1-1.10229.13922.81689.81689,0,0,1-.142-1.14508A.7897.7897,0,0,1,7.2229,10.05475Z"/><polygon class="a" points="9.784 8.549 10.934 7.502 9.913 6.27 8.69 7.38 9.784 8.549"/><path class="b" d="M10.42371,6.88605a.8382.8382,0,0,1-.06458,1.13965A.80607.80607,0,0,1,9.237,7.9646.79611.79611,0,0,1,9.30157,6.825.7677.7677,0,0,1,10.42371,6.88605Z"/><polygon class="a" points="13.203 5.833 14.533 5.026 13.734 3.64 12.323 4.498 13.203 5.833"/><path class="b" d="M14.13361,4.333a.815.815,0,0,1-.26526,1.09716.82908.82908,0,0,1-1.10529-.26452.77543.77543,0,0,1,.2652-1.09717A.788.788,0,0,1,14.13361,4.333Z"/><path class="a" d="M17.04138,3.74841c.46173-.23748.967-.37158,1.44806-.56317l-.55157-1.50189c-.51154.20276-1.047.349-1.53833.59943Z"/><path class="b" d="M18.21368,2.43427a.79045.79045,0,0,1-.45446,1.01782.83533.83533,0,0,1-1.03876-.43646.77081.77081,0,0,1,.44171-1.048A.81082.81082,0,0,1,18.21368,2.43427Z"/><path class="a" d="M21.17993,2.36169a11.24706,11.24706,0,0,1,1.51673-.335L22.40857.45288a12.353,12.353,0,0,0-1.61163.35535Z"/><path class="b" d="M22.55261,1.23981a.8098.8098,0,0,1-.61981.92767.78169.78169,0,0,1-.94434-.58252.81911.81911,0,0,1,.60877-.98187A.79263.79263,0,0,1,22.55261,1.23981Z"/><polygon class="a" points="25.49 1.679 27.044 1.6 27.025 0 25.375 0.083 25.49 1.679"/><path class="b" d="M27.03442.79993a.83065.83065,0,0,1-.76727.83972A.81312.81312,0,0,1,25.4328.8808a.78966.78966,0,0,1,.76727-.83972A.77421.77421,0,0,1,27.03442.79993Z"/><path class="a" d="M29.85938,1.71c.51538.05121,1.02563.15,1.53875.22186L31.64746.35138c-.545-.077-1.08746-.17981-1.63464-.23407Z"/><path class="b" d="M31.52277,1.1416a.79647.79647,0,0,1-.89331.67267A.84621.84621,0,0,1,29.9361.91364.76132.76132,0,0,1,30.83087.227.805.805,0,0,1,31.52277,1.1416Z"/><path class="a" d="M34.15015,2.5188a10.16014,10.16014,0,0,1,1.48669.44928L36.15112,1.453A11.18451,11.18451,0,0,0,34.57141.97528Z"/><path class="b" d="M35.894,2.21057a.79126.79126,0,0,1-.99066.50116.77707.77707,0,0,1-.54254-.96472.82377.82377,0,0,1,1.01056-.56531A.80975.80975,0,0,1,35.894,2.21057Z"/><polygon class="a" points="38.246 4.023 39.647 4.698 40.411 3.292 38.924 2.573 38.246 4.023"/><path class="b" d="M40.029,3.995a.84194.84194,0,0,1-1.08252.36511.8.8,0,1,1,.72138-1.4281A.76443.76443,0,0,1,40.029,3.995Z"/><polygon class="a" points="42.036 6.189 43.282 7.12 44.273 5.864 42.95 4.875 42.036 6.189"/><path class="b" d="M43.77728,6.49213a.81729.81729,0,0,1-1.11828.16266.82664.82664,0,0,1-.166-1.123.77756.77756,0,0,1,1.11829-.16272A.7859.7859,0,0,1,43.77728,6.49213Z"/><path class="a" d="M45.40289,8.97308c.38025.3523.70545.75952,1.0614,1.136l1.18775-1.072c-.37744-.40033-.72485-.83069-1.12787-1.20538Z"/><path class="b" d="M47.05817,9.57306a.795.795,0,0,1-1.11676-.03973.84324.84324,0,0,1,.02215-1.13093.76411.76411,0,0,1,1.13281.02369A.80636.80636,0,0,1,47.05817,9.57306Z"/><polygon class="a" points="48.237 12.296 48.703 12.919 49.109 13.582 50.46 12.725 50.028 12.021 49.534 11.36 48.237 12.296"/><path class="b" d="M49.78412,13.15369a.80183.80183,0,0,1-.89881-1.32581.80167.80167,0,1,1,.89881,1.32581Z"/><path class="a" d="M50.47913,16.04028c.21911.46949.463.92847.66308,1.406l1.47693-.61536c-.21246-.50738-.46973-.99585-.70312-1.49438Z"/><path class="b" d="M51.88068,17.13861a.84468.84468,0,0,1-1.06391-.39789.8.8,0,1,1,1.45758-.65985A.76254.76254,0,0,1,51.88068,17.13861Z"/><polygon class="a" points="52.069 20.105 52.456 21.611 54.016 21.256 53.605 19.656 52.069 20.105"/><path class="b" d="M53.23608,21.43335a.80181.80181,0,0,1-.39935-1.5531.80181.80181,0,0,1,.39935,1.5531Z"/><path class="a" d="M52.936,24.38489a15.5295,15.5295,0,0,1,.11077,1.55047l1.59766-.08648c-.043-.54834-.02228-1.10279-.11877-1.64588Z"/><path class="b" d="M53.84564,25.89209a.78809.78809,0,0,1-.83764-.7337.8359.8359,0,0,1,.7229-.86444.77019.77019,0,0,1,.87146.73028A.81294.81294,0,0,1,53.84564,25.89209Z"/><path class="c" d="M16.838,30.808a8.41059,8.41059,0,0,1-1.20165-.642,2.49953,2.49953,0,0,1-.961-2.1111q-.00148-6.95146.0027-13.90292a2.51851,2.51851,0,0,1,2.66113-2.63792c7.2742-.00157,14.54847.01732,21.82253-.01364a2.61076,2.61076,0,0,1,2.68865,2.6691c-.00168,4.64866.006,9.29732-.003,13.946-.00277,1.43823-.8768,2.3759-2.51724,2.75258a2.76689,2.76689,0,0,1,.424.28057c2.10187,2.01607,4.19451,4.04178,6.30216,6.05176a.71823.71823,0,0,1,.24043.78871,2.1064,2.1064,0,0,1-2.36279,1.7838q-10.80369-.00015-21.60738-.00209c-3.28558-.00036-6.57117.00477-9.85672-.00364a2.07414,2.07414,0,0,1-2.25114-1.81164.68174.68174,0,0,1,.20869-.72342q3.07-3.04771,6.1181-6.1174C16.65545,31.00462,16.76042,30.88959,16.838,30.808ZM28.27481,13.411q-5.35993,0-10.71988.00012c-.80384.00007-.9522.14664-.95262.952q-.00187,3.59484-.00049,7.18967.00009,3.22885.00125,6.45771c.00067.625.19462.81437.82122.82147.1148.0013.22961.00126.34442.00126q10.59072.00011,21.18146.00005c.82754,0,.9737-.14511.97377-.97424q.00055-6.75915.00006-13.51829c.00005-.7691-.15639-.92906-.9293-.92925Q33.63477,13.41023,28.27481,13.411ZM15.91089,34.06659H40.66822c-.71242-.69661-1.33414-1.327-1.98536-1.92524a1.04725,1.04725,0,0,0-.62707-.26523c-1.20461-.02572-2.41-.01406-3.61517-.01414q-7.98408-.00048-15.96816.00457a.74164.74164,0,0,0-.47229.12161C17.309,32.65,16.64026,33.33535,15.91089,34.06659Zm16.84255,3.4176c-.326-.65451-.6464-1.25674-.92551-1.87754a.50623.50623,0,0,0-.55367-.33762c-1.84839.01184-3.698.04024-5.5448-.01489a1.07184,1.07184,0,0,0-1.24785.76758,14.78275,14.78275,0,0,1-.70451,1.46247Z"/></svg>