<svg xmlns="http://www.w3.org/2000/svg" viewBox="0 0 54.61969 54.66125"><defs><style>.a{fill:none;}.b,.c{fill:#fff;}.b{fill-rule:evenodd;}</style></defs><title>languages</title><path class="a" d="M53.022,28.73755a15.53321,15.53321,0,0,1-.11065,1.54968l1.5896.18189c.09649-.54285.0758-1.097.11871-1.64515Z"/><path class="b" d="M53.70618,30.37817a.83561.83561,0,0,1-.7229-.864.78792.78792,0,0,1,.83758-.7334.81287.81287,0,0,1,.75678.86756A.77.77,0,0,1,53.70618,30.37817Z"/><polygon class="a" points="52.432 33.06 52.045 34.565 53.58 35.014 53.992 33.415 52.432 33.06"/><path class="b" d="M52.81244,34.78979a.80143.80143,0,0,1,.39917-1.55236.80143.80143,0,0,1-.39917,1.55236Z"/><path class="a" d="M51.11835,37.22253c-.2.4773-.44373.936-.66272,1.40528l1.43689.70373c.23327-.49829.49041-.98657.70282-1.49365Z"/><path class="b" d="M51.17407,38.97974a.79792.79792,0,0,1-.381-1.052.84465.84465,0,0,1,1.06378-.39758.76236.76236,0,0,1,.3938,1.05737A.8034.8034,0,0,1,51.17407,38.97974Z"/><polygon class="a" points="49.086 41.085 48.68 41.748 48.214 42.37 49.512 43.307 50.005 42.645 50.437 41.942 49.086 41.085"/><path class="b" d="M48.86292,42.8385a.80148.80148,0,0,1,.89837-1.32532.80135.80135,0,1,1-.89837,1.32532Z"/><path class="a" d="M46.44275,44.55615c-.35577.37635-.68085.78333-1.06091,1.1355L46.50311,46.833c.40283-.37451.75006-.80469,1.12732-1.20471Z"/><path class="b" d="M45.94244,46.26233a.84311.84311,0,0,1-.0224-1.13062.79494.79494,0,0,1,1.11658-.03955.80631.80631,0,0,1,.03845,1.14673A.764.764,0,0,1,45.94244,46.26233Z"/><polygon class="a" points="43.262 47.543 42.017 48.475 42.93 49.788 44.253 48.8 43.262 47.543"/><path class="b" d="M42.47357,49.13159a.82652.82652,0,0,1,.16565-1.1228.81717.81717,0,0,1,1.118.163.78567.78567,0,0,1-.16571,1.12281A.77738.77738,0,0,1,42.47357,49.13159Z"/><polygon class="a" points="39.629 49.965 38.228 50.64 38.906 52.089 40.393 51.37 39.629 49.965"/><path class="b" d="M38.56714,51.36426a.80289.80289,0,0,1,.36139-1.06189.84163.84163,0,0,1,1.08215.36523.76426.76426,0,0,1-.36078,1.06287A.7986.7986,0,0,1,38.56714,51.36426Z"/><path class="a" d="M35.62042,51.69373a10.1504,10.1504,0,0,1-1.4859.44909l.42127,1.54358a11.1892,11.1892,0,0,0,1.579-.47754Z"/><path class="b" d="M34.34515,52.91455a.77692.77692,0,0,1,.54218-.9646.79107.79107,0,0,1,.99029.50134A.80947.80947,0,0,1,35.35535,53.48.8235.8235,0,0,1,34.34515,52.91455Z"/><path class="a" d="M31.38379,52.72949c-.51288.0719-1.02289.17066-1.538.2218l.15344,1.59266c.54687-.05433,1.08911-.15711,1.63385-.234Z"/><path class="b" d="M29.92255,53.74756a.84588.84588,0,0,1,.693-.90051.79629.79629,0,0,1,.89294.67273.80482.80482,0,0,1-.69159.91455A.7611.7611,0,0,1,29.92255,53.74756Z"/><polygon class="a" points="27.032 53.061 25.479 52.983 25.364 54.578 27.013 54.661 27.032 53.061"/><path class="b" d="M25.42133,53.7804a.813.813,0,0,1,.834-.75892.83044.83044,0,0,1,.76685.83973.774.774,0,0,1-.834.75891A.78943.78943,0,0,1,25.42133,53.7804Z"/><path class="a" d="M22.68652,52.63464a11.22588,11.22588,0,0,1-1.516-.33484l-.383,1.55359a12.3612,12.3612,0,0,0,1.6109.35511Z"/><path class="b" d="M20.97906,53.07666a.78138.78138,0,0,1,.944-.58264.8096.8096,0,0,1,.61945.92761.79244.79244,0,0,1-.955.63672A.81884.81884,0,0,1,20.97906,53.07666Z"/><path class="a" d="M18.48132,51.47668c-.48077-.1914-.98584-.32543-1.44732-.56286l-.64185,1.46557c.49109.25037,1.02631.39661,1.5376.59925Z"/><path class="b" d="M16.71307,51.64661A.83512.83512,0,0,1,17.75146,51.21a.79033.79033,0,0,1,.45411,1.0177.81068.81068,0,0,1-1.05115.4668A.77061.77061,0,0,1,16.71307,51.64661Z"/><polygon class="a" points="14.527 49.637 13.198 48.83 12.317 50.166 13.728 51.023 14.527 49.637"/><path class="b" d="M12.75751,49.49768a.82888.82888,0,0,1,1.105-.26477.81485.81485,0,0,1,.26489,1.09692.78775.78775,0,0,1-1.105.26477A.77514.77514,0,0,1,12.75751,49.49768Z"/><polygon class="a" points="10.93 47.162 9.78 46.116 8.687 47.284 9.909 48.394 10.93 47.162"/><path class="b" d="M9.23309,46.7a.80579.80579,0,0,1,1.12183-.0614.838.838,0,0,1,.06433,1.1394.76742.76742,0,0,1-1.12183.06128A.79577.79577,0,0,1,9.23309,46.7Z"/><path class="a" d="M7.82666,44.08936a12.01816,12.01816,0,0,1-.96887-1.21387l-1.274.968A13.19327,13.19327,0,0,0,6.61316,45.1322Z"/><path class="b" d="M6.22083,43.3595a.78371.78371,0,0,1,1.102.13891.81284.81284,0,0,1-.103,1.11231.78952.78952,0,0,1-1.1413-.10645A.81666.81666,0,0,1,6.22083,43.3595Z"/><path class="a" d="M5.28094,40.54553a12.669,12.669,0,0,1-.769-1.34912l-1.41913.73889a13.86584,13.86584,0,0,0,.81623,1.4336Z"/><path class="b" d="M3.80237,39.5658a.82174.82174,0,0,1,1.07458.31567A.78618.78618,0,0,1,4.595,40.95728a.81471.81471,0,0,1-1.1142-.29419A.782.782,0,0,1,3.80237,39.5658Z"/><polygon class="a" points="3.359 36.63 2.825 35.171 1.301 35.657 1.868 37.209 3.359 36.63"/><path class="b" d="M2.06274,35.41406a.83353.83353,0,0,1,1.02973.48609.8106.8106,0,0,1-.47882,1.01916.79177.79177,0,0,1-1.02979-.4862A.7711.7711,0,0,1,2.06274,35.41406Z"/><polygon class="a" points="2.112 32.448 1.878 30.911 0.294 31.132 0.544 32.764 2.112 32.448"/><path class="b" d="M1.08606,31.02136a.80427.80427,0,0,1,.90955.65784.83984.83984,0,0,1-.66773.92663A.76586.76586,0,0,1,.41833,31.948.7974.7974,0,0,1,1.08606,31.02136Z"/><polygon class="a" points="1.64 28.107 1.6 27.331 1.64 26.554 0.041 26.506 0 27.331 0.041 28.155 1.64 28.107"/><path class="b" d="M.84039,26.53015a.80151.80151,0,0,1,0,1.60083.80137.80137,0,1,1,0-1.60083Z"/><polygon class="a" points="1.878 23.75 2.112 22.214 0.544 21.897 0.294 23.529 1.878 23.75"/><path class="b" d="M1.32788,22.0553a.83992.83992,0,0,1,.66773.92663.8.8,0,1,1-1.57728-.26867A.766.766,0,0,1,1.32788,22.0553Z"/><polygon class="a" points="2.825 19.491 3.359 18.031 1.868 17.453 1.301 19.004 2.825 19.491"/><path class="b" d="M2.61365,17.74194a.8106.8106,0,0,1,.47882,1.01917.83375.83375,0,0,1-1.02973.48608.77109.77109,0,0,1-.47888-1.019A.79168.79168,0,0,1,2.61365,17.74194Z"/><path class="a" d="M4.512,15.46484a12.671,12.671,0,0,1,.769-1.34912l-1.37188-.82336A13.85468,13.85468,0,0,0,3.09283,14.726Z"/><path class="b" d="M4.595,13.704A.78606.78606,0,0,1,4.877,14.77966a.82168.82168,0,0,1-1.07458.3158.78207.78207,0,0,1-.32154-1.09729A.8146.8146,0,0,1,4.595,13.704Z"/><path class="a" d="M6.85779,11.78577a12.017,12.017,0,0,1,.96887-1.21387L6.61316,9.52905a13.19459,13.19459,0,0,0-1.02936,1.2887Z"/><path class="b" d="M7.21991,10.05042a.813.813,0,0,1,.103,1.11242.78381.78381,0,0,1-1.102.13892A.81671.81671,0,0,1,6.07861,10.157.78953.78953,0,0,1,7.21991,10.05042Z"/><polygon class="a" points="9.78 8.546 10.93 7.499 9.909 6.267 8.687 7.377 9.78 8.546"/><path class="b" d="M10.41925,6.8833a.83789.83789,0,0,1-.06433,1.13928A.80576.80576,0,0,1,9.23309,7.9613a.79592.79592,0,0,1,.06433-1.1394A.76743.76743,0,0,1,10.41925,6.8833Z"/><polygon class="a" points="13.198 5.831 14.527 5.025 13.728 3.638 12.317 4.496 13.198 5.831"/><path class="b" d="M14.12738,4.3313a.815.815,0,0,1-.26489,1.097.82886.82886,0,0,1-1.105-.26477.77514.77514,0,0,1,.26489-1.09692A.78772.78772,0,0,1,14.12738,4.3313Z"/><path class="a" d="M17.03394,3.74744c.46154-.23743.96655-.37146,1.44738-.563l-.55157-1.50183c-.51129.20263-1.04651.34887-1.5376.59912Z"/><path class="b" d="M18.20557,2.43359a.7902.7902,0,0,1-.45411,1.01758.835.835,0,0,1-1.03839-.43652.7706.7706,0,0,1,.44135-1.04785A.81058.81058,0,0,1,18.20557,2.43359Z"/><path class="a" d="M21.17053,2.36133a11.2255,11.2255,0,0,1,1.516-.33472L22.39844.45276a12.33936,12.33936,0,0,0-1.6109.3551Z"/><path class="b" d="M22.54248,1.23962a.80961.80961,0,0,1-.61945.92762.78157.78157,0,0,1-.944-.58265.819.819,0,0,1,.60846-.98181A.79244.79244,0,0,1,22.54248,1.23962Z"/><polygon class="a" points="25.479 1.679 27.032 1.6 27.013 0 25.364 0.083 25.479 1.679"/><path class="b" d="M27.02216.79993a.83044.83044,0,0,1-.76685.83972.81291.81291,0,0,1-.834-.75891.7894.7894,0,0,1,.76684-.8396A.774.774,0,0,1,27.02216.79993Z"/><path class="a" d="M29.84583,1.71c.51507.05115,1.02508.1499,1.538.2218L31.63312.3512c-.54474-.07691-1.087-.17969-1.63391-.23389Z"/><path class="b" d="M31.50848,1.14148a.79638.79638,0,0,1-.89294.67273.84594.84594,0,0,1-.693-.90064.761.761,0,0,1,.89434-.68664A.80482.80482,0,0,1,31.50848,1.14148Z"/><path class="a" d="M34.13452,2.51843a10.13579,10.13579,0,0,1,1.4859.4491l.51435-1.51514a11.19051,11.19051,0,0,0-1.579-.47754Z"/><path class="b" d="M35.87762,2.21a.79112.79112,0,0,1-.99029.50122.77682.77682,0,0,1-.54218-.9646.8237.8237,0,0,1,1.0102-.56543A.80961.80961,0,0,1,35.87762,2.21Z"/><polygon class="a" points="38.228 4.022 39.629 4.696 40.393 3.291 38.906 2.572 38.228 4.022"/><path class="b" d="M40.01068,3.99353a.84187.84187,0,0,1-1.08221.36536.8.8,0,1,1,.72143-1.42823A.76432.76432,0,0,1,40.01068,3.99353Z"/><polygon class="a" points="42.017 6.187 43.262 7.118 44.253 5.861 42.93 4.873 42.017 6.187"/><path class="b" d="M43.7572,6.4895a.81707.81707,0,0,1-1.118.16284.8265.8265,0,0,1-.16565-1.1228.77746.77746,0,0,1,1.118-.16284A.78565.78565,0,0,1,43.7572,6.4895Z"/><path class="a" d="M45.38184,8.9696c.38006.35206.70514.75916,1.06091,1.13538l1.18768-1.072c-.37726-.40015-.72449-.83032-1.12732-1.20483Z"/><path class="b" d="M47.03656,9.569A.79474.79474,0,0,1,45.92,9.52954a.843.843,0,0,1,.0224-1.13061.76408.76408,0,0,1,1.13263.02331A.80625.80625,0,0,1,47.03656,9.569Z"/><polygon class="a" points="48.214 12.291 48.68 12.913 49.086 13.576 50.437 12.72 50.005 12.016 49.512 11.354 48.214 12.291"/><path class="b" d="M49.76129,13.148a.80143.80143,0,0,1-.89837-1.3252.8013.8013,0,1,1,.89837,1.3252Z"/><path class="a" d="M50.45563,16.03345c.219.46924.46277.928.66272,1.40527l1.477-.61536c-.21241-.5072-.46955-.99536-.70282-1.49377Z"/><path class="b" d="M51.85687,17.131a.84446.84446,0,0,1-1.06378-.39746.8.8,0,1,1,1.45758-.65991A.76232.76232,0,0,1,51.85687,17.131Z"/><polygon class="a" points="52.045 20.096 52.432 21.601 53.992 21.246 53.58 19.647 52.045 20.096"/><path class="b" d="M53.21161,21.42371a.80144.80144,0,0,1-.39917-1.55237.80144.80144,0,0,1,.39917,1.55237Z"/><path class="a" d="M52.91138,24.3739c.09277.51074.06945,1.03369.11065,1.54981l1.59766-.08655c-.04291-.548-.02222-1.1023-.11871-1.645Z"/><path class="b" d="M53.82086,25.88037a.78773.78773,0,0,1-.83758-.73328.83573.83573,0,0,1,.7229-.86413.77016.77016,0,0,1,.87146.73A.81275.81275,0,0,1,53.82086,25.88037Z"/><path class="c" d="M48.29177,28.29259l.001.39046.00377.00419-.00036-.39963Z"/><polygon class="c" points="26.243 16.083 26.208 16.159 26.249 16.089 26.243 16.083"/><path class="c" d="M48.29279,28.68305l-.19621.198.00206.00476.19792-.19859Z"/><path class="c" d="M48.09658,28.88106l-.19734.00033-.00524.00613.20464-.0017Z"/><path class="c" d="M35.10666,36.56211l-.00388-.00395Z"/><path class="c" d="M35.10278,36.55816l.0039.00394Z"/><path class="c" d="M48.09864,28.88582l-.20461.00168.40217-.59988.00036.39962Z"/><path class="c" d="M49.14154,23.14359c-.53115-5.43-5.51731-9.93015-11.61-10.47827a14.46737,14.46737,0,0,0-10.81713,3.3202,13.145,13.145,0,0,1,6.28316,7.64,11.34621,11.34621,0,0,1-2.784,11.163l.242,4.46413a39.67056,39.67056,0,0,1,4.37632-2.55922,50.66718,50.66718,0,0,1,5.40421-1.73961C46.00246,33.19342,49.6518,28.36005,49.14154,23.14359Zm-8.0494,2.48152-.79406-2.06183H37.45142l-.74766,2.06183h-.95654l2.61442-6.80773h.97054l2.78625,6.80773Z"/><path class="c" d="M38.826,19.53252a8.67684,8.67684,0,0,1-.36679,1.30025l-.74767,1.9968h2.308l-.71054-1.88536Q38.98384,20.08515,38.826,19.53252Z"/><path class="c" d="M22.697,28.82517a.87669.87669,0,0,0,.42681-.6836q0-.34013-.40438-.3402-.62916,0-1.32869,1.34154h.14763A1.89953,1.89953,0,0,0,22.697,28.82517Z"/><path class="c" d="M31.40984,24.06095c-1.65-5.571-7.64158-9.18283-14.24727-8.58855-6.09269.54813-11.07885,5.04825-11.61,10.47828C5.04231,31.16713,8.69165,36.00051,14.458,37.76086a50.66435,50.66435,0,0,1,5.40422,1.73961,39.67148,39.67148,0,0,1,4.37632,2.55922l.26192-4.83142c.00952-.00546.22944-.14253.45869-.26167C30.37759,34.15061,32.90254,29.10072,31.40984,24.06095ZM23.156,25.29162a1.53716,1.53716,0,0,0-1.55337-1.38007,1.70221,1.70221,0,0,0-1.47311.68683,3.22383,3.22383,0,0,0-.49749,1.91923,2.65155,2.65155,0,0,0,.91788,2.36212q1.01415-1.97047,2.34291-1.97057a1.41247,1.41247,0,0,1,.97245.31132,1.058,1.058,0,0,1,.34981.83122,1.87056,1.87056,0,0,1-.77347,1.36721,2.777,2.777,0,0,1-1.89033.674,3.68807,3.68807,0,0,1-.59056-.04493q-.25676.61622-.4236,1.07837l-.828-.28889q.32739-.84727.41723-1.03343a2.72234,2.72234,0,0,1-.60341-.398,2.91277,2.91277,0,0,1-1.78442.6162,1.82172,1.82172,0,0,1-1.104-.26639,1.08293,1.08293,0,0,1-.42366-.67717,6.54639,6.54639,0,0,1-.077-1.14254V24.01425h-.84083V23.122h.84083V21.42747l1.15542-.69966V23.122h1.15536v.89221H17.28916v3.9861a1.7869,1.7869,0,0,0,.10591.72854q.10594.21511.53594.215a1.77573,1.77573,0,0,0,.98851-.30168,4.3559,4.3559,0,0,1-.475-2.099,3.7508,3.7508,0,0,1,.85695-2.66381,2.94484,2.94484,0,0,1,2.24979-.91148,2.97559,2.97559,0,0,1,1.79727.5456,2.35654,2.35654,0,0,1,.92431,1.60472Z"/></svg>