<svg xmlns="http://www.w3.org/2000/svg" viewBox="0 0 54.57129 54.61273"><defs><style>.a{fill:none;}.b,.c{fill:#fff;}.b{fill-rule:evenodd;}</style></defs><title>sports</title><path class="a" d="M52.97363,28.712c-.0412.51562-.01788,1.038-.11059,1.54821l1.5896.18189c.09637-.54236.07574-1.09607.11865-1.64362Z"/><path class="b" d="M53.65784,30.35114a.83526.83526,0,0,1-.723-.86335.78762.78762,0,0,1,.83758-.7326.81243.81243,0,0,1,.75678.86676A.76972.76972,0,0,1,53.65784,30.35114Z"/><polygon class="a" points="52.384 33.03 51.997 34.534 53.533 34.983 53.944 33.385 52.384 33.03"/><path class="b" d="M52.765,34.75879a.80071.80071,0,0,1,.39881-1.551.80071.80071,0,0,1-.39881,1.551Z"/><path class="a" d="M51.07172,37.189c-.19977.47681-.4433.93519-.66211,1.40394l1.43689.70379c.23309-.49792.49-.98572.70221-1.49243Z"/><path class="b" d="M51.12805,38.94476a.79737.79737,0,0,1-.38128-1.05127.844.844,0,0,1,1.06341-.39685.762.762,0,0,1,.39417,1.0567A.803.803,0,0,1,51.12805,38.94476Z"/><polygon class="a" points="49.041 41.048 48.636 41.71 48.17 42.332 49.468 43.268 49.961 42.607 50.392 41.904 49.041 41.048"/><path class="b" d="M48.819,42.80005a.80069.80069,0,0,1,.89758-1.324.80063.80063,0,1,1-.89758,1.324Z"/><path class="a" d="M46.40051,44.51569c-.35547.376-.68023.78259-1.05987,1.1344l1.12121,1.14141c.40247-.3742.74945-.804,1.12635-1.20373Z"/><path class="b" d="M45.90125,46.22076a.84267.84267,0,0,1-.02295-1.13012.7945.7945,0,0,1,1.116-.03888.80577.80577,0,0,1,.039,1.14612A.76364.76364,0,0,1,45.90125,46.22076Z"/><polygon class="a" points="43.223 47.5 41.979 48.431 42.892 49.744 44.213 48.757 43.223 47.5"/><path class="b" d="M42.43549,49.08746a.82613.82613,0,0,1,.1651-1.12237.81677.81677,0,0,1,1.11743.16333.78532.78532,0,0,1-.1651,1.12237A.77708.77708,0,0,1,42.43549,49.08746Z"/><polygon class="a" points="39.593 49.919 38.194 50.593 38.872 52.043 40.357 51.325 39.593 49.919"/><path class="b" d="M38.53265,51.31805a.80253.80253,0,0,1,.36066-1.06158.84139.84139,0,0,1,1.08154.3656.76392.76392,0,0,1-.3601,1.06256A.79839.79839,0,0,1,38.53265,51.31805Z"/><path class="a" d="M35.58838,51.64655a10.14632,10.14632,0,0,1-1.4845.44866l.42127,1.54352a11.17951,11.17951,0,0,0,1.57757-.47711Z"/><path class="b" d="M34.31451,52.86694a.77655.77655,0,0,1,.54145-.96441.79078.79078,0,0,1,.98962.50152.80916.80916,0,0,1-.52161,1.02851A.82314.82314,0,0,1,34.31451,52.86694Z"/><path class="a" d="M31.35577,52.68134c-.51239.07177-1.022.17041-1.53656.22155l.15345,1.59265c.54638-.05419,1.08819-.15692,1.63244-.23376Z"/><path class="b" d="M29.89594,53.69922a.84558.84558,0,0,1,.69226-.90051.796.796,0,0,1,.89221.67285.80438.80438,0,0,1-.69086.91443A.76065.76065,0,0,1,29.89594,53.69922Z"/><polygon class="a" points="27.008 53.013 25.456 52.934 25.341 54.53 26.989 54.613 27.008 53.013"/><path class="b" d="M25.3988,53.732a.81262.81262,0,0,1,.83326-.75891.83008.83008,0,0,1,.76617.83966.77362.77362,0,0,1-.83325.75892A.78909.78909,0,0,1,25.3988,53.732Z"/><path class="a" d="M22.66663,52.58655a11.22364,11.22364,0,0,1-1.51453-.33447l-.383,1.55346a12.328,12.328,0,0,0,1.6095.35486Z"/><path class="b" d="M20.96057,53.02881a.78119.78119,0,0,1,.9433-.58277.80921.80921,0,0,1,.61877.92743.79211.79211,0,0,1-.95434.637A.81866.81866,0,0,1,20.96057,53.02881Z"/><path class="a" d="M18.46545,51.42969c-.4804-.19129-.985-.3252-1.446-.56238l-.64179,1.46564c.49061.25012,1.0254.39618,1.5362.59869Z"/><path class="b" d="M16.69849,51.60016a.83472.83472,0,0,1,1.03778-.43689.78985.78985,0,0,1,.45337,1.01739.81019.81019,0,0,1-1.05042.467A.77028.77028,0,0,1,16.69849,51.60016Z"/><polygon class="a" points="14.514 49.591 13.187 48.785 12.306 50.121 13.716 50.978 14.514 49.591"/><path class="b" d="M12.74658,49.45313A.8286.8286,0,0,1,13.851,49.188a.81455.81455,0,0,1,.26422,1.09662.7874.7874,0,0,1-1.10437.26513A.77491.77491,0,0,1,12.74658,49.45313Z"/><polygon class="a" points="10.921 47.119 9.772 46.074 8.679 47.242 9.9 48.351 10.921 47.119"/><path class="b" d="M9.22534,46.658a.80558.80558,0,0,1,1.12134-.06183.83771.83771,0,0,1,.06378,1.13892.76714.76714,0,0,1-1.12128.06183A.79561.79561,0,0,1,9.22534,46.658Z"/><path class="a" d="M7.8208,44.04932a12.00449,12.00449,0,0,1-.968-1.21277l-1.274.968A13.16366,13.16366,0,0,0,6.6073,45.0921Z"/><path class="b" d="M6.21582,43.32056a.78359.78359,0,0,1,1.10168.1383.81268.81268,0,0,1-.10345,1.11188.78913.78913,0,0,1-1.14081-.106A.81638.81638,0,0,1,6.21582,43.32056Z"/><path class="a" d="M5.27747,40.50885a12.65458,12.65458,0,0,1-.76825-1.348L3.09,39.89984a13.85578,13.85578,0,0,0,.81555,1.43231Z"/><path class="b" d="M3.79962,39.5304a.82134.82134,0,0,1,1.07428.31506.78574.78574,0,0,1-.28235,1.07507A.81425.81425,0,0,1,3.47772,40.627.78162.78162,0,0,1,3.79962,39.5304Z"/><polygon class="a" points="3.358 36.597 2.824 35.139 1.299 35.626 1.866 37.176 3.358 36.597"/><path class="b" d="M2.06158,35.38239a.83326.83326,0,0,1,1.02948.48541A.81024.81024,0,0,1,2.612,36.88623a.79126.79126,0,0,1-1.02954-.48541A.77076.77076,0,0,1,2.06158,35.38239Z"/><polygon class="a" points="2.112 32.419 1.878 30.883 0.293 31.104 0.543 32.735 2.112 32.419"/><path class="b" d="M1.08582,30.99371a.804.804,0,0,1,.90942.65717.83953.83953,0,0,1-.66785.9259A.76547.76547,0,0,1,.418,31.91962.797.797,0,0,1,1.08582,30.99371Z"/><polygon class="a" points="1.64 28.082 1.6 27.306 1.64 26.531 0.041 26.483 0 27.306 0.041 28.13 1.64 28.082"/><path class="b" d="M.84033,26.50665a.80074.80074,0,0,1,0,1.59937.80067.80067,0,1,1,0-1.59937Z"/><polygon class="a" points="1.878 23.729 2.112 22.194 0.543 21.878 0.293 23.509 1.878 23.729"/><path class="b" d="M1.32739,22.03589a.83957.83957,0,0,1,.66785.9259A.8.8,0,1,1,.418,22.69312.76549.76549,0,0,1,1.32739,22.03589Z"/><polygon class="a" points="2.824 19.474 3.358 18.016 1.866 17.437 1.299 18.987 2.824 19.474"/><path class="b" d="M2.612,17.72644a.81029.81029,0,0,1,.47906,1.01843.83341.83341,0,0,1-1.02954.48548.77083.77083,0,0,1-.47906-1.01844A.7913.7913,0,0,1,2.612,17.72644Z"/><path class="a" d="M4.50922,15.45178a12.64337,12.64337,0,0,1,.76825-1.3479l-1.37189-.82336A13.85208,13.85208,0,0,0,3.09,14.71283Z"/><path class="b" d="M4.59155,13.6922a.78567.78567,0,0,1,.28229,1.07507.82133.82133,0,0,1-1.07422.31507.78166.78166,0,0,1-.3219-1.09656A.81419.81419,0,0,1,4.59155,13.6922Z"/><path class="a" d="M6.85284,11.77612a12.0095,12.0095,0,0,1,.968-1.21277L6.6073,9.52057a13.16974,13.16974,0,0,0-1.02844,1.28754Z"/><path class="b" d="M7.21405,10.042a.8126.8126,0,0,1,.10345,1.11182.78353.78353,0,0,1-1.10168.1383A.81632.81632,0,0,1,6.07324,10.148.78913.78913,0,0,1,7.21405,10.042Z"/><polygon class="a" points="9.772 8.539 10.921 7.494 9.9 6.262 8.679 7.371 9.772 8.539"/><path class="b" d="M10.41046,6.87769a.83761.83761,0,0,1-.06378,1.13885.80556.80556,0,0,1-1.12134-.06177.79564.79564,0,0,1,.06378-1.13891A.76715.76715,0,0,1,10.41046,6.87769Z"/><polygon class="a" points="13.187 5.827 14.514 5.021 13.716 3.635 12.306 4.492 13.187 5.827"/><path class="b" d="M14.11517,4.32813a.81441.81441,0,0,1-.26428,1.09655.82862.82862,0,0,1-1.10437-.26513A.77492.77492,0,0,1,13.0108,4.063.78731.78731,0,0,1,14.11517,4.32813Z"/><path class="a" d="M17.01941,3.74536c.46106-.23718.96564-.37109,1.446-.56238l-.55163-1.50189c-.5108.20245-1.04559.34851-1.53626.59863Z"/><path class="b" d="M18.18964,2.432a.78986.78986,0,0,1-.45343,1.01745.83472.83472,0,0,1-1.03772-.43689A.77027.77027,0,0,1,17.13916,1.965.81026.81026,0,0,1,18.18964,2.432Z"/><path class="a" d="M21.1521,2.3606a11.23132,11.23132,0,0,1,1.51453-.33448L22.3786.45227a12.33778,12.33778,0,0,0-1.6095.35486Z"/><path class="b" d="M22.52258,1.2392a.80919.80919,0,0,1-.61871.92749.78128.78128,0,0,1-.9433-.58283A.81869.81869,0,0,1,21.5683.60223.79208.79208,0,0,1,22.52258,1.2392Z"/><polygon class="a" points="25.456 1.679 27.008 1.6 26.989 0 25.341 0.083 25.456 1.679"/><path class="b" d="M26.99823.79993a.83008.83008,0,0,1-.76617.83966A.81262.81262,0,0,1,25.3988.88068.78912.78912,0,0,1,26.165.041.77365.77365,0,0,1,26.99823.79993Z"/><path class="a" d="M29.81921,1.70978c.51459.05115,1.02411.14978,1.53656.22156L31.605.35089C31.06079.27405,30.519.17133,29.9726.11713Z"/><path class="b" d="M31.48041,1.14111a.796.796,0,0,1-.89221.67285.84558.84558,0,0,1-.69226-.90051.7607.7607,0,0,1,.89361-.68677A.80441.80441,0,0,1,31.48041,1.14111Z"/><path class="a" d="M34.10388,2.51752a10.13268,10.13268,0,0,1,1.4845.44867l.51434-1.51514A11.18082,11.18082,0,0,0,34.52515.97394Z"/><path class="b" d="M35.84552,2.20862a.79068.79068,0,0,1-.98956.50152.77648.77648,0,0,1-.54145-.96441A.82314.82314,0,0,1,35.324,1.18011.80911.80911,0,0,1,35.84552,2.20862Z"/><polygon class="a" points="38.194 4.019 39.593 4.693 40.357 3.288 38.872 2.57 38.194 4.019"/><path class="b" d="M39.97485,3.9906a.84133.84133,0,0,1-1.08154.3656A.8.8,0,1,1,39.61475,2.928.76393.76393,0,0,1,39.97485,3.9906Z"/><polygon class="a" points="41.979 6.182 43.223 7.112 44.213 5.856 42.892 4.868 41.979 6.182"/><path class="b" d="M43.718,6.48425a.81669.81669,0,0,1-1.11737.16333.826.826,0,0,1-.1651-1.12231.777.777,0,0,1,1.11743-.16333A.78524.78524,0,0,1,43.718,6.48425Z"/><path class="a" d="M45.34058,8.96259c.3797.3518.70446.75842,1.05993,1.13439L47.5882,9.0249c-.3769-.39978-.72388-.82953-1.12635-1.20367Z"/><path class="b" d="M46.99432,9.561a.7945.7945,0,0,1-1.116-.03894.84267.84267,0,0,1,.02295-1.13012.76364.76364,0,0,1,1.13208.02288A.80585.80585,0,0,1,46.99432,9.561Z"/><polygon class="a" points="48.17 12.281 48.636 12.902 49.041 13.565 50.392 12.708 49.961 12.005 49.468 11.344 48.17 12.281"/><path class="b" d="M49.71655,13.13666a.80067.80067,0,0,1-.89758-1.324.80061.80061,0,1,1,.89758,1.324Z"/><path class="a" d="M50.40961,16.01978c.21881.46881.46234.92712.66211,1.40393l1.47693-.6153c-.21222-.50671-.46906-.99451-.70215-1.49237Z"/><path class="b" d="M51.81018,17.11609a.84408.84408,0,0,1-1.06341-.39691.8.8,0,1,1,1.45758-.65985A.762.762,0,0,1,51.81018,17.11609Z"/><polygon class="a" points="51.997 20.078 52.384 21.582 53.944 21.227 53.533 19.629 51.997 20.078"/><path class="b" d="M53.16376,21.40485a.80071.80071,0,0,1-.39881-1.551.80071.80071,0,0,1,.39881,1.551Z"/><path class="a" d="M52.863,24.35248c.09271.51019.06939,1.03265.11059,1.54828l1.59766-.08649c-.04291-.54761-.02228-1.10132-.11865-1.64368Z"/><path class="b" d="M53.77246,25.85748a.78757.78757,0,0,1-.83758-.7326.83528.83528,0,0,1,.723-.86334.7697.7697,0,0,1,.8714.72918A.8124.8124,0,0,1,53.77246,25.85748Z"/><path class="c" d="M14.35337,46.083c-1.91172-1.1583-1.97451-2.66286-.16661-3.99961.28541-.211.57761-.4133.85716-.6318a11.421,11.421,0,0,0,3.6905-4.824,11.22439,11.22439,0,0,0,.77263-4.64826,16.82606,16.82606,0,0,1,.84187-4.39958c.44072-1.93768.94071-3.86182,1.40562-5.79409a3.027,3.027,0,0,1,4.82918-2.03688Q32.5245,23.357,38.43848,27.00936a2.06427,2.06427,0,0,1,.86442,2.86681,2.02642,2.02642,0,0,1-2.9372.571c-2.79731-1.69612-5.58166-3.41358-8.37157-5.12188-.22928-.14039-.46126-.27635-.75915-.45455-.57677,2.34338-1.12533,4.63326-1.71458,6.91262-.11238.43471.13467.58793.37725.799a30.40582,30.40582,0,0,1,7.70168,10.1874c.77207,1.65621.20368,2.80166-1.58008,3.18864-.03486.00757-.05529.08156-.08246.12456h-.32866a3.88608,3.88608,0,0,1-1.9728-2.217,25.52444,25.52444,0,0,0-5.80978-7.74486c-.16261-.151-.29447-.38733-.61851-.36606A15.63129,15.63129,0,0,1,15.33936,46.083Z"/><path class="c" d="M27.00686,9.10848a4.90694,4.90694,0,0,1,2.80717,1.818,4.25928,4.25928,0,0,1-.0693,5.04374,4.26973,4.26973,0,0,1-7.67835-2.9285A4.25733,4.25733,0,0,1,25.1939,9.27253c.12282-.03521.28.00825.334-.164Z"/><path class="c" d="M40.9358,23.42029a3.30373,3.30373,0,1,1,3.31192-3.3258A3.28515,3.28515,0,0,1,40.9358,23.42029Z"/></svg>