<svg xmlns="http://www.w3.org/2000/svg" viewBox="0 0 54.61945 54.66095"><defs><style>.a{fill:none;}.b,.c{fill:#fff;}.b{fill-rule:evenodd;}</style></defs><title>trips</title><path class="a" d="M53.02179,28.73743a15.5149,15.5149,0,0,1-.11066,1.54968l1.5896.18188c.0965-.54284.07581-1.097.11872-1.64514Z"/><path class="b" d="M53.70593,30.37805a.83574.83574,0,0,1-.7229-.86413.78791.78791,0,0,1,.83759-.73328.81274.81274,0,0,1,.75677.86743A.77008.77008,0,0,1,53.70593,30.37805Z"/><polygon class="a" points="52.431 33.06 52.044 34.565 53.58 35.014 53.991 33.415 52.431 33.06"/><path class="b" d="M52.81219,34.78967a.80144.80144,0,0,1,.39917-1.55237.80144.80144,0,0,1-.39917,1.55237Z"/><path class="a" d="M51.11816,37.22229c-.2.47729-.44378.936-.66278,1.40527l1.43689.70386c.23328-.49841.49042-.98657.70282-1.49377Z"/><path class="b" d="M51.17383,38.97949a.79786.79786,0,0,1-.381-1.052A.84449.84449,0,0,1,51.85663,37.53a.7624.7624,0,0,1,.39386,1.05737A.80342.80342,0,0,1,51.17383,38.97949Z"/><polygon class="a" points="49.085 41.085 48.68 41.748 48.214 42.37 49.511 43.307 50.005 42.645 50.437 41.941 49.085 41.085"/><path class="b" d="M48.86267,42.83826a.80146.80146,0,0,1,.89838-1.32526.80133.80133,0,1,1-.89838,1.32526Z"/><path class="a" d="M46.4425,44.556c-.35577.37634-.68084.78332-1.06085,1.13544l1.12122,1.14141c.40289-.37451.75012-.80468,1.12738-1.20477Z"/><path class="b" d="M45.94226,46.26208a.843.843,0,0,1-.0224-1.13061.79481.79481,0,0,1,1.11652-.03949.8062.8062,0,0,1,.03845,1.14673A.764.764,0,0,1,45.94226,46.26208Z"/><polygon class="a" points="43.262 47.543 42.017 48.474 42.93 49.788 44.252 48.8 43.262 47.543"/><path class="b" d="M42.47339,49.13135a.82652.82652,0,0,1,.16565-1.12281.8172.8172,0,0,1,1.118.16291.78568.78568,0,0,1-.16565,1.1228A.77731.77731,0,0,1,42.47339,49.13135Z"/><polygon class="a" points="39.628 49.965 38.228 50.639 38.906 52.089 40.393 51.37 39.628 49.965"/><path class="b" d="M38.567,51.364a.8028.8028,0,0,1,.36132-1.06189.84174.84174,0,0,1,1.08216.3653.76429.76429,0,0,1-.36078,1.06287A.79871.79871,0,0,1,38.567,51.364Z"/><path class="a" d="M35.6203,51.69348a10.157,10.157,0,0,1-1.486.4491l.42126,1.54352a11.18183,11.18183,0,0,0,1.579-.47754Z"/><path class="b" d="M34.345,52.91431a.77683.77683,0,0,1,.54218-.96454.791.791,0,0,1,.99029.50128.80946.80946,0,0,1-.52228,1.02869A.82354.82354,0,0,1,34.345,52.91431Z"/><path class="a" d="M31.38367,52.72925c-.51288.0719-1.02289.17059-1.538.2218l.15344,1.59259c.54694-.0542,1.08918-.157,1.63392-.234Z"/><path class="b" d="M29.92236,53.74738a.84609.84609,0,0,1,.693-.90064.79632.79632,0,0,1,.89294.67273.80475.80475,0,0,1-.69153.91455A.76112.76112,0,0,1,29.92236,53.74738Z"/><polygon class="a" points="27.032 53.061 25.479 52.982 25.364 54.578 27.012 54.661 27.032 53.061"/><path class="b" d="M25.4212,53.78015a.8129.8129,0,0,1,.834-.75885.83035.83035,0,0,1,.76684.83972.774.774,0,0,1-.834.75885A.78948.78948,0,0,1,25.4212,53.78015Z"/><path class="a" d="M22.6864,52.6344a11.2437,11.2437,0,0,1-1.516-.33478l-.383,1.55347a12.34876,12.34876,0,0,0,1.611.35516Z"/><path class="b" d="M20.97894,53.07635a.78153.78153,0,0,1,.944-.58264.80961.80961,0,0,1,.61945.92762.79242.79242,0,0,1-.955.63678A.819.819,0,0,1,20.97894,53.07635Z"/><path class="a" d="M18.48126,51.47644c-.48083-.19147-.9859-.3255-1.44739-.56287L16.392,52.37915c.49109.25037,1.0263.39655,1.53766.59924Z"/><path class="b" d="M16.713,51.64636a.83514.83514,0,0,1,1.03839-.43664.79024.79024,0,0,1,.4541,1.0177.81052.81052,0,0,1-1.05114.46673A.77056.77056,0,0,1,16.713,51.64636Z"/><polygon class="a" points="14.527 49.636 13.198 48.83 12.317 50.165 13.728 51.023 14.527 49.636"/><path class="b" d="M12.75745,49.49738a.82891.82891,0,0,1,1.105-.26471.81486.81486,0,0,1,.26489,1.09692.78771.78771,0,0,1-1.105.26477A.7752.7752,0,0,1,12.75745,49.49738Z"/><polygon class="a" points="10.93 47.162 9.78 46.115 8.686 47.284 9.909 48.394 10.93 47.162"/><path class="b" d="M9.233,46.69965a.80588.80588,0,0,1,1.12183-.06128.83792.83792,0,0,1,.06433,1.13934.76743.76743,0,0,1-1.12183.06134A.796.796,0,0,1,9.233,46.69965Z"/><path class="a" d="M7.82666,44.08917a12.01525,12.01525,0,0,1-.96893-1.21393l-1.27393.968A13.16952,13.16952,0,0,0,6.61316,45.132Z"/><path class="b" d="M6.22076,43.35925a.7838.7838,0,0,1,1.102.13886.813.813,0,0,1-.1029,1.11242.78952.78952,0,0,1-1.1413-.1065A.81669.81669,0,0,1,6.22076,43.35925Z"/><path class="a" d="M5.28094,40.54529a12.6611,12.6611,0,0,1-.769-1.34912l-1.41913.73889A13.86569,13.86569,0,0,0,3.909,41.36865Z"/><path class="b" d="M3.80237,39.56567a.82153.82153,0,0,1,1.07458.31568A.78608.78608,0,0,1,4.595,40.957a.81462.81462,0,0,1-1.1142-.29419A.78189.78189,0,0,1,3.80237,39.56567Z"/><polygon class="a" points="3.359 36.63 2.825 35.17 1.301 35.657 1.868 37.208 3.359 36.63"/><path class="b" d="M2.06268,35.41382a.83385.83385,0,0,1,1.02979.48608.81069.81069,0,0,1-.47888,1.01917A.79165.79165,0,0,1,1.58386,36.433.77119.77119,0,0,1,2.06268,35.41382Z"/><polygon class="a" points="2.112 32.448 1.878 30.911 0.294 31.132 0.544 32.764 2.112 32.448"/><path class="b" d="M1.08606,31.02112a.80448.80448,0,0,1,.90955.658.84.84,0,0,1-.66773.92663.76581.76581,0,0,1-.90955-.658A.79741.79741,0,0,1,1.08606,31.02112Z"/><polygon class="a" points="1.64 28.107 1.6 27.33 1.64 26.554 0.041 26.506 0 27.33 0.041 28.155 1.64 28.107"/><path class="b" d="M.84039,26.53a.80151.80151,0,0,1,0,1.60083.80137.80137,0,1,1,0-1.60083Z"/><polygon class="a" points="1.878 23.75 2.112 22.213 0.544 21.897 0.294 23.529 1.878 23.75"/><path class="b" d="M1.32788,22.05518a.84.84,0,0,1,.66773.92663.8.8,0,1,1-1.57728-.26868A.76589.76589,0,0,1,1.32788,22.05518Z"/><polygon class="a" points="2.825 19.49 3.359 18.031 1.868 17.453 1.301 19.004 2.825 19.49"/><path class="b" d="M2.61359,17.74182A.81069.81069,0,0,1,3.09247,18.761a.83385.83385,0,0,1-1.02979.48608.77111.77111,0,0,1-.47882-1.019A.79161.79161,0,0,1,2.61359,17.74182Z"/><path class="a" d="M4.5119,15.46472a12.65913,12.65913,0,0,1,.769-1.34912L3.909,13.29224a13.86465,13.86465,0,0,0-.81623,1.43359Z"/><path class="b" d="M4.595,13.70386a.7862.7862,0,0,1,.282,1.0758.82177.82177,0,0,1-1.07458.31568.782.782,0,0,1-.3216-1.09729A.81462.81462,0,0,1,4.595,13.70386Z"/><path class="a" d="M6.85773,11.78564a12.00882,12.00882,0,0,1,.96893-1.21386L6.61316,9.52893a13.17667,13.17667,0,0,0-1.02936,1.2887Z"/><path class="b" d="M7.21991,10.05042a.81281.81281,0,0,1,.1029,1.1123.78371.78371,0,0,1-1.102.13892.81674.81674,0,0,1-.14221-1.14478A.78958.78958,0,0,1,7.21991,10.05042Z"/><polygon class="a" points="9.78 8.545 10.93 7.499 9.909 6.267 8.686 7.377 9.78 8.545"/><path class="b" d="M10.41919,6.88318a.83806.83806,0,0,1-.06433,1.1394A.80588.80588,0,0,1,9.233,7.9613a.79591.79591,0,0,1,.06433-1.1394A.76742.76742,0,0,1,10.41919,6.88318Z"/><polygon class="a" points="13.198 5.831 14.527 5.025 13.728 3.638 12.317 4.496 13.198 5.831"/><path class="b" d="M14.12732,4.3313a.81486.81486,0,0,1-.26489,1.09692.829.829,0,0,1-1.105-.26465.77537.77537,0,0,1,.26489-1.097A.78781.78781,0,0,1,14.12732,4.3313Z"/><path class="a" d="M17.03387,3.74731c.46149-.2373.96656-.37133,1.44739-.56286L17.92963,1.6825c-.5113.20275-1.04651.34887-1.5376.59924Z"/><path class="b" d="M18.20544,2.43347a.79022.79022,0,0,1-.4541,1.0177A.83514.83514,0,0,1,16.713,3.01453.77048.77048,0,0,1,17.1543,1.9668.81048.81048,0,0,1,18.20544,2.43347Z"/><path class="a" d="M21.17041,2.36133a11.24389,11.24389,0,0,1,1.516-.33484L22.39832.45264a12.34044,12.34044,0,0,0-1.61091.35522Z"/><path class="b" d="M22.54236,1.23962a.80967.80967,0,0,1-.61945.92762.78157.78157,0,0,1-.944-.58265.819.819,0,0,1,.6084-.98181A.79244.79244,0,0,1,22.54236,1.23962Z"/><polygon class="a" points="25.479 1.679 27.032 1.6 27.012 0 25.364 0.083 25.479 1.679"/><path class="b" d="M27.022.79993a.83047.83047,0,0,1-.76684.83972.81292.81292,0,0,1-.834-.75891A.78951.78951,0,0,1,26.18805.041.774.774,0,0,1,27.022.79993Z"/><path class="a" d="M29.84564,1.70984c.51514.05127,1.02515.1499,1.538.2218L31.633.3512c-.54474-.07691-1.087-.17969-1.63392-.234Z"/><path class="b" d="M31.5083,1.14148a.79645.79645,0,0,1-.89294.67273.84613.84613,0,0,1-.693-.90064.76108.76108,0,0,1,.89441-.68664A.80468.80468,0,0,1,31.5083,1.14148Z"/><path class="a" d="M34.13434,2.51831a10.16662,10.16662,0,0,1,1.486.4491l.51428-1.515a11.15822,11.15822,0,0,0-1.579-.47754Z"/><path class="b" d="M35.87744,2.20984a.791.791,0,0,1-.99029.50134.77692.77692,0,0,1-.54218-.9646.82358.82358,0,0,1,1.01019-.56543A.80953.80953,0,0,1,35.87744,2.20984Z"/><polygon class="a" points="38.228 4.022 39.628 4.696 40.393 3.291 38.906 2.572 38.228 4.022"/><path class="b" d="M40.0105,3.99353a.84169.84169,0,0,1-1.08222.36523.8.8,0,1,1,.72144-1.4281A.76426.76426,0,0,1,40.0105,3.99353Z"/><polygon class="a" points="42.017 6.186 43.262 7.118 44.252 5.861 42.93 4.873 42.017 6.186"/><path class="b" d="M43.757,6.4895a.81718.81718,0,0,1-1.118.16284.8265.8265,0,0,1-.16565-1.1228.77725.77725,0,0,1,1.118-.16284A.78567.78567,0,0,1,43.757,6.4895Z"/><path class="a" d="M45.38165,8.96948c.38.35218.70508.75916,1.06085,1.1355l1.18775-1.07214c-.37726-.4-.72455-.8302-1.12738-1.20471Z"/><path class="b" d="M47.03638,9.569a.79486.79486,0,0,1-1.11652-.03955.843.843,0,0,1,.0224-1.13062.76393.76393,0,0,1,1.13257.02344A.80621.80621,0,0,1,47.03638,9.569Z"/><polygon class="a" points="48.214 12.291 48.68 12.913 49.085 13.576 50.437 12.719 50.005 12.016 49.511 11.354 48.214 12.291"/><path class="b" d="M49.76105,13.14783a.80143.80143,0,0,1-.89838-1.3252.80131.80131,0,1,1,.89838,1.3252Z"/><path class="a" d="M50.45538,16.03333c.219.46923.46277.928.66278,1.40527l1.47693-.61536c-.2124-.50708-.46954-.99536-.70282-1.49365Z"/><path class="b" d="M51.85663,17.13086a.84447.84447,0,0,1-1.06378-.39746.8.8,0,1,1,1.45758-.65991A.76233.76233,0,0,1,51.85663,17.13086Z"/><polygon class="a" points="52.044 20.096 52.431 21.601 53.991 21.246 53.58 19.647 52.044 20.096"/><path class="b" d="M53.21136,21.42358a.80143.80143,0,0,1-.39917-1.55236.80143.80143,0,0,1,.39917,1.55236Z"/><path class="a" d="M52.91113,24.37378a15.53535,15.53535,0,0,1,.11066,1.54968l1.59766-.08642c-.04291-.5481-.02222-1.1023-.11872-1.64515Z"/><path class="b" d="M53.82062,25.88025A.78791.78791,0,0,1,52.983,25.147a.83574.83574,0,0,1,.7229-.86413.77008.77008,0,0,1,.87146.73A.81275.81275,0,0,1,53.82062,25.88025Z"/><path class="c" d="M31.96111,43.53505c-.60377.39382-1.12.78382-1.68379,1.08487a1.66343,1.66343,0,0,1-2.10317-.54042c-.77245-1.09856-1.52642-2.21012-2.2974-3.30974-.61655-.87936-1.24681-1.74911-1.93029-2.70616-.608,1.08943-1.19071,2.14449-1.78416,3.19344q-.86617,1.531-1.75136,3.05129a.60368.60368,0,0,1-.86134.2532.53853.53853,0,0,1-.15283-.80819q1.14255-2.02764,2.29793-4.04805c.45682-.79872.93424-1.58587,1.37756-2.39188a.55807.55807,0,0,0-.007-.48246c-.94379-1.4065-1.90493-2.80142-2.86822-4.19475-.49214-.71185-.99447-1.41673-1.49862-2.12015-.1937-.27026-.40168-.53057-.60951-.79032a2.35592,2.35592,0,0,1-.55084-1.51012c-.00341-3.31889.01645-6.63817-.03073-9.95648a2.141,2.141,0,0,1,2.4002-2.09764,2.35832,2.35832,0,0,1,1.54239.75953c1.29034,1.28447,2.61249,2.53708,3.92772,3.79639a15.26534,15.26534,0,0,0,1.18676,1.06117,1.5496,1.5496,0,0,0,.68588.24983c1.2455.20152,2.49652.36948,3.74069.57848a.62187.62187,0,0,0,.78768-.39172c.27265-.57006.69864-.59079,1.04532-.07772a.42755.42755,0,0,1,.013.37112,1.748,1.748,0,0,0-.34039,1.42991,1.37541,1.37541,0,0,1-.98707,1.48355,1.165,1.165,0,0,0-.58134.45861c-.4934.83235-.93714,1.694-1.41126,2.538q-.97491,1.73554-1.968,3.4609c-.50616.88382-1.01446,1.76654-1.53364,2.64274a.44343.44343,0,0,0,.009.56158c1.03223,1.48114,2.0453,2.97563,3.07071,4.46156q.86925,1.25963,1.7587,2.50526C31.19243,42.52517,31.55038,42.986,31.96111,43.53505Zm-1.998-18.18748a1.50173,1.50173,0,0,0-.24-.08721c-.99808-.149-1.99755-.28878-2.99485-.44273a3.21078,3.21078,0,0,1-2.08985-.84048c-.77876-.84245-1.64093-1.60785-2.46885-2.40471a1.19738,1.19738,0,0,0-.16884-.11185,1.29664,1.29664,0,0,0-.02518.16164q-.00021,3.73227.00752,7.46452a.73714.73714,0,0,0,.139.38169q1.44249,2.11547,2.89842,4.22174a.8057.8057,0,0,0,.1015.08944Z"/><path class="c" d="M39.87821,42.88126v1.75606c-.49731,0-.97177.01482-1.44348-.01459-.07865-.0049-.20187-.19927-.20762-.31108-.02365-.4596-.0099-.92114-.0099-1.43039h-.61656c-1.33613,0-2.67257.014-4.00809-.01454a1.12652,1.12652,0,0,1-.61894-.318c-.20972-.182-.03535-.38433.06751-.56529.513-.90253,1.0153-1.8114,1.5432-2.70513.34429-.58288.72588-1.14374,1.14135-1.79359-.45008,0-.79518.00907-1.13961-.00215a.53013.53013,0,0,1-.49083-.843c.78485-1.35462,1.58559-2.7001,2.38987-4.04333.1755-.2931.39125-.56212.65354-.93466-.33943,0-.56933.00065-.79923-.00012-.65941-.00219-.87917-.37874-.53917-.9568.32449-.55171.68313-1.0833,1.00969-1.63385.37957-.63993.7336-1.295,1.11237-1.93539.21135-.35736.44035-.70543.67948-1.04494a.55864.55864,0,0,1,1.03388.04322c.7242,1.21206,1.43929,2.42958,2.1662,3.64.20658.344.4506.66538.66062,1.00747.2878.46878.06238.87079-.48419.87954-.26316.00421-.52645.00073-.89727.00073.40417.64261.76878,1.21155,1.12189,1.78754.23456.3826.44665.77894.67953,1.16261.3979.65555.79887,1.30937,1.20881,1.95743.2935.464.106.8678-.45314.90919-.33521.0248-.67376.00455-1.09454.00455.08417.16166.13812.27814.20308.38812q1.2063,2.04207,2.41562,4.08236c.30736.51866.08874.92395-.51348.92622-1.4205.00534-2.841.00176-4.26156.00178C40.23533,42.88127,40.08342,42.88126,39.87821,42.88126Z"/><path class="c" d="M10.98406,44.73256c-.42766-.46191-.89875-.89923-1.28237-1.40313a1.52269,1.52269,0,0,1,.21282-2.06558c.912-.80283,1.87274-1.55,2.80594-2.329a14.67412,14.67412,0,0,1,1.41-1.19962,2.69736,2.69736,0,0,0,1.0652-1.5791c.30055-.88817.63214-1.76649.97332-2.64009.46079-1.17987.94328-2.35127,1.43241-3.56588.26494.32829.54735.64229.78882.98512.46052.65383.8873,1.3315,1.3503,1.9835a.62119.62119,0,0,1,.06857.65637c-.49763,1.32378-.96979,2.65712-1.46666,3.98119A5.78825,5.78825,0,0,1,16.225,40.36225c-1.16142.82358-2.18917,1.83495-3.28136,2.75719C12.3246,43.64212,11.693,44.14987,10.98406,44.73256Z"/><path class="c" d="M19.74153,15.47369a2.80721,2.80721,0,1,1-.09886-5.60961,2.91854,2.91854,0,0,1,3.02668,2.65276A2.8831,2.8831,0,0,1,19.74153,15.47369Z"/><path class="c" d="M12.515,19.02637c0-.56161-.00516-1.12329.0012-1.68483a2.0665,2.0665,0,0,1,1.1356-1.95092,2.19907,2.19907,0,0,1,2.35128.17075,1.90472,1.90472,0,0,1,.84721,1.71636c.02033,2.33085.06935,4.66145.10415,6.99219a16.45435,16.45435,0,0,1-.00276,1.67917,1.88833,1.88833,0,0,1-1.76043,1.64319,2.00821,2.00821,0,0,1-2.46179-2.14934c-.01949-1.22186-.01143-2.44453-.05309-3.66556-.03128-.91677-.1221-1.83152-.18642-2.74716Zm3.57023,5.41794-.065.00067c0-.81339.0091-1.62689-.00193-2.44013-.02187-1.61373-.05288-3.22734-.08429-4.84092a1.10306,1.10306,0,0,0-.73735-1.11141c-.992-.38091-1.80944.26691-1.78731,1.40759.03239,1.66979.05662,3.33975.0855,5.00961.0182,1.05244.03059,2.10507.06062,3.15719a1.14628,1.14628,0,0,0,1.30928,1.15894,1.13176,1.13176,0,0,0,1.21871-1.16175C16.09319,25.23106,16.08526,24.83759,16.08526,24.44431Z"/></svg>