<svg xmlns="http://www.w3.org/2000/svg" viewBox="0 0 54.55731 54.59875"><defs><style>.a,.c{fill:#fff;}.b{fill:none;}.c{fill-rule:evenodd;}</style></defs><title>workshops</title><path class="a" d="M43.45875,9.70712q.00156,9.67713.00248,19.35425c0,.55317-.00417.55934-.50959.55947q-6.55218.00166-13.10438-.00151a.37538.37538,0,0,1-.25794-.11087,4.42546,4.42546,0,0,0,.5209-.30914,7.60037,7.60037,0,0,0,1.10985-.94555.98582.98582,0,0,1,.84751-.38545c2.93446.01227,5.869.00687,8.80348.00689a2.53692,2.53692,0,0,1,.33571.00263c.36212.04876.50005-.06382.49905-.46573q-.01924-7.72821.00155-15.45649c.00088-.37486-.09866-.509-.48508-.49542-.76069.02673-1.523.008-2.2846.008l-25.5369,0c-.1344,0-.2693.00761-.40308-.00151-.24115-.01645-.31353.10874-.30359.32612.00716.15641-.002.31351-.002.4703q-.00026,8.3331-.00009,16.66619a1.88816,1.88816,0,0,1-.01034.46763c-.02331.08869-.14881.15167-.23168.22235-.013.01109-.04351.00237-.06589.00169q-.6972-.0213-1.39439-.04292c-.02023-.44105-.05786-.88208-.05806-1.32314q-.00408-9.2739.0008-18.54782Z"/><path class="a" d="M22.377,28.5096c0,.71266-.01105,1.33089.005,1.94842.00721.27742-.059.38478-.36661.38318q-3.83038-.01985-7.66091-.00173c-.304.00142-.37076-.10141-.36888-.38046.01118-1.65751-.01819-3.31565.01671-4.97252A2.27135,2.27135,0,0,1,16.25275,23.269c1.47792-.02618,2.9568-.01563,4.435.00055a2.85761,2.85761,0,0,1,1.83216.72951c.83962.70432,1.69155,1.39407,2.52583,2.10459a.5.5,0,0,0,.69333.08367c.627-.38817,1.28963-.71812,1.92624-1.09141a1.94379,1.94379,0,0,1,1.91054-.1986c.2936.1389.47086-.0432.66885-.165q3.17155-1.951,6.33661-3.91259c.22823-.141.46244-.27231.69006-.41424.25429-.15857.51735-.23343.69083.07725.154.27586-.03914.46387-.26131.6034q-.90918.571-1.82391,1.13318c-1.75378,1.07412-3.50089,2.15966-5.27252,3.20357-.28757.16944-.16213.30368-.1148.46966a1.71638,1.71638,0,0,1-.3674,1.75122,2.4471,2.4471,0,0,1-.583.44049c-1.361.77216-2.73642,1.51941-4.08808,2.30747a.647.647,0,0,1-.88141-.09753c-.603-.53321-1.22835-1.04131-1.84692-1.55683C22.64381,28.67145,22.55033,28.62277,22.377,28.5096Z"/><path class="a" d="M27.214,44.88353q-2.25,0-4.5-.00109c-.49591-.001-.51794-.00761-.49874-.51278a18.36321,18.36321,0,0,1,.151-2.13233,3.02376,3.02376,0,0,1,1.50559-1.9021c.82846-.59734,1.785-.40248,2.69123-.46221.81779-.05391,1.64681.07108,2.46587.02605a3.15632,3.15632,0,0,1,2.96362,2.16618,8.35,8.35,0,0,1,.17566,2.5985c.00066.07178-.20647.20494-.3202.20849-.671.02088-1.343.01231-2.01459.0127q-1.30971.00077-2.61943.00013Z"/><path class="a" d="M38.48586,44.885c-1.43245,0-2.86493.005-4.29735-.00193-.823-.004-.681.08258-.69966-.72729-.0062-.26844.01425-.53807-.00262-.80557a3.29909,3.29909,0,0,1,1.17182-2.72187,2.66642,2.66642,0,0,1,1.77347-.69687q2.14116-.03469,4.28338.0107a3.00342,3.00342,0,0,1,2.59671,2.32854c.10324.70351.09132,1.42324.15453,2.13359.03391.381-.09827.4926-.48162.48713-1.49929-.0214-2.99906-.00873-4.49866-.00873Z"/><path class="a" d="M15.9,44.88486c-1.4779,0-2.9558.00277-4.43368-.00148-.53229-.00153-.54618-.00952-.53509-.555.01181-.58008.02152-1.16329.08839-1.73859a3.22878,3.22878,0,0,1,3.41875-2.69909c.83962.064,1.69-.02382,2.53563-.02524a4.21923,4.21923,0,0,1,2.20155.39217,3.14815,3.14815,0,0,1,1.71759,2.6978c.01222.47.01168.94036.00941,1.41052-.00244.5062-.00629.51258-.50177.51367-1.50026.00331-3.00052.0012-4.50078.0012Z"/><path class="a" d="M22.6858,18.60252a3.66852,3.66852,0,1,1-3.52434-3.77883A3.61114,3.61114,0,0,1,22.6858,18.60252Z"/><path class="a" d="M15.96558,32.12857a3.37017,3.37017,0,1,1-3.42474,3.35706A3.344,3.344,0,0,1,15.96558,32.12857Z"/><path class="a" d="M30.569,35.4602a3.37608,3.37608,0,1,1-6.752.04593,3.37606,3.37606,0,1,1,6.752-.04593Z"/><path class="a" d="M38.48262,32.12882a3.33037,3.33037,0,0,1,3.37668,3.34312A3.56373,3.56373,0,0,1,38.463,38.86655a3.394,3.394,0,0,1-3.374-3.362A3.33049,3.33049,0,0,1,38.48262,32.12882Z"/><path class="b" d="M52.95966,28.70459a15.51576,15.51576,0,0,1-.11054,1.54785l1.5896.18189c.09638-.54218.07575-1.09583.11859-1.64325Z"/><path class="c" d="M53.64392,30.34338a.83513.83513,0,0,1-.723-.86309.78744.78744,0,0,1,.83752-.73243.81234.81234,0,0,1,.75684.86652A.76961.76961,0,0,1,53.64392,30.34338Z"/><polygon class="b" points="52.37 33.022 51.983 34.525 53.519 34.974 53.93 33.377 52.37 33.022"/><path class="c" d="M52.75128,34.74988a.80052.80052,0,0,1,.39868-1.5506.80052.80052,0,0,1-.39868,1.5506Z"/><path class="b" d="M51.05829,37.17932c-.19971.47669-.44318.93494-.66193,1.40357l1.43689.70373c.233-.49774.48987-.98541.702-1.492Z"/><path class="c" d="M51.11481,38.93475a.79737.79737,0,0,1-.38141-1.05108.844.844,0,0,1,1.06335-.39667.76191.76191,0,0,1,.39429,1.05652A.80292.80292,0,0,1,51.11481,38.93475Z"/><polygon class="b" points="49.028 41.037 48.623 41.699 48.158 42.321 49.455 43.257 49.948 42.596 50.379 41.894 49.028 41.037"/><path class="c" d="M48.80634,42.789a.80046.80046,0,0,1,.89733-1.32367.80042.80042,0,1,1-.89733,1.32367Z"/><path class="b" d="M46.38837,44.50409c-.35535.37585-.68006.78241-1.05963,1.134L46.45,46.77954c.40235-.37408.74921-.80371,1.126-1.20343Z"/><path class="c" d="M45.88934,46.20886a.84254.84254,0,0,1-.023-1.13.79434.79434,0,0,1,1.11585-.03876.80568.80568,0,0,1,.03912,1.146A.76355.76355,0,0,1,45.88934,46.20886Z"/><polygon class="b" points="43.211 47.488 41.968 48.418 42.881 49.732 44.202 48.744 43.211 47.488"/><path class="c" d="M42.42456,49.07477a.82608.82608,0,0,1,.16486-1.12226.81672.81672,0,0,1,1.11731.16346.78524.78524,0,0,1-.16492,1.12225A.777.777,0,0,1,42.42456,49.07477Z"/><polygon class="b" points="39.582 49.906 38.184 50.58 38.862 52.029 40.347 51.312 39.582 49.906"/><path class="c" d="M38.52271,51.30481a.80248.80248,0,0,1,.36053-1.06152.84127.84127,0,0,1,1.0813.36572.76381.76381,0,0,1-.35993,1.06244A.79833.79833,0,0,1,38.52271,51.30481Z"/><path class="b" d="M35.57916,51.633a10.1311,10.1311,0,0,1-1.48413.44848l.42127,1.54358a11.17569,11.17569,0,0,0,1.57721-.477Z"/><path class="c" d="M34.30566,52.85327a.77644.77644,0,0,1,.54132-.96435.7905.7905,0,0,1,.98932.50158A.809.809,0,0,1,35.315,53.419.82307.82307,0,0,1,34.30566,52.85327Z"/><path class="b" d="M31.34766,52.66748c-.51227.07178-1.02167.17041-1.53614.22156l.15345,1.59259c.54632-.0542,1.08795-.15686,1.632-.23371Z"/><path class="c" d="M29.88824,53.6853a.84556.84556,0,0,1,.69208-.90045.79591.79591,0,0,1,.892.67285.80432.80432,0,0,1-.69067.91443A.76066.76066,0,0,1,29.88824,53.6853Z"/><polygon class="b" points="27.001 52.999 25.45 52.92 25.335 54.516 26.982 54.599 27.001 52.999"/><path class="c" d="M25.39233,53.71808a.81252.81252,0,0,1,.83307-.75891.83.83,0,0,1,.76593.83966.77349.77349,0,0,1-.83307.75891A.789.789,0,0,1,25.39233,53.71808Z"/><path class="b" d="M22.661,52.57275a11.21518,11.21518,0,0,1-1.51416-.33441l-.383,1.55353a12.33363,12.33363,0,0,0,1.60907.35474Z"/><path class="c" d="M20.95526,53.01508a.78112.78112,0,0,1,.94312-.58283.80917.80917,0,0,1,.61853.92743.79193.79193,0,0,1-.9541.637A.81848.81848,0,0,1,20.95526,53.01508Z"/><path class="b" d="M18.46088,51.4162c-.48029-.19122-.98468-.32514-1.44562-.5622l-.64185,1.46564c.49054.25,1.02515.39606,1.53583.59851Z"/><path class="c" d="M16.69434,51.58679a.83457.83457,0,0,1,1.03753-.437.78978.78978,0,0,1,.45319,1.01734.81017.81017,0,0,1-1.05023.4671A.77014.77014,0,0,1,16.69434,51.58679Z"/><polygon class="b" points="14.511 49.578 13.184 48.773 12.303 50.108 13.712 50.965 14.511 49.578"/><path class="c" d="M12.74341,49.44037a.82852.82852,0,0,1,1.10419-.26526.81445.81445,0,0,1,.26409,1.0965.78723.78723,0,0,1-1.10418.26519A.7747.7747,0,0,1,12.74341,49.44037Z"/><polygon class="b" points="10.918 47.107 9.77 46.062 8.677 47.23 9.897 48.339 10.918 47.107"/><path class="c" d="M9.22314,46.64594a.80537.80537,0,0,1,1.12116-.062.83746.83746,0,0,1,.0636,1.13874.767.767,0,0,1-1.1211.06195A.79543.79543,0,0,1,9.22314,46.64594Z"/><path class="b" d="M7.81909,44.03784a12.00364,12.00364,0,0,1-.96771-1.21246l-1.27393.968a13.15694,13.15694,0,0,0,1.02814,1.28723Z"/><path class="c" d="M6.21442,43.30939a.78345.78345,0,0,1,1.1015.13812.81247.81247,0,0,1-.10358,1.11169.789.789,0,0,1-1.14068-.10577A.81626.81626,0,0,1,6.21442,43.30939Z"/><path class="b" d="M5.27649,40.49829a12.65544,12.65544,0,0,1-.76807-1.34753l-1.41919.73889a13.84909,13.84909,0,0,0,.81537,1.432Z"/><path class="c" d="M3.79883,39.5202a.82125.82125,0,0,1,1.07416.31488A.78561.78561,0,0,1,4.59052,40.91a.8141.8141,0,0,1-1.11371-.29339A.78154.78154,0,0,1,3.79883,39.5202Z"/><polygon class="b" points="3.357 36.587 2.823 35.13 1.299 35.617 1.866 37.166 3.357 36.587"/><path class="c" d="M2.06122,35.37329a.83325.83325,0,0,1,1.02942.48523.81008.81008,0,0,1-.47913,1.01825A.79122.79122,0,0,1,1.582,36.39154.77074.77074,0,0,1,2.06122,35.37329Z"/><polygon class="b" points="2.111 32.41 1.878 30.875 0.293 31.096 0.543 32.727 2.111 32.41"/><path class="c" d="M1.08569,30.98578a.80383.80383,0,0,1,.90943.657.83937.83937,0,0,1-.66785.92566.76535.76535,0,0,1-.90942-.65692A.7969.7969,0,0,1,1.08569,30.98578Z"/><polygon class="b" points="1.64 28.075 1.6 27.299 1.64 26.524 0.041 26.476 0 27.299 0.041 28.123 1.64 28.075"/><path class="c" d="M.84033,26.49994a.80051.80051,0,0,1,0,1.59894.80046.80046,0,1,1,0-1.59894Z"/><polygon class="b" points="1.878 23.723 2.111 22.188 0.543 21.872 0.293 23.503 1.878 23.723"/><path class="c" d="M1.32727,22.03033a.83948.83948,0,0,1,.66785.92572.8.8,0,1,1-1.57727-.26873A.76539.76539,0,0,1,1.32727,22.03033Z"/><polygon class="b" points="2.823 19.469 3.357 18.011 1.866 17.433 1.299 18.982 2.823 19.469"/><path class="c" d="M2.61151,17.72205a.81006.81006,0,0,1,.47913,1.01818.83314.83314,0,0,1-1.02942.48523A.77067.77067,0,0,1,1.582,18.20728.79117.79117,0,0,1,2.61151,17.72205Z"/><path class="b" d="M4.50842,15.44806a12.65741,12.65741,0,0,1,.76807-1.3476l-1.37189-.8233a13.8409,13.8409,0,0,0-.81537,1.432Z"/><path class="c" d="M4.59052,13.68884A.78558.78558,0,0,1,4.873,14.76373a.82128.82128,0,0,1-1.07416.31482.78148.78148,0,0,1-.322-1.09637A.81409.81409,0,0,1,4.59052,13.68884Z"/><path class="b" d="M6.85138,11.77338A11.99633,11.99633,0,0,1,7.81909,10.561L6.60559,9.51813a13.17124,13.17124,0,0,0-1.02814,1.28723Z"/><path class="c" d="M7.21234,10.03955a.81255.81255,0,0,1,.10358,1.1117.7834.7834,0,0,1-1.1015.13812.81626.81626,0,0,1-.14276-1.144A.78906.78906,0,0,1,7.21234,10.03955Z"/><polygon class="b" points="9.77 8.537 10.918 7.492 9.897 6.26 8.677 7.369 9.77 8.537"/><path class="c" d="M10.4079,6.8761a.83745.83745,0,0,1-.0636,1.13873.80543.80543,0,0,1-1.12116-.06195.79547.79547,0,0,1,.0636-1.13873A.767.767,0,0,1,10.4079,6.8761Z"/><polygon class="b" points="13.184 5.826 14.511 5.02 13.712 3.634 12.303 4.491 13.184 5.826"/><path class="c" d="M14.11169,4.32721a.81438.81438,0,0,1-.26409,1.09644.8285.8285,0,0,1-1.10419-.2652.77479.77479,0,0,1,.2641-1.0965A.78721.78721,0,0,1,14.11169,4.32721Z"/><path class="b" d="M17.01526,3.74481c.46094-.23712.96533-.371,1.44562-.56225l-.55164-1.5019c-.51068.20246-1.04535.34845-1.53583.59851Z"/><path class="c" d="M18.18506,2.43158A.78983.78983,0,0,1,17.73187,3.449a.83458.83458,0,0,1-1.03753-.437.77007.77007,0,0,1,.44049-1.04742A.81008.81008,0,0,1,18.18506,2.43158Z"/><path class="b" d="M21.14679,2.36041A11.22741,11.22741,0,0,1,22.661,2.026L22.37286.45215a12.33933,12.33933,0,0,0-1.60907.3548Z"/><path class="c" d="M22.51691,1.23907a.80925.80925,0,0,1-.61859.92749.78118.78118,0,0,1-.94306-.58288.8185.8185,0,0,1,.60748-.98157A.792.792,0,0,1,22.51691,1.23907Z"/><polygon class="b" points="25.45 1.679 27.001 1.6 26.982 0 25.335 0.083 25.45 1.679"/><path class="c" d="M26.99133.79993a.83.83,0,0,1-.76593.83966.81253.81253,0,0,1-.83307-.75891A.789.789,0,0,1,26.15826.041.77356.77356,0,0,1,26.99133.79993Z"/><path class="b" d="M29.81152,1.70978c.51447.05108,1.02387.14972,1.53614.22149L31.597.35083C31.05286.274,30.51123.17133,29.965.11713Z"/><path class="c" d="M31.47235,1.141a.79586.79586,0,0,1-.892.67285.84551.84551,0,0,1-.69208-.90045.76066.76066,0,0,1,.89344-.68683A.80436.80436,0,0,1,31.47235,1.141Z"/><path class="b" d="M34.095,2.51727a10.13357,10.13357,0,0,1,1.48413.44855l.51435-1.51508a11.17592,11.17592,0,0,0-1.57721-.477Z"/><path class="c" d="M35.8363,2.20825a.79055.79055,0,0,1-.98938.50159.77641.77641,0,0,1-.54126-.96436.82313.82313,0,0,1,1.00928-.56567A.809.809,0,0,1,35.8363,2.20825Z"/><polygon class="b" points="38.184 4.019 39.582 4.693 40.347 3.287 38.862 2.569 38.184 4.019"/><path class="c" d="M39.96454,3.98981a.84124.84124,0,0,1-1.08136.36566.8.8,0,1,1,.72143-1.42816A.76387.76387,0,0,1,39.96454,3.98981Z"/><polygon class="b" points="41.968 6.181 43.211 7.111 44.202 5.855 42.881 4.867 41.968 6.181"/><path class="c" d="M43.70667,6.48279a.81663.81663,0,0,1-1.11725.16345.826.826,0,0,1-.16486-1.12219.77692.77692,0,0,1,1.11725-.16352A.78525.78525,0,0,1,43.70667,6.48279Z"/><path class="b" d="M45.32874,8.96063c.37957.35169.70422.75818,1.05957,1.1341l1.18774-1.07209c-.37683-.39965-.72369-.82934-1.1261-1.20343Z"/><path class="c" d="M46.98218,9.55865a.79434.79434,0,0,1-1.11585-.03875.84247.84247,0,0,1,.023-1.12995.76359.76359,0,0,1,1.132.02271A.80567.80567,0,0,1,46.98218,9.55865Z"/><polygon class="b" points="48.158 12.278 48.623 12.899 49.028 13.562 50.379 12.705 49.948 12.002 49.455 11.341 48.158 12.278"/><path class="c" d="M49.70367,13.13342a.80046.80046,0,0,1-.89733-1.32367.80042.80042,0,1,1,.89733,1.32367Z"/><path class="b" d="M50.39636,16.01587c.21875.46869.46222.92688.66193,1.40356l1.477-.61529c-.21222-.50659-.469-.99426-.702-1.492Z"/><path class="c" d="M51.79675,17.11182a.844.844,0,0,1-1.06335-.39673A.8.8,0,1,1,52.191,16.0553.762.762,0,0,1,51.79675,17.11182Z"/><polygon class="b" points="51.983 20.073 52.37 21.577 53.93 21.222 53.519 19.624 51.983 20.073"/><path class="c" d="M53.15,21.39948a.80052.80052,0,0,1-.39868-1.5506.80052.80052,0,0,1,.39868,1.5506Z"/><path class="b" d="M52.84912,24.34631a15.51575,15.51575,0,0,1,.11054,1.54786l1.59765-.08649c-.04284-.54743-.02221-1.101-.11859-1.64325Z"/><path class="c" d="M53.75848,25.85089a.78738.78738,0,0,1-.83752-.73236.83516.83516,0,0,1,.723-.86316.76966.76966,0,0,1,.8714.729A.81228.81228,0,0,1,53.75848,25.85089Z"/></svg>