<svg id="Layer_1" data-name="Layer 1" xmlns="http://www.w3.org/2000/svg" viewBox="0 0 144 80"><defs><style>.cls-1{fill:#fff;}.cls-2{isolation:isolate;}</style></defs><title>CZ-ctu_in_prague-logo-colourCZ-ctu_in_prague-logo-white</title><g id="logo"><polygon class="cls-1" points="8.76 58.1 11.59 58.1 11.59 57.39 8.76 57.39 8.76 55.37 12.4 55.37 12.4 54.66 8 54.66 8 60.91 12.54 60.91 12.54 60.2 8.76 60.2 8.76 58.1"/><path class="cls-1" d="M14.69,57l-.11-.77H14V60.9h.76V58.35A1.79,1.79,0,0,1,15,57.5a1.2,1.2,0,0,1,.47-.53,1.17,1.17,0,0,1,.6-.18,1.24,1.24,0,0,1,.6.12l.15-.73a1,1,0,0,0-.52-.1A1.51,1.51,0,0,0,14.69,57Z"/><path class="cls-1" d="M21.62,60.27a.38.38,0,0,1-.08-.25V57.69a1.42,1.42,0,0,0-.52-1.2,2.12,2.12,0,0,0-1.35-.41,2.35,2.35,0,0,0-1.21.31,1.56,1.56,0,0,0-.71.85l.56.4a1.4,1.4,0,0,1,.53-.67,1.53,1.53,0,0,1,.83-.23,1.1,1.1,0,0,1,.81.29,1,1,0,0,1,.3.75v.27l-1.27.21a2.83,2.83,0,0,0-1.37.54,1.15,1.15,0,0,0-.48.93,1.06,1.06,0,0,0,.46.94,1.92,1.92,0,0,0,1.16.33,2.25,2.25,0,0,0,.89-.18,1.48,1.48,0,0,0,.64-.52.75.75,0,0,0,.27.54.91.91,0,0,0,.58.16,1.59,1.59,0,0,0,.57-.1l.05-.59H21.9A.38.38,0,0,1,21.62,60.27Zm-.84-1a.88.88,0,0,1-.43.73,1.88,1.88,0,0,1-1,.29,1,1,0,0,1-.63-.16.51.51,0,0,1-.23-.45.63.63,0,0,1,.31-.54,2.69,2.69,0,0,1,.95-.33l1.07-.2Z"/><path class="cls-1" d="M25.48,58.21a3.19,3.19,0,0,1-1-.29.58.58,0,0,1-.28-.49.58.58,0,0,1,.33-.48,1.6,1.6,0,0,1,1.56,0,1.13,1.13,0,0,1,.46.65l.65-.37a1.61,1.61,0,0,0-.66-.86,2.36,2.36,0,0,0-1.22-.28,2.47,2.47,0,0,0-1,.19,1.6,1.6,0,0,0-.66.52,1.23,1.23,0,0,0-.23.71,1.14,1.14,0,0,0,.19.67,1.3,1.3,0,0,0,.57.44,5.18,5.18,0,0,0,1.09.3,3.12,3.12,0,0,1,1,.29.48.48,0,0,1,.27.44.57.57,0,0,1-.29.5,1.52,1.52,0,0,1-.86.2,1.91,1.91,0,0,1-.94-.21,1.15,1.15,0,0,1-.56-.63l-.62.43a1.74,1.74,0,0,0,.81.8A2.67,2.67,0,0,0,25.3,61a2.7,2.7,0,0,0,1.05-.18,1.56,1.56,0,0,0,.69-.5,1.18,1.18,0,0,0,.24-.72,1.08,1.08,0,0,0-.41-.91A3.17,3.17,0,0,0,25.48,58.21Z"/><path class="cls-1" d="M35.17,56.27a2.25,2.25,0,0,0-.88-.19,2.17,2.17,0,0,0-1,.24,1.45,1.45,0,0,0-.69.69,1.49,1.49,0,0,0-.67-.69,2,2,0,0,0-1-.24,1.89,1.89,0,0,0-.87.21,1.62,1.62,0,0,0-.65.62l-.05-.73H28.7V60.9h.76V58.38a1.82,1.82,0,0,1,.2-.92,1.4,1.4,0,0,1,.54-.54,1.28,1.28,0,0,1,.66-.18,1.07,1.07,0,0,1,.81.3A1.18,1.18,0,0,1,32,58V60.9h.76V58.31a1.65,1.65,0,0,1,.2-.84,1.39,1.39,0,0,1,.51-.54,1.32,1.32,0,0,1,.7-.19A1.14,1.14,0,0,1,35,57a1.18,1.18,0,0,1,.31.91v3h.76v-3a1.85,1.85,0,0,0-.26-1A1.5,1.5,0,0,0,35.17,56.27Z"/><path class="cls-1" d="M41.22,58.75a1.59,1.59,0,0,1-.43,1.19,1.57,1.57,0,0,1-1.09.4,1.13,1.13,0,0,1-.84-.29,1.37,1.37,0,0,1-.28-1V56.18h-.76v3.09a1.63,1.63,0,0,0,.49,1.3,2.12,2.12,0,0,0,2.95-.38l.05.71H42V56.18h-.76Z"/><path class="cls-1" d="M45.61,58.21a3.19,3.19,0,0,1-1-.29.55.55,0,0,1-.28-.49.61.61,0,0,1,.32-.48,1.38,1.38,0,0,1,.79-.21,1.44,1.44,0,0,1,.78.2,1.21,1.21,0,0,1,.46.65l.64-.37a1.53,1.53,0,0,0-.66-.86,2.26,2.26,0,0,0-1.22-.28,2.65,2.65,0,0,0-1,.19,1.57,1.57,0,0,0-.65.52,1.23,1.23,0,0,0-.23.71,1.21,1.21,0,0,0,.18.67,1.32,1.32,0,0,0,.58.44,5.1,5.1,0,0,0,1.08.3,3.12,3.12,0,0,1,1,.29.49.49,0,0,1,.28.44.58.58,0,0,1-.3.5,1.49,1.49,0,0,1-.85.2,1.91,1.91,0,0,1-.94-.21A1.11,1.11,0,0,1,44,59.5l-.62.43a1.74,1.74,0,0,0,.81.8,2.73,2.73,0,0,0,1.23.27,2.85,2.85,0,0,0,1-.18,1.74,1.74,0,0,0,.7-.5,1.18,1.18,0,0,0,.24-.72,1.1,1.1,0,0,0-.41-.91A3.23,3.23,0,0,0,45.61,58.21Z"/><path class="cls-1" d="M56.25,57.44a4.9,4.9,0,0,1-1-.26,1.28,1.28,0,0,1-.54-.34.81.81,0,0,1-.16-.5.89.89,0,0,1,.42-.76,2.34,2.34,0,0,1,2.21,0,2.1,2.1,0,0,1,.68.88l.66-.53a2.58,2.58,0,0,0-2.43-1.32,2.77,2.77,0,0,0-1.23.25,1.87,1.87,0,0,0-.82.68,1.66,1.66,0,0,0-.28.92,1.36,1.36,0,0,0,.52,1.14,4.13,4.13,0,0,0,1.77.62,3.6,3.6,0,0,1,1.35.42.73.73,0,0,1,.38.66.85.85,0,0,1-.43.76,2.21,2.21,0,0,1-1.18.27A2.35,2.35,0,0,1,54.88,60a1.93,1.93,0,0,1-.76-.86l-.65.53a2.53,2.53,0,0,0,1,1,3.77,3.77,0,0,0,2.89.15,1.9,1.9,0,0,0,.85-.63,1.5,1.5,0,0,0,.3-.93A1.37,1.37,0,0,0,58,58.07,3.78,3.78,0,0,0,56.25,57.44Z"/><path class="cls-1" d="M62,60.29a.73.73,0,0,1-.51-.17.68.68,0,0,1-.2-.52V56.83h1.76v-.65H61.33V54.83l-.76.21v1.14h-1v.65h1v2.9a1.25,1.25,0,0,0,.38,1,1.46,1.46,0,0,0,.94.31,1.74,1.74,0,0,0,1.23-.43L62.85,60A1.13,1.13,0,0,1,62,60.29Z"/><path class="cls-1" d="M67.72,58.75a1.51,1.51,0,0,1-.43,1.19,1.57,1.57,0,0,1-1.09.4,1.12,1.12,0,0,1-.83-.29,1.38,1.38,0,0,1-.29-1V56.18h-.76v3.09a1.63,1.63,0,0,0,.49,1.3,2.14,2.14,0,0,0,3-.38v.71h.66V56.18h-.76Z"/><path class="cls-1" d="M73.77,56.91a1.61,1.61,0,0,0-.64-.6,2,2,0,0,0-.93-.23,2,2,0,0,0-1.59.66,3.09,3.09,0,0,0,0,3.6A2,2,0,0,0,72.2,61a1.93,1.93,0,0,0,1-.25,1.53,1.53,0,0,0,.64-.67l0,.82h.66V54h-.76Zm0,1.69a1.87,1.87,0,0,1-.4,1.26,1.34,1.34,0,0,1-1.09.48,1.32,1.32,0,0,1-1.09-.49,2.36,2.36,0,0,1,0-2.62,1.32,1.32,0,0,1,1.09-.49,1.34,1.34,0,0,1,1.09.48,1.87,1.87,0,0,1,.4,1.26Z"/><path class="cls-1" d="M79.46,56.37a2.21,2.21,0,0,0-1.15-.29,2.13,2.13,0,0,0-1.65.65,2.59,2.59,0,0,0-.59,1.81,2.55,2.55,0,0,0,.62,1.81,2.19,2.19,0,0,0,1.68.65,2.48,2.48,0,0,0,1.22-.27,2,2,0,0,0,.76-.76l-.64-.33a1,1,0,0,1-.47.52,1.86,1.86,0,0,1-.87.18,1.5,1.5,0,0,1-1.07-.4,1.73,1.73,0,0,1-.48-1.12H80.4a2.35,2.35,0,0,0,0-.53,2.54,2.54,0,0,0-.24-1.12A1.88,1.88,0,0,0,79.46,56.37Zm-2.63,1.78a1.7,1.7,0,0,1,.47-1,1.41,1.41,0,0,1,1-.37,1.25,1.25,0,0,1,1,.38,1.72,1.72,0,0,1,.44,1Z"/><path class="cls-1" d="M84.28,56.08a2.18,2.18,0,0,0-.94.2,1.54,1.54,0,0,0-.66.63v-.73H82V60.9h.76V58.39a1.91,1.91,0,0,1,.21-.94,1.36,1.36,0,0,1,.55-.54,1.58,1.58,0,0,1,.71-.17,1.08,1.08,0,0,1,.85.33,1.48,1.48,0,0,1,.32,1.07V60.9h.76v-3a1.66,1.66,0,0,0-.52-1.33A1.94,1.94,0,0,0,84.28,56.08Z"/><path class="cls-1" d="M89.72,60.29a.76.76,0,0,1-.52-.17.68.68,0,0,1-.2-.52V56.83h1.76v-.65H89V54.83l-.76.21v1.14h-1v.65h1v2.9a1.21,1.21,0,0,0,.37,1,1.49,1.49,0,0,0,1,.31,1.71,1.71,0,0,0,1.22-.43L90.52,60A1.13,1.13,0,0,1,89.72,60.29Z"/><polygon class="cls-1" points="101.04 59.07 101.08 60.07 101.07 60.07 100.4 58.82 97.78 54.66 96.84 54.66 96.84 60.91 97.57 60.91 97.57 56.5 97.53 55.49 97.54 55.49 98.2 56.72 100.83 60.91 101.77 60.91 101.77 54.66 101.04 54.66 101.04 59.07"/><path class="cls-1" d="M106.85,56.37a2.21,2.21,0,0,0-1.15-.29,2.11,2.11,0,0,0-1.66.65,2.64,2.64,0,0,0-.58,1.81,2.54,2.54,0,0,0,.61,1.81,2.23,2.23,0,0,0,1.69.65,2.41,2.41,0,0,0,1.21-.27,2,2,0,0,0,.76-.76l-.63-.33a1,1,0,0,1-.47.52,1.86,1.86,0,0,1-.87.18,1.5,1.5,0,0,1-1.07-.4,1.64,1.64,0,0,1-.48-1.12h3.58a2.35,2.35,0,0,0,0-.53,2.42,2.42,0,0,0-.25-1.12A1.91,1.91,0,0,0,106.85,56.37Zm-2.63,1.78a1.7,1.7,0,0,1,.47-1,1.41,1.41,0,0,1,1-.37,1.25,1.25,0,0,1,1,.38,1.72,1.72,0,0,1,.44,1Z"/><path class="cls-1" d="M111.19,60.29a.76.76,0,0,1-.52-.17.68.68,0,0,1-.19-.52V56.83h1.76v-.65h-1.76V54.83l-.76.21v1.14h-1v.65h1v2.9a1.21,1.21,0,0,0,.37,1,1.49,1.49,0,0,0,1,.31,1.71,1.71,0,0,0,1.22-.43l-.26-.63A1.13,1.13,0,0,1,111.19,60.29Z"/><polygon class="cls-1" points="118.6 60.03 117.31 56.18 116.55 56.18 115.26 60.03 114.06 56.18 113.22 56.18 114.87 60.91 115.63 60.91 116.89 57.14 118.23 60.91 118.99 60.91 120.64 56.18 119.8 56.18 118.6 60.03"/><path class="cls-1" d="M123.85,56.08a2.16,2.16,0,0,0-1.68.65,3,3,0,0,0,0,3.62,2.16,2.16,0,0,0,1.68.65,2.23,2.23,0,0,0,1.69-.65,3,3,0,0,0,0-3.62A2.23,2.23,0,0,0,123.85,56.08ZM125,59.86a1.55,1.55,0,0,1-2.19.07l-.07-.07a2.32,2.32,0,0,1,0-2.64,1.55,1.55,0,0,1,2.19-.07l.07.07A2.32,2.32,0,0,1,125,59.86Z"/><path class="cls-1" d="M128.42,57l-.11-.77h-.62V60.9h.76V58.35a1.79,1.79,0,0,1,.19-.85,1.2,1.2,0,0,1,.47-.53,1.08,1.08,0,0,1,.6-.18,1.24,1.24,0,0,1,.6.12l.15-.73a1,1,0,0,0-.52-.1A1.51,1.51,0,0,0,128.42,57Z"/><polygon class="cls-1" points="135.89 56.18 134.94 56.18 132.48 58.63 132.48 54 131.72 54 131.72 60.91 132.48 60.91 132.48 59.57 133.48 58.57 135.08 60.91 136 60.91 134.03 58.02 135.89 56.18"/><path class="cls-1" d="M77,43V40a1,1,0,0,0-1-1H61V31H72a1,1,0,0,0,1-1V27a1,1,0,0,0-1-1H61V17H75a1,1,0,0,0,1-1V13a1,1,0,0,0-1-1H57a1,1,0,0,0-1,1V43a1,1,0,0,0,1,1H76A1,1,0,0,0,77,43Z"/><path class="cls-1" d="M135,12h-3a1,1,0,0,0-1,1V36L118.28,12.52a1,1,0,0,0-.88-.52H113a1,1,0,0,0-1,1V43a1,1,0,0,0,1,1h3a1,1,0,0,0,1-1V21l12.71,22.47a1,1,0,0,0,.87.51H135a1,1,0,0,0,1-1V13A1,1,0,0,0,135,12Z"/><path class="cls-1" d="M47,25H35.24l8.07-8.29a1,1,0,0,0,0-1.41l-2.6-2.6a1,1,0,0,0-1.41,0L31,20.76V9a1,1,0,0,0-1-1H26a1,1,0,0,0-1,1V20.76l-8.29-8.07a1,1,0,0,0-1.41,0l-2.6,2.6a1,1,0,0,0,0,1.41L20.76,25H9a1,1,0,0,0-1,1v4a1,1,0,0,0,1,1H20.76l-8.29,8.29a1,1,0,0,0,0,1.41l0,0,2.81,2.62a1,1,0,0,0,1.38,0L25,35.24V47a1,1,0,0,0,1,1h4a1,1,0,0,0,1-1V35.24l8.29,8.07a1,1,0,0,0,1.41,0l2.6-2.6a1,1,0,0,0,0-1.41L35.24,31H47a1,1,0,0,0,1-1V26A1,1,0,0,0,47,25ZM29.66,32H26.34L24,29.66V26.34L26.34,24h3.32L32,26.34v3.32Z"/><path class="cls-1" d="M104.56,40.23a8.29,8.29,0,0,0,1.52-4.93,7.61,7.61,0,0,0-2.63-6.12,16.27,16.27,0,0,0-7-2.9c-.51-.12-1-.22-1.59-.32A25.34,25.34,0,0,1,90,24.7a5.75,5.75,0,0,1-2.35-1.56A3.41,3.41,0,0,1,87,21a4,4,0,0,1,1.76-3.39,8.34,8.34,0,0,1,5.11-1.38,8.39,8.39,0,0,1,4.84,1.21,9.11,9.11,0,0,1,2.8,2.66,1,1,0,0,0,1.38.31l.06,0,2.36-1.77a1,1,0,0,0,.21-1.39C103,13.54,98.78,11.7,93.83,11.7A13.83,13.83,0,0,0,87.66,13a10,10,0,0,0-4.08,3.54,8.82,8.82,0,0,0-1.44,4.88,7.37,7.37,0,0,0,2.67,6A17.44,17.44,0,0,0,92,30.31c.49.11,1,.21,1.54.31a17.85,17.85,0,0,1,6.23,2,3.29,3.29,0,0,1,1.59,2.88,3.75,3.75,0,0,1-1.85,3.37,9.77,9.77,0,0,1-5.34,1.26,10.36,10.36,0,0,1-5.67-1.45,6.75,6.75,0,0,1-1.88-1.81,1,1,0,0,0-1.39-.25l0,0-2.33,1.75a1,1,0,0,0-.2,1.4l0,.05a13.78,13.78,0,0,0,3.4,2.92,17.65,17.65,0,0,0,14.23.75A9.6,9.6,0,0,0,104.56,40.23Z"/></g><g id="title"><g class="cls-2"><g class="cls-2"><path class="cls-1" d="M71.78,71.63a3.32,3.32,0,0,1-1.85.49,3.51,3.51,0,0,1-1.73-.41,2.64,2.64,0,0,1-1.12-1.17,3.91,3.91,0,0,1-.39-1.82,4,4,0,0,1,.39-1.82,2.72,2.72,0,0,1,1.12-1.18,3.61,3.61,0,0,1,1.72-.4,3.41,3.41,0,0,1,1.83.46,2.15,2.15,0,0,1,1,1.36l-1.51.61a1.51,1.51,0,0,0-.43-.84,1.25,1.25,0,0,0-.82-.24,1.34,1.34,0,0,0-1.13.53,2.42,2.42,0,0,0-.4,1.52,2.58,2.58,0,0,0,.38,1.52,1.29,1.29,0,0,0,1.12.53,1.35,1.35,0,0,0,.87-.26,1.41,1.41,0,0,0,.44-.82l1.56.44A2.54,2.54,0,0,1,71.78,71.63Z"/><path class="cls-1" d="M79.33,66.75H77.18V72H75.46V66.75H73.3V65.42h6Z"/><path class="cls-1" d="M86.09,69.33a2.76,2.76,0,0,1-.74,2.09,3.09,3.09,0,0,1-2.21.7,3.12,3.12,0,0,1-2.21-.7,2.76,2.76,0,0,1-.74-2.09V65.42h1.73v3.94a1.6,1.6,0,0,0,.3,1.06,1.16,1.16,0,0,0,.92.35c.83,0,1.24-.47,1.24-1.41V65.42h1.71Z"/><path class="cls-1" d="M90.28,66.24a.72.72,0,0,1-.24-.61.73.73,0,0,1,.24-.62,1.14,1.14,0,0,1,.75-.2,1.19,1.19,0,0,1,.76.2.76.76,0,0,1,.23.62.75.75,0,0,1-.23.61,1.13,1.13,0,0,1-.76.2A1.09,1.09,0,0,1,90.28,66.24ZM91.88,72h-1.7V67h1.7Z"/><path class="cls-1" d="M97.63,67.38a1.76,1.76,0,0,1,.47,1.31V72H96.4V69.16a1.05,1.05,0,0,0-.19-.72.62.62,0,0,0-.52-.22.8.8,0,0,0-.65.29,1.27,1.27,0,0,0-.25.87V72h-1.7V67h1.52l0,1a1.72,1.72,0,0,1,.68-.79,1.93,1.93,0,0,1,1-.27A1.7,1.7,0,0,1,97.63,67.38Z"/><path class="cls-1" d="M107.19,66a2,2,0,0,1,.66,1.63,2,2,0,0,1-.66,1.57,2.92,2.92,0,0,1-1.89.55H104V72h-1.72v-6.6h3A2.86,2.86,0,0,1,107.19,66Zm-1.34,2.28a.82.82,0,0,0,.27-.67.78.78,0,0,0-.27-.65,1.24,1.24,0,0,0-.82-.22h-1v1.75h1A1.3,1.3,0,0,0,105.85,68.26Z"/></g><g class="cls-2"><path class="cls-1" d="M112.46,67l-.18,1.44a.85.85,0,0,0-.27-.1,1.36,1.36,0,0,0-.36-.05,1.09,1.09,0,0,0-.8.31,1.15,1.15,0,0,0-.32.87V72h-1.7V67h1.5l.07,1.08a1.84,1.84,0,0,1,.56-.88,1.53,1.53,0,0,1,1-.3A1.15,1.15,0,0,1,112.46,67Z"/></g><g class="cls-2"><path class="cls-1" d="M118.21,71l-.13.95a1.34,1.34,0,0,1-.68.16c-.72,0-1.15-.26-1.29-.77a1.89,1.89,0,0,1-1.78.77,1.83,1.83,0,0,1-1.15-.32,1.1,1.1,0,0,1-.4-.93,1.27,1.27,0,0,1,.46-1,3.21,3.21,0,0,1,1.49-.61l1.13-.22v-.18a.73.73,0,0,0-.19-.54.7.7,0,0,0-.52-.2,1,1,0,0,0-.62.18.91.91,0,0,0-.31.59l-1.38-.4a1.73,1.73,0,0,1,.72-1.14,2.75,2.75,0,0,1,1.59-.4,2.84,2.84,0,0,1,1.78.48,1.71,1.71,0,0,1,.61,1.44v1.82q0,.39.36.39A.9.9,0,0,0,118.21,71Zm-2.63-.19a.58.58,0,0,0,.28-.51v-.43l-.81.19a1.17,1.17,0,0,0-.46.2.46.46,0,0,0,0,.64A.57.57,0,0,0,115,71,1,1,0,0,0,115.58,70.82Z"/></g><g class="cls-2"><path class="cls-1" d="M123.45,71.29a1.36,1.36,0,0,1,.47,1.12,1.43,1.43,0,0,1-.75,1.3,3.93,3.93,0,0,1-2.06.46,4.56,4.56,0,0,1-1.94-.31,1,1,0,0,1-.62-.87.85.85,0,0,1,.23-.58,1.29,1.29,0,0,1,.7-.36,1.1,1.1,0,0,1-.77-1,.94.94,0,0,1,.22-.62,1.35,1.35,0,0,1,.6-.4,1.45,1.45,0,0,1-.82-1.37,1.42,1.42,0,0,1,.64-1.25,3.11,3.11,0,0,1,1.8-.45,4.51,4.51,0,0,1,1,.11,1.9,1.9,0,0,1,.45-1,1.26,1.26,0,0,1,1-.38h.16l.19,1.13-.28,0a1.13,1.13,0,0,0-.56.12.7.7,0,0,0-.33.33,1.45,1.45,0,0,1,.84,1.38,1.42,1.42,0,0,1-.64,1.25,3.19,3.19,0,0,1-1.8.44,4.61,4.61,0,0,1-1-.09.34.34,0,0,0-.31.35c0,.23.17.34.52.34h1.7A2.15,2.15,0,0,1,123.45,71.29Zm-1.21,1.65c.22-.09.34-.21.34-.36a.26.26,0,0,0-.14-.24,1,1,0,0,0-.47-.08H120.6a1.42,1.42,0,0,0-.59.09.27.27,0,0,0-.17.26c0,.31.46.46,1.39.46A3,3,0,0,0,122.24,72.94Zm-1.62-4.85a.69.69,0,0,0-.21.53.66.66,0,0,0,.21.52.69.69,0,0,0,.53.2.72.72,0,0,0,.54-.2.69.69,0,0,0,.2-.52.72.72,0,0,0-.2-.53.77.77,0,0,0-.54-.2A.72.72,0,0,0,120.62,68.09Z"/><path class="cls-1" d="M129.57,67v5h-1.52l-.05-.93a1.72,1.72,0,0,1-1.73,1A1.77,1.77,0,0,1,125,71.7a1.74,1.74,0,0,1-.46-1.34V67h1.7v2.91a1.09,1.09,0,0,0,.17.69.66.66,0,0,0,.52.2.88.88,0,0,0,.67-.28,1.27,1.27,0,0,0,.25-.87V67Z"/><path class="cls-1" d="M135.61,70H132.2a1.13,1.13,0,0,0,.34.69,1.08,1.08,0,0,0,.71.22,1.16,1.16,0,0,0,.6-.14.66.66,0,0,0,.32-.41l1.38.44a1.71,1.71,0,0,1-.81,1,3.1,3.1,0,0,1-1.49.33,2.75,2.75,0,0,1-2-.68,2.53,2.53,0,0,1-.7-1.92,2.37,2.37,0,0,1,2.61-2.6,2.43,2.43,0,0,1,1.85.67,2.51,2.51,0,0,1,.65,1.86A2.83,2.83,0,0,1,135.61,70Zm-3.42-.92h1.88c-.08-.65-.39-1-.92-1S132.29,68.44,132.19,69.09Z"/></g></g></g></svg>