<svg id="Layer_1" data-name="Layer 1" xmlns="http://www.w3.org/2000/svg" viewBox="0 0 144 80"><defs><style>.cls-1{fill:#7dbb48;}.cls-2{fill:#28abe3;}.cls-3{fill:#e32185;}.cls-4{fill:#ef7b24;}.cls-5{isolation:isolate;}</style></defs><title>CZ-ctu_in_prague-logo-colour</title><g id="logo"><path d="M12.54,60.19v.71H8V54.66h4.4v.71H8.76v2h2.83v.71H8.76v2.09Z"/><path d="M16.73,56.18l-.15.73a1.24,1.24,0,0,0-.6-.12,1.17,1.17,0,0,0-.6.18,1.2,1.2,0,0,0-.47.53,1.79,1.79,0,0,0-.19.85V60.9H14V56.18h.62l.11.77a1.52,1.52,0,0,1,1.52-.87A1.12,1.12,0,0,1,16.73,56.18Z"/><path d="M22.28,60.31l-.05.59a1.59,1.59,0,0,1-.57.1.91.91,0,0,1-.58-.16.75.75,0,0,1-.27-.54,1.48,1.48,0,0,1-.64.52,2.25,2.25,0,0,1-.89.18,1.92,1.92,0,0,1-1.16-.33,1.06,1.06,0,0,1-.46-.94,1.15,1.15,0,0,1,.48-.93,2.83,2.83,0,0,1,1.37-.54l1.27-.21v-.27a1,1,0,0,0-.3-.75,1.1,1.1,0,0,0-.81-.29,1.53,1.53,0,0,0-.83.23,1.4,1.4,0,0,0-.53.67l-.56-.4a1.56,1.56,0,0,1,.71-.85,2.35,2.35,0,0,1,1.21-.31,2.12,2.12,0,0,1,1.35.41,1.42,1.42,0,0,1,.52,1.2V60a.3.3,0,0,0,.25.34h.11A2.43,2.43,0,0,0,22.28,60.31Zm-1.93-.26a.88.88,0,0,0,.43-.73v-.66l-1.07.2a2.69,2.69,0,0,0-.95.33.63.63,0,0,0-.31.54.51.51,0,0,0,.23.45,1,1,0,0,0,.63.16A1.82,1.82,0,0,0,20.35,60.05Z"/><path d="M24.06,60.73a1.74,1.74,0,0,1-.81-.8l.62-.43a1.15,1.15,0,0,0,.56.63,1.91,1.91,0,0,0,.94.21,1.52,1.52,0,0,0,.86-.2.57.57,0,0,0,.29-.5.48.48,0,0,0-.27-.44,3.12,3.12,0,0,0-1-.29,5.18,5.18,0,0,1-1.09-.3,1.3,1.3,0,0,1-.57-.44,1.14,1.14,0,0,1-.19-.67,1.23,1.23,0,0,1,.23-.71,1.6,1.6,0,0,1,.66-.52,2.47,2.47,0,0,1,1-.19,2.36,2.36,0,0,1,1.22.28,1.61,1.61,0,0,1,.66.86l-.65.37a1.13,1.13,0,0,0-.46-.65,1.6,1.6,0,0,0-1.56,0,.58.58,0,0,0-.33.48.58.58,0,0,0,.28.49,3.19,3.19,0,0,0,1,.29,3.17,3.17,0,0,1,1.39.48,1.08,1.08,0,0,1,.41.91,1.18,1.18,0,0,1-.24.72,1.56,1.56,0,0,1-.69.5,2.75,2.75,0,0,1-1,.19A2.8,2.8,0,0,1,24.06,60.73Z"/><path d="M35.17,56.27a1.52,1.52,0,0,1,.67.61,1.85,1.85,0,0,1,.26,1v3h-.76V58A1.19,1.19,0,0,0,35,57a1.15,1.15,0,0,0-.81-.3,1.32,1.32,0,0,0-.7.19,1.39,1.39,0,0,0-.51.54,1.65,1.65,0,0,0-.2.84V60.9H32V58a1.18,1.18,0,0,0-.31-.91,1.07,1.07,0,0,0-.81-.3,1.28,1.28,0,0,0-.66.18,1.4,1.4,0,0,0-.54.54,1.82,1.82,0,0,0-.2.92V60.9h-.76V56.18h.66l.05.73a1.62,1.62,0,0,1,.65-.62,1.89,1.89,0,0,1,.87-.21,2,2,0,0,1,1,.24,1.49,1.49,0,0,1,.67.69,1.45,1.45,0,0,1,.69-.69,2.17,2.17,0,0,1,1-.24A2.19,2.19,0,0,1,35.17,56.27Z"/><path d="M42,56.18V60.9h-.67l0-.71a2.12,2.12,0,0,1-3,.38,1.63,1.63,0,0,1-.49-1.3V56.18h.76v2.89a1.37,1.37,0,0,0,.28,1,1.13,1.13,0,0,0,.84.29,1.57,1.57,0,0,0,1.09-.4,1.59,1.59,0,0,0,.43-1.19V56.18Z"/><path d="M44.2,60.73a1.74,1.74,0,0,1-.81-.8L44,59.5a1.15,1.15,0,0,0,.56.63,1.91,1.91,0,0,0,.94.21,1.49,1.49,0,0,0,.85-.2.58.58,0,0,0,.3-.5.49.49,0,0,0-.28-.44,3.12,3.12,0,0,0-1-.29,5.1,5.1,0,0,1-1.08-.3,1.32,1.32,0,0,1-.58-.44,1.21,1.21,0,0,1-.18-.67,1.23,1.23,0,0,1,.23-.71,1.57,1.57,0,0,1,.65-.52,2.65,2.65,0,0,1,1-.19,2.26,2.26,0,0,1,1.22.28,1.53,1.53,0,0,1,.66.86l-.64.37a1.21,1.21,0,0,0-.46-.65,1.44,1.44,0,0,0-.78-.2,1.38,1.38,0,0,0-.79.21.61.61,0,0,0-.32.48.55.55,0,0,0,.28.49,3.19,3.19,0,0,0,1,.29,3.16,3.16,0,0,1,1.4.48,1.1,1.1,0,0,1,.41.91,1.18,1.18,0,0,1-.24.72,1.74,1.74,0,0,1-.7.5,2.85,2.85,0,0,1-1,.18A2.71,2.71,0,0,1,44.2,60.73Z"/><path d="M58.48,55.89l-.66.53a2.1,2.1,0,0,0-.68-.88,2.36,2.36,0,0,0-2.21,0,.92.92,0,0,0-.42.77.81.81,0,0,0,.16.5,1.28,1.28,0,0,0,.54.34,4.9,4.9,0,0,0,1,.26,3.86,3.86,0,0,1,1.76.63,1.38,1.38,0,0,1,.52,1.15,1.5,1.5,0,0,1-.3.93,1.9,1.9,0,0,1-.85.63,3.77,3.77,0,0,1-2.89-.15,2.53,2.53,0,0,1-1-1l.65-.53a1.93,1.93,0,0,0,.76.86,2.74,2.74,0,0,0,2.45,0,.85.85,0,0,0,.43-.76.73.73,0,0,0-.38-.66,3.62,3.62,0,0,0-1.36-.4,4.13,4.13,0,0,1-1.77-.62,1.36,1.36,0,0,1-.52-1.14A1.59,1.59,0,0,1,54,55.5a1.87,1.87,0,0,1,.82-.68,2.77,2.77,0,0,1,1.23-.25A2.58,2.58,0,0,1,58.48,55.89Z"/><path d="M63.12,60.57a1.74,1.74,0,0,1-1.23.43,1.34,1.34,0,0,1-.94-.31,1.25,1.25,0,0,1-.38-1v-2.9h-1v-.65h1V55l.76-.21v1.35h1.76v.65H61.33V59.6a.68.68,0,0,0,.2.52.73.73,0,0,0,.51.17,1.12,1.12,0,0,0,.81-.35Z"/><path d="M68.48,56.18V60.9h-.66v-.71a2.14,2.14,0,0,1-3,.38,1.63,1.63,0,0,1-.49-1.3V56.18h.76v2.89a1.38,1.38,0,0,0,.29,1,1.12,1.12,0,0,0,.83.29,1.57,1.57,0,0,0,1.09-.4,1.51,1.51,0,0,0,.43-1.19V56.18Z"/><path d="M74.53,54v6.9h-.66l-.05-.82a1.53,1.53,0,0,1-.64.67,1.93,1.93,0,0,1-1,.25,2,2,0,0,1-1.59-.66,3.09,3.09,0,0,1,0-3.6,2,2,0,0,1,1.59-.66,2,2,0,0,1,.93.23,1.61,1.61,0,0,1,.64.6V54Zm-1.16,5.86a1.87,1.87,0,0,0,.4-1.26v-.12a1.87,1.87,0,0,0-.4-1.26,1.34,1.34,0,0,0-1.09-.48,1.32,1.32,0,0,0-1.09.49,2.36,2.36,0,0,0,0,2.62,1.32,1.32,0,0,0,1.09.49A1.34,1.34,0,0,0,73.37,59.86Z"/><path d="M80.4,58.82H76.82a1.73,1.73,0,0,0,.48,1.12,1.5,1.5,0,0,0,1.07.4,1.86,1.86,0,0,0,.87-.18,1,1,0,0,0,.47-.52l.64.33a2,2,0,0,1-.76.76,2.48,2.48,0,0,1-1.22.27,2.19,2.19,0,0,1-1.68-.65,2.55,2.55,0,0,1-.62-1.81,2.59,2.59,0,0,1,.59-1.81,2.13,2.13,0,0,1,1.65-.65,2.21,2.21,0,0,1,1.15.29,2,2,0,0,1,.74.8,2.54,2.54,0,0,1,.24,1.12A3.15,3.15,0,0,1,80.4,58.82Zm-3.1-1.71a1.7,1.7,0,0,0-.47,1h2.88a1.72,1.72,0,0,0-.44-1,1.25,1.25,0,0,0-1-.38A1.44,1.44,0,0,0,77.3,57.11Z"/><path d="M85.61,56.55a1.66,1.66,0,0,1,.52,1.33v3h-.76V58.14a1.48,1.48,0,0,0-.32-1.07,1.08,1.08,0,0,0-.85-.33,1.58,1.58,0,0,0-.71.17,1.36,1.36,0,0,0-.55.54,1.91,1.91,0,0,0-.21.94V60.9H82V56.18h.67v.73a1.54,1.54,0,0,1,.66-.63,2.18,2.18,0,0,1,.94-.2A1.93,1.93,0,0,1,85.61,56.55Z"/><path d="M90.79,60.57a1.71,1.71,0,0,1-1.22.43,1.38,1.38,0,0,1-.95-.31,1.21,1.21,0,0,1-.37-1v-2.9h-1v-.65h1V55l.76-.21v1.35h1.76v.65H89V59.6a.68.68,0,0,0,.19.52.76.76,0,0,0,.52.17,1.12,1.12,0,0,0,.81-.35Z"/><path d="M101.77,60.9h-.94L98.2,56.72l-.66-1.22h0v5.4h-.73V54.66h1l2.61,4.16.67,1.25h0V54.66h.73Z"/><path d="M107.79,58.82h-3.58a1.64,1.64,0,0,0,.48,1.12,1.5,1.5,0,0,0,1.07.4,1.86,1.86,0,0,0,.87-.18,1,1,0,0,0,.47-.52l.63.33a2,2,0,0,1-.76.76,2.41,2.41,0,0,1-1.21.27,2.23,2.23,0,0,1-1.69-.65,2.54,2.54,0,0,1-.61-1.81,2.64,2.64,0,0,1,.58-1.81,2.11,2.11,0,0,1,1.66-.65,2.21,2.21,0,0,1,1.15.29,1.94,1.94,0,0,1,.73.8,2.42,2.42,0,0,1,.25,1.12A3.15,3.15,0,0,1,107.79,58.82Zm-3.1-1.71a1.7,1.7,0,0,0-.47,1h2.88a1.72,1.72,0,0,0-.44-1,1.25,1.25,0,0,0-1-.38A1.44,1.44,0,0,0,104.69,57.11Z"/><path d="M112.26,60.57A1.72,1.72,0,0,1,111,61a1.39,1.39,0,0,1-1-.31,1.21,1.21,0,0,1-.37-1v-2.9h-1v-.65h1V55l.76-.21v1.35h1.76v.65h-1.76V59.6a.68.68,0,0,0,.19.52.76.76,0,0,0,.52.17,1.12,1.12,0,0,0,.81-.35Z"/><path d="M120.64,56.18,119,60.9h-.76l-1.34-3.76-1.26,3.76h-.76l-1.66-4.72h.85l1.2,3.85,1.29-3.85h.76L118.6,60l1.2-3.85Z"/><path d="M125.54,56.73a3,3,0,0,1,0,3.62,2.23,2.23,0,0,1-1.69.65,2.16,2.16,0,0,1-1.68-.65,3,3,0,0,1,0-3.62,2.16,2.16,0,0,1,1.68-.65A2.23,2.23,0,0,1,125.54,56.73Zm-2.82.49a2.32,2.32,0,0,0,0,2.64,1.55,1.55,0,0,0,2.19.07l.07-.07a2.32,2.32,0,0,0,0-2.64,1.55,1.55,0,0,0-2.19-.07Z"/><path d="M130.46,56.18l-.15.73a1.24,1.24,0,0,0-.6-.12,1.08,1.08,0,0,0-.6.18,1.2,1.2,0,0,0-.47.53,1.79,1.79,0,0,0-.19.85V60.9h-.76V56.18h.62l.11.77a1.52,1.52,0,0,1,1.52-.87A1,1,0,0,1,130.46,56.18Z"/><path d="M133.48,58.57l-1,1V60.9h-.76V54h.76v4.63l2.46-2.45h.95L134,58l2,2.88h-.92Z"/><path d="M77,40v3a1,1,0,0,1-1,1H57a1,1,0,0,1-1-1V13a1,1,0,0,1,1-1H75a1,1,0,0,1,1,1v3a1,1,0,0,1-1,1H61v9H72a1,1,0,0,1,1,1v3a1,1,0,0,1-1,1H61v8H76A1,1,0,0,1,77,40Z"/><path d="M116,44h-3a1,1,0,0,1-1-1V13a1,1,0,0,1,1-1h4.4a1,1,0,0,1,.88.52L131,36V13a1,1,0,0,1,1-1h3a1,1,0,0,1,1,1V43a1,1,0,0,1-1,1h-4.42a1,1,0,0,1-.87-.51L117,21V43A1,1,0,0,1,116,44Z"/><path class="cls-1" d="M31,9V20.76L29.66,24H26.34L25,20.76V9a1,1,0,0,1,1-1h4A1,1,0,0,1,31,9Z"/><path class="cls-2" d="M16.71,12.69,25,20.76,26.35,24,24,26.35,20.76,25l-8.07-8.29a1,1,0,0,1,0-1.41l2.6-2.6a1,1,0,0,1,1.41,0Z"/><path class="cls-3" d="M9,25H20.76L24,26.34v3.32L20.76,31H9a1,1,0,0,1-1-1V26A1,1,0,0,1,9,25Z"/><path class="cls-4" d="M12.47,39.29,20.76,31,24,29.65,26.35,32,25,35.24l-8.32,8.1a1,1,0,0,1-1.38,0l-2.81-2.62a1,1,0,0,1,0-1.41Z"/><path class="cls-2" d="M25,47V35.24L26.34,32h3.32L31,35.24V47a1,1,0,0,1-1,1H26A1,1,0,0,1,25,47Z"/><path class="cls-1" d="M39.29,43.31,31,35.24,29.65,32,32,29.65,35.24,31l8.07,8.29a1,1,0,0,1,0,1.41l-2.6,2.6a1,1,0,0,1-1.41,0Z"/><path class="cls-4" d="M47,31H35.24L32,29.66V26.34L35.24,25H47a1,1,0,0,1,1,1v4A1,1,0,0,1,47,31Z"/><path class="cls-3" d="M43.31,16.71,35.24,25,32,26.35,29.65,24,31,20.76l8.29-8.07a1,1,0,0,1,1.41,0l2.6,2.6a1,1,0,0,1,0,1.41Z"/><path d="M106.08,35.3a8.29,8.29,0,0,1-1.52,4.93,9.62,9.62,0,0,1-4.26,3.27,17.65,17.65,0,0,1-14.23-.75,13.78,13.78,0,0,1-3.4-2.92,1,1,0,0,1,.11-1.41l0,0,2.33-1.75a1,1,0,0,1,1.4.2l0,0a6.75,6.75,0,0,0,1.88,1.81,10.36,10.36,0,0,0,5.67,1.45,9.77,9.77,0,0,0,5.34-1.26,3.75,3.75,0,0,0,1.85-3.37,3.29,3.29,0,0,0-1.59-2.88,17.85,17.85,0,0,0-6.23-2L92,30.3a17.42,17.42,0,0,1-7.15-2.9,7.37,7.37,0,0,1-2.67-6,8.82,8.82,0,0,1,1.44-4.88A9.87,9.87,0,0,1,87.66,13a13.76,13.76,0,0,1,6.12-1.3c5,0,9.16,1.84,11.69,5.51a1,1,0,0,1-.21,1.39l-2.36,1.77a1,1,0,0,1-1.4-.21l0-.06a9.11,9.11,0,0,0-2.8-2.66,8.39,8.39,0,0,0-4.84-1.21,8.34,8.34,0,0,0-5.11,1.38A4,4,0,0,0,87,21a3.38,3.38,0,0,0,.66,2.19A5.67,5.67,0,0,0,90,24.7,25.05,25.05,0,0,0,94.82,26c.55.1,1.08.2,1.59.32a16.27,16.27,0,0,1,7,2.9A7.58,7.58,0,0,1,106.08,35.3Z"/></g><g id="title"><g class="cls-5"><g class="cls-5"><path d="M71.78,71.63a3.32,3.32,0,0,1-1.85.49,3.51,3.51,0,0,1-1.73-.41,2.64,2.64,0,0,1-1.12-1.17,3.91,3.91,0,0,1-.39-1.82,4,4,0,0,1,.39-1.82,2.72,2.72,0,0,1,1.12-1.18,3.61,3.61,0,0,1,1.72-.4,3.41,3.41,0,0,1,1.83.46,2.15,2.15,0,0,1,1,1.36l-1.51.61a1.51,1.51,0,0,0-.43-.84,1.25,1.25,0,0,0-.82-.24,1.34,1.34,0,0,0-1.13.53,2.42,2.42,0,0,0-.4,1.52,2.58,2.58,0,0,0,.38,1.52,1.29,1.29,0,0,0,1.12.53,1.35,1.35,0,0,0,.87-.26,1.41,1.41,0,0,0,.44-.82l1.56.44A2.54,2.54,0,0,1,71.78,71.63Z"/><path d="M79.33,66.75H77.18V72H75.46V66.75H73.3V65.42h6Z"/><path d="M86.09,69.33a2.76,2.76,0,0,1-.74,2.09,3.09,3.09,0,0,1-2.21.7,3.12,3.12,0,0,1-2.21-.7,2.76,2.76,0,0,1-.74-2.09V65.42h1.73v3.94a1.6,1.6,0,0,0,.3,1.06,1.16,1.16,0,0,0,.92.35c.83,0,1.24-.47,1.24-1.41V65.42h1.71Z"/><path d="M90.28,66.24a.72.72,0,0,1-.24-.61.73.73,0,0,1,.24-.62,1.14,1.14,0,0,1,.75-.2,1.19,1.19,0,0,1,.76.2.76.76,0,0,1,.23.62.75.75,0,0,1-.23.61,1.13,1.13,0,0,1-.76.2A1.09,1.09,0,0,1,90.28,66.24ZM91.88,72h-1.7V67h1.7Z"/><path d="M97.63,67.38a1.76,1.76,0,0,1,.47,1.31V72H96.4V69.16a1.05,1.05,0,0,0-.19-.72.62.62,0,0,0-.52-.22.8.8,0,0,0-.65.29,1.27,1.27,0,0,0-.25.87V72h-1.7V67h1.52l0,1a1.72,1.72,0,0,1,.68-.79,1.93,1.93,0,0,1,1-.27A1.7,1.7,0,0,1,97.63,67.38Z"/><path d="M107.19,66a2,2,0,0,1,.66,1.63,2,2,0,0,1-.66,1.57,2.92,2.92,0,0,1-1.89.55H104V72h-1.72v-6.6h3A2.86,2.86,0,0,1,107.19,66Zm-1.34,2.28a.82.82,0,0,0,.27-.67.78.78,0,0,0-.27-.65,1.24,1.24,0,0,0-.82-.22h-1v1.75h1A1.3,1.3,0,0,0,105.85,68.26Z"/></g><g class="cls-5"><path d="M112.46,67l-.18,1.44a.85.85,0,0,0-.27-.1,1.36,1.36,0,0,0-.36-.05,1.09,1.09,0,0,0-.8.31,1.15,1.15,0,0,0-.32.87V72h-1.7V67h1.5l.07,1.08a1.84,1.84,0,0,1,.56-.88,1.53,1.53,0,0,1,1-.3A1.15,1.15,0,0,1,112.46,67Z"/></g><g class="cls-5"><path d="M118.21,71l-.13.95a1.34,1.34,0,0,1-.68.16c-.72,0-1.15-.26-1.29-.77a1.89,1.89,0,0,1-1.78.77,1.83,1.83,0,0,1-1.15-.32,1.1,1.1,0,0,1-.4-.93,1.27,1.27,0,0,1,.46-1,3.21,3.21,0,0,1,1.49-.61l1.13-.22v-.18a.73.73,0,0,0-.19-.54.7.7,0,0,0-.52-.2,1,1,0,0,0-.62.18.91.91,0,0,0-.31.59l-1.38-.4a1.73,1.73,0,0,1,.72-1.14,2.75,2.75,0,0,1,1.59-.4,2.84,2.84,0,0,1,1.78.48,1.71,1.71,0,0,1,.61,1.44v1.82q0,.39.36.39A.9.9,0,0,0,118.21,71Zm-2.63-.19a.58.58,0,0,0,.28-.51v-.43l-.81.19a1.17,1.17,0,0,0-.46.2.46.46,0,0,0,0,.64A.57.57,0,0,0,115,71,1,1,0,0,0,115.58,70.82Z"/></g><g class="cls-5"><path d="M123.45,71.29a1.36,1.36,0,0,1,.47,1.12,1.43,1.43,0,0,1-.75,1.3,3.93,3.93,0,0,1-2.06.46,4.56,4.56,0,0,1-1.94-.31,1,1,0,0,1-.62-.87.85.85,0,0,1,.23-.58,1.29,1.29,0,0,1,.7-.36,1.1,1.1,0,0,1-.77-1,.94.94,0,0,1,.22-.62,1.35,1.35,0,0,1,.6-.4,1.45,1.45,0,0,1-.82-1.37,1.42,1.42,0,0,1,.64-1.25,3.11,3.11,0,0,1,1.8-.45,4.51,4.51,0,0,1,1,.11,1.9,1.9,0,0,1,.45-1,1.26,1.26,0,0,1,1-.38h.16l.19,1.13-.28,0a1.13,1.13,0,0,0-.56.12.7.7,0,0,0-.33.33,1.45,1.45,0,0,1,.84,1.38,1.42,1.42,0,0,1-.64,1.25,3.19,3.19,0,0,1-1.8.44,4.61,4.61,0,0,1-1-.09.34.34,0,0,0-.31.35c0,.23.17.34.52.34h1.7A2.15,2.15,0,0,1,123.45,71.29Zm-1.21,1.65c.22-.09.34-.21.34-.36a.26.26,0,0,0-.14-.24,1,1,0,0,0-.47-.08H120.6a1.42,1.42,0,0,0-.59.09.27.27,0,0,0-.17.26c0,.31.46.46,1.39.46A3,3,0,0,0,122.24,72.94Zm-1.62-4.85a.69.69,0,0,0-.21.53.66.66,0,0,0,.21.52.69.69,0,0,0,.53.2.72.72,0,0,0,.54-.2.69.69,0,0,0,.2-.52.72.72,0,0,0-.2-.53.77.77,0,0,0-.54-.2A.72.72,0,0,0,120.62,68.09Z"/><path d="M129.57,67v5h-1.52l-.05-.93a1.72,1.72,0,0,1-1.73,1A1.77,1.77,0,0,1,125,71.7a1.74,1.74,0,0,1-.46-1.34V67h1.7v2.91a1.09,1.09,0,0,0,.17.69.66.66,0,0,0,.52.2.88.88,0,0,0,.67-.28,1.27,1.27,0,0,0,.25-.87V67Z"/><path d="M135.61,70H132.2a1.13,1.13,0,0,0,.34.69,1.08,1.08,0,0,0,.71.22,1.16,1.16,0,0,0,.6-.14.66.66,0,0,0,.32-.41l1.38.44a1.71,1.71,0,0,1-.81,1,3.1,3.1,0,0,1-1.49.33,2.75,2.75,0,0,1-2-.68,2.53,2.53,0,0,1-.7-1.92,2.37,2.37,0,0,1,2.61-2.6,2.43,2.43,0,0,1,1.85.67,2.51,2.51,0,0,1,.65,1.86A2.83,2.83,0,0,1,135.61,70Zm-3.42-.92h1.88c-.08-.65-.39-1-.92-1S132.29,68.44,132.19,69.09Z"/></g></g></g></svg>