<svg xmlns="http://www.w3.org/2000/svg" viewBox="0 0 708.66142 708.45055"><title>ISC_logo</title><circle cx="354.24702" cy="354.22528" r="255.11811" style="fill:#fff;opacity:0.75"/><polygon points="344.872 219.231 310.684 243.194 333.692 266.533 323.975 242.882 357.925 230.116 344.872 219.231" style="fill:#2e3192"/><path d="M292.45453,445.49892l.66058-1.72705,6.10657-15.94321c7.036-18.36941,17.06245-44.544,20.74079-54.24672-5.652-8.43432-19.59315-29.26847-29.17308-43.58409,2.72654,14.50537,6.30544,32.405,7.18216,36.91639-9.53123,13.88943-23.8367,32.199-23.8367,32.199l-4.73568,72.34925,36.271,92.56747s-12.47289-110.70349-13.04113-116.6893Z" style="fill:#2e3192"/><path d="M356.21016,334.19472c.09843-2.12583-53.19446-79.5852-53.73327-79.73537.49721,1.6621,26.79053,68.28734,26.79053,68.28734l-41.716-11.78288s37.74845,56.42531,41.22487,61.59123c-1.11518,3.13751-19.86916,52.04175-28.29029,74.03876.59564,6.26993,13.74433,124.34939,14.64235,129.9831.758-13.34758,6.40489-112.39807,6.5916-117.76693.06088-1.72908,24.77125-55.17113,29.60536-65.96466C352.6272,389.93814,355.68048,345.63361,356.21016,334.19472Z" style="fill:#2e3192"/><path d="M325.70171,273.93073c3.41756,4.97516,6.9782,10.18065,10.40489,15.21364,5.2197,7.66517,12.65047,18.63628,18.413,27.36892,2.65044,4.01625,4.71234,7.20347,6.12787,9.47238,2.38255,3.81736,3.57789,5.73416,3.447,8.57435-.26585,5.72705-1.14866,19.5485-2.16845,32.76619-1.96956,25.55766-2.6961,27.17816-3.39727,28.74386-1.32521,2.95892-4.03451,8.88486-7.46526,16.38564-3.57383,7.81534-8.67379,18.96809-13.04722,28.64137,14.59162-15.99091,34.59268-38.03054,43.28271-47.5638.05784-2.03146.07915-69.28379.04972-71.52226C367.26346,309.87908,343.49069,289.22149,325.70171,273.93073Z" style="fill:#2e3192"/><path d="M257.25606,414.616c-.964-.02841-32.37958,15.33337-32.62718,15.512,2.31965,2.37038,4.92544,4.46983,7.515,6.76309,4.7509-2.67074,20.11167-11.307,23.20554-12.94778a80.356,80.356,0,0,1,10.66467-2.88788c1.83258-2.09945,4.61594-5.05126,6.44852-7.15071C267.09577,414.21523,262.079,414.37454,257.25606,414.616Z" style="fill:#2e3192"/><path d="M523.15429,328.47273s-41.98287-66.399-42.75-67.76882l-27.86512-28.66268,38.15028,18.43637s51.29187,37.36692,53.04225,38.05084c-.0142-2.09438-26.97419-37.01684-39.098-53.165a14.29928,14.29928,0,0,0-1.09792-1.23187c.02638,0,.05986.001.08523.001-.0345-.0213-.10147-.05885-.18163-.10248-.06088-.06494-.1238-.12887-.18468-.19483-.05479,0-.12583-.002-.18874-.002-6.45258-3.3516-64.16151-31.31718-64.16151-31.31718s11.104-2.32471,16.0863-3.23288c3.7443-.68189,7.49469-1.33334,11.238-2.02335.62709-.11466,3.09589-.61593,3.09589-.61593s-2.43836-.66971-2.965-.79554q-12.95284-3.07458-25.90773-6.14715c-17.84175-4.20194-54.77944-12.92646-55.82764-13.25523.59665-.32065,38.56834-15.09593,38.56834-15.09593l-67.35888-.32674-56.02755,34.41815s6.10149-10.29734,8.90921-15.27452c3.26637-5.792,7.64791-12.91023,10.90312-18.92547-4.38966,2.85338-42.12086,27.73422-42.12086,27.73422l1.56063,24.90824-53.07878,35.75656-8.66161,27.84482-57.05749,50.94078,29.26847,40.7033s-.7032,32.66574-.54389,36.50847c7.88232,9.512,26.3948,29.96558,26.76517,30.50338,6.24659,3.929,22.95288,13.29887,22.95288,13.29887s-18.43435-22.685-21.08073-25.86105c-4.30341-4.61189-16.25778-18.05891-17.81435-19.81031-.08727-.17859-.17656-.36225-.25977-.53374-.12177-2.02334.70726-16.55306,1.01979-23.58809l.00913-.01522-.00913.01522c5.42974-1.08371,10.95792-1.42973,16.43028-2.18772a7.06854,7.06854,0,0,1,3.6479.86859c7.80419,3.1162,27.56375,11.05229,27.89962,11.01576-.85743-.758-3.48656-2.47692-4.25064-2.99037,8.18064-6.21412,25.3953-23.43385,24.11066-22.98839-2.23744.77626-22.10254,13.10607-31.42778,18.26083-5.308-3.3922-10.66568-6.71032-15.89654-10.2192a7.704,7.704,0,0,0-5.45-1.42365c-4.553.50533-9.11926.90107-13.67939,1.34145h-.001c-4.22731-7.34147-15.97366-24.826-16.51857-25.6368,5.41453-4.72857,17.84176-17.25626,18.51451-18.2659-1.57281.10756-22.5754,3.2268-30.478,4.40488-1.1101.02841,53.60745-51.4116,53.60745-51.4116L245.83645,244.164l45.96867-13.26741,6.30646,4.39879s46.85248-32.01226,48.04477-32.59471c3.2065,3.312,30.91028,26.77937,30.91028,26.77937l7.14868,28.7946s-22.18373,15.42774-23.89657,16.03251c-.069.02537,46.12494,5.13751,46.12494,5.13751l50.2122,40.50645-24.19488-50.057-46.78856-36.1523,52.46691,20.71746ZM203.82518,374.50025c-.21614-.36631-.38458-.65855-.52258-.90309C203.42335,373.80112,203.58063,374.07306,203.82518,374.50025Z" style="fill:#2e3192"/><path d="M251.08558,288.33361c8.74482-5.55354,29.20555-15.39425,29.20555-15.39425s-31.8976-7.80317-32.59268-7.95436c-2.0548-.44648-2.15322.071-2.36834,1.47844.549,5.21767,2.07611,19.11623,2.31152,20.90416a1.1193,1.1193,0,0,0,.38356.65652,1.05879,1.05879,0,0,1-.38356-.65652l-7.87724,10.12078S244.57414,293.97848,251.08558,288.33361Zm-1.22477.31152a.28654.28654,0,0,1,.02943.001A.28654.28654,0,0,0,249.86081,288.64513Zm-1.47032-.35819a2.0323,2.0323,0,0,1-.28513-.20092A2.06729,2.06729,0,0,0,248.39049,288.28694Zm.95891.32673c-.08524-.01217-.16236-.03653-.24353-.05581C249.187,288.57714,249.26518,288.60048,249.3494,288.61367Zm-.50736-.12379a2.53762,2.53762,0,0,1-.29224-.12684A2.61726,2.61726,0,0,0,248.842,288.48988Z" style="fill:#2e3192"/><circle cx="383.0345" cy="489.69009" r="23.55782" style="fill:#ec008c"/><circle cx="458.14321" cy="448.38521" r="23.55782" style="fill:#7ac143"/><circle cx="488.00638" cy="366.56005" r="23.55782" style="fill:#00aeef"/></svg>