<svg xmlns="http://www.w3.org/2000/svg" viewBox="0 0 850.3937 366.8365"><title>ISC_logo</title><polygon points="169.96 74.434 145.341 91.69 161.909 108.498 154.912 91.466 179.36 82.273 169.96 74.434" style="fill:#fff"/><path d="M132.21324,237.37471l.47569-1.24369L137.08641,224.65c5.06681-13.22822,12.287-32.07714,14.93591-39.06428-4.07011-6.07375-14.10947-21.07689-21.0082-31.38589,1.96345,10.44565,4.5407,23.33555,5.172,26.58433-6.86365,10.00209-17.16534,23.1872-17.16534,23.1872l-3.41027,52.10033,26.11958,66.65992s-8.982-79.72008-9.39121-84.03059Z" style="fill:#fff"/><path d="M178.1251,157.222c.07088-1.53086-38.30653-57.31109-38.69454-57.41924.358,1.19692,19.29246,49.17526,19.29246,49.17526l-30.04062-8.48512s27.18351,40.63314,29.68695,44.35324c-.80306,2.25938-14.30822,37.47643-20.37247,53.317.42894,4.51511,9.8976,89.5468,10.54429,93.60375.54585-9.61189,4.61231-80.94038,4.74676-84.80662.04384-1.24514,17.83833-39.73,21.31948-47.50264C175.54493,197.36414,177.74366,165.45945,178.1251,157.222Z" style="fill:#fff"/><path d="M156.15527,113.82459c2.46107,3.58272,5.02516,7.33131,7.4928,10.95568,3.75883,5.51986,9.10989,13.4204,13.25965,19.709,1.90864,2.89219,3.39346,5.18738,4.41282,6.82127,1.71573,2.749,2.57651,4.1293,2.48225,6.17458-.19145,4.12418-.82717,14.07732-1.56155,23.59568-1.41832,18.40464-1.94152,19.5716-2.44645,20.6991-.95432,2.13078-2.90534,6.39818-5.3759,11.79967-2.5736,5.628-6.2462,13.65934-9.3956,20.6253,10.50775-11.51542,24.911-27.38666,31.16886-34.25177.04165-1.4629.057-49.89282.0358-51.50479C186.08483,139.7118,168.96552,124.83581,156.15527,113.82459Z" style="fill:#fff"/><path d="M106.866,215.13525c-.69418-.02046-23.31727,11.04191-23.49556,11.17051,1.67042,1.707,3.54691,3.21882,5.41171,4.87025,3.42123-1.92325,14.48287-8.14241,16.71083-9.324a57.8652,57.8652,0,0,1,7.67987-2.07963c1.31968-1.51186,3.324-3.63753,4.64372-5.14939C113.95181,214.84661,110.33913,214.96134,106.866,215.13525Z" style="fill:#fff"/><path d="M298.34533,153.10151s-30.23281-47.81538-30.78523-48.80186L247.4938,83.659l27.47288,13.27645s36.93643,26.90876,38.19692,27.40126c-.01023-1.5082-19.42473-26.65666-28.15537-38.28533a10.29412,10.29412,0,0,0-.79064-.8871l.06138.00073c-.02484-.01534-.07307-.04238-.1308-.0738-.04384-.04677-.08915-.0928-.133-.1403-.03946,0-.09061-.00146-.13591-.00146-4.64665-2.41357-46.20415-22.55221-46.20415-22.55221s7.99626-1.67408,11.5841-2.32807c2.69636-.49105,5.3971-.96017,8.09272-1.45706.45159-.08257,2.22943-.44354,2.22943-.44354s-1.75592-.48228-2.13517-.57289q-9.32763-2.21408-18.65674-4.4267c-12.84824-3.02591-39.44791-9.30864-40.20274-9.54539.42966-.23091,27.77393-10.87092,27.77393-10.87092l-48.50665-.2353L137.5073,57.30267s4.39382-7.41534,6.41572-10.99952c2.35219-4.171,5.50744-9.297,7.85159-13.62866-3.1611,2.05478-30.33219,19.972-30.33219,19.972l1.12385,17.937L84.343,96.33261,78.10562,116.3843,37.01724,153.0679l21.07688,29.31137s-.50639,23.52333-.39166,26.29057c5.67623,6.84977,19.00748,21.57889,19.2742,21.96617,4.49831,2.82935,16.52888,9.57681,16.52888,9.57681s-13.275-16.336-15.18071-18.62312c-3.099-3.32112-11.70759-13.00462-12.82851-14.26585-.06285-.1286-.12715-.26086-.18707-.38436-.08768-1.45705.50931-11.92023.73437-16.98631l.00658-.011-.00658.011c3.91009-.78041,7.891-1.02959,11.83182-1.57543a5.0903,5.0903,0,0,1,2.62694.62549c5.62,2.244,19.84928,7.959,20.09114,7.9327-.61745-.54585-2.51075-1.78369-3.061-2.15343,5.89106-4.47493,18.28772-16.87525,17.36263-16.55446-1.61123.559-15.91654,9.438-22.63185,13.15-3.8224-2.44279-7.6806-4.83225-11.44746-7.35908a5.54789,5.54789,0,0,0-3.9247-1.0252c-3.27874.3639-6.567.64888-9.85083.966H67.0396c-3.04418-5.28675-11.503-17.87779-11.89539-18.46163,3.89912-3.40516,12.84824-12.42663,13.33271-13.15369-1.13261.07745-16.25705,2.32369-21.9479,3.172-.79941.02046,38.60393-37.02265,38.60393-37.02265l13.50955-26.105,33.10307-9.55416,4.54143,3.16767s33.73953-23.05275,34.59812-23.47219c2.30908,2.38507,22.25919,19.28443,22.25919,19.28443l5.14793,20.73564s-15.975,11.10987-17.20846,11.54537c-.04969.01827,33.21561,3.69964,33.21561,3.69964l36.15894,29.16961L233.035,110.91778,199.34155,84.88369l37.7826,14.91911ZM68.38924,186.247c-.15565-.26379-.27695-.47424-.37632-.65034C68.09987,185.7435,68.21313,185.93933,68.38924,186.247Z" style="fill:#fff"/><path d="M102.42252,124.19643c6.29734-3.99923,21.03158-11.08576,21.03158-11.08576s-22.97018-5.61923-23.47073-5.72811c-1.47971-.32152-1.55059.05115-1.7055,1.06466.39532,3.75736,1.49505,13.766,1.66458,15.05356a.806.806,0,0,0,.27621.47278.76258.76258,0,0,1-.27621-.47278l-5.67258,7.2882S97.73349,128.26142,102.42252,124.19643Zm-.882.22433a.20563.20563,0,0,1,.02119.00073A.20563.20563,0,0,0,101.54054,124.42076Zm-1.05882-.258a1.46333,1.46333,0,0,1-.20533-.14468A1.48879,1.48879,0,0,0,100.48172,124.16281Zm.69053.23529c-.06138-.00876-.11691-.0263-.17537-.04019C101.05534,124.3718,101.1116,124.3886,101.17225,124.3981Zm-.36536-.08914a1.82756,1.82756,0,0,1-.21044-.09134A1.88456,1.88456,0,0,0,100.80689,124.309Z" style="fill:#fff"/><circle cx="197.44191" cy="269.19777" r="16.96452" style="fill:#fff"/><circle cx="251.52939" cy="239.45319" r="16.96452" style="fill:#fff"/><circle cx="273.03452" cy="180.52905" r="16.96452" style="fill:#fff"/><path d="M358.08823,112.77715H350.0191V40.36008h8.06913Z" style="fill:#fff"/><path d="M367.19189,112.77715V40.36008h10.24123L394.1927,92.70687V40.36008h7.13866v72.41707h-8.38029l-18.51748-58.555v58.555Z" style="fill:#fff"/><path d="M420.7793,47.70483H407.43347V40.36008h34.7608v7.34475H428.84843v65.07232H420.7793Z" style="fill:#fff"/><path d="M473.33219,79.6722H455.64113v25.75918h21.72512v7.34577H447.572V40.36008h29.79425v7.34475H455.64113V72.43049h17.69106Z" style="fill:#fff"/><path d="M513.41819,44.4982q3.87948,4.13862,3.87948,12.41435v5.897a19.15,19.15,0,0,1-2.17311,9.724,11.46687,11.46687,0,0,1-6.82749,5.17265,11.4531,11.4531,0,0,1,6.93155,5.22417,19.70546,19.70546,0,0,1,2.1721,9.88057v11.27576a40.459,40.459,0,0,0,.25864,5.01808,9.97822,9.97822,0,0,0,1.19011,3.67238h-8.17319a14.85992,14.85992,0,0,1-1.03453-3.46628,33.95286,33.95286,0,0,1-.31015-5.32722V92.60382q0-5.89652-2.63785-8.32776-2.63835-2.43073-7.91456-2.43175h-5.68991v30.93284h-8.06913V40.36008h16.13826Q509.5387,40.36008,513.41819,44.4982ZM506.7968,72.32644q2.53379-2.17161,2.5348-7.759V57.63692q0-4.966-1.966-7.44881-1.96551-2.48378-6.41328-2.48328h-7.863V74.49955h6.00007Q504.26149,74.49955,506.7968,72.32644Z" style="fill:#fff"/><path d="M525.46985,112.77715V40.36008h10.24124l16.75958,52.34679V40.36008h7.13866v72.41707H551.229l-18.51747-58.555v58.555Z" style="fill:#fff"/><path d="M572.8511,112.77715h-7.44881l13.8631-72.41707h11.69l13.86209,72.41707h-8.06913L593.9549,98.18967H575.64453Zm19.96622-21.518-8.17319-41.79539-7.96507,41.79539Z" style="fill:#fff"/><path d="M615.99018,47.70483H602.64434V40.36008h34.7608v7.34475H624.0593v65.07232h-8.06912Z" style="fill:#fff"/><path d="M652.29974,112.77715h-8.06913V40.36008h8.06913Z" style="fill:#fff"/><path d="M665.28288,44.4982q4.19015-4.86148,12.36283-4.86249,8.17116,0,12.41435,4.86249,4.24017,4.863,4.24117,13.34482V95.29319q0,8.48487-4.24117,13.34584-4.24319,4.863-12.41435,4.86249-8.06964,0-12.31131-4.86249-4.24318-4.86149-4.24116-13.34584V57.843Q661.09324,49.36271,665.28288,44.4982Zm5.94854,58.96818a7.75212,7.75212,0,0,0,6.41429,2.68937q8.58488,0,8.58639-10.44834V57.42982q0-4.966-2.12058-7.70745-2.1216-2.73988-6.46581-2.74191a7.69235,7.69235,0,0,0-6.41429,2.74191q-2.17311,2.74292-2.17311,7.70745V95.70741Q669.05831,100.7765,671.23142,103.46638Z" style="fill:#fff"/><path d="M701.54294,112.77715V40.36008h10.24123l16.75958,52.34679V40.36008h7.13866v72.41707h-8.38029l-18.51748-58.555v58.555Z" style="fill:#fff"/><path d="M749.64755,112.77715h-7.44881l13.8631-72.41707h11.69l13.86209,72.41707h-8.06913l-2.79343-14.58748H752.441Zm19.96622-21.518-8.17319-41.79539-7.96507,41.79539Z" style="fill:#fff"/><path d="M788.13124,40.36008h8.06913v65.0713H816.891v7.34577H788.13124Z" style="fill:#fff"/><path d="M372.76764,149.96868q4.08558,4.81,4.08659,13.2933v1.966h-7.65491v-2.38023q0-10.34277-8.27624-10.3453-8.27876,0-8.27623,10.24225a13.74963,13.74963,0,0,0,2.79242,8.742,48.64771,48.64771,0,0,0,8.38029,7.91354q4.44625,3.72492,6.98308,6.31124a23.34573,23.34573,0,0,1,4.34522,6.41428,20.36394,20.36394,0,0,1,1.81043,8.7935q0,8.48335-4.13812,13.2933-4.14013,4.81-12.20826,4.811-8.06811,0-12.15572-4.811-4.08709-4.80994-4.08558-13.2933v-4.13811h7.55186v4.55132q0,4.966,2.12059,7.65592,2.11855,2.69139,6.36276,2.68937,4.24016,0,6.36175-2.68937,2.12007-2.68988,2.12058-7.65592a13.55265,13.55265,0,0,0-2.7409-8.58639,50.91289,50.91289,0,0,0-8.32776-7.96608q-4.24318-3.51579-6.88-6.15566a22.5999,22.5999,0,0,1-4.44828-6.51733,20.67854,20.67854,0,0,1-1.81042-8.845q0-8.58639,4.03406-13.34583,4.03557-4.75692,12.00114-4.75843Q368.681,145.15772,372.76764,149.96868Z" style="fill:#fff"/><path d="M397.81356,153.22685H384.46772v-7.34476h34.7608v7.34476H405.88268v65.07231h-8.06912Z" style="fill:#fff"/><path d="M444.33405,211.67776q4.24167,0,6.31123-2.68937,2.06856-2.68988,2.06906-7.759V145.88209h7.55186V200.8152q0,8.58792-4.03507,13.44889-4.03405,4.86451-12.20724,4.86249-8.06964,0-12.1042-4.914-4.03406-4.913-4.03406-13.39736V145.88209h7.96608v55.34733Q435.85171,211.67978,444.33405,211.67776Z" style="fill:#fff"/><path d="M499.86727,150.589q4.08558,4.70842,4.08659,13.2933V200.402q0,8.48334-4.08659,13.19025-4.08711,4.70843-12.36182,4.70691H470.53876V145.88209h16.96669Q495.77966,145.88209,499.86727,150.589Zm-3.87949,50.12316V163.46909q0-10.24275-8.68944-10.24224h-8.69045v57.72654h8.7935Q495.98778,210.95339,495.98778,200.71216Z" style="fill:#fff"/><path d="M539.5936,185.19421H521.90254v25.75918h21.72512v7.34577H513.83342V145.88209h29.79424v7.34476H521.90254v24.72566H539.5936Z" style="fill:#fff"/><path d="M553.24758,218.29916V145.88209h10.24123l16.75958,52.34679V145.88209h7.13866v72.41707h-8.3803l-18.51747-58.555v58.555Z" style="fill:#fff"/><path d="M609.53548,153.22685H596.18964v-7.34476h34.7608v7.34476H617.60461v65.07231h-8.06913Z" style="fill:#fff"/><path d="M687.693,150.02021q4.08558,4.863,4.0866,13.34482v6.51835h-7.65593v-6.93155q0-10.44885-8.48334-10.44936a7.54238,7.54238,0,0,0-6.36175,2.74191q-2.1216,2.74292-2.1216,7.70745v38.27759q0,4.966,2.1216,7.70745a7.539,7.539,0,0,0,6.36175,2.74089q8.48182,0,8.48334-10.44834V191.8146h7.65593v9.0006q0,8.48487-4.0866,13.34584-4.08861,4.863-12.25978,4.86249-8.06811,0-12.15572-4.86249-4.0871-4.86149-4.08558-13.34584V163.365q0-8.48031,4.08558-13.34482,4.08558-4.86148,12.15572-4.86249Q683.60436,145.15772,687.693,150.02021Z" style="fill:#fff"/><path d="M701.39847,145.88209h8.06913v65.0713h20.69059v7.34577H701.39847Z" style="fill:#fff"/><path d="M754.95558,211.67776q4.24167,0,6.31123-2.68937,2.06856-2.68988,2.06906-7.759V145.88209h7.55186V200.8152q0,8.58792-4.03506,13.44889-4.03407,4.86451-12.20725,4.86249-8.06964,0-12.1042-4.914-4.03405-4.913-4.03406-13.39736V145.88209h7.96608v55.34733Q746.47324,211.67978,754.95558,211.67776Z" style="fill:#fff"/><path d="M809.40173,149.8131q3.72492,3.93252,3.72492,12.1042V165.331q0,6.00108-1.966,9.46635a10.887,10.887,0,0,1-6.51734,4.914q9.723,2.69139,9.724,15.51794v6.10312q0,8.27875-4.08558,12.62146-4.08861,4.34472-12.46689,4.34523H781.15928V145.88209H797.4016Q805.67733,145.88209,809.40173,149.8131Zm-6.56885,24.72566q2.32768-2.06856,2.32769-7.55287v-4.24117q0-4.86149-1.86195-7.19018-1.86246-2.3277-6.10413-2.32769h-7.96608v23.381h6.20717Q800.50317,176.60782,802.83288,174.53876Zm1.50026,34.03542q2.067-2.37771,2.06906-7.44882v-6.41327q0-5.898-2.38022-8.32877-2.38074-2.42923-7.759-2.43074h-7.0346v27.00081h8.58639Q802.26257,210.95339,804.33314,208.57418Z" style="fill:#fff"/><path d="M372.73228,255.54222q4.08558,4.863,4.08659,13.34483v6.51834H369.163v-6.93155q0-10.44885-8.48335-10.44935a7.54238,7.54238,0,0,0-6.36175,2.7419q-2.12159,2.74292-2.12159,7.70745v38.27759q0,4.966,2.12159,7.70745a7.539,7.539,0,0,0,6.36175,2.7409q8.48184,0,8.48335-10.44835v-9.41482h7.65592v9.00061q0,8.48485-4.08659,13.34583-4.08863,4.863-12.25978,4.86249-8.06813,0-12.15573-4.86249-4.0871-4.86148-4.08558-13.34583V268.88705q0-8.48032,4.08558-13.34483,4.0856-4.86148,12.15573-4.86249Q368.64366,250.67973,372.73228,255.54222Z" style="fill:#fff"/><path d="M397.363,258.74886H384.01713V251.4041h34.7608v7.34476H405.4321v65.07231H397.363Z" style="fill:#fff"/><path d="M443.3672,317.19978q4.24168,0,6.31124-2.68938,2.06856-2.68988,2.06906-7.759V251.4041h7.55186v54.93312q0,8.58791-4.03507,13.44888-4.03406,4.86452-12.20724,4.86249-8.06964,0-12.1042-4.914-4.03405-4.913-4.03406-13.39736V251.4041h7.96608v55.34733Q434.88487,317.2018,443.3672,317.19978Z" style="fill:#fff"/><path d="M497.576,323.82117h-8.06913V251.4041H497.576Z" style="fill:#fff"/><path d="M507.44439,323.82117V251.4041h10.24123l16.75958,52.34679V251.4041h7.13866v72.41707h-8.38029l-18.51748-58.555v58.555Z" style="fill:#fff"/><path d="M600.18935,256.008q3.981,4.60386,3.98254,13.08619v8.69046q0,17.48345-16.86263,17.48294H580.1706v28.55362h-8.06913V251.4041h15.8281Q596.20531,251.4041,600.18935,256.008Zm-6.15565,29.74272q2.17161-2.27465,2.17211-7.44881V268.681q0-5.06758-1.965-7.50034-1.967-2.43075-6.31124-2.43175h-7.759v29.277h7.13866Q591.86008,288.02584,594.0337,285.75068Z" style="fill:#fff"/><path d="M641.39373,255.54222q3.87949,4.13862,3.87949,12.41435v5.897a19.14992,19.14992,0,0,1-2.17312,9.724,11.46684,11.46684,0,0,1-6.82749,5.17264,11.453,11.453,0,0,1,6.93155,5.22418,19.70529,19.70529,0,0,1,2.17211,9.88056v11.27577a40.45911,40.45911,0,0,0,.25863,5.01807,9.97834,9.97834,0,0,0,1.19011,3.67238h-8.17318a14.85929,14.85929,0,0,1-1.03453-3.46628,33.9526,33.9526,0,0,1-.31016-5.32722V303.64784q0-5.89651-2.63785-8.32776-2.63835-2.43074-7.91455-2.43175h-5.68991v30.93284H612.9957V251.4041H629.134Q637.51426,251.4041,641.39373,255.54222Zm-6.62139,27.82824q2.53379-2.17161,2.5348-7.759V268.681q0-4.966-1.966-7.44882-1.96551-2.48377-6.41327-2.48327h-7.863v26.79472h6.00006Q632.237,285.54358,634.77234,283.37046Z" style="fill:#fff"/><path d="M662.27022,323.82117H654.8214l13.8631-72.41707h11.69l13.86209,72.41707h-8.06913L683.374,309.2337H665.06365Zm19.96621-21.518-8.17318-41.7954-7.96507,41.7954Z" style="fill:#fff"/><path d="M729.80358,255.54222q4.08558,4.863,4.08659,13.34483v6.20717h-7.65592v-6.62038q0-10.44885-8.48335-10.44935a7.54238,7.54238,0,0,0-6.36175,2.7419q-2.12159,2.74292-2.12159,7.70745v38.27759q0,4.966,2.12159,7.70745a7.539,7.539,0,0,0,6.36175,2.7409q8.48184,0,8.48335-10.44835V292.268h-7.44882v-7.24171h15.10474v21.31091q0,8.48485-4.08659,13.34583-4.08863,4.863-12.25978,4.86249-8.06813,0-12.15573-4.86249-4.0871-4.86148-4.08558-13.34583V268.88705q0-8.48032,4.08558-13.34483,4.0856-4.86148,12.15573-4.86249Q725.715,250.67973,729.80358,255.54222Z" style="fill:#fff"/><path d="M759.44224,317.19978q4.24167,0,6.31124-2.68938,2.06855-2.68988,2.06906-7.759V251.4041h7.55186v54.93312q0,8.58791-4.03507,13.44888-4.03406,4.86452-12.20725,4.86249-8.06962,0-12.10419-4.914-4.03407-4.913-4.03406-13.39736V251.4041h7.96608v55.34733Q750.95991,317.2018,759.44224,317.19978Z" style="fill:#fff"/><path d="M810.88887,290.71622H793.19781V316.4754h21.72512v7.34577H785.12868V251.4041h29.79425v7.34476H793.19781v24.72566h17.69106Z" style="fill:#fff"/></svg>