<svg xmlns="http://www.w3.org/2000/svg" viewBox="0 0 942.96 269.29"><defs><style>.a{fill:#164194;}.b{fill:none;}.c{fill:#ffed00;}</style></defs><title>EU flag-Erasmus+_vect_POS [CMYK]</title><path class="a" d="M396.18459,219.6757h-56.0274v-85.041h56.0274v10.0528h-44.7198v23.3027h44.7198V178.041h-44.7198v31.584h44.7198Z"/><path class="a" d="M448.65819,167.5898h-.5713a39.39624,39.39624,0,0,0-4.6543-.8281,47.81216,47.81216,0,0,0-5.3398-.2578,22.11537,22.11537,0,0,0-9.59479,2.1992,44.22252,44.22252,0,0,0-8.91011,5.6836v45.289h-10.7373V155.8808h10.7373v9.4238a52.67475,52.67475,0,0,1,11.2803-7.2812,24.58371,24.58371,0,0,1,9.96581-2.1426,40.00225,40.00225,0,0,1,4.05469.1446q1.25535.14055,3.7695.541Z"/><path class="a" d="M506.41109,219.6757h-10.6806v-6.7949q-1.4283.96975-3.85449,2.711a27.55027,27.55027,0,0,1-4.71191,2.7714,31.99112,31.99112,0,0,1-6.168,2.1973,33.3326,33.3326,0,0,1-8.167.8867,20.41557,20.41557,0,0,1-14.62109-5.7109,19.23738,19.23738,0,0,1-5.99711-14.5645q0-7.25385,3.1133-11.7363a20.76756,20.76756,0,0,1,8.8809-7.0527,47.869,47.869,0,0,1,13.9922-3.4844q8.16645-.9141,17.5332-1.3711v-1.6562a12.74372,12.74372,0,0,0-1.2842-6.0547,9.372,9.372,0,0,0-3.6846-3.7696,15.2516,15.2516,0,0,0-5.4824-1.7695,47.2335,47.2335,0,0,0-6.6826-.457,45.36023,45.36023,0,0,0-9.4229,1.1133,73.21414,73.21414,0,0,0-10.7373,3.2265h-.5713V157.2519q3.14072-.85545,9.0811-1.8848a68.52821,68.52821,0,0,1,11.708-1.0273,54.50225,54.50225,0,0,1,11.7363,1.1133,22.80719,22.80719,0,0,1,8.65241,3.7988,16.86391,16.86391,0,0,1,5.48339,6.7949,25.10236,25.10236,0,0,1,1.8847,10.3379Zm-10.6806-15.705V186.2089q-4.9116.28425-11.56449.8555a59.91467,59.91467,0,0,0-10.53811,1.6563,17.32471,17.32471,0,0,0-7.4814,4.0839,10.12883,10.12883,0,0,0-2.85549,7.625q0,5.48145,3.31249,8.252,3.312,2.77155,10.1094,2.7695a24.035,24.035,0,0,0,10.3369-2.1972A46.59742,46.59742,0,0,0,495.73049,203.9707Z"/><path class="a" d="M568.59079,201.2851a17.3614,17.3614,0,0,1-7.2246,14.336q-7.2261,5.5986-19.7324,5.5976a47.29507,47.29507,0,0,1-12.9932-1.6855,57.77763,57.77763,0,0,1-9.9092-3.6836V203.7988h.5713a43.07861,43.07861,0,0,0,11.3086,6.082,34.94513,34.94513,0,0,0,11.9366,2.2559q7.08105,0,11.07911-2.2832a7.698,7.698,0,0,0,3.998-7.1973,7.27032,7.27032,0,0,0-2.16991-5.7109q-2.171-1.9395-8.3389-3.3125-2.2851-.5127-5.9678-1.1992-3.684-.68565-6.7109-1.4844-8.39505-2.22945-11.9082-6.5391a16.2306,16.2306,0,0,1-3.5117-10.5957,17.32487,17.32487,0,0,1,1.6269-7.4238,17.92675,17.92675,0,0,1,4.94051-6.2246,23.624,23.624,0,0,1,8.13859-4.2559,36.37715,36.37715,0,0,1,11.0508-1.5703,49.6908,49.6908,0,0,1,11.5654,1.3984,43.71666,43.71666,0,0,1,9.7383,3.3985v11.4804h-.5713a38.38683,38.38683,0,0,0-9.9951-5.1113,34.384,34.384,0,0,0-11.5361-2.0859,20.18362,20.18362,0,0,0-9.9375,2.2558,7.91973,7.91973,0,0,0-1.5996,12.6504q2.3994,2.001,7.7676,3.2559,2.9691.6855,6.6533,1.3711,3.684.6855,6.13961,1.2558,7.48094,1.7139,11.53709,5.8829Q568.59089,194.31925,568.59079,201.2851Z"/><path class="a" d="M673.083,219.6757H662.34568V183.3535q0-4.1133-.3711-7.9395a16.7932,16.7932,0,0,0-1.5703-6.1113,8.68307,8.68307,0,0,0-3.7695-3.7129,15.95657,15.95657,0,0,0-7.0821-1.2559,20.01557,20.01557,0,0,0-9.0234,2.2559,55.39372,55.39372,0,0,0-9.0244,5.7402q.1713,1.3155.28612,3.0547.11277,1.74315.11428,3.4571v40.8339H621.168V183.3535q0-4.2276-.37112-8.0254a16.71148,16.71148,0,0,0-1.5713-6.082,8.49836,8.49836,0,0,0-3.7695-3.6836,16.24927,16.24927,0,0,0-7.08108-1.2286,19.91622,19.91622,0,0,0-8.82422,2.17,52.76173,52.76173,0,0,0-8.82419,5.541v47.6308h-10.7373V155.8808h10.7373v7.0821A47.22621,47.22621,0,0,1,600.75,156.4531a24.79967,24.79967,0,0,1,10.65138-2.3418,21.00513,21.00513,0,0,1,11.0517,2.7422,16.90783,16.90783,0,0,1,6.7676,7.5957,53.10219,53.10219,0,0,1,11.8789-7.9102,27.52447,27.52447,0,0,1,11.4795-2.4277q10.50888,0,15.5068,6.3672,4.99668,6.36915,4.99712,17.791Z"/><path class="a" d="M740.71288,219.6757h-10.7373v-7.082a52.25508,52.25508,0,0,1-10.3945,6.5684,25.931,25.931,0,0,1-10.9659,2.2851q-10.05165,0-15.6484-6.1406-5.5986-6.1377-5.5967-18.0176V155.8808h10.7363V192.205a64.5995,64.5995,0,0,0,.4571,8.3106,15.121,15.121,0,0,0,1.9424,5.9101,9.2076,9.2076,0,0,0,3.997,3.6563,17.5084,17.5084,0,0,0,7.1397,1.1406,22.82866,22.82866,0,0,0,9.10942-2.1699,42.49327,42.49327,0,0,0,9.22358-5.5391V155.8808h10.7373Z"/><path class="a" d="M803.40818,201.2851a17.36135,17.36135,0,0,1-7.2246,14.336q-7.2261,5.5986-19.7324,5.5976a47.29431,47.29431,0,0,1-12.99318-1.6855,57.77727,57.77727,0,0,1-9.90922-3.6836V203.7988h.5713a43.07861,43.07861,0,0,0,11.3086,6.082,34.94459,34.94459,0,0,0,11.9365,2.2559q7.08105,0,11.0791-2.2832a7.69786,7.69786,0,0,0,3.9981-7.1973,7.27032,7.27032,0,0,0-2.1699-5.7109q-2.17095-1.9395-8.3389-3.3125-2.2851-.5127-5.9678-1.1992-3.684-.68565-6.7109-1.4844-8.395-2.22945-11.9082-6.5391a16.23059,16.23059,0,0,1-3.51168-10.5957,17.32515,17.32515,0,0,1,1.62688-7.4238,17.92756,17.92756,0,0,1,4.9404-6.2246,23.62548,23.62548,0,0,1,8.13872-4.2559,36.377,36.377,0,0,1,11.05078-1.5703,49.69087,49.69087,0,0,1,11.5654,1.3984,43.71666,43.71666,0,0,1,9.7383,3.3985v11.4804h-.5713a38.38619,38.38619,0,0,0-9.9951-5.1113,34.38394,34.38394,0,0,0-11.53608-2.0859,20.18364,20.18364,0,0,0-9.93752,2.2558,7.91973,7.91973,0,0,0-1.5996,12.6504q2.3994,2.001,7.7675,3.2559,2.96925.6855,6.6534,1.3711,3.684.6855,6.1396,1.2558,7.481,1.7139,11.5371,5.8829Q803.40813,194.31925,803.40818,201.2851Z"/><path class="a" d="M893.34768,187.0078h-31.127v31.1269h-9.4805V187.0078h-31.1259v-9.1387h31.1259v-31.125h9.4805v31.125h31.127Z"/><rect class="b" y="219.6738" width="49.6064" height="49.60741"/><rect class="b" x="893.35248" y="219.6738" width="49.60652" height="49.60741"/><rect class="b" x="893.35248" y="-0.001" width="49.60652" height="49.60451"/><rect class="b" y="-0.001" width="49.6064" height="49.60451"/><rect class="b" y="-0.001" width="942.959" height="269.291"/><rect class="a" x="49.6064" y="49.59571" width="255.11819" height="170.07809"/><polygon class="c" points="177.177 68.493 179.278 75.057 186.152 75.028 180.565 79.049 182.724 85.584 177.177 81.514 171.617 85.588 173.776 79.049 168.181 75.028 175.067 75.057 177.177 68.493"/><polygon class="c" points="148.83 76.089 150.932 82.652 157.806 82.624 152.219 86.645 154.377 93.18 148.83 89.109 143.27 93.184 145.43 86.645 139.834 82.624 146.721 82.652 148.83 76.089"/><polygon class="c" points="128.081 96.84 130.181 103.403 137.056 103.375 131.469 107.395 133.627 113.931 128.08 109.859 122.52 113.936 124.68 107.396 119.084 103.375 125.971 103.404 128.081 96.84"/><polygon class="c" points="120.487 125.187 122.587 131.75 129.462 131.722 123.875 135.741 126.033 142.277 120.486 138.206 114.927 142.282 117.086 135.743 111.49 131.722 118.377 131.751 120.487 125.187"/><polygon class="c" points="128.083 153.532 130.183 160.096 137.058 160.068 131.47 164.087 133.628 170.624 128.081 166.553 122.522 170.629 124.682 164.09 119.085 160.067 125.973 160.097 128.083 153.532"/><polygon class="c" points="148.834 174.283 150.934 180.848 157.809 180.818 152.221 184.838 154.379 191.375 148.832 187.303 143.272 191.379 145.433 184.84 139.836 180.818 146.725 180.848 148.834 174.283"/><polygon class="c" points="177.183 181.876 179.283 188.44 186.158 188.411 180.57 192.431 182.728 198.968 177.181 194.895 171.621 198.972 173.781 192.433 168.185 188.411 175.074 188.44 177.183 181.876"/><polygon class="c" points="205.527 174.281 207.626 180.844 214.502 180.814 208.912 184.834 211.072 191.372 205.525 187.299 199.965 191.375 202.125 184.836 196.529 180.814 203.418 180.844 205.527 174.281"/><polygon class="c" points="226.277 153.529 228.375 160.093 235.251 160.064 229.662 164.084 231.822 170.621 226.275 166.549 220.715 170.625 222.875 164.086 217.279 160.064 224.168 160.093 226.277 153.529"/><polygon class="c" points="233.873 125.182 235.971 131.744 242.847 131.717 237.258 135.736 239.418 142.273 233.87 138.201 228.31 142.277 230.471 135.738 224.874 131.717 231.764 131.744 233.873 125.182"/><polygon class="c" points="226.277 96.838 228.375 103.401 235.25 103.374 229.661 107.394 231.822 113.93 226.274 109.858 220.714 113.935 222.875 107.396 217.279 103.372 224.168 103.401 226.277 96.838"/><polygon class="c" points="205.525 76.089 207.623 82.651 214.497 82.624 208.909 86.644 211.069 93.18 205.523 89.108 199.962 93.186 202.124 86.646 196.526 82.623 203.415 82.651 205.525 76.089"/></svg>