<svg xmlns="http://www.w3.org/2000/svg" viewBox="0 0 942.97358 269.29"><defs><style>.a{fill:#004a99;}.b{fill:none;}.c{fill:#ffed00;}</style></defs><title>EU flag-Erasmus+_vect_POS [PMS]</title><path class="a" d="M396.19139,219.6757H340.164v-85.041h56.0274v10.0528h-44.7198v23.3027h44.7198V178.041h-44.7198v31.584h44.7198Z"/><path class="a" d="M448.665,167.5898h-.5713a39.39624,39.39624,0,0,0-4.6543-.8281,47.81216,47.81216,0,0,0-5.3398-.2578,22.11537,22.11537,0,0,0-9.59479,2.1992,44.22252,44.22252,0,0,0-8.91011,5.6836v45.289h-10.7373V155.8808h10.7373v9.4238a52.67475,52.67475,0,0,1,11.2803-7.2812,24.58371,24.58371,0,0,1,9.96581-2.1426,40.00225,40.00225,0,0,1,4.05469.1446q1.25535.14055,3.7695.541Z"/><path class="a" d="M506.41789,219.6757h-10.6806v-6.7949q-1.4283.96975-3.85449,2.711a27.55027,27.55027,0,0,1-4.71191,2.7714,31.99112,31.99112,0,0,1-6.168,2.1973,33.3326,33.3326,0,0,1-8.167.8867,20.41557,20.41557,0,0,1-14.62109-5.7109,19.23738,19.23738,0,0,1-5.99711-14.5645q0-7.25385,3.1133-11.7363a20.76756,20.76756,0,0,1,8.8809-7.0527,47.869,47.869,0,0,1,13.9922-3.4844q8.16645-.9141,17.5332-1.3711v-1.6562a12.74372,12.74372,0,0,0-1.2842-6.0547,9.372,9.372,0,0,0-3.6846-3.7696,15.2516,15.2516,0,0,0-5.4824-1.7695,47.2335,47.2335,0,0,0-6.6826-.457,45.36023,45.36023,0,0,0-9.4229,1.1133,73.21414,73.21414,0,0,0-10.7373,3.2265h-.5713V157.2519q3.14072-.85545,9.0811-1.8848a68.52821,68.52821,0,0,1,11.708-1.0273,54.50225,54.50225,0,0,1,11.7363,1.1133,22.80719,22.80719,0,0,1,8.65241,3.7988,16.86391,16.86391,0,0,1,5.48339,6.7949,25.10236,25.10236,0,0,1,1.8847,10.3379Zm-10.6806-15.705V186.2089q-4.9116.28425-11.56449.8555a59.91467,59.91467,0,0,0-10.53811,1.6563,17.32471,17.32471,0,0,0-7.4814,4.0839,10.12883,10.12883,0,0,0-2.85549,7.625q0,5.48145,3.31249,8.252,3.312,2.77155,10.1094,2.7695a24.035,24.035,0,0,0,10.3369-2.1972A46.59742,46.59742,0,0,0,495.73729,203.9707Z"/><path class="a" d="M568.59759,201.2851a17.3614,17.3614,0,0,1-7.2246,14.336q-7.2261,5.5986-19.7324,5.5976a47.29507,47.29507,0,0,1-12.9932-1.6855,57.77763,57.77763,0,0,1-9.9092-3.6836V203.7988h.5713a43.07861,43.07861,0,0,0,11.3086,6.082,34.94513,34.94513,0,0,0,11.9366,2.2559q7.081,0,11.07911-2.2832a7.698,7.698,0,0,0,3.998-7.1973,7.27032,7.27032,0,0,0-2.16991-5.7109q-2.171-1.9395-8.3389-3.3125-2.2851-.5127-5.9678-1.1992-3.684-.68565-6.7109-1.4844-8.39505-2.22945-11.9082-6.5391a16.2306,16.2306,0,0,1-3.5117-10.5957,17.32487,17.32487,0,0,1,1.6269-7.4238,17.92675,17.92675,0,0,1,4.94051-6.2246,23.624,23.624,0,0,1,8.13859-4.2559,36.37715,36.37715,0,0,1,11.0508-1.5703,49.6908,49.6908,0,0,1,11.5654,1.3984,43.71666,43.71666,0,0,1,9.7383,3.3985v11.4804h-.5713a38.38683,38.38683,0,0,0-9.9951-5.1113,34.384,34.384,0,0,0-11.5361-2.0859,20.18362,20.18362,0,0,0-9.9375,2.2558,7.91973,7.91973,0,0,0-1.5996,12.6504q2.3994,2.001,7.7676,3.2559,2.9691.6855,6.6533,1.3711,3.684.6855,6.13961,1.2558,7.48094,1.7139,11.53709,5.8829Q568.59769,194.31925,568.59759,201.2851Z"/><path class="a" d="M673.0898,219.6757H662.35248V183.3535q0-4.1133-.3711-7.9395a16.7932,16.7932,0,0,0-1.5703-6.1113,8.68307,8.68307,0,0,0-3.7695-3.7129,15.95657,15.95657,0,0,0-7.0821-1.2559,20.01557,20.01557,0,0,0-9.0234,2.2559,55.39372,55.39372,0,0,0-9.0244,5.7402q.1713,1.3155.28612,3.0547.11277,1.74315.11428,3.4571v40.8339H621.1748V183.3535q0-4.2276-.37112-8.0254a16.71148,16.71148,0,0,0-1.5713-6.082,8.49836,8.49836,0,0,0-3.7695-3.6836,16.24927,16.24927,0,0,0-7.08108-1.2286,19.91622,19.91622,0,0,0-8.82422,2.17,52.76173,52.76173,0,0,0-8.82419,5.541v47.6308h-10.7373V155.8808h10.7373v7.0821a47.22621,47.22621,0,0,1,10.02341-6.5098,24.79967,24.79967,0,0,1,10.65138-2.3418,21.00513,21.00513,0,0,1,11.0517,2.7422,16.90783,16.90783,0,0,1,6.7676,7.5957,53.10219,53.10219,0,0,1,11.8789-7.9102,27.52447,27.52447,0,0,1,11.4795-2.4277q10.50888,0,15.5068,6.3672,4.99668,6.36915,4.99712,17.791Z"/><path class="a" d="M740.71968,219.6757h-10.7373v-7.082a52.25508,52.25508,0,0,1-10.3945,6.5684,25.931,25.931,0,0,1-10.9659,2.2851q-10.05165,0-15.6484-6.1406-5.5986-6.1377-5.5967-18.0176V155.8808h10.7363V192.205a64.5995,64.5995,0,0,0,.4571,8.3106,15.121,15.121,0,0,0,1.9424,5.9101,9.2076,9.2076,0,0,0,3.997,3.6563,17.5084,17.5084,0,0,0,7.1397,1.1406,22.82866,22.82866,0,0,0,9.10942-2.1699,42.49327,42.49327,0,0,0,9.22358-5.5391V155.8808h10.7373Z"/><path class="a" d="M803.415,201.2851a17.36135,17.36135,0,0,1-7.2246,14.336q-7.2261,5.5986-19.7324,5.5976a47.29431,47.29431,0,0,1-12.99318-1.6855,57.77727,57.77727,0,0,1-9.90922-3.6836V203.7988h.5713a43.07861,43.07861,0,0,0,11.3086,6.082,34.94459,34.94459,0,0,0,11.9365,2.2559q7.081,0,11.0791-2.2832a7.69786,7.69786,0,0,0,3.9981-7.1973,7.27032,7.27032,0,0,0-2.1699-5.7109q-2.17095-1.9395-8.3389-3.3125-2.2851-.5127-5.9678-1.1992-3.684-.68565-6.7109-1.4844-8.395-2.22945-11.9082-6.5391a16.23059,16.23059,0,0,1-3.51168-10.5957,17.32515,17.32515,0,0,1,1.62688-7.4238,17.92756,17.92756,0,0,1,4.9404-6.2246,23.62548,23.62548,0,0,1,8.13872-4.2559,36.377,36.377,0,0,1,11.05078-1.5703,49.69087,49.69087,0,0,1,11.5654,1.3984,43.71666,43.71666,0,0,1,9.7383,3.3985v11.4804h-.5713a38.38619,38.38619,0,0,0-9.9951-5.1113,34.38394,34.38394,0,0,0-11.53608-2.0859,20.18364,20.18364,0,0,0-9.93752,2.2558,7.91973,7.91973,0,0,0-1.5996,12.6504q2.3994,2.001,7.7675,3.2559,2.96925.6855,6.6534,1.3711t6.1396,1.2558q7.481,1.7139,11.5371,5.8829Q803.41493,194.31925,803.415,201.2851Z"/><path class="a" d="M893.35448,187.0078h-31.127v31.1269H852.747V187.0078h-31.1259v-9.1387H852.747v-31.125h9.4805v31.125h31.127Z"/><rect class="b" x="0.0068" y="219.6738" width="49.6064" height="49.60741"/><rect class="b" x="893.35928" y="219.6738" width="49.60652" height="49.60741"/><rect class="b" x="893.35928" y="-0.001" width="49.60652" height="49.60451"/><rect class="b" x="0.0068" y="-0.001" width="49.6064" height="49.60451"/><rect class="b" x="0.0068" y="-0.001" width="942.959" height="269.291"/><rect class="a" x="49.6132" y="49.59571" width="255.11819" height="170.07809"/><polygon class="c" points="177.184 68.493 179.285 75.057 186.159 75.028 180.572 79.049 182.73 85.584 177.184 81.514 171.624 85.588 173.783 79.049 168.187 75.028 175.074 75.057 177.184 68.493"/><polygon class="c" points="148.837 76.089 150.938 82.652 157.812 82.624 152.226 86.645 154.384 93.18 148.837 89.109 143.277 93.184 145.436 86.645 139.841 82.624 146.727 82.652 148.837 76.089"/><polygon class="c" points="128.088 96.84 130.187 103.403 137.062 103.375 131.476 107.395 133.634 113.931 128.087 109.859 122.527 113.936 124.686 107.396 119.091 103.375 125.977 103.404 128.088 96.84"/><polygon class="c" points="120.494 125.187 122.594 131.75 129.469 131.722 123.882 135.741 126.04 142.277 120.493 138.206 114.934 142.282 117.093 135.743 111.497 131.722 118.384 131.751 120.494 125.187"/><polygon class="c" points="128.09 153.532 130.189 160.096 137.064 160.068 131.476 164.087 133.635 170.624 128.088 166.553 122.529 170.629 124.688 164.09 119.092 160.067 125.979 160.097 128.09 153.532"/><polygon class="c" points="148.841 174.283 150.94 180.848 157.815 180.818 152.227 184.838 154.386 191.375 148.839 187.303 143.279 191.379 145.439 184.84 139.843 180.818 146.731 180.848 148.841 174.283"/><polygon class="c" points="177.189 181.876 179.29 188.44 186.165 188.411 180.577 192.431 182.735 198.968 177.187 194.895 171.628 198.972 173.788 192.433 168.192 188.411 175.081 188.44 177.189 181.876"/><polygon class="c" points="205.534 174.281 207.633 180.844 214.509 180.814 208.919 184.834 211.079 191.372 205.532 187.299 199.972 191.375 202.132 184.836 196.536 180.814 203.425 180.844 205.534 174.281"/><polygon class="c" points="226.284 153.529 228.382 160.093 235.258 160.064 229.669 164.084 231.829 170.621 226.282 166.549 220.722 170.625 222.882 164.086 217.286 160.064 224.175 160.093 226.284 153.529"/><polygon class="c" points="233.88 125.182 235.977 131.744 242.853 131.717 237.265 135.736 239.425 142.273 233.877 138.201 228.316 142.277 230.477 135.738 224.881 131.717 231.77 131.744 233.88 125.182"/><polygon class="c" points="226.284 96.838 228.382 103.401 235.257 103.374 229.668 107.394 231.829 113.93 226.281 109.858 220.721 113.935 222.882 107.396 217.286 103.372 224.175 103.401 226.284 96.838"/><polygon class="c" points="205.532 76.089 207.63 82.651 214.504 82.624 208.916 86.644 211.076 93.18 205.53 89.108 199.969 93.186 202.131 86.646 196.533 82.623 203.422 82.651 205.532 76.089"/></svg>